<svg id="PIKTO_LIGHT" xmlns="http://www.w3.org/2000/svg" viewBox="0 0 170 170"><title>light_black</title><rect x="77" y="136.7" width="16.1" height="3"/><path d="M111.9,16H58.1A12.5,12.5,0,0,0,45.6,28.5v113A12.5,12.5,0,0,0,58.1,154h53.9a12.5,12.5,0,0,0,12.5-12.5V28.5A12.5,12.5,0,0,0,111.9,16ZM58.1,19h53.9a9.5,9.5,0,0,1,9.5,9.5V42.9H48.6V28.5A9.5,9.5,0,0,1,58.1,19Zm63.4,26.9v77.9H48.6V45.9ZM111.9,151H58.1a9.5,9.5,0,0,1-9.5-9.5V126.8h72.9v14.7A9.5,9.5,0,0,1,111.9,151Z"/><path d="M94.2,96.9,98,98.3c-2.3,5.6-6.5,8.4-11.5,8.4-7.1,0-12.7-5.7-13.9-16.3H68.7V88.1h3.7c0-.6,0-1.2,0-1.7V85.2c0-.9,0-1.7.1-2.5H68.7V80.4h4c1.3-10.2,6.8-15.6,13.8-15.6,5,0,9.2,2.8,11.5,8.4l-3.8,1.4c-1.7-3.9-4.5-5.8-7.8-5.8S78,72.6,77,80.4H93.4l-.7,2.3H76.7c0,.8-.1,1.7-.1,2.6v.8c0,.6,0,1.3,0,1.9H91.4l-.7,2.4H76.9c1,8.2,4.8,12.3,9.6,12.3S92.4,100.8,94.2,96.9Z"/></svg>