<svg id="PIKTO_LIGHT" xmlns="http://www.w3.org/2000/svg" viewBox="0 0 170 170"><title>light_black</title><path d="M149.2,88.7h-5v-3h5c3.9,0,7.1-4.2,7.1-9.3V36.7c0-5.1-3.2-9.3-7.1-9.3H20.8c-3.9,0-7.1,4.2-7.1,9.3V76.4c0,5.1,3.2,9.3,7.1,9.3h5v3h-5c-5.6,0-10.1-5.5-10.1-12.3V36.7c0-6.8,4.5-12.3,10.1-12.3H149.2c5.6,0,10.1,5.5,10.1,12.3V76.4C159.3,83.2,154.8,88.7,149.2,88.7Z"/><rect x="124.7" y="42.3" width="19.4" height="3"/><path d="M144.1,60.9H25.9v3H36.5v80A10.1,10.1,0,0,0,46.6,154h76.7a10.1,10.1,0,0,0,10.1-10.1v-80h10.7Zm-104.6,83v-80h69.5V151H46.6A7.1,7.1,0,0,1,39.5,143.9Zm91,0a7.1,7.1,0,0,1-7.1,7.1H112.1V63.9h18.4Z"/><rect x="60.4" y="114" width="3" height="19.45"/></svg>