<svg id="PIKTO_LIGHT" xmlns="http://www.w3.org/2000/svg" viewBox="0 0 170 170"><title>light_black</title><rect x="60.5" y="107.3" width="3" height="15.5"/><rect x="106.5" y="107.3" width="3" height="15.5"/><rect x="83.5" y="107.3" width="3" height="15.5"/><rect x="60.5" y="77.3" width="3" height="15.5"/><rect x="106.5" y="77.3" width="3" height="15.5"/><rect x="83.5" y="77.3" width="3" height="15.5"/><rect x="60.5" y="50.3" width="3" height="15.5"/><rect x="106.5" y="50.3" width="3" height="15.5"/><rect x="83.5" y="50.3" width="3" height="15.5"/><rect x="60.5" y="20.3" width="3" height="15.5"/><rect x="106.5" y="20.3" width="3" height="15.5"/><rect x="83.5" y="20.3" width="3" height="15.5"/><path d="M128.6,160.5V6.5A1.5,1.5,0,0,0,127.1,5H42.9a1.5,1.5,0,0,0-1.5,1.5v154H8v3H162v-3Zm-65-.5V138.8H73V160Zm12.4.5V137.3a1.5,1.5,0,0,0-1.5-1.5H62.1a1.5,1.5,0,0,0-1.5,1.5v23.2H44.4V8h81.2V160.5Z"/></svg>