<svg id="PIKTO_LIGHT" xmlns="http://www.w3.org/2000/svg" viewBox="0 0 170 170"><title>light_black</title><rect x="64.6" y="74.1" width="87.9" height="3"/><rect x="64.6" y="92.9" width="54.1" height="3"/><rect x="64.6" y="25.4" width="87.9" height="3"/><rect x="64.6" y="44.1" width="54.1" height="3"/><rect x="64.6" y="122.9" width="87.9" height="3"/><rect x="64.6" y="141.6" width="54.1" height="3"/><path d="M31.9,52.1a16,16,0,1,1,16-16A16,16,0,0,1,31.9,52.1Zm0-29a13,13,0,1,0,13,13A13,13,0,0,0,31.9,23.1Z"/><path d="M31.9,149.9a16,16,0,1,1,16-16A16,16,0,0,1,31.9,149.9Zm0-29a13,13,0,1,0,13,13A13,13,0,0,0,31.9,120.9Z"/><path d="M31.9,100.8a16,16,0,1,1,16-16A16,16,0,0,1,31.9,100.8Zm0-29a13,13,0,1,0,13,13A13,13,0,0,0,31.9,71.8Z"/></svg>