<svg id="PIKTO_LIGHT" xmlns="http://www.w3.org/2000/svg" viewBox="0 0 170 170"><title>light_black</title><path d="M125.9,149.4l-.8-.2L85,124.7,44.9,149.2a1.5,1.5,0,0,1-2.2-1.6l10.9-45.8L17.8,71.3a1.5,1.5,0,0,1,.8-2.6l46.9-3.7,18-43.4a1.5,1.5,0,0,1,2.7,0l18,43.4,46.9,3.7a1.5,1.5,0,0,1,.8,2.6l-35.7,30.6,10.9,45.8a1.5,1.5,0,0,1-1.4,1.8ZM85,121.5l.8.2,37.9,23.1-10.3-43.2a1.5,1.5,0,0,1,.5-1.5l33.7-28.9-44.2-3.5a1.5,1.5,0,0,1-1.3-.9l-17-41-17,41a1.5,1.5,0,0,1-1.3.9L22.5,71.3l33.7,28.9a1.5,1.5,0,0,1,.5,1.5L46.4,144.8l37.9-23.1Z"/></svg>