<svg id="PIKTO_LIGHT" xmlns="http://www.w3.org/2000/svg" viewBox="0 0 170 170"><title>light_black</title><path d="M163.3,112.5h0L137.6,66.9h-36v3h34.2l23.5,41.9H118.7a1.5,1.5,0,0,0-1.5,1.5v23.2H52.7V113.2a1.5,1.5,0,0,0-1.5-1.5H10.5L33.8,69.9H68v-3H32.9a1.5,1.5,0,0,0-1.3.8L6.6,112.5h0a1.5,1.5,0,0,0-.2.7v50.3A1.5,1.5,0,0,0,8,165H162a1.5,1.5,0,0,0,1.5-1.5V113.2A1.5,1.5,0,0,0,163.3,112.5ZM160.5,162H9.5V114.7H49.7v23.2a1.5,1.5,0,0,0,1.5,1.5h67.5a1.5,1.5,0,0,0,1.5-1.5V114.7h40.3Z"/><polygon points="47.9 46.3 83.5 10.7 83.5 120.9 86.5 120.9 86.5 10.7 122 46.3 124.2 44.2 85 5 45.8 44.2 47.9 46.3"/></svg>