<svg id="PIKTO_LIGHT" xmlns="http://www.w3.org/2000/svg" viewBox="0 0 170 170"><title>light_black</title><path d="M153,122.2l-.9-2.8-5.3,1.8-32-96.7a1.5,1.5,0,0,0-1.9-1L62.3,40.2a1.5,1.5,0,0,0-1,1.9l32,96.7-5.3,1.8.9,2.8ZM64.7,42.5l47.6-15.8,31.6,95.3L96.3,137.8Z"/><rect x="81.6" y="49.8" width="24.8" height="3" transform="translate(-11.4 32.2) rotate(-18.3)"/><path d="M70.3,130.5,29.6,7.5a1.5,1.5,0,0,0-1.4-1H5v3H27.1L67,130h-.5a16.8,16.8,0,1,0,3.8.5Zm-3.8,30a13.7,13.7,0,1,1,13.7-13.7A13.7,13.7,0,0,1,66.5,160.5Z"/></svg>