<svg id="PIKTO_LIGHT" xmlns="http://www.w3.org/2000/svg" viewBox="0 0 170 170"><title>light_black</title><rect x="108.2" y="17.5" width="3" height="12.63"/><rect x="137.8" y="36.6" width="12.6" height="3" transform="translate(15.3 113.1) rotate(-45)"/><rect x="152.1" y="71" width="12.6" height="3"/><rect x="142.6" y="100.6" width="3" height="12.63" transform="translate(-33.4 133.3) rotate(-45)"/><rect x="73.8" y="31.8" width="3" height="12.63" transform="translate(-4.9 64.4) rotate(-45)"/><path d="M121.6,98.9A29,29,0,1,0,84.3,58.5L86.9,60a26,26,0,1,1,30.5,37.3l-2.7-.7a28.9,28.9,0,0,0-27.2-19v3a25.9,25.9,0,0,1,24.7,17.8l.3.9.9.2a26,26,0,0,1-4.4,51.6H42.6v3h66.4a29,29,0,0,0,12.6-55.1Z"/><path d="M35.2,154a29,29,0,0,1-9.7-56.3c0-.6,0-1.1,0-1.7A29,29,0,0,1,78.6,80.2l-2.5,1.6A26,26,0,0,0,28.4,96.1c0,.9,0,1.7.1,2.6v1.2l-1.2.4A26,26,0,0,0,35.2,151Z"/></svg>