<svg id="PIKTO_LIGHT" xmlns="http://www.w3.org/2000/svg" viewBox="0 0 170 170"><title>light_black</title><rect x="83.5" y="4.7" width="3" height="160.62"/><path d="M39.5,61.7a16,16,0,1,1,16-16A16,16,0,0,1,39.5,61.7Zm0-29a13,13,0,1,0,13,13A13,13,0,0,0,39.5,32.7Z"/><path d="M47,73.7a16,16,0,0,1,16,16v64.1H60V89.7a13,13,0,0,0-13-13H32a13,13,0,0,0-13,13v64.1H16V89.7a16,16,0,0,1,16-16Z"/><path d="M130.5,61.7a16,16,0,1,1,16-16A16,16,0,0,1,130.5,61.7Zm0-29a13,13,0,1,0,13,13A13,13,0,0,0,130.5,32.7Z"/><path d="M130.5,61.7a16,16,0,1,1,16-16A16,16,0,0,1,130.5,61.7Zm0-29a13,13,0,1,0,13,13A13,13,0,0,0,130.5,32.7Z"/><path d="M161,152l-7-40.1V89.7a16,16,0,0,0-16-16H123a16,16,0,0,0-16,16v22.3L100,152a1.5,1.5,0,0,0,1.5,1.7h58.1A1.5,1.5,0,0,0,161,152Zm-24-1.3H103.3l6.7-38.8V89.7a13,13,0,0,1,13-13h15a13,13,0,0,1,13,13v22.3l6.7,38.8Z"/></svg>