<svg id="PIKTO_LIGHT" xmlns="http://www.w3.org/2000/svg" viewBox="0 0 170 170"><title>light_black</title><path d="M60.8,79.4a34.6,34.6,0,1,0,42.7,45.7l-2.8-1.1A31.6,31.6,0,1,1,61.7,82.3Z"/><path d="M131.8,111.1h-23V71.3a13.1,13.1,0,0,0-13-13.1H83.3a13.1,13.1,0,0,0-13,13.1v29.6a13.2,13.2,0,0,0,13.2,13.2h30v34.4h3V114.1h13.8v34.4h3V112.6a1.5,1.5,0,0,0-1.5-1.5Zm-26,0H83.5a10.2,10.2,0,0,1-10.2-10.2V71.3a10.1,10.1,0,0,1,10-10.1H95.8a10.1,10.1,0,0,1,10,10.1Z"/><path d="M89.5,49.1a13.2,13.2,0,1,1,13.2-13.2A13.2,13.2,0,0,1,89.5,49.1Zm0-23.5A10.3,10.3,0,1,0,99.8,35.9,10.3,10.3,0,0,0,89.5,25.6Z"/></svg>