<svg xmlns="http://www.w3.org/2000/svg" viewBox="0 0 170 170"><path d="M129.9 130.5a20.2 20.2 0 01-28.5 0 23.1 23.1 0 00-32.8 0 20.2 20.2 0 01-28.5 0 23.2 23.2 0 00-32.8 0l2.1 2.1a20.3 20.3 0 0128.6 0 23.1 23.1 0 0032.7 0 20.2 20.2 0 0128.6 0 23.2 23.2 0 0032.7 0 20.3 20.3 0 0128.6 0l2.1-2.1a23.2 23.2 0 00-32.8 0zm31.7-57.7h-17.5V56.3a1.5 1.5 0 00-1.5-1.5H89.8a1.5 1.5 0 00-1.5 1.5v26.8h-17L77 47.3a1.9 1.9 0 00-.4-1.2 1.6 1.6 0 00-1.1-.5H40.6V26.1h-3v19.5h-8a1.5 1.5 0 00-1 .4 1.6 1.6 0 00-.5 1.1l.4 36h-14a1.5 1.5 0 00-1.5 1.5v30.2h3V99.2h132.5c-1.8 4.7-3.5 9.5-4.9 14.2l2.9.8c5.1-18 16.4-39 16.5-39.2a1.4 1.4 0 00-.1-1.4 1.3 1.3 0 00-1.3-.8zm-70.3-15h49.8v15h-23.6a1.6 1.6 0 00-1.1.5l-9.8 9.8H91.3zm58.4 38.4H16V86.1h14a1.6 1.6 0 001.1-.5 2.1 2.1 0 00.4-1.1l-.4-35.9h42.6l-5.6 35.8a1.4 1.4 0 00.3 1.2 1.7 1.7 0 001.2.5h37.6a2.1 2.1 0 001.1-.4l9.8-9.9h41.1c-1.9 3.7-5.8 11.5-9.5 20.4z"/></svg>