<svg id="PIKTOGRAM" xmlns="http://www.w3.org/2000/svg" viewBox="0 0 170 170"><title>light_black</title><metadata><?xpacket begin="﻿" id="W5M0MpCehiHzreSzNTczkc9d"?>
<x:xmpmeta xmlns:x="adobe:ns:meta/" x:xmptk="Adobe XMP Core 5.6-c137 79.159547, 2016/07/07-11:39:24        ">
   <rdf:RDF xmlns:rdf="http://www.w3.org/1999/02/22-rdf-syntax-ns#">
      <rdf:Description rdf:about=""
            xmlns:dc="http://purl.org/dc/elements/1.1/"
            xmlns:xmpMM="http://ns.adobe.com/xap/1.0/mm/"
            xmlns:stEvt="http://ns.adobe.com/xap/1.0/sType/ResourceEvent#"
            xmlns:xmp="http://ns.adobe.com/xap/1.0/">
         <dc:title>
            <rdf:Alt>
               <rdf:li xml:lang="x-default">light_black</rdf:li>
            </rdf:Alt>
         </dc:title>
         <xmpMM:PreservedFileName>light_black_3.svg</xmpMM:PreservedFileName>
         <xmpMM:InstanceID>xmp.iid:6c6dc7da-36c1-db48-b01e-83873b6ec26a</xmpMM:InstanceID>
         <xmpMM:DocumentID>xmp.did:6c6dc7da-36c1-db48-b01e-83873b6ec26a</xmpMM:DocumentID>
         <xmpMM:OriginalDocumentID>xmp.did:6c6dc7da-36c1-db48-b01e-83873b6ec26a</xmpMM:OriginalDocumentID>
         <xmpMM:History>
            <rdf:Seq>
               <rdf:li>
                  <rdf:Description>
                     <stEvt:action>saved</stEvt:action>
                     <stEvt:instanceID>xmp.iid:6c6dc7da-36c1-db48-b01e-83873b6ec26a</stEvt:instanceID>
                     <stEvt:when>2017-11-29T15:52:35+01:00</stEvt:when>
                     <stEvt:softwareAgent>Adobe Bridge CC 2017 (Windows)</stEvt:softwareAgent>
                     <stEvt:changed>/metadata</stEvt:changed>
                  </rdf:Description>
               </rdf:li>
            </rdf:Seq>
         </xmpMM:History>
         <xmp:MetadataDate>2017-11-29T15:52:35+01:00</xmp:MetadataDate>
      </rdf:Description>
   </rdf:RDF>
</x:xmpmeta>
                                                                                                    
                                                                                                    
                                                                                                    
                                                                                                    
                                                                                                    
                                                                                                    
                                                                                                    
                                                                                                    
                                                                                                    
                                                                                                    
                                                                                                    
                                                                                                    
                                                                                                    
                                                                                                    
                                                                                                    
                                                                                                    
                                                                                                    
                                                                                                    
                                                                                                    
                                                                                                    
                           
<?xpacket end="w"?></metadata>
<path d="M129.9,130.5a20.2,20.2,0,0,1-28.5,0,23.1,23.1,0,0,0-32.8,0,20.2,20.2,0,0,1-28.5,0,23.2,23.2,0,0,0-32.8,0l2.1,2.1a20.3,20.3,0,0,1,28.6,0,23.1,23.1,0,0,0,32.7,0,20.2,20.2,0,0,1,28.6,0,23.2,23.2,0,0,0,32.7,0,20.3,20.3,0,0,1,28.6,0l2.1-2.1a23.2,23.2,0,0,0-32.8,0Z"/><path d="M161.6,72.8H144.1V56.3a1.5,1.5,0,0,0-1.5-1.5H89.8a1.5,1.5,0,0,0-1.5,1.5V83.1h-17L77,47.3a1.9,1.9,0,0,0-.4-1.2,1.6,1.6,0,0,0-1.1-.5H40.6V26.1h-3V45.6h-8a1.5,1.5,0,0,0-1,.4,1.6,1.6,0,0,0-.5,1.1l.4,36h-14A1.5,1.5,0,0,0,13,84.6v30.2h3V99.2H148.5c-1.8,4.7-3.5,9.5-4.9,14.2l2.9.8c5.1-18,16.4-39,16.5-39.2a1.4,1.4,0,0,0-.1-1.4A1.3,1.3,0,0,0,161.6,72.8Zm-70.3-15h49.8v15H117.5a1.6,1.6,0,0,0-1.1.5l-9.8,9.8H91.3Zm58.4,38.4H16V86.1H30a1.6,1.6,0,0,0,1.1-.5,2.1,2.1,0,0,0,.4-1.1l-.4-35.9H73.7L68.1,84.4a1.4,1.4,0,0,0,.3,1.2,1.7,1.7,0,0,0,1.2.5h37.6a2.1,2.1,0,0,0,1.1-.4l9.8-9.9h41.1C157.3,79.5,153.4,87.3,149.7,96.2Z"/></svg>