<svg id="PIKTOGRAM" xmlns="http://www.w3.org/2000/svg" viewBox="0 0 170 170"><title>light_black</title><metadata><?xpacket begin="﻿" id="W5M0MpCehiHzreSzNTczkc9d"?>
<x:xmpmeta xmlns:x="adobe:ns:meta/" x:xmptk="Adobe XMP Core 5.6-c137 79.159547, 2016/07/07-11:39:24        ">
   <rdf:RDF xmlns:rdf="http://www.w3.org/1999/02/22-rdf-syntax-ns#">
      <rdf:Description rdf:about=""
            xmlns:dc="http://purl.org/dc/elements/1.1/"
            xmlns:xmpMM="http://ns.adobe.com/xap/1.0/mm/"
            xmlns:stEvt="http://ns.adobe.com/xap/1.0/sType/ResourceEvent#"
            xmlns:xmp="http://ns.adobe.com/xap/1.0/">
         <dc:title>
            <rdf:Alt>
               <rdf:li xml:lang="x-default">light_black</rdf:li>
            </rdf:Alt>
         </dc:title>
         <xmpMM:PreservedFileName>light_black_4.svg</xmpMM:PreservedFileName>
         <xmpMM:InstanceID>xmp.iid:11041354-391c-5b42-b145-c5f2ced1b2b4</xmpMM:InstanceID>
         <xmpMM:DocumentID>xmp.did:11041354-391c-5b42-b145-c5f2ced1b2b4</xmpMM:DocumentID>
         <xmpMM:OriginalDocumentID>xmp.did:11041354-391c-5b42-b145-c5f2ced1b2b4</xmpMM:OriginalDocumentID>
         <xmpMM:History>
            <rdf:Seq>
               <rdf:li>
                  <rdf:Description>
                     <stEvt:action>saved</stEvt:action>
                     <stEvt:instanceID>xmp.iid:11041354-391c-5b42-b145-c5f2ced1b2b4</stEvt:instanceID>
                     <stEvt:when>2017-11-29T15:52:35+01:00</stEvt:when>
                     <stEvt:softwareAgent>Adobe Bridge CC 2017 (Windows)</stEvt:softwareAgent>
                     <stEvt:changed>/metadata</stEvt:changed>
                  </rdf:Description>
               </rdf:li>
            </rdf:Seq>
         </xmpMM:History>
         <xmp:MetadataDate>2017-11-29T15:52:35+01:00</xmp:MetadataDate>
      </rdf:Description>
   </rdf:RDF>
</x:xmpmeta>
                                                                                                    
                                                                                                    
                                                                                                    
                                                                                                    
                                                                                                    
                                                                                                    
                                                                                                    
                                                                                                    
                                                                                                    
                                                                                                    
                                                                                                    
                                                                                                    
                                                                                                    
                                                                                                    
                                                                                                    
                                                                                                    
                                                                                                    
                                                                                                    
                                                                                                    
                                                                                                    
                           
<?xpacket end="w"?></metadata>
<path d="M8,123.5H26.4a15.8,15.8,0,0,0,31.5,0h54.2a15.8,15.8,0,0,0,31.5,0H162a1.5,1.5,0,0,0,1.5-1.5V96.6a7.4,7.4,0,0,0-5.1-7.1l-14.3-5.3-7.2-17.5a7.5,7.5,0,0,0-7-4.8h-25V33.6a1.5,1.5,0,0,0-1.5-1.5H8a1.5,1.5,0,0,0-1.5,1.5V122A1.5,1.5,0,0,0,8,123.5Zm34.2,11.4a12.9,12.9,0,1,1,0-25.7,12.9,12.9,0,0,1,0,25.7Zm85.6,0A12.9,12.9,0,1,1,140.7,122,12.8,12.8,0,0,1,127.8,134.9ZM9.5,35.1h92.4V93.3H9.5Zm0,61.2h93.9a1.5,1.5,0,0,0,1.5-1.5V64.9h25a4.6,4.6,0,0,1,4.2,2.9l7.5,18.1a1.4,1.4,0,0,0,.9.8l14.9,5.6a4.4,4.4,0,0,1,3.1,4.3v23.9H143.6a15.8,15.8,0,0,0-31.5,0H57.9a15.8,15.8,0,0,0-31.5,0H9.5Z"/><rect x="113.5" y="86.5" width="15" height="3"/></svg>