<svg id="PIKTOGRAM" xmlns="http://www.w3.org/2000/svg" viewBox="0 0 170 170"><title>light_black</title><metadata><?xpacket begin="﻿" id="W5M0MpCehiHzreSzNTczkc9d"?>
<x:xmpmeta xmlns:x="adobe:ns:meta/" x:xmptk="Adobe XMP Core 5.6-c137 79.159547, 2016/07/07-11:39:24        ">
   <rdf:RDF xmlns:rdf="http://www.w3.org/1999/02/22-rdf-syntax-ns#">
      <rdf:Description rdf:about=""
            xmlns:dc="http://purl.org/dc/elements/1.1/"
            xmlns:xmpMM="http://ns.adobe.com/xap/1.0/mm/"
            xmlns:stEvt="http://ns.adobe.com/xap/1.0/sType/ResourceEvent#"
            xmlns:xmp="http://ns.adobe.com/xap/1.0/">
         <dc:title>
            <rdf:Alt>
               <rdf:li xml:lang="x-default">light_black</rdf:li>
            </rdf:Alt>
         </dc:title>
         <xmpMM:PreservedFileName>light_black_5.svg</xmpMM:PreservedFileName>
         <xmpMM:InstanceID>xmp.iid:8c8ad4a2-4446-6843-91c1-7e3195cc7bfe</xmpMM:InstanceID>
         <xmpMM:DocumentID>xmp.did:8c8ad4a2-4446-6843-91c1-7e3195cc7bfe</xmpMM:DocumentID>
         <xmpMM:OriginalDocumentID>xmp.did:8c8ad4a2-4446-6843-91c1-7e3195cc7bfe</xmpMM:OriginalDocumentID>
         <xmpMM:History>
            <rdf:Seq>
               <rdf:li>
                  <rdf:Description>
                     <stEvt:action>saved</stEvt:action>
                     <stEvt:instanceID>xmp.iid:8c8ad4a2-4446-6843-91c1-7e3195cc7bfe</stEvt:instanceID>
                     <stEvt:when>2017-11-29T15:52:35+01:00</stEvt:when>
                     <stEvt:softwareAgent>Adobe Bridge CC 2017 (Windows)</stEvt:softwareAgent>
                     <stEvt:changed>/metadata</stEvt:changed>
                  </rdf:Description>
               </rdf:li>
            </rdf:Seq>
         </xmpMM:History>
         <xmp:MetadataDate>2017-11-29T15:52:35+01:00</xmp:MetadataDate>
      </rdf:Description>
   </rdf:RDF>
</x:xmpmeta>
                                                                                                    
                                                                                                    
                                                                                                    
                                                                                                    
                                                                                                    
                                                                                                    
                                                                                                    
                                                                                                    
                                                                                                    
                                                                                                    
                                                                                                    
                                                                                                    
                                                                                                    
                                                                                                    
                                                                                                    
                                                                                                    
                                                                                                    
                                                                                                    
                                                                                                    
                                                                                                    
                           
<?xpacket end="w"?></metadata>
<path d="M124.3,24a1.7,1.7,0,0,0-2.1,0L105.3,40.9l-.6.7a17.3,17.3,0,0,1-9.6,4.8l-4.5.7-3,.7-5.6-2a15.2,15.2,0,0,0-5.3-1.3H75.1c-3.3-.5-7-1-9.9-3.3L48.4,24.3a1.4,1.4,0,0,0-2.1,0L6.9,63.6a1.6,1.6,0,0,0,0,2.2L23.8,82.6,38.1,96.9a9.4,9.4,0,0,0,.1,13.3,8.9,8.9,0,0,0,6.3,2.7,9.6,9.6,0,0,0-2,5.9,9.4,9.4,0,0,0,2.7,6.7,9.6,9.6,0,0,0,6.7,2.7,10,10,0,0,0,3.8-.8,9.4,9.4,0,0,0,9.3,10,8.6,8.6,0,0,0,3.9-.9,9.3,9.3,0,0,0,9.4,9.9,9.6,9.6,0,0,0,6.6-2.7l.3-.3,3.4-3.4h0l.3-.2.3-.3h.1a21.4,21.4,0,0,0,1.3-1.9,9.1,9.1,0,0,0,5.6,1.8,9.6,9.6,0,0,0,6.6-2.7,9.1,9.1,0,0,0,2.7-6.6v-.2a10.3,10.3,0,0,0,4.5,1.1,9.3,9.3,0,0,0,8.9-12.2h1.2a9.1,9.1,0,0,0,6.6-2.8,9.2,9.2,0,0,0,0-13.2l-.7-.7,20.2-20.2,16.9-16.9a1.4,1.4,0,0,0,0-2.1ZM10.1,64.7,47.3,27.5,62.1,42.2,24.9,79.4Zm34.7,45.2a6.3,6.3,0,0,1-4.5-1.8,6.5,6.5,0,0,1,0-9.1l4-4a6.5,6.5,0,0,1,9,0,6.5,6.5,0,0,1,0,9.1l-2,2h0l-1.2,1.2-.8.8A6.3,6.3,0,0,1,44.8,109.9Zm13.6,11.4-2,2a6.4,6.4,0,0,1-4.5,1.9,6.6,6.6,0,0,1-4.6-1.9,6.5,6.5,0,0,1,0-9l4.9-4.9,1.2-1.2a6.6,6.6,0,0,1,4.6-1.9,6.4,6.4,0,0,1,4.5,10.9l-4.1,4.1Zm11.1,11.2a6.4,6.4,0,0,1-9-9l4.1-4.1a6.3,6.3,0,0,1,9,0,6.3,6.3,0,0,1,0,9l-.9,1Zm17.6,4.7h-.2v.2h-.1L83,141.3h-.2a6.3,6.3,0,0,1-9,0,6.3,6.3,0,0,1,0-9l4.1-4.1H78a6.4,6.4,0,0,1,9.1,8.9Zm37.5-23.4a6.3,6.3,0,0,1-9,0L97.7,95.9,95.6,98l17.9,17.9a5.2,5.2,0,0,0,1.1,1h-.1a6.3,6.3,0,0,1,0,9,6.5,6.5,0,0,1-9,0L86.6,107l-2.2,2.1,16.3,16.3a6.3,6.3,0,0,1,1.8,4.5,6.2,6.2,0,0,1-1.8,4.4,6.3,6.3,0,0,1-9,0l-.2.2a9.3,9.3,0,0,0-13-10,10.1,10.1,0,0,0-2.7-7.3,9.8,9.8,0,0,0-6.7-2.7l-2,.2A9.4,9.4,0,0,0,58,103.3h-.6a9.3,9.3,0,0,0-2-10.4,9.4,9.4,0,0,0-13.2,0l-2,1.9L27,81.6,64.4,44.2c3.3,2.1,7,2.7,10.3,3.1l1.7.2a12.3,12.3,0,0,1,4.3,1h.2l2.7,1a25.9,25.9,0,0,0-4.2,3.2L61,71.2a7.2,7.2,0,0,0,3.7,12.1c5.7,1.1,13.6-2.6,17.7-6.8l5.4-5.3a2.2,2.2,0,0,1,3.2,0l22.6,22.6h0l11,11A6.3,6.3,0,0,1,124.6,113.8Zm-.7-14L104.1,80.1h0l-11-11a5.1,5.1,0,0,0-7.4,0l-5.4,5.3c-3.6,3.6-10.5,6.8-15,5.9a4.2,4.2,0,0,1-3.2-2.8,4.3,4.3,0,0,1,1-4.2L81.5,55a17.4,17.4,0,0,1,9.6-4.9l4.5-.7a20.8,20.8,0,0,0,10.8-5.3L143,80.7Zm21.2-21.2L108.5,42l14.8-14.8,36.6,36.6Z"/></svg>