<svg id="PIKTOGRAM" xmlns="http://www.w3.org/2000/svg" viewBox="0 0 170 170"><title>light_black</title><metadata><?xpacket begin="﻿" id="W5M0MpCehiHzreSzNTczkc9d"?>
<x:xmpmeta xmlns:x="adobe:ns:meta/" x:xmptk="Adobe XMP Core 5.6-c137 79.159547, 2016/07/07-11:39:24        ">
   <rdf:RDF xmlns:rdf="http://www.w3.org/1999/02/22-rdf-syntax-ns#">
      <rdf:Description rdf:about=""
            xmlns:dc="http://purl.org/dc/elements/1.1/"
            xmlns:xmpMM="http://ns.adobe.com/xap/1.0/mm/"
            xmlns:stEvt="http://ns.adobe.com/xap/1.0/sType/ResourceEvent#"
            xmlns:xmp="http://ns.adobe.com/xap/1.0/">
         <dc:title>
            <rdf:Alt>
               <rdf:li xml:lang="x-default">light_black</rdf:li>
            </rdf:Alt>
         </dc:title>
         <xmpMM:PreservedFileName>light_black_7.svg</xmpMM:PreservedFileName>
         <xmpMM:InstanceID>xmp.iid:3c202c5c-1280-a243-bd9f-89eed8f51603</xmpMM:InstanceID>
         <xmpMM:DocumentID>xmp.did:3c202c5c-1280-a243-bd9f-89eed8f51603</xmpMM:DocumentID>
         <xmpMM:OriginalDocumentID>xmp.did:3c202c5c-1280-a243-bd9f-89eed8f51603</xmpMM:OriginalDocumentID>
         <xmpMM:History>
            <rdf:Seq>
               <rdf:li>
                  <rdf:Description>
                     <stEvt:action>saved</stEvt:action>
                     <stEvt:instanceID>xmp.iid:3c202c5c-1280-a243-bd9f-89eed8f51603</stEvt:instanceID>
                     <stEvt:when>2017-11-29T15:52:35+01:00</stEvt:when>
                     <stEvt:softwareAgent>Adobe Bridge CC 2017 (Windows)</stEvt:softwareAgent>
                     <stEvt:changed>/metadata</stEvt:changed>
                  </rdf:Description>
               </rdf:li>
            </rdf:Seq>
         </xmpMM:History>
         <xmp:MetadataDate>2017-11-29T15:52:35+01:00</xmp:MetadataDate>
      </rdf:Description>
   </rdf:RDF>
</x:xmpmeta>
                                                                                                    
                                                                                                    
                                                                                                    
                                                                                                    
                                                                                                    
                                                                                                    
                                                                                                    
                                                                                                    
                                                                                                    
                                                                                                    
                                                                                                    
                                                                                                    
                                                                                                    
                                                                                                    
                                                                                                    
                                                                                                    
                                                                                                    
                                                                                                    
                                                                                                    
                                                                                                    
                           
<?xpacket end="w"?></metadata>
<path d="M162,10H8a1.5,1.5,0,0,0-1.5,1.5V58.1A1.5,1.5,0,0,0,8,59.6H83.5V71.9H8a1.5,1.5,0,0,0-1.5,1.5v46.7A1.5,1.5,0,0,0,8,121.6H83.5v10.8A14.2,14.2,0,0,0,70.9,145H17.5v3H70.9a14.2,14.2,0,0,0,28.2,0h53.4v-3H99.1a14.2,14.2,0,0,0-12.6-12.6V121.6H162a1.5,1.5,0,0,0,1.5-1.5V73.4a1.5,1.5,0,0,0-1.5-1.5H86.5V59.6H162a1.5,1.5,0,0,0,1.5-1.5V11.5A1.5,1.5,0,0,0,162,10ZM96.2,146.5A11.2,11.2,0,1,1,85,135.3,11.2,11.2,0,0,1,96.2,146.5Zm64.3-27.9H9.5V74.9h151Zm0-62H9.5V13h151Z"/><rect x="25" y="26.3" width="23.4" height="3"/><rect x="25" y="40.5" width="23.4" height="3"/><rect x="141.2" y="29.3" width="3" height="11.29"/><rect x="25" y="88.2" width="23.4" height="3"/><rect x="25" y="102.5" width="23.4" height="3"/><rect x="141.2" y="91.2" width="3" height="11.29"/></svg>