<svg id="PIKTOGRAM" xmlns="http://www.w3.org/2000/svg" viewBox="0 0 170 170"><title>light_black</title><metadata><?xpacket begin="﻿" id="W5M0MpCehiHzreSzNTczkc9d"?>
<x:xmpmeta xmlns:x="adobe:ns:meta/" x:xmptk="Adobe XMP Core 5.6-c137 79.159547, 2016/07/07-11:39:24        ">
   <rdf:RDF xmlns:rdf="http://www.w3.org/1999/02/22-rdf-syntax-ns#">
      <rdf:Description rdf:about=""
            xmlns:dc="http://purl.org/dc/elements/1.1/"
            xmlns:xmpMM="http://ns.adobe.com/xap/1.0/mm/"
            xmlns:stEvt="http://ns.adobe.com/xap/1.0/sType/ResourceEvent#"
            xmlns:xmp="http://ns.adobe.com/xap/1.0/">
         <dc:title>
            <rdf:Alt>
               <rdf:li xml:lang="x-default">light_black</rdf:li>
            </rdf:Alt>
         </dc:title>
         <xmpMM:PreservedFileName>light_black_9.svg</xmpMM:PreservedFileName>
         <xmpMM:InstanceID>xmp.iid:0328a5b5-fec9-9f4f-aa5e-edcd5a3c26ab</xmpMM:InstanceID>
         <xmpMM:DocumentID>xmp.did:0328a5b5-fec9-9f4f-aa5e-edcd5a3c26ab</xmpMM:DocumentID>
         <xmpMM:OriginalDocumentID>xmp.did:0328a5b5-fec9-9f4f-aa5e-edcd5a3c26ab</xmpMM:OriginalDocumentID>
         <xmpMM:History>
            <rdf:Seq>
               <rdf:li>
                  <rdf:Description>
                     <stEvt:action>saved</stEvt:action>
                     <stEvt:instanceID>xmp.iid:0328a5b5-fec9-9f4f-aa5e-edcd5a3c26ab</stEvt:instanceID>
                     <stEvt:when>2017-11-29T15:52:35+01:00</stEvt:when>
                     <stEvt:softwareAgent>Adobe Bridge CC 2017 (Windows)</stEvt:softwareAgent>
                     <stEvt:changed>/metadata</stEvt:changed>
                  </rdf:Description>
               </rdf:li>
            </rdf:Seq>
         </xmpMM:History>
         <xmp:MetadataDate>2017-11-29T15:52:35+01:00</xmp:MetadataDate>
      </rdf:Description>
   </rdf:RDF>
</x:xmpmeta>
                                                                                                    
                                                                                                    
                                                                                                    
                                                                                                    
                                                                                                    
                                                                                                    
                                                                                                    
                                                                                                    
                                                                                                    
                                                                                                    
                                                                                                    
                                                                                                    
                                                                                                    
                                                                                                    
                                                                                                    
                                                                                                    
                                                                                                    
                                                                                                    
                                                                                                    
                                                                                                    
                           
<?xpacket end="w"?></metadata>
<path d="M117.9,152.4V165h3V152.4a31.9,31.9,0,0,0,30.3-31.8,1.5,1.5,0,0,0-1.5-1.5,31.8,31.8,0,0,0-30.3,22.2,31.8,31.8,0,0,0-30.3-22.2,1.5,1.5,0,0,0-1.5,1.5A31.9,31.9,0,0,0,117.9,152.4Zm30.2-30.2a28.8,28.8,0,0,1-27.2,27.2A28.8,28.8,0,0,1,148.1,122.2Zm-30.2,27.2a28.8,28.8,0,0,1-27.2-27.2A28.8,28.8,0,0,1,117.9,149.4Z"/><path d="M119.4,117.1a31.9,31.9,0,0,0,31.8-31.8,1.5,1.5,0,0,0-1.5-1.5,31.8,31.8,0,0,0-30.3,22.1A31.8,31.8,0,0,0,89.1,83.8a1.5,1.5,0,0,0-1.5,1.5A31.9,31.9,0,0,0,119.4,117.1Zm28.7-30.3a28.8,28.8,0,0,1-27.2,27.3A28.9,28.9,0,0,1,148.1,86.8Zm-30.2,27.3A28.8,28.8,0,0,1,90.7,86.8,28.9,28.9,0,0,1,117.9,114.1Z"/><path d="M87.6,50a31.8,31.8,0,1,0,63.6,0,1.5,1.5,0,0,0-1.5-1.5,31.8,31.8,0,0,0-30.3,22.1A31.8,31.8,0,0,0,89.1,48.5,1.5,1.5,0,0,0,87.6,50Zm60.5,1.5a28.6,28.6,0,0,1-27.2,27.2A28.9,28.9,0,0,1,148.1,51.5ZM117.9,78.7A28.6,28.6,0,0,1,90.7,51.5,28.9,28.9,0,0,1,117.9,78.7Z"/><path d="M119.4,52.3a1.5,1.5,0,0,0,1.1-.4,31.9,31.9,0,0,0,0-45,1.8,1.8,0,0,0-2.2,0,31.9,31.9,0,0,0,0,45A1.5,1.5,0,0,0,119.4,52.3Zm0-42.1a28.8,28.8,0,0,1,0,38.4A28.1,28.1,0,0,1,112,29.4,28.3,28.3,0,0,1,119.4,10.2Z"/><path d="M44.1,146.1V165h3V146.1a26.8,26.8,0,0,0,25.3-26.7,1.5,1.5,0,0,0-1.5-1.5,26.9,26.9,0,0,0-25.3,17.9,26.9,26.9,0,0,0-25.3-17.9,1.5,1.5,0,0,0-1.5,1.5A26.8,26.8,0,0,0,44.1,146.1Zm25.2-25.2a23.8,23.8,0,0,1-22.1,22.2A23.8,23.8,0,0,1,69.3,120.9ZM44.1,143.1a23.8,23.8,0,0,1-22.2-22.2A23.9,23.9,0,0,1,44.1,143.1Z"/><path d="M18.8,84.3a26.8,26.8,0,0,0,53.6,0,1.5,1.5,0,0,0-1.5-1.5,26.8,26.8,0,0,0-25.3,18,26.8,26.8,0,0,0-25.3-18A1.5,1.5,0,0,0,18.8,84.3Zm50.5,1.6a23.8,23.8,0,0,1-22.1,22.2A23.7,23.7,0,0,1,69.3,85.9ZM44.1,108.1A23.8,23.8,0,0,1,21.9,85.9,23.8,23.8,0,0,1,44.1,108.1Z"/><path d="M45.6,80.7a1.6,1.6,0,0,0,1.1-.5,26.9,26.9,0,0,0,0-37.9,1.6,1.6,0,0,0-2.2,0,26.9,26.9,0,0,0,0,37.9A1.6,1.6,0,0,0,45.6,80.7Zm0-35.1a23.5,23.5,0,0,1,5.9,15.7A23.9,23.9,0,0,1,45.6,77,23.8,23.8,0,0,1,45.6,45.6Z"/></svg>