<svg id="PIKTOGRAM" xmlns="http://www.w3.org/2000/svg" viewBox="0 0 170 170"><title>light_black</title><metadata><?xpacket begin="﻿" id="W5M0MpCehiHzreSzNTczkc9d"?>
<x:xmpmeta xmlns:x="adobe:ns:meta/" x:xmptk="Adobe XMP Core 5.6-c137 79.159547, 2016/07/07-11:39:24        ">
   <rdf:RDF xmlns:rdf="http://www.w3.org/1999/02/22-rdf-syntax-ns#">
      <rdf:Description rdf:about=""
            xmlns:dc="http://purl.org/dc/elements/1.1/"
            xmlns:xmpMM="http://ns.adobe.com/xap/1.0/mm/"
            xmlns:stEvt="http://ns.adobe.com/xap/1.0/sType/ResourceEvent#"
            xmlns:xmp="http://ns.adobe.com/xap/1.0/">
         <dc:title>
            <rdf:Alt>
               <rdf:li xml:lang="x-default">light_black</rdf:li>
            </rdf:Alt>
         </dc:title>
         <xmpMM:PreservedFileName>light_black_17.svg</xmpMM:PreservedFileName>
         <xmpMM:InstanceID>xmp.iid:d5356684-b52e-454e-b57d-f89fe8517000</xmpMM:InstanceID>
         <xmpMM:DocumentID>xmp.did:d5356684-b52e-454e-b57d-f89fe8517000</xmpMM:DocumentID>
         <xmpMM:OriginalDocumentID>xmp.did:d5356684-b52e-454e-b57d-f89fe8517000</xmpMM:OriginalDocumentID>
         <xmpMM:History>
            <rdf:Seq>
               <rdf:li>
                  <rdf:Description>
                     <stEvt:action>saved</stEvt:action>
                     <stEvt:instanceID>xmp.iid:d5356684-b52e-454e-b57d-f89fe8517000</stEvt:instanceID>
                     <stEvt:when>2017-11-29T15:52:36+01:00</stEvt:when>
                     <stEvt:softwareAgent>Adobe Bridge CC 2017 (Windows)</stEvt:softwareAgent>
                     <stEvt:changed>/metadata</stEvt:changed>
                  </rdf:Description>
               </rdf:li>
            </rdf:Seq>
         </xmpMM:History>
         <xmp:MetadataDate>2017-11-29T15:52:36+01:00</xmp:MetadataDate>
      </rdf:Description>
   </rdf:RDF>
</x:xmpmeta>
                                                                                                    
                                                                                                    
                                                                                                    
                                                                                                    
                                                                                                    
                                                                                                    
                                                                                                    
                                                                                                    
                                                                                                    
                                                                                                    
                                                                                                    
                                                                                                    
                                                                                                    
                                                                                                    
                                                                                                    
                                                                                                    
                                                                                                    
                                                                                                    
                                                                                                    
                                                                                                    
                           
<?xpacket end="w"?></metadata>
<path d="M85.9,6.5A49.8,49.8,0,0,0,51.2,93a15.8,15.8,0,0,1,5.1,11.7h3a19,19,0,0,0-6.1-13.9A47,47,0,0,1,38.1,55.6,47.1,47.1,0,0,1,85.9,9.5a46.9,46.9,0,0,1,30.8,81.4,18.9,18.9,0,0,0-6,13.8h3a15.4,15.4,0,0,1,5.1-11.6A49.9,49.9,0,0,0,85.9,6.5Z"/><path d="M85,160.5c-7.5,0-13.6-5.4-13.6-12.1h-3c0,8.3,7.4,15.1,16.6,15.1s16.6-6.8,16.6-15.1h-3C98.6,155.1,92.5,160.5,85,160.5Z"/><path d="M113.6,120.6a8,8,0,0,0-8-8.1H99.4V51.3h-3v3.9c0,4-5.4,7.4-11.8,7.4s-11.9-3.4-11.9-7.4V51.3h-3v61.2H64.4a8,8,0,0,0-8,8.1,7.7,7.7,0,0,0,3.4,6.5,8,8,0,0,0,4.6,14.6h41.2a8,8,0,0,0,4.6-14.6A7.7,7.7,0,0,0,113.6,120.6ZM72.7,61.5c2.7,2.5,7,4.1,11.9,4.1a17.5,17.5,0,0,0,11.8-4.1v51H72.7Zm37.9,72.2a5,5,0,0,1-5,5H64.4a5,5,0,0,1-5-5,5,5,0,0,1,5-5.1h41.2A5,5,0,0,1,110.6,133.7Zm-5-8.1H64.4a5,5,0,0,1-5-5,5,5,0,0,1,5-5.1h41.2a5,5,0,0,1,5,5.1A5,5,0,0,1,105.6,125.6Z"/></svg>