<svg id="PIKTO_LIGHT" xmlns="http://www.w3.org/2000/svg" viewBox="0 0 170 170"><title>light_black</title><path d="M152.8,19H16.8A10.5,10.5,0,0,0,6.3,29.5v83.4a10.5,10.5,0,0,0,10.5,10.5H62.2v10.3a14.2,14.2,0,0,1-14.2,14.2,1.5,1.5,0,0,0,0,3h73.6a1.5,1.5,0,1,0,0-3,14.2,14.2,0,0,1-14.2-14.2V123.4h45.3a10.5,10.5,0,0,0,10.5-10.5V29.5A10.5,10.5,0,0,0,152.8,19Zm-136,3h136a7.5,7.5,0,0,1,7.5,7.5v6.2H9.3V29.5A7.5,7.5,0,0,1,16.8,22ZM160.3,38.7v65.9H9.3V38.7ZM112,147.9H57.8a17.2,17.2,0,0,0,7.5-14.2V123.4h39.3v10.3A17.2,17.2,0,0,0,112,147.9Zm40.8-27.4H16.8a7.5,7.5,0,0,1-7.5-7.5v-5.2h151v5.2A7.5,7.5,0,0,1,152.8,120.4Z"/></svg>