<svg id="PIKTOGRAM" xmlns="http://www.w3.org/2000/svg" viewBox="0 0 170 170"><title>light_black</title><metadata><?xpacket begin="﻿" id="W5M0MpCehiHzreSzNTczkc9d"?>
<x:xmpmeta xmlns:x="adobe:ns:meta/" x:xmptk="Adobe XMP Core 5.6-c137 79.159547, 2016/07/07-11:39:24        ">
   <rdf:RDF xmlns:rdf="http://www.w3.org/1999/02/22-rdf-syntax-ns#">
      <rdf:Description rdf:about=""
            xmlns:dc="http://purl.org/dc/elements/1.1/"
            xmlns:xmpMM="http://ns.adobe.com/xap/1.0/mm/"
            xmlns:stEvt="http://ns.adobe.com/xap/1.0/sType/ResourceEvent#"
            xmlns:xmp="http://ns.adobe.com/xap/1.0/">
         <dc:title>
            <rdf:Alt>
               <rdf:li xml:lang="x-default">light_black</rdf:li>
            </rdf:Alt>
         </dc:title>
         <xmpMM:PreservedFileName>light_black_18.svg</xmpMM:PreservedFileName>
         <xmpMM:InstanceID>xmp.iid:30371522-0dd9-b842-afec-00a235bbcb31</xmpMM:InstanceID>
         <xmpMM:DocumentID>xmp.did:30371522-0dd9-b842-afec-00a235bbcb31</xmpMM:DocumentID>
         <xmpMM:OriginalDocumentID>xmp.did:30371522-0dd9-b842-afec-00a235bbcb31</xmpMM:OriginalDocumentID>
         <xmpMM:History>
            <rdf:Seq>
               <rdf:li>
                  <rdf:Description>
                     <stEvt:action>saved</stEvt:action>
                     <stEvt:instanceID>xmp.iid:30371522-0dd9-b842-afec-00a235bbcb31</stEvt:instanceID>
                     <stEvt:when>2017-11-29T15:52:36+01:00</stEvt:when>
                     <stEvt:softwareAgent>Adobe Bridge CC 2017 (Windows)</stEvt:softwareAgent>
                     <stEvt:changed>/metadata</stEvt:changed>
                  </rdf:Description>
               </rdf:li>
            </rdf:Seq>
         </xmpMM:History>
         <xmp:MetadataDate>2017-11-29T15:52:36+01:00</xmp:MetadataDate>
      </rdf:Description>
   </rdf:RDF>
</x:xmpmeta>
                                                                                                    
                                                                                                    
                                                                                                    
                                                                                                    
                                                                                                    
                                                                                                    
                                                                                                    
                                                                                                    
                                                                                                    
                                                                                                    
                                                                                                    
                                                                                                    
                                                                                                    
                                                                                                    
                                                                                                    
                                                                                                    
                                                                                                    
                                                                                                    
                                                                                                    
                                                                                                    
                           
<?xpacket end="w"?></metadata>
<path d="M85,9.3a18.1,18.1,0,0,1,18,18.1h3a21,21,0,1,0-42,0h3A18.1,18.1,0,0,1,85,9.3Z"/><path d="M85,31.9a65.9,65.9,0,1,0,65.9,65.9A66,66,0,0,0,85,31.9Zm0,128.8a62.9,62.9,0,1,1,62.9-62.9A62.9,62.9,0,0,1,85,160.7Z"/><path d="M97.2,109.3l22.2-43.9a1.5,1.5,0,0,0-.3-1.8,1.5,1.5,0,0,0-1.7-.2L73.5,85.6l-.7.7L50.6,130.2a1.4,1.4,0,0,0,.3,1.7,1.2,1.2,0,0,0,1,.5l.7-.2,43.9-22.3A1.3,1.3,0,0,0,97.2,109.3Zm-1.8-3.2L76.7,87.4l38-19.3ZM74.6,89.5l18.7,18.7-38,19.3Z"/><rect x="83.5" y="43.4" width="3" height="15.46"/><rect x="83.5" y="136.7" width="3" height="15.46"/><path d="M109.5,108.8l-2.7,1.4,9.8,19.2-19.2-9.8L96,122.3l23.3,11.8.7.2a1.6,1.6,0,0,0,1.1-.5,1.5,1.5,0,0,0,.2-1.7Z"/><path d="M63.6,86.2l-10.2-20L73.9,76.6l1.3-2.7L50.7,61.5a1.4,1.4,0,0,0-2,2l12.2,24Z"/></svg>