<svg id="PIKTOGRAM" xmlns="http://www.w3.org/2000/svg" viewBox="0 0 170 170"><title>light_black</title><path d="M163.3,91.9a13.6,13.6,0,0,0-10-11.4,9.1,9.1,0,0,0,2.1-1.8,13.5,13.5,0,0,0,3.4-10.2,13.3,13.3,0,0,0-10-11.4l2-1.8a12.9,12.9,0,0,0,3.4-10.2A13.4,13.4,0,0,0,144,33.6a11.2,11.2,0,0,0,2-1.8,13.1,13.1,0,0,0,3.3-10.2c-.6-6.7-6.6-11.9-13.6-11.9H100.1c-7.8.1-14.8.3-21.6,2.3-5,1.5-9.7,4-14.3,6.4l-4.4,2.3c-5.1,2.5-11.8,5.4-18.6,5.1H5v3H39.6v78.7H5v3H41.1a1.5,1.5,0,0,0,1.5-1.5V98.8c6.3,4.8,24.5,20.4,39.4,50.9.1.3,3.2,7.2,10.7,7.2H93a12.5,12.5,0,0,0,8.8-3.6,11.9,11.9,0,0,0,3.6-8.8v-33a5,5,0,0,1,5.1-5h39.6a13.2,13.2,0,0,0,9.8-4.4A13.5,13.5,0,0,0,163.3,91.9Zm-5.6,8.2a10.5,10.5,0,0,1-7.6,3.4H110.5a8,8,0,0,0-8.1,8v33a9.1,9.1,0,0,1-2.7,6.7,9.3,9.3,0,0,1-6.9,2.7c-5.6,0-8-5.2-8.1-5.4-17.1-35.1-38-50.6-42.1-53.4V28.9c6.9-.2,13.5-3,18.6-5.5l4.4-2.3a71.1,71.1,0,0,1,13.8-6.2c6.4-1.9,13.2-2.1,20.7-2.2h35.6c5.5,0,10.2,4.1,10.6,9.2a10.1,10.1,0,0,1-10.1,11.2,1.5,1.5,0,0,0-1.5,1.5,1.5,1.5,0,0,0,1.5,1.5h4.3a10.6,10.6,0,0,1,10.7,9.3,9.7,9.7,0,0,1-2.6,7.8,10,10,0,0,1-7.6,3.4,1.5,1.5,0,0,0,0,3h4.1c5.5,0,10.2,4,10.7,9.2a10.4,10.4,0,0,1-2.6,7.9,10.3,10.3,0,0,1-7.6,3.3,1.5,1.5,0,0,0-1.5,1.5,1.5,1.5,0,0,0,1.5,1.5h4c5.5,0,10.2,4.1,10.7,9.2A10.2,10.2,0,0,1,157.7,100.1Z"/></svg>