<svg id="PIKTO_LIGHT" xmlns="http://www.w3.org/2000/svg" viewBox="0 0 170 170"><title>light_black</title><polygon points="64 121.4 43.7 141.7 43.7 100.1 40.7 100.1 40.7 141.7 20.5 121.4 18.3 123.5 41.2 146.4 42.2 147.4 43.3 146.4 66.1 123.5 64 121.4"/><path d="M145.6,86.1H24.4A17.9,17.9,0,0,1,6.5,68.2h3A14.9,14.9,0,0,0,24.4,83.1H145.6a14.9,14.9,0,0,0,14.9-14.9h3A17.9,17.9,0,0,1,145.6,86.1Z"/><path d="M132.7,69.7H102.9a1.5,1.5,0,0,1-1.5-1.3L95.7,18.9a1.5,1.5,0,0,1,1.5-1.7h41.2a1.5,1.5,0,0,1,1.5,1.7l-5.7,49.4A1.5,1.5,0,0,1,132.7,69.7Zm-28.4-3h27.1l5.4-46.4H98.9Z"/><path d="M91.3,69.7H38.9a1.5,1.5,0,0,1-1.1-.4L20.6,51.9a1.5,1.5,0,0,1,1.1-2.6H87.9v3H25.2L39.6,66.7H91.3Z"/><rect x="4.3" y="160.5" width="161.4" height="3"/></svg>