<svg id="PIKTO_LIGHT" xmlns="http://www.w3.org/2000/svg" viewBox="0 0 170 170"><title>light_black</title><rect x="57.8" y="65.8" width="72.9" height="3"/><rect x="57.8" y="82.6" width="72.9" height="3"/><rect x="57.8" y="99.5" width="72.9" height="3"/><rect x="57.8" y="116.4" width="36.4" height="3"/><path d="M145.9,31.6,121.2,6.9a1.5,1.5,0,0,0-1.1-.4H43.6A1.5,1.5,0,0,0,42.1,8V143.6a1.5,1.5,0,0,0,1.5,1.5H144.9a1.5,1.5,0,0,0,1.5-1.5V32.7A1.5,1.5,0,0,0,145.9,31.6Zm-24.2-20,19.6,19.6H121.7ZM45.1,142.1V9.5h73.6V32.7a1.5,1.5,0,0,0,1.5,1.5h23.2V142.1Z"/><path d="M126.4,163.5H25.1a1.5,1.5,0,0,1-1.5-1.5V26.4a1.5,1.5,0,0,1,1.5-1.5h9.2v3H26.6V160.5h98.2v-7.7h3V162A1.5,1.5,0,0,1,126.4,163.5Z"/></svg>