<svg id="PIKTO_LIGHT" xmlns="http://www.w3.org/2000/svg" viewBox="0 0 170 170"><title>light_black</title><rect x="76.8" y="26.2" width="16.1" height="3"/><rect x="61.3" y="109.3" width="11.1" height="3"/><rect x="97.7" y="109.3" width="11.1" height="3"/><rect x="79.4" y="109.3" width="11.1" height="3"/><rect x="61.3" y="123.3" width="11.1" height="3"/><rect x="97.7" y="123.3" width="11.1" height="3"/><rect x="79.4" y="123.3" width="11.1" height="3"/><rect x="61.3" y="137.3" width="11.1" height="3"/><rect x="97.7" y="137.3" width="11.1" height="3"/><rect x="79.4" y="137.3" width="11.1" height="3"/><path d="M111.8,154H57.9a12.5,12.5,0,0,1-12.5-12.5V28.5A12.5,12.5,0,0,1,57.9,16h53.9a12.5,12.5,0,0,1,12.5,12.5v113A12.5,12.5,0,0,1,111.8,154ZM57.9,19a9.5,9.5,0,0,0-9.5,9.5v113a9.5,9.5,0,0,0,9.5,9.5h53.9a9.5,9.5,0,0,0,9.5-9.5V28.5a9.5,9.5,0,0,0-9.5-9.5Z"/><path d="M108.7,98.3H61.3a1.5,1.5,0,0,1-1.5-1.5V39a1.5,1.5,0,0,1,1.5-1.5h47.5a1.5,1.5,0,0,1,1.5,1.5V96.8A1.5,1.5,0,0,1,108.7,98.3Zm-46-3h44.5V40.5H62.8Z"/><path d="M75.5,63.9a3.8,3.8,0,1,1-2.6-7.2L94,49a3.8,3.8,0,0,1,2.6,7.2Z"/><path d="M75.5,75.4a3.8,3.8,0,0,1-2.6-7.2L94,60.4a3.8,3.8,0,0,1,2.6,7.2Z"/><path d="M75.5,86.9a3.8,3.8,0,0,1-2.6-7.2L94,71.9a3.8,3.8,0,0,1,2.6,7.2Z"/></svg>