<svg id="PIKTO_LIGHT" xmlns="http://www.w3.org/2000/svg" viewBox="0 0 170 170"><title>light_black</title><polygon points="86.5 99.8 83.5 99.8 83.5 162 67 162 67 165 103 165 103 162 86.5 162 86.5 99.8"/><path d="M124.9,87.8c-9.6-5.8-19.1-8.8-24.5-8.3A16,16,0,0,0,88.9,59.4c2.5-3.3,4.4-9.6,5.1-17.3a34.1,34.1,0,0,1,20.7,16.4l2.4-1.8A37.1,37.1,0,0,0,94.3,39.1c.1-1.6.2-3.3.2-5a73.3,73.3,0,0,0-1.2-13.6A55,55,0,0,1,140,74.9a55.6,55.6,0,0,1-.4,6.4l3,.3a58.6,58.6,0,0,0,.4-6.7A58,58,0,0,0,92.6,17.4C90.8,10.7,88.1,6.3,85,6.3c-5.2,0-9.5,12.5-9.5,27.8,0,11.3,2.3,20.9,5.6,25.3A16,16,0,0,0,69.7,79.5c-4.1-.4-10.4,1.2-17.4,4.5a33.9,33.9,0,0,1,1.5-22.5L51,60.3a37.1,37.1,0,0,0-1.5,25.1l-4.4,2.4a73.3,73.3,0,0,0-11,8,55,55,0,0,1,14.2-62l-2.3-2A58,58,0,0,0,31.8,98.1c-4.9,5-7.2,9.6-5.6,12.2,2.7,4.5,15.6,1.7,28.7-6.2,9.6-5.8,16.8-12.7,18.8-17.8a16,16,0,0,0,22.5,0c1.6,3.8,6,8.7,12.1,13.3a34,34,0,0,1-9.5,6.4l1.2,2.8a37.1,37.1,0,0,0,10.8-7.4l4.2,2.7a73.3,73.3,0,0,0,12.2,6,55,55,0,0,1-29.9,18.5l.6,2.9A58,58,0,0,0,130.4,111c6.7,2,11.8,1.9,13.4-.8C146.5,105.8,138,95.7,124.9,87.8ZM78.5,34.1c0-13.7,2.9-24.8,6.5-24.8s6.5,11.1,6.5,24.8S88.6,58.9,85,58.9,78.5,47.8,78.5,34.1ZM53.4,101.5c-11.7,7.1-22.8,10.3-24.6,7.2s6.2-11.3,17.9-18.3,22.8-10.3,24.6-7.2S65.1,94.4,53.4,101.5ZM85,87.9a13,13,0,1,1,13-13A13,13,0,0,1,85,87.9Zm56.2,20.8c-1.8,3.1-12.9-.2-24.6-7.2S96.9,86.2,98.7,83.2s12.9.2,24.6,7.2S143.1,105.7,141.2,108.7Z"/></svg>