<svg id="PIKTO_LIGHT" xmlns="http://www.w3.org/2000/svg" viewBox="0 0 170 170"><title>light_black</title><rect x="33.6" y="105.8" width="3" height="37.97"/><path d="M148.1,95.2H134V84.2h-3v39.2H66.1V84.2h-3V95.2H49a1.5,1.5,0,0,0-1.5,1.5v56.2a1.5,1.5,0,0,0,1.5,1.5H63.1v11.1h3V126.3H131v39.2h3V154.4h14.2a1.5,1.5,0,0,0,1.5-1.5V96.7A1.5,1.5,0,0,0,148.1,95.2ZM50.5,151.4V98.2H63.1v53.2Zm96.2,0H134V98.2h12.7Z"/><rect x="160.5" y="105.8" width="3" height="37.97"/><path d="M76.4,50.2V36.3a9.5,9.5,0,0,0-9.5-9.5h-26a9.5,9.5,0,0,0-9.5,9.5V49.9a46.9,46.9,0,0,0-7.3,77.8l1.9-2.3A43.9,43.9,0,1,1,92.2,112l2.6,1.4A46.9,46.9,0,0,0,76.4,50.2ZM34.4,48.4V36.3a6.5,6.5,0,0,1,6.5-6.5h26a6.5,6.5,0,0,1,6.5,6.5V48.7a46.8,46.8,0,0,0-38.9-.3Z"/></svg>