<svg id="PIKTO_LIGHT" xmlns="http://www.w3.org/2000/svg" viewBox="0 0 170 170"><title>light_black</title><path d="M140.1,58.1h-.5a54.5,54.5,0,0,0-109.1,0h-.5A15.5,15.5,0,0,0,14.5,73.6V96.4a15.5,15.5,0,0,0,15.5,15.5h.5a54.9,54.9,0,0,0,39.3,50.9h.5a7.6,7.6,0,0,0,5.2,2.1H94.4a7.7,7.7,0,0,0,0-15.4H75.6a7.7,7.7,0,0,0-7.5,9.5,51.8,51.8,0,0,1-34.6-48.7V59.6a51.5,51.5,0,1,1,103,0v50.8a1.5,1.5,0,0,0,1.5,1.5h2a15.5,15.5,0,0,0,15.5-15.5V73.6A15.5,15.5,0,0,0,140.1,58.1ZM75.6,152.7H94.4a4.6,4.6,0,0,1,0,9.3H75.6a4.6,4.6,0,0,1,0-9.3Zm-58-56.2V73.6A12.4,12.4,0,0,1,29.9,61.1h.5v47.7h-.5A12.4,12.4,0,0,1,17.5,96.4Zm134.9,0a12.4,12.4,0,0,1-12.4,12.4h-.5V61.1h.5a12.4,12.4,0,0,1,12.4,12.4Z"/></svg>