<svg id="PIKTO_LIGHT" xmlns="http://www.w3.org/2000/svg" viewBox="0 0 170 170"><title>light_black</title><path d="M152.4,163.5H106.9a1.5,1.5,0,0,1-1.5-1.5V86.5H64.6V162a1.5,1.5,0,0,1-1.5,1.5H17.6a1.5,1.5,0,0,1-1.5-1.5V85h3v75.5H61.6V85a1.5,1.5,0,0,1,1.5-1.5h43.9a1.5,1.5,0,0,1,1.5,1.5v75.5h42.5V85h3v77A1.5,1.5,0,0,1,152.4,163.5Z"/><rect x="84.5" y="117.2" width="12" height="3"/><path d="M141.2,56.3V17.5a1.5,1.5,0,0,0-1.5-1.5H117.9a1.5,1.5,0,0,0-1.5,1.5V34L86,6.9a1.5,1.5,0,0,0-2,0L6.5,76.2l2,2.2L85,10l76.5,68.4,2-2.2ZM119.4,19h18.9V53.6L119.4,36.7Z"/></svg>