<svg id="PIKTO_LIGHT" xmlns="http://www.w3.org/2000/svg" viewBox="0 0 170 170"><title>light_black</title><path d="M61.9,85.5A11.2,11.2,0,1,0,50.7,74.3,11.2,11.2,0,0,0,61.9,85.5Zm0-19.4a8.2,8.2,0,1,1-8.2,8.2A8.2,8.2,0,0,1,61.9,66.1Z"/><path d="M48.7,103.7a8.1,8.1,0,0,1,8-8.2H67.1a8.1,8.1,0,0,1,8,8.2v46.8h3V103.7a11.1,11.1,0,0,0-11-11.2H56.7a11.1,11.1,0,0,0-11,11.2v46.8h3Z"/><path d="M108.1,85.5A11.2,11.2,0,1,0,96.9,74.3,11.2,11.2,0,0,0,108.1,85.5Zm0-19.4a8.2,8.2,0,1,1-8.2,8.2A8.2,8.2,0,0,1,108.1,66.1Z"/><path d="M94.8,103.7a8.1,8.1,0,0,1,8-8.2h10.4a8.1,8.1,0,0,1,8,8.2v46.8h3V103.7a11.1,11.1,0,0,0-11-11.2H102.9a11.1,11.1,0,0,0-11,11.2v46.8h3Z"/><path d="M144.4,41.8H25.6a1.5,1.5,0,0,0-1.5,1.5V162a1.5,1.5,0,0,0,1.5,1.5H144.4a1.5,1.5,0,0,0,1.5-1.5V43.3A1.5,1.5,0,0,0,144.4,41.8Zm-1.5,118.7H27.1V44.8H142.9Z"/><polygon points="66.9 33.7 80.8 19.8 78.7 17.7 68.4 28 68.4 5.9 65.4 5.9 65.4 28 55.1 17.7 53 19.8 66.9 33.7"/><polygon points="106.6 5.9 92.7 19.8 94.8 21.9 105.1 11.6 105.1 33.7 108.1 33.7 108.1 11.6 118.4 21.9 120.6 19.8 106.6 5.9"/></svg>