<svg id="PIKTO_LIGHT" xmlns="http://www.w3.org/2000/svg" viewBox="0 0 170 170"><title>light_black</title><path d="M85,137a16,16,0,1,1,16-16A16,16,0,0,1,85,137Zm0-29a13,13,0,1,0,13,13A13,13,0,0,0,85,108Z"/><path d="M108.5,165h-3a12.9,12.9,0,0,0-12.7-12.9H77.2A12.9,12.9,0,0,0,64.5,165h-3a15.9,15.9,0,0,1,15.7-15.9H92.8A15.9,15.9,0,0,1,108.5,165Z"/><path d="M140,137a16,16,0,1,1,16-16A16,16,0,0,1,140,137Zm0-29a13,13,0,1,0,13,13A13,13,0,0,0,140,108Z"/><path d="M163.5,165h-3a12.9,12.9,0,0,0-12.7-12.9H132.3A12.9,12.9,0,0,0,119.5,165h-3a15.9,15.9,0,0,1,15.7-15.9h15.5A15.8,15.8,0,0,1,163.5,165Z"/><path d="M30,137a16,16,0,1,1,16-16A16,16,0,0,1,30,137Zm0-29a13,13,0,1,0,13,13A13,13,0,0,0,30,108Z"/><path d="M53.5,165h-3a12.9,12.9,0,0,0-12.7-12.9H22.2A12.9,12.9,0,0,0,9.5,165h-3a15.9,15.9,0,0,1,15.7-15.9H37.8A15.9,15.9,0,0,1,53.5,165Z"/><path d="M51.3,57a16,16,0,1,1,16-16A16,16,0,0,1,51.3,57Zm0-29a13,13,0,1,0,13,13A13,13,0,0,0,51.3,28Z"/><path d="M30.8,98.4h-3V85A15.8,15.8,0,0,1,43.5,69.1H59A15.8,15.8,0,0,1,74.7,83.5H86.6v3H73.3A1.5,1.5,0,0,1,71.8,85,12.8,12.8,0,0,0,59,72.1H43.5A12.9,12.9,0,0,0,30.8,85Z"/><path d="M163.5,86.5H93.6v-3H162V8H8V83.5h9.5v3H6.5A1.5,1.5,0,0,1,5,85H5V6.5A1.5,1.5,0,0,1,6.5,5h157A1.5,1.5,0,0,1,165,6.5V85A1.5,1.5,0,0,1,163.5,86.5Z"/></svg>