<svg xmlns="http://www.w3.org/2000/svg" viewBox="0 0 170 170"><path d="M51.1 107.9a16.3 16.3 0 1116.2-16.3 16.3 16.3 0 01-16.2 16.3zm0-29.6a13.3 13.3 0 1013.2 13.3 13.3 13.3 0 00-13.2-13.2zM75 140.1h-3v-3.6a13.1 13.1 0 00-13-13.2H43.1a13.1 13.1 0 00-13 13.2v3.6h-3v-3.6a16.1 16.1 0 0116-16.2H59a16.1 16.1 0 0116 16.2zm20.8-52h46.5v3H95.8zm0 33.7h23.3v3H95.8zm0-16.8h46.5v3H95.8z"/><path d="M152.2 43.9h-49.9V17.3a1.5 1.5 0 00-1.5-1.5H69.2a1.5 1.5 0 00-1.5 1.5v26.6H17.8A11.4 11.4 0 006.5 55.3v87.5a11.4 11.4 0 0011.3 11.3h134.4a11.4 11.4 0 0011.3-11.3V55.3a11.4 11.4 0 00-11.3-11.4zM70.7 18.8h28.6v39.7H70.7zm89.8 124a8.3 8.3 0 01-8.3 8.3H17.8a8.3 8.3 0 01-8.3-8.3V55.3a8.3 8.3 0 018.3-8.3h49.9v11.5H53.6v3h62.9v-3h-14.2V46.9h49.8a8.3 8.3 0 018.3 8.3z"/></svg>