<svg id="PIKTO_LIGHT" xmlns="http://www.w3.org/2000/svg" viewBox="0 0 170 170"><title>light_black</title><path d="M51.1,107.9A16.3,16.3,0,1,1,67.3,91.6,16.3,16.3,0,0,1,51.1,107.9Zm0-29.6A13.3,13.3,0,1,0,64.3,91.6,13.3,13.3,0,0,0,51.1,78.4Z"/><path d="M75,140.1H72v-3.6a13.1,13.1,0,0,0-13-13.2H43.1a13.1,13.1,0,0,0-13,13.2v3.6h-3v-3.6a16.1,16.1,0,0,1,16-16.2H59a16.1,16.1,0,0,1,16,16.2Z"/><rect x="95.8" y="88.1" width="46.5" height="3"/><rect x="95.8" y="121.8" width="23.3" height="3"/><rect x="95.8" y="105" width="46.5" height="3"/><path d="M152.2,43.9H102.3V17.3a1.5,1.5,0,0,0-1.5-1.5H69.2a1.5,1.5,0,0,0-1.5,1.5V43.9H17.8A11.4,11.4,0,0,0,6.5,55.3v87.5a11.4,11.4,0,0,0,11.3,11.3H152.2a11.4,11.4,0,0,0,11.3-11.3V55.3A11.4,11.4,0,0,0,152.2,43.9ZM70.7,18.8H99.3V58.5H70.7Zm89.8,124a8.3,8.3,0,0,1-8.3,8.3H17.8a8.3,8.3,0,0,1-8.3-8.3V55.3a8.3,8.3,0,0,1,8.3-8.3H67.7V58.5H53.6v3h62.9v-3H102.3V46.9h49.8a8.3,8.3,0,0,1,8.3,8.3Z"/></svg>