<svg id="PIKTO_LIGHT" xmlns="http://www.w3.org/2000/svg" viewBox="0 0 170 170"><title>light_black</title><path d="M51.3,85.2A16.3,16.3,0,1,1,67.6,68.9,16.3,16.3,0,0,1,51.3,85.2Zm0-29.6A13.3,13.3,0,1,0,64.6,68.9,13.3,13.3,0,0,0,51.3,55.6Z"/><path d="M75.3,117.4h-3v-3.6a13.1,13.1,0,0,0-13-13.2H43.4a13.1,13.1,0,0,0-13,13.2v3.6h-3v-3.6a16.1,16.1,0,0,1,16-16.2H59.2a16.1,16.1,0,0,1,16,16.2Z"/><rect x="96.1" y="65.4" width="46.5" height="3"/><rect x="96.1" y="99.1" width="23.3" height="3"/><rect x="96.1" y="82.3" width="46.5" height="3"/><path d="M17.8,29.9A11.4,11.4,0,0,0,6.5,41.2v87.5a11.4,11.4,0,0,0,11.3,11.3H152.2a11.4,11.4,0,0,0,11.3-11.3V41.2a11.4,11.4,0,0,0-11.3-11.3Zm134.3,3a8.3,8.3,0,0,1,8.3,8.3v87.5a8.3,8.3,0,0,1-8.3,8.3H17.8a8.3,8.3,0,0,1-8.3-8.3V41.2a8.3,8.3,0,0,1,8.3-8.3Z"/></svg>