<svg xmlns="http://www.w3.org/2000/svg" viewBox="0 0 170 170"><path d="M153 19.1H17A10.5 10.5 0 006.5 29.6V113A10.5 10.5 0 0017 123.5h45.4v10.3A14.2 14.2 0 0148.2 148a1.5 1.5 0 100 3h73.6a1.5 1.5 0 000-3 14.2 14.2 0 01-14.2-14.2v-10.3H153a10.5 10.5 0 0010.5-10.5V29.6A10.5 10.5 0 00153 19.1zm-40.8 128.8H57.9a17.2 17.2 0 007.5-14.2v-10.2h39.3v10.3a17.2 17.2 0 007.5 14.1zm48.3-34.9a7.5 7.5 0 01-7.5 7.5H17a7.5 7.5 0 01-7.5-7.5V29.6a7.5 7.5 0 017.5-7.5h136a7.5 7.5 0 017.5 7.5z"/><path d="M123.5 61.6L85.9 35a1.5 1.5 0 00-1.7 0L46.5 61.6a1.5 1.5 0 00.9 2.7h75.2a1.5 1.5 0 00.9-2.7zm-71.4-.3L85 38.1l32.9 23.3zm7.3 9.3h3v27.32h-3zm48.2 0h3v27.32h-3zm-16.1 0h3v27.32h-3zm-16 0h3v27.32h-3zm-25.4 34h69.8v3H50.1z"/></svg>