<svg id="PIKTO_LIGHT" xmlns="http://www.w3.org/2000/svg" viewBox="0 0 170 170"><title>light_black</title><path d="M85,163.5A78.5,78.5,0,1,1,163.5,85,78.6,78.6,0,0,1,85,163.5Zm0-154A75.5,75.5,0,1,0,160.5,85,75.6,75.6,0,0,0,85,9.5Z"/><rect x="17.5" y="83.5" width="15.5" height="3"/><rect x="35" y="125.7" width="15.5" height="3" transform="translate(-77.5 67.5) rotate(-45)"/><rect x="83.5" y="137" width="3" height="15.5"/><rect x="41.3" y="35" width="3" height="15.5" transform="translate(-17.7 42.8) rotate(-45)"/><rect x="119.5" y="41.3" width="15.5" height="3" transform="translate(7 102.5) rotate(-45)"/><rect x="137" y="83.5" width="15.5" height="3"/><rect x="125.7" y="119.5" width="3" height="15.5" transform="translate(-52.7 127.2) rotate(-45)"/><path d="M111.1,113.2,83.9,86.1a1.5,1.5,0,0,1-.4-1.1V17.5h3V84.4l26.7,26.7Z"/></svg>