<svg id="PIKTO_LIGHT" xmlns="http://www.w3.org/2000/svg" viewBox="0 0 170 170"><title>light_black</title><path d="M22.2,163.5h-.6a1.5,1.5,0,0,1-.9-1.4V141.3H8a1.5,1.5,0,0,1-1.5-1.5V59.1A1.5,1.5,0,0,1,8,57.6H108.1a1.5,1.5,0,0,1,1.5,1.5v80.8a1.5,1.5,0,0,1-1.5,1.5H50.6l-6.2.5L23.3,163.1A1.5,1.5,0,0,1,22.2,163.5ZM9.5,138.3H22.2a1.5,1.5,0,0,1,1.5,1.5v18.6l19-19a1.5,1.5,0,0,1,.9-.4l6.8-.6h56.2V60.6H9.5Z"/><path d="M162,112.4H121.9v-3h38.6V31.7H147.8a1.5,1.5,0,0,1-1.5-1.5V11.6L126.7,31.2a1.5,1.5,0,0,1-1.1.4H63.4v15h-3V30.2a1.5,1.5,0,0,1,1.5-1.5h63.2L146.7,6.9A1.5,1.5,0,0,1,149.3,8V28.7H162a1.5,1.5,0,0,1,1.5,1.5v80.8A1.5,1.5,0,0,1,162,112.4Z"/><rect x="24.9" y="89.5" width="54.7" height="3"/><rect x="24.9" y="108.8" width="27.3" height="3"/></svg>