<svg id="PIKTO_LIGHT" xmlns="http://www.w3.org/2000/svg" viewBox="0 0 170 170"><title>light_black</title><path d="M105.8,69.6H64A6.7,6.7,0,0,1,57.2,63V48.7A6.7,6.7,0,0,1,64,42.2h41.8a6.8,6.8,0,0,1,4.7,1.9,6.4,6.4,0,0,1,2,4.7V63A6.7,6.7,0,0,1,105.8,69.6ZM64,45.2a3.7,3.7,0,0,0-3.7,3.5V63A3.7,3.7,0,0,0,64,66.6h41.8a3.7,3.7,0,0,0,3.7-3.5V48.7a3.4,3.4,0,0,0-1.1-2.5,3.8,3.8,0,0,0-2.7-1.1Z"/><rect x="79" y="90.4" width="12.8" height="3"/><rect x="79" y="102.2" width="12.8" height="3"/><rect x="58.7" y="90.4" width="12.8" height="3"/><rect x="58.7" y="102.2" width="12.8" height="3"/><rect x="98.2" y="90.4" width="12.8" height="3"/><rect x="98.2" y="102.2" width="12.8" height="3"/><rect x="79" y="126.6" width="12.8" height="3"/><rect x="61.6" y="126.6" width="10" height="3"/><rect x="98.2" y="126.6" width="10" height="3"/><rect x="79" y="90.4" width="12.8" height="3"/><rect x="58.7" y="78.5" width="20.3" height="3"/><rect x="58.7" y="90.4" width="12.8" height="3"/><rect x="91.9" y="78.5" width="19.1" height="3"/><rect x="98.2" y="90.4" width="12.8" height="3"/><rect x="79" y="114.4" width="12.8" height="3"/><rect x="58.7" y="114.4" width="12.8" height="3"/><rect x="98.2" y="114.4" width="12.8" height="3"/><path d="M124.9,29.1h-6.5V14a7.5,7.5,0,0,0-7.5-7.5H60A7.5,7.5,0,0,0,52.5,14V29.1H45.6a1.5,1.5,0,0,0-1.5,1.5v87.6A27,27,0,0,0,71,145.1H84.9A12.2,12.2,0,0,0,97,155.8h8.3a9.2,9.2,0,0,1,9.2,9.2h3a12.2,12.2,0,0,0-12.2-12.2H97a9.2,9.2,0,0,1-9.1-7.7H99.5a27,27,0,0,0,26.9-26.9V30.6A1.5,1.5,0,0,0,124.9,29.1ZM55.5,14A4.5,4.5,0,0,1,60,9.5h50.9a4.5,4.5,0,0,1,4.5,4.5V29.1h-7.8V17.5a1.5,1.5,0,0,0-1.5-1.5H94.4a1.5,1.5,0,0,0-1.5,1.5V29.1H55.5Zm49.1,15.1H95.9V19h8.7Zm18.8,89.1a24,24,0,0,1-23.9,23.9H71a24,24,0,0,1-23.9-23.9V32.1h76.3Z"/></svg>