<svg xmlns="http://www.w3.org/2000/svg" viewBox="0 0 170 170"><path d="M105.8 69.6H64a6.7 6.7 0 01-6.8-6.6V48.7a6.7 6.7 0 016.8-6.5h41.8a6.8 6.8 0 014.7 1.9 6.4 6.4 0 012 4.7V63a6.7 6.7 0 01-6.7 6.6zM64 45.2a3.7 3.7 0 00-3.7 3.5V63a3.7 3.7 0 003.7 3.6h41.8a3.7 3.7 0 003.7-3.5V48.7a3.4 3.4 0 00-1.1-2.5 3.8 3.8 0 00-2.7-1.1zm15 45.2h12.8v3H79zm0 11.8h12.8v3H79zM58.7 90.4h12.8v3H58.7zm0 11.8h12.8v3H58.7zm39.5-11.8H111v3H98.2zm0 11.8H111v3H98.2zM79 126.6h12.8v3H79zm-17.4 0h10v3h-10zm36.6 0h10v3h-10z"/><path d="M79 90.4h12.8v3H79zM58.7 78.5H79v3H58.7zm0 11.9h12.8v3H58.7zm33.2-11.9H111v3H91.9zm6.3 11.9H111v3H98.2zm-19.2 24h12.8v3H79zm-20.3 0h12.8v3H58.7zm39.5 0H111v3H98.2z"/><path d="M124.9 29.1h-6.5V14a7.5 7.5 0 00-7.5-7.5H60a7.5 7.5 0 00-7.5 7.5v15.1h-6.9a1.5 1.5 0 00-1.5 1.5v87.6A27 27 0 0071 145.1h13.9A12.2 12.2 0 0097 155.8h8.3a9.2 9.2 0 019.2 9.2h3a12.2 12.2 0 00-12.2-12.2H97a9.2 9.2 0 01-9.1-7.7h11.6a27 27 0 0026.9-26.9V30.6a1.5 1.5 0 00-1.5-1.5zM55.5 14A4.5 4.5 0 0160 9.5h50.9a4.5 4.5 0 014.5 4.5v15.1h-7.8V17.5a1.5 1.5 0 00-1.5-1.5H94.4a1.5 1.5 0 00-1.5 1.5v11.6H55.5zm49.1 15.1h-8.7V19h8.7zm18.8 89.1a24 24 0 01-23.9 23.9H71a24 24 0 01-23.9-23.9V32.1h76.3z"/></svg>