<svg id="PIKTO_LIGHT" xmlns="http://www.w3.org/2000/svg" viewBox="0 0 170 170"><title>light_black</title><rect x="96.9" y="147.9" width="14.1" height="3"/><path d="M126.3,41.8H81.6A12.5,12.5,0,0,0,69.1,54.3V151a12.5,12.5,0,0,0,12.5,12.5h44.7A12.5,12.5,0,0,0,138.8,151V54.3A12.5,12.5,0,0,0,126.3,41.8Zm-44.7,3h44.7a9.5,9.5,0,0,1,9.5,9.5V65.4H72.1V54.3a9.5,9.5,0,0,1,9.5-9.5Zm54.2,23.6v68.1H72.1V68.4Zm-9.5,92.1H81.6a9.5,9.5,0,0,1-9.5-9.5V139.6h63.7V151a9.5,9.5,0,0,1-9.5,9.5Z"/><path d="M31.2,43.3h3A33.9,33.9,0,0,1,68,9.5v-3A36.9,36.9,0,0,0,31.2,43.3Z"/><path d="M43,43.3h3A22.1,22.1,0,0,1,68,21.3v-3A25.1,25.1,0,0,0,43,43.3Z"/><path d="M54.8,43.3h3A10.3,10.3,0,0,1,68,33V30A13.3,13.3,0,0,0,54.8,43.3Z"/></svg>