<svg id="PIKTO_LIGHT" xmlns="http://www.w3.org/2000/svg" viewBox="0 0 170 170"><title>light_black</title><path d="M85,31.6A12.6,12.6,0,1,1,97.6,19h0A12.6,12.6,0,0,1,85,31.6ZM85,9.5A9.6,9.6,0,1,0,94.6,19h0A9.6,9.6,0,0,0,85,9.5Z"/><path d="M115.7,164.5H54.3a1.5,1.5,0,0,1-1.5-1.5V61a1.5,1.5,0,0,1,1.5-1.5h61.3a1.5,1.5,0,0,1,1.5,1.5h0V163A1.5,1.5,0,0,1,115.7,164.5Zm-59.8-3h58.3v-99H55.8Z"/><path d="M24.6,139.6A12.5,12.5,0,0,0,37.1,127h0a12.6,12.6,0,1,0-12.5,12.7Zm0-22.1h0a9.5,9.5,0,0,1,9.5,9.5h0a9.6,9.6,0,1,1-9.5-9.7Z"/><path d="M42.8,160.6a12.4,12.4,0,0,0-12.3-12.5H18.8A12.4,12.4,0,0,0,6.5,160.6V165h3v-4.4a9.4,9.4,0,0,1,9.3-9.5H30.5a9.4,9.4,0,0,1,9.3,9.5h0V165h3v-4.4Z"/><path d="M24.6,77.1A12.5,12.5,0,0,0,37.1,64.5h0A12.6,12.6,0,1,0,24.6,77.1Zm0-22.1h0a9.5,9.5,0,0,1,9.5,9.5h0A9.6,9.6,0,1,1,24.6,55Z"/><path d="M42.8,98.1A12.4,12.4,0,0,0,30.5,85.6H18.8A12.4,12.4,0,0,0,6.5,98.1v4.4h3V98.1a9.4,9.4,0,0,1,9.3-9.5H30.5a9.4,9.4,0,0,1,9.3,9.5h0v4.4h3V98.1Z"/><path d="M145.2,139.6A12.5,12.5,0,0,0,157.7,127h0a12.6,12.6,0,1,0-12.5,12.7Zm0-22.1h0a9.5,9.5,0,0,1,9.5,9.5h0a9.6,9.6,0,1,1-9.5-9.7Z"/><path d="M163.4,160.6a12.4,12.4,0,0,0-12.3-12.5H139.4a12.4,12.4,0,0,0-12.3,12.5V165h3v-4.4a9.4,9.4,0,0,1,9.3-9.5h11.7a9.4,9.4,0,0,1,9.3,9.5h0V165h3v-4.4Z"/><path d="M145.2,77.1a12.5,12.5,0,0,0,12.5-12.6h0a12.6,12.6,0,1,0-12.5,12.7Zm0-22.1h0a9.5,9.5,0,0,1,9.5,9.5h0a9.6,9.6,0,1,1-9.5-9.7Z"/><path d="M163.4,98.1a12.4,12.4,0,0,0-12.3-12.5H139.4a12.4,12.4,0,0,0-12.3,12.5v4.4h3V98.1a9.4,9.4,0,0,1,9.3-9.5h11.7a9.4,9.4,0,0,1,9.3,9.5h0v4.4h3V98.1Z"/><path d="M103.3,52.6A12.4,12.4,0,0,0,90.9,40.1H79.1A12.4,12.4,0,0,0,66.7,52.6v1h3v-1a9.4,9.4,0,0,1,9.4-9.5H90.9a9.4,9.4,0,0,1,9.4,9.5h0v1h3v-1Z"/></svg>