<svg id="PIKTO_LIGHT" xmlns="http://www.w3.org/2000/svg" viewBox="0 0 170 170"><title>light_black</title><rect x="48.4" y="136.7" width="16.1" height="3"/><path d="M20,141.5V126.8H56.4v-3H20V45.9H92.9V64.2h3V28.5A12.5,12.5,0,0,0,83.4,16H29.5A12.5,12.5,0,0,0,17,28.5v113A12.5,12.5,0,0,0,29.5,154H83.4v-3H29.5A9.5,9.5,0,0,1,20,141.5ZM29.5,19H83.4a9.5,9.5,0,0,1,9.5,9.5V42.9H20V28.5A9.5,9.5,0,0,1,29.5,19Z"/><path d="M139.8,112l-4-15.3a1.5,1.5,0,0,0-.4-.7L113.8,74.4a7.7,7.7,0,0,0-13.1,4.6,7.7,7.7,0,0,0-12.1,6,7.7,7.7,0,0,0-8.7,1.6,7.7,7.7,0,0,0-2.2,4.5L66.2,79.7A8.2,8.2,0,0,0,54.7,91.2l31.2,31.2-7.5-1.5c-5.9-1.3-11.3,1-12.3,5.2s1.9,7.5,6.2,8.7l41.8,13.3,5.4,5.4,2.1-2.1-5.7-5.7-.6-.4L73.3,132c-2.8-.8-4.7-3.1-4.2-5.2s4.5-3.9,8.7-3l12.4,2.5a1.5,1.5,0,0,0,1.4-2.5L56.8,89.1a5.2,5.2,0,0,1,7.3-7.3l31.8,31.8,2.1-2.1-16-16a4.7,4.7,0,0,1,6.7-6.7l2.1,2.1h0l14,14,2.1-2.1-14-14h0a4.7,4.7,0,1,1,6.7-6.7l3.2,3.2,10.8,10.8,2.1-2.1L105,83.2a4.7,4.7,0,0,1,6.7-6.7L133,97.9l4,15.3a1.5,1.5,0,0,0,.4.7l13,13,2.1-2.1Z"/><path d="M58.8,62.7A23.2,23.2,0,0,1,79.5,75.3l2.7-1.4a26.3,26.3,0,1,0-23.4,38.3v-3a23.3,23.3,0,1,1,0-46.5Z"/></svg>