<svg id="PIKTO_LIGHT" xmlns="http://www.w3.org/2000/svg" viewBox="0 0 170 170"><title>light_black</title><path d="M100.7,131.7v-3a43.7,43.7,0,1,0,0-87.5v-3a46.7,46.7,0,1,1,0,93.5Z"/><path d="M100.7,22.2H69.3a62.8,62.8,0,0,0,0,125.5h31.5a62.8,62.8,0,0,0,0-125.5Zm-19.2,3A62.8,62.8,0,0,0,58.4,38.7H31.6A59.5,59.5,0,0,1,69.3,25.2ZM28.2,41.7H55.4A62.9,62.9,0,0,0,42.8,61H14.6A60,60,0,0,1,28.2,41.7ZM38,83.5H9.5A59.4,59.4,0,0,1,13.3,64H41.6A62.4,62.4,0,0,0,38,83.5Zm31.2,61.3A59.8,59.8,0,0,1,9.5,86.5H38a62.9,62.9,0,0,0,43.6,58.3Zm31.5,0A59.8,59.8,0,1,1,160.5,85,59.8,59.8,0,0,1,100.7,144.8Z"/></svg>