<svg xmlns="http://www.w3.org/2000/svg" viewBox="0 0 170 170"><path d="M100.7 131.7v-3a43.7 43.7 0 100-87.5v-3a46.7 46.7 0 110 93.5z"/><path d="M100.7 22.2H69.3a62.8 62.8 0 000 125.5h31.5a62.8 62.8 0 000-125.5zm-19.2 3a62.8 62.8 0 00-23.1 13.5H31.6a59.5 59.5 0 0137.7-13.5zM28.2 41.7h27.2A62.9 62.9 0 0042.8 61H14.6a60 60 0 0113.6-19.3zM38 83.5H9.5A59.4 59.4 0 0113.3 64h28.3A62.4 62.4 0 0038 83.5zm31.2 61.3A59.8 59.8 0 019.5 86.5H38a62.9 62.9 0 0043.6 58.3zm31.5 0A59.8 59.8 0 11160.5 85a59.8 59.8 0 01-59.8 59.8z"/></svg>