<svg id="PIKTO_LIGHT" xmlns="http://www.w3.org/2000/svg" viewBox="0 0 170 170"><title>light_black</title><path d="M49.1,32.8A27.8,27.8,0,0,0,21.3,60.5V79a27.8,27.8,0,0,0,27.7,27.7v-3A24.8,24.8,0,0,1,24.3,79V73A27.7,27.7,0,1,0,49.1,32.8Zm0,52.5A24.7,24.7,0,1,1,73.8,60.5,24.8,24.8,0,0,1,49.1,85.2Z"/><path d="M86.5,89.6a27.8,27.8,0,0,0-27.7,27.7v18.5a27.7,27.7,0,0,0,55.5,0V117.4A27.8,27.8,0,0,0,86.5,89.6Zm0,3a24.7,24.7,0,1,1-24.7,24.7A24.8,24.8,0,0,1,86.5,92.6ZM88,145.1a27.5,27.5,0,0,0,9.6-2.3v15.1a24.5,24.5,0,0,1-9.6,2.6Zm-26.2-9.2v-5.9A27.8,27.8,0,0,0,85,145.1v15.5A24.8,24.8,0,0,1,61.8,135.8Zm49.5,0a24.7,24.7,0,0,1-10.6,20.3V141.2a27.9,27.9,0,0,0,10.6-11.3Z"/><path d="M120.9,6.5A27.8,27.8,0,0,0,93.2,34.2V52.7a27.7,27.7,0,0,0,55.5,0V34.2A27.8,27.8,0,0,0,120.9,6.5Zm0,3A24.7,24.7,0,1,1,96.2,34.2,24.8,24.8,0,0,1,120.9,9.5Zm-1.5,52.4V77.4a24.5,24.5,0,0,1-9.6-2.6V59.6A27.5,27.5,0,0,0,119.4,61.9ZM96.2,52.7V46.7a27.9,27.9,0,0,0,10.6,11.3V72.9A24.7,24.7,0,0,1,96.2,52.7Zm49.5,0a24.8,24.8,0,0,1-23.2,24.7V61.9a27.8,27.8,0,0,0,23.2-15.2Z"/></svg>