<svg id="PIKTO_LIGHT" xmlns="http://www.w3.org/2000/svg" viewBox="0 0 170 170"><title>light_black</title><path d="M147.6,165h-3V132.3c0-19.7-15.1-36.5-34.4-38.4L85.8,110.2a1.5,1.5,0,0,1-1.7,0L59.5,94c-19.2,2-34.2,18.7-34.2,38.4h-3c0-21.7,16.1-39.5,37.4-41.4a1.5,1.5,0,0,1,1,.2L85,107.1l24.1-16a1.5,1.5,0,0,1,1-.2c21.1,1.8,37.6,20,37.6,41.4Z"/><rect x="22.4" y="132.3" width="3" height="32.68"/><path d="M85,6.4A30.2,30.2,0,0,0,54.9,36.6V54.8a30.1,30.1,0,0,0,60.3,0V36.6A30.2,30.2,0,0,0,85,6.4Zm0,75.5A27.2,27.2,0,0,1,57.9,54.8V36.6a27.1,27.1,0,0,1,54.2-1.2A37,37,0,0,1,101.3,37c-12.2,0-22.5-5.7-22.5-12.5h-3C75.8,33.2,87,40,101.3,40a40.4,40.4,0,0,0,10.9-1.5V54.8A27.2,27.2,0,0,1,85,81.9Z"/></svg>