<svg id="PIKTO_LIGHT" xmlns="http://www.w3.org/2000/svg" viewBox="0 0 170 170"><title>light_black</title><path d="M25.2,64.3V62.6c0-11.8,5.5-17.2,12-17.2s12,5.4,12,17.2v1.7c0,11.8-5.5,17.2-12,17.2S25.2,76,25.2,64.3Zm20.2-.1V62.7c0-9.9-3.6-14.1-8.2-14.1s-8.2,4.2-8.2,14.1v1.4c0,9.9,3.6,14.1,8.2,14.1S45.4,74,45.4,64.1Z"/><path d="M73,64.3V62.6c0-11.8,5.5-17.2,12-17.2s12,5.4,12,17.2v1.7C97,76,91.5,81.5,85,81.5S73,76,73,64.3Zm20.2-.1V62.7c0-9.9-3.6-14.1-8.2-14.1s-8.2,4.2-8.2,14.1v1.4c0,9.9,3.6,14.1,8.2,14.1S93.2,74,93.2,64.1Z"/><path d="M135,55.9l4.4,6-2.2,1.6-4.3-6-4.3,6-2.2-1.5,4.3-6-7-2.3.8-2.6,7.1,2.3V45.9h2.7v7.4l7.1-2.3.8,2.6Z"/><path d="M39.3,110.2l4.4,6-2.2,1.6-4.3-6-4.3,6-2.2-1.5,4.3-6-7-2.3.8-2.6,7.1,2.3v-7.4h2.7v7.4l7.1-2.3.8,2.6Z"/><path d="M87.2,110.2l4.4,6-2.2,1.6-4.3-6-4.3,6-2.2-1.5,4.3-6-7-2.3.8-2.6,7.1,2.3v-7.4h2.7v7.4l7.1-2.3.8,2.6Z"/><path d="M135,110.2l4.4,6-2.2,1.6-4.3-6-4.3,6-2.2-1.5,4.3-6-7-2.3.8-2.6,7.1,2.3v-7.4h2.7v7.4l7.1-2.3.8,2.6Z"/></svg>