<svg xmlns="http://www.w3.org/2000/svg" viewBox="0 0 170 170"><path d="M128.9 123.4H38.3A12.7 12.7 0 0125.5 111V80a12.7 12.7 0 0112.8-12.4H129a13 13 0 019.1 3.6 12.2 12.2 0 013.8 8.8v31a12.7 12.7 0 01-13 12.4zM38.3 70.6a9.7 9.7 0 00-9.8 9.4v31a9.7 9.7 0 009.9 9.4H129a9.7 9.7 0 009.9-9.4V80a9.2 9.2 0 00-2.9-6.7 10 10 0 00-7-2.8zM73 160.4h24.9v3H73zm-39.4 0h24.9v3H33.6zm76.5 0H135v3h-24.9z"/><path d="M73 160.4h24.9v3H73zm-39.4-17.9H73v3H33.6zm0 17.9h24.9v3H33.6zm64.3-17.9h37.2v3H97.9zm12.2 17.9H135v3h-24.9z"/><path d="M156 49.8h-8.5V13.5a7 7 0 00-7-7H29a7 7 0 00-7 7v36.3h-8a7.5 7.5 0 00-7.5 7.5V165h3V57.3a4.5 4.5 0 014.5-4.5h142a4.5 4.5 0 014.5 4.5V165h3V57.3a7.5 7.5 0 00-7.5-7.5zM25 13.5a4 4 0 014-4h111.4a4 4 0 014 4v36.3h-18V28.2a1.5 1.5 0 00-1.5-1.5h-20a1.5 1.5 0 00-1.5 1.5v21.6H38.3V17.5h-3v32.3H25zm98.3 36.2h-17v-20h17z"/><path d="M48.2 17.5h3v19.87h-3zM43 97.2v-.9c0-4.8 2.4-7 5.2-7s5.2 2.2 5.2 7v.9c0 4.8-2.4 7-5.2 7s-5.2-2.2-5.2-7zm7.9-.1v-.8c0-3.5-1.1-4.8-2.7-4.8s-2.7 1.4-2.7 4.8v.8c0 3.5 1.1 4.8 2.7 4.8s2.6-1.3 2.6-4.8zm8.6.1v-.9c0-4.8 2.4-7 5.2-7s5.2 2.2 5.2 7v.9c0 4.8-2.4 7-5.2 7s-5.2-2.2-5.2-7zm7.9-.1v-.8c0-3.5-1.1-4.8-2.7-4.8S62 92.9 62 96.3v.8c0 3.5 1.1 4.8 2.7 4.8s2.7-1.3 2.7-4.8zM81.6 94l1.7 2.3-1.4 1-1.8-2.3-1.7 2.3-1.4-1 1.7-2.3-2.7-.9.5-1.7 2.7.9v-2.8H81v2.8l2.7-.9.5 1.7zm14.2 0l1.7 2.3-1.4 1-1.7-2.3-1.7 2.3-1.4-1L93 94l-2.7-.9.5-1.7 2.7.9v-2.8h1.8v2.8l2.7-.9.5 1.7zm14.3 0l1.7 2.3-1.4 1-1.7-2.3-1.7 2.3-1.4-1 1.7-2.3-2.7-.9.5-1.7 2.7.9v-2.8h1.8v2.8l2.7-.9.5 1.7zm14.3 0l1.7 2.3-1.4 1-1.8-2.3-1.7 2.3-1.4-1 1.7-2.3-2.7-.9.5-1.7 2.7.9v-2.8h1.8v2.8l2.7-.9.5 1.7z"/></svg>