<svg id="PIKTO_LIGHT" xmlns="http://www.w3.org/2000/svg" viewBox="0 0 170 170"><title>light_black</title><path d="M128.9,123.4H38.3A12.7,12.7,0,0,1,25.5,111V80A12.7,12.7,0,0,1,38.3,67.6H129a13,13,0,0,1,9.1,3.6,12.2,12.2,0,0,1,3.8,8.8v31A12.7,12.7,0,0,1,128.9,123.4ZM38.3,70.6A9.7,9.7,0,0,0,28.5,80v31a9.7,9.7,0,0,0,9.9,9.4h90.6a9.7,9.7,0,0,0,9.9-9.4V80a9.2,9.2,0,0,0-2.9-6.7,10,10,0,0,0-7-2.8Z"/><rect x="73" y="160.4" width="24.9" height="3"/><rect x="33.6" y="160.4" width="24.9" height="3"/><rect x="110.1" y="160.4" width="24.9" height="3"/><rect x="73" y="160.4" width="24.9" height="3"/><rect x="33.6" y="142.5" width="39.4" height="3"/><rect x="33.6" y="160.4" width="24.9" height="3"/><rect x="97.9" y="142.5" width="37.2" height="3"/><rect x="110.1" y="160.4" width="24.9" height="3"/><path d="M156,49.8h-8.5V13.5a7,7,0,0,0-7-7H29a7,7,0,0,0-7,7V49.8H14a7.5,7.5,0,0,0-7.5,7.5V165h3V57.3A4.5,4.5,0,0,1,14,52.8H156a4.5,4.5,0,0,1,4.5,4.5V165h3V57.3A7.5,7.5,0,0,0,156,49.8ZM25,13.5a4,4,0,0,1,4-4H140.4a4,4,0,0,1,4,4V49.8H126.4V28.2a1.5,1.5,0,0,0-1.5-1.5h-20a1.5,1.5,0,0,0-1.5,1.5V49.8H38.3V17.5h-3V49.8H25Zm98.3,36.2h-17v-20h17Z"/><rect x="48.2" y="17.5" width="3" height="19.87"/><path d="M43,97.2v-.9c0-4.8,2.4-7,5.2-7s5.2,2.2,5.2,7v.9c0,4.8-2.4,7-5.2,7S43,102,43,97.2Zm7.9-.1v-.8c0-3.5-1.1-4.8-2.7-4.8s-2.7,1.4-2.7,4.8v.8c0,3.5,1.1,4.8,2.7,4.8S50.8,100.6,50.8,97.1Z"/><path d="M59.5,97.2v-.9c0-4.8,2.4-7,5.2-7s5.2,2.2,5.2,7v.9c0,4.8-2.4,7-5.2,7S59.5,102,59.5,97.2Zm7.9-.1v-.8c0-3.5-1.1-4.8-2.7-4.8s-2.7,1.4-2.7,4.8v.8c0,3.5,1.1,4.8,2.7,4.8S67.4,100.6,67.4,97.1Z"/><path d="M81.6,94l1.7,2.3-1.4,1L80.1,95l-1.7,2.3-1.4-1L78.7,94,76,93.1l.5-1.7,2.7.9V89.5H81v2.8l2.7-.9.5,1.7Z"/><path d="M95.8,94l1.7,2.3-1.4,1L94.4,95l-1.7,2.3-1.4-1L93,94l-2.7-.9.5-1.7,2.7.9V89.5h1.8v2.8l2.7-.9.5,1.7Z"/><path d="M110.1,94l1.7,2.3-1.4,1L108.7,95,107,97.3l-1.4-1,1.7-2.3-2.7-.9.5-1.7,2.7.9V89.5h1.8v2.8l2.7-.9.5,1.7Z"/><path d="M124.4,94l1.7,2.3-1.4,1L122.9,95l-1.7,2.3-1.4-1,1.7-2.3-2.7-.9.5-1.7,2.7.9V89.5h1.8v2.8l2.7-.9.5,1.7Z"/></svg>