<svg id="PIKTO_LIGHT" xmlns="http://www.w3.org/2000/svg" viewBox="0 0 170 170"><title>light_black</title><rect x="11.1" y="131.5" width="52" height="3" transform="translate(-83.1 65) rotate(-44.9)"/><path d="M99.6,72.5a22.7,22.7,0,0,0,15,5.6,23.8,23.8,0,0,0,16.9-6.9l22.1-22.1-2.1-2.1L129.4,69c-7.6,7.6-19.8,8.1-27.6,1.4l36.6-36.6-2.1-2.1L99.6,68.3a20.1,20.1,0,0,1,1-27.3l22.4-22.4-2.1-2.1L98.5,38.9a23.1,23.1,0,0,0-1,31.5L85.1,82.8,24.2,22a1.5,1.5,0,0,0-2.1,0c-5.1,5.1-6.3,13.3-3.4,23.2s9.1,19.7,17.9,28.4l32.1,32.1a17.1,17.1,0,0,0,24.6-.4l4.9-5.2,51.9,51.9,2.1-2.1-65-65Zm-8.5,30.7a14.1,14.1,0,0,1-20.3.3L38.7,71.4c-8.4-8.4-14.4-18-17.1-27.1s-1.8-14.8,1.6-19.1L96,98Z"/></svg>