<svg id="PIKTO_LIGHT" xmlns="http://www.w3.org/2000/svg" viewBox="0 0 170 170"><title>light_black</title><path d="M124.6,98.2H53.3v-3h71.4a28,28,0,0,0,4.7-55.7l-.9-.2-.3-.9a28,28,0,0,0-26.6-19.2v-3a31,31,0,0,1,29.2,20.4,31,31,0,0,1-6.1,61.5Z"/><path d="M45.4,98.2A31,31,0,0,1,35,37.9c0-.6-.1-1.3-.1-1.9a31,31,0,0,1,57-17l-2.5,1.6A28,28,0,0,0,38,36c0,.9,0,1.9.1,2.8V40l-1.2.4a28,28,0,0,0,8.3,54.8Z"/><polygon points="93.7 145.8 92.1 143.2 83.2 149 83.1 138.4 80.1 138.5 80.2 149 71.4 143.2 69.8 145.8 79 151.7 69.8 157.7 71.4 160.2 80.3 154.5 80.4 165 83.4 165 83.3 154.5 92.1 160.2 93.7 157.7 84.5 151.7 93.7 145.8"/><polygon points="54.1 120.3 52.5 117.8 43.6 123.5 43.5 113 40.5 113 40.6 123.5 31.8 117.8 30.2 120.3 39.4 126.3 30.2 132.2 31.8 134.8 40.7 129 40.8 139.6 43.8 139.5 43.7 129 52.5 134.8 54.1 132.2 44.9 126.3 54.1 120.3"/><polygon points="130.3 120.3 128.7 117.8 119.8 123.5 119.7 113 116.7 113 116.8 123.5 108 117.8 106.4 120.3 115.6 126.3 106.4 132.2 108 134.8 116.9 129 117 139.6 120 139.5 119.9 129 128.7 134.8 130.3 132.2 121.1 126.3 130.3 120.3"/></svg>