<svg id="PIKTO_LIGHT" xmlns="http://www.w3.org/2000/svg" viewBox="0 0 170 170"><title>light_black</title><path d="M85,120.3A35.3,35.3,0,1,1,120.3,85,35.3,35.3,0,0,1,85,120.3Zm0-67.5A32.3,32.3,0,1,0,117.3,85,32.3,32.3,0,0,0,85,52.8Z"/><rect x="83.5" y="17.5" width="3" height="15.5"/><rect x="119.5" y="41.3" width="15.5" height="3" transform="translate(7 102.5) rotate(-45)"/><rect x="137" y="83.5" width="15.5" height="3"/><rect x="125.7" y="119.5" width="3" height="15.5" transform="translate(-52.7 127.2) rotate(-45)"/><rect x="83.5" y="137" width="3" height="15.5"/><rect x="35" y="125.7" width="15.5" height="3" transform="translate(-77.5 67.5) rotate(-45)"/><rect x="17.5" y="83.5" width="15.5" height="3"/><rect x="41.3" y="35" width="3" height="15.5" transform="translate(-17.7 42.8) rotate(-45)"/></svg>