<svg xmlns="http://www.w3.org/2000/svg" viewBox="0 0 170 170"><path d="M85 163.5A78.5 78.5 0 11163.5 85 78.6 78.6 0 0185 163.5zm0-154A75.5 75.5 0 10160.5 85 75.6 75.6 0 0085 9.5z"/><path d="M17.5 83.5H33v3H17.5zm18.632 48.135l10.96-10.96 2.122 2.12-10.96 10.96zM83.5 137h3v15.5h-3zM36.252 38.345l2.122-2.121 10.96 10.96-2.122 2.121zm84.451 8.859l10.96-10.96 2.121 2.121-10.96 10.96zM137 83.5h15.5v3H137zm-16.317 39.316l2.12-2.121 10.961 10.96-2.121 2.121zM111.1 113.2L83.9 86.1a1.5 1.5 0 01-.4-1.1V17.5h3v66.9l26.7 26.7z"/></svg>