<svg xmlns="http://www.w3.org/2000/svg" viewBox="0 0 170 170"><path d="M100.5 67a1.5 1.5 0 00-1.3-.8H78.9v3h19.4l9.8 18.1H58.9l-8.2-13.6h9.8v-3H39.6v3h7.6l9.1 15.2-11.5 22.5a26.8 26.8 0 00-11-2.4 27.2 27.2 0 1013.7 3.7l10.6-20.8 25.6 42.4a1.5 1.5 0 002.6 0L111.1 93l10.9 20.1a27.1 27.1 0 1014.2-4.1 26.9 26.9 0 00-11.6 2.6zm-42.7 69.2A24.1 24.1 0 1133.7 112a23.9 23.9 0 019.7 2l-11 21.5 2.7 1.4 11-21.5a24.2 24.2 0 0111.7 20.8zm27.2-5.6L60.7 90.3h48.6zm51.3 29.9a24.2 24.2 0 01-12.8-44.8l11.4 21.3 2.6-1.4-11.5-21.3a23.9 23.9 0 0110.2-2.3 24.2 24.2 0 010 48.5z"/></svg>