<svg xmlns="http://www.w3.org/2000/svg" viewBox="0 0 170 170"><path d="M163.5 40.5h-10.7V28.2a1.5 1.5 0 00-1.5-1.5H86.4a15.9 15.9 0 00-15.7-13.8H31a1.5 1.5 0 00-1.5 1.5v12.3H18.7a1.5 1.5 0 00-1.5 1.5v12.3H6.5A1.5 1.5 0 005 42v98.3a1.5 1.5 0 001.5 1.5h66.2a12.4 12.4 0 0024.6 0h66.2a1.5 1.5 0 001.5-1.5V42a1.5 1.5 0 00-1.5-1.5zm-13.7-10.8v96.8H86.5V29.7zM32.5 15.9h38.2a12.9 12.9 0 0112.8 12.8v90.7a13.8 13.8 0 00-10.8-5.2H32.5zM20.2 29.7h9.3v86.1a1.5 1.5 0 001.5 1.5h41.7a10.8 10.8 0 0110.7 9.3H20.2zM162 138.8H95.9a1.5 1.5 0 00-1.5 1.5 9.4 9.4 0 11-18.8 0 1.5 1.5 0 00-1.5-1.5H8V43.5h9.3V128a1.5 1.5 0 001.5 1.5h132.5a1.5 1.5 0 001.5-1.5V43.5h9.2z"/></svg>