<svg xmlns="http://www.w3.org/2000/svg" viewBox="0 0 170 170"><path d="M162 40.8H8a1.5 1.5 0 00-1.5 1.5v111.2A1.5 1.5 0 008 155h154a1.5 1.5 0 001.5-1.5V42.3a1.5 1.5 0 00-1.5-1.5zm-1.5 3v35.6c-5.4 2.6-37.4 17-75.5 17S14.9 82 9.5 79.4V43.8zM59 97.3a164.9 164.9 0 0026 2.1 166.8 166.8 0 0025-1.9v5.6a12.2 12.2 0 01-12.2 12.2H71.2A12.2 12.2 0 0159 103.1zM9.5 152V82.7A193.5 193.5 0 0056 96.8v6.3a15.2 15.2 0 0015.2 15.2h26.6a15.2 15.2 0 0015.2-15.2V97a194.2 194.2 0 0047.5-14.3V152zM113.3 31.3v-.5A17.9 17.9 0 0095.4 13H74.6a17.9 17.9 0 00-17.9 17.8v.5h3v-.5A14.9 14.9 0 0174.6 16h20.8a14.9 14.9 0 0114.9 14.8v.5z"/></svg>