<svg xmlns="http://www.w3.org/2000/svg" viewBox="0 0 170 170"><path d="M124.6 98.2H53.3v-3h71.4a28 28 0 004.7-55.7l-.9-.2-.3-.9a28 28 0 00-26.6-19.2v-3a31 31 0 0129.2 20.4 31 31 0 01-6.1 61.5zm-79.2 0A31 31 0 0135 37.9c0-.6-.1-1.3-.1-1.9a31 31 0 0157-17l-2.5 1.6A28 28 0 0038 36c0 .9 0 1.9.1 2.8V40l-1.2.4a28 28 0 008.3 54.8zm48.3 47.6l-1.6-2.6-8.9 5.8-.1-10.6-3 .1.1 10.5-8.8-5.8-1.6 2.6 9.2 5.9-9.2 6 1.6 2.5 8.9-5.7.1 10.5h3l-.1-10.5 8.8 5.7 1.6-2.5-9.2-6 9.2-5.9zm-39.6-25.5l-1.6-2.5-8.9 5.7-.1-10.5h-3l.1 10.5-8.8-5.7-1.6 2.5 9.2 6-9.2 5.9 1.6 2.6 8.9-5.8.1 10.6 3-.1-.1-10.5 8.8 5.8 1.6-2.6-9.2-5.9 9.2-6zm76.2 0l-1.6-2.5-8.9 5.7-.1-10.5h-3l.1 10.5-8.8-5.7-1.6 2.5 9.2 6-9.2 5.9 1.6 2.6 8.9-5.8.1 10.6 3-.1-.1-10.5 8.8 5.8 1.6-2.6-9.2-5.9 9.2-6z"/></svg>