<svg xmlns="http://www.w3.org/2000/svg" viewBox="0 0 170 170"><path d="M85.9 6.5A49.8 49.8 0 0051.2 93a15.8 15.8 0 015.1 11.7h3a19 19 0 00-6.1-13.9 47 47 0 01-15.1-35.2A47.1 47.1 0 0185.9 9.5a46.9 46.9 0 0130.8 81.4 18.9 18.9 0 00-6 13.8h3a15.4 15.4 0 015.1-11.6A49.9 49.9 0 0085.9 6.5zm-.9 154c-7.5 0-13.6-5.4-13.6-12.1h-3c0 8.3 7.4 15.1 16.6 15.1s16.6-6.8 16.6-15.1h-3c0 6.7-6.1 12.1-13.6 12.1z"/><path d="M113.6 120.6a8 8 0 00-8-8.1h-6.2V51.3h-3v3.9c0 4-5.4 7.4-11.8 7.4s-11.9-3.4-11.9-7.4v-3.9h-3v61.2h-5.3a8 8 0 00-8 8.1 7.7 7.7 0 003.4 6.5 8 8 0 004.6 14.6h41.2a8 8 0 004.6-14.6 7.7 7.7 0 003.4-6.5zM72.7 61.5c2.7 2.5 7 4.1 11.9 4.1a17.5 17.5 0 0011.8-4.1v51H72.7zm37.9 72.2a5 5 0 01-5 5H64.4a5 5 0 01-5-5 5 5 0 015-5.1h41.2a5 5 0 015 5.1zm-5-8.1H64.4a5 5 0 01-5-5 5 5 0 015-5.1h41.2a5 5 0 015 5.1 5 5 0 01-5 5z"/></svg>