<svg xmlns="http://www.w3.org/2000/svg" viewBox="0 0 170 170"><path d="M128.3 163.6H42.7a11.5 11.5 0 01-11.5-11.5v-134A11.5 11.5 0 0142.7 6.6h85.6a11.5 11.5 0 0111.5 11.5v134a11.5 11.5 0 01-11.5 11.5zM42.7 9.6a8.5 8.5 0 00-8.5 8.5v134a8.5 8.5 0 008.5 8.5h85.6a8.5 8.5 0 008.5-8.5v-134a8.5 8.5 0 00-8.5-8.5z"/><path d="M120.5 63.4H51.6a1.5 1.5 0 01-1.5-1.5V28.1a1.5 1.5 0 011.5-1.5h68.9a1.5 1.5 0 011.5 1.5v33.8a1.5 1.5 0 01-1.5 1.5zm-67.4-3H119V29.6H53.1zm67.4 85h-15.3a1.5 1.5 0 01-1.5-1.5v-15.7a1.5 1.5 0 011.5-1.5h15.4a1.5 1.5 0 011.5 1.5v15.7a1.5 1.5 0 01-1.6 1.5zm-13.9-3H119v-12.7h-12.3zM49.1 79.7h15.4v3H49.1zm0 31.3h15.4v3H49.1zm0 31.4h15.4v3H49.1zm58.6-62.7h15.4v3h-15.4zM49.1 95.4h15.4v3H49.1zm0 31.3h15.4v3H49.1zm29.3-47h15.4v3H78.4zm0 31.3h15.4v3H78.4zm0 31.4h15.4v3H78.4zm0-47h15.4v3H78.4zm0 31.3h15.4v3H78.4zm29.3-15.7h15.4v3h-15.4zm0-15.6h15.4v3h-15.4z"/></svg>