<svg xmlns="http://www.w3.org/2000/svg" viewBox="0 0 170 170"><path d="M152.5 19.1h-11.7a15.1 15.1 0 00-29.8 0H74.9a15.1 15.1 0 00-29.8 0H17.5a1.5 1.5 0 00-1.5 1.5v128.9a1.5 1.5 0 001.5 1.5h14.4v11a1.5 1.5 0 001.5 1.5h119.1a1.5 1.5 0 001.5-1.5V20.6a1.5 1.5 0 00-1.5-1.5zm-26.6-9.6a12.1 12.1 0 0111.9 9.6H114a12.2 12.2 0 0111.9-9.6zM60 9.5a12.1 12.1 0 0111.9 9.6H48.1A12.2 12.2 0 0160 9.5zm12.1 12.6A12.1 12.1 0 0160 33.7v3a15.1 15.1 0 0015.1-14.6H138a12.1 12.1 0 01-12.1 11.6v3A15.1 15.1 0 00141 22.1h10v23.2H34.9V22.1zm-40.2 0v23.2H19V22.1zM19 148V48.3h12.9V148zm15.9 12.5V48.3H151v112.2z"/><path d="M82.6 76.2h20.7v3H82.6zm32 0h20.7v3h-20.7zm-64 20.3h20.7v3H50.6zm32 0h20.7v3H82.6zm32 0h20.7v3h-20.7zm-64 20.3h20.7v3H50.6zm32 0h20.7v3H82.6zm32 0h20.7v3h-20.7zm-64 17.5h20.7v3H50.6zm32 0h20.7v3H82.6z"/></svg>