<svg xmlns="http://www.w3.org/2000/svg" viewBox="0 0 170 170"><path d="M122.8 152.5c-17 0-42.9-14.3-67-38.3-31.9-32-46.6-67.3-33.5-80.4l11.2-11.2a17.3 17.3 0 0124.5 0l11.1 11.2a17.3 17.3 0 010 24.5 14.3 14.3 0 000 20.3L91.5 101a14.4 14.4 0 0020.3 0 17.3 17.3 0 0124.5 0l11.2 11.2a17.3 17.3 0 010 24.4l-11.2 11.2c-3.3 3.2-7.9 4.7-13.5 4.7zM24.4 35.9C12.8 47.5 28.2 82.4 58 112.1s64.7 45.1 76.2 33.6l11.2-11.2a14.3 14.3 0 000-20.3L134.1 103a14.3 14.3 0 00-20.3 0 17.3 17.3 0 01-24.5 0L67 80.6a17.3 17.3 0 010-24.4 14.4 14.4 0 000-20.3L55.8 24.7a14.3 14.3 0 00-20.3 0z"/></svg>