<svg xmlns="http://www.w3.org/2000/svg" viewBox="0 0 170 170"><path d="M44 165a15 15 0 1115-15 15 15 0 01-15 15zm0-27a12 12 0 1012 12 12 12 0 00-12-12zm81.1 27a15 15 0 1115-15 15 15 0 01-15 15zm0-27a12 12 0 1012 12 12 12 0 00-12-12z"/><path d="M150.3 114.6l-28.1-5.1-28.5-24.1a1.5 1.5 0 00-1-.4h-53a1.5 1.5 0 00-1 .4L7 116.1a1.5 1.5 0 00-.5 1.2l1.7 35.3a1.5 1.5 0 001.5 1.4h10.4v-3h-9l-1.6-33.2L40.4 88h51.8l28.3 24 .7.3 28.5 5.2a13 13 0 0110.8 12.8v19.2h-11.7v3H162a1.5 1.5 0 001.5-1.5v-20.7a16 16 0 00-13.2-15.7z"/><path d="M85 118.8h19.4v3H85zm-17.6 30.7h34.4v3H67.4z"/></svg>