<svg id="PIKTO_LIGHT" xmlns="http://www.w3.org/2000/svg" viewBox="0 0 170 170"><title>light_black</title><path d="M44,165a15,15,0,1,1,15-15A15,15,0,0,1,44,165Zm0-27a12,12,0,1,0,12,12A12,12,0,0,0,44,138Z"/><path d="M125.1,165a15,15,0,1,1,15-15A15,15,0,0,1,125.1,165Zm0-27a12,12,0,1,0,12,12A12,12,0,0,0,125.1,138Z"/><path d="M150.3,114.6l-28.1-5.1L93.7,85.4a1.5,1.5,0,0,0-1-.4h-53a1.5,1.5,0,0,0-1,.4L7,116.1a1.5,1.5,0,0,0-.5,1.2l1.7,35.3A1.5,1.5,0,0,0,9.7,154H20.1v-3h-9L9.5,117.8,40.4,88H92.2l28.3,24,.7.3,28.5,5.2a13,13,0,0,1,10.8,12.8v19.2H148.8v3H162a1.5,1.5,0,0,0,1.5-1.5V130.3A16,16,0,0,0,150.3,114.6Z"/><rect x="85" y="118.8" width="19.4" height="3"/><rect x="67.4" y="149.5" width="34.4" height="3"/></svg>