<svg xmlns="http://www.w3.org/2000/svg" viewBox="0 0 170 170"><path d="M149.2 88.7h-5v-3h5c3.9 0 7.1-4.2 7.1-9.3V36.7c0-5.1-3.2-9.3-7.1-9.3H20.8c-3.9 0-7.1 4.2-7.1 9.3v39.7c0 5.1 3.2 9.3 7.1 9.3h5v3h-5c-5.6 0-10.1-5.5-10.1-12.3V36.7c0-6.8 4.5-12.3 10.1-12.3h128.4c5.6 0 10.1 5.5 10.1 12.3v39.7c0 6.8-4.5 12.3-10.1 12.3z"/><path d="M124.7 42.3h19.4v3h-19.4zm19.4 18.6H25.9v3h10.6v80A10.1 10.1 0 0046.6 154h76.7a10.1 10.1 0 0010.1-10.1v-80h10.7zm-104.6 83v-80H109V151H46.6a7.1 7.1 0 01-7.1-7.1zm91 0a7.1 7.1 0 01-7.1 7.1h-11.3V63.9h18.4z"/><path d="M60.4 114h3v19.45h-3z"/></svg>