<svg xmlns="http://www.w3.org/2000/svg" viewBox="0 0 170 170"><path d="M57.8 65.8h72.9v3H57.8zm0 16.8h72.9v3H57.8zm0 16.9h72.9v3H57.8zm0 16.9h36.4v3H57.8z"/><path d="M145.9 31.6L121.2 6.9a1.5 1.5 0 00-1.1-.4H43.6A1.5 1.5 0 0042.1 8v135.6a1.5 1.5 0 001.5 1.5h101.3a1.5 1.5 0 001.5-1.5V32.7a1.5 1.5 0 00-.5-1.1zm-24.2-20l19.6 19.6h-19.6zM45.1 142.1V9.5h73.6v23.2a1.5 1.5 0 001.5 1.5h23.2v107.9z"/><path d="M126.4 163.5H25.1a1.5 1.5 0 01-1.5-1.5V26.4a1.5 1.5 0 011.5-1.5h9.2v3h-7.7v132.6h98.2v-7.7h3v9.2a1.5 1.5 0 01-1.4 1.5z"/></svg>