<svg xmlns="http://www.w3.org/2000/svg" viewBox="0 0 170 170"><path d="M162 38.5H63.3a1.5 1.5 0 00-1.5 1.5v24.1H22a1.5 1.5 0 00-1.1.4l-14 14L9 80.6l13.6-13.5h39.2v7.6h3v-18h95.7v48.6h-55.6v3H162a1.5 1.5 0 001.5-1.5V40a1.5 1.5 0 00-1.5-1.5zM64.8 53.7V41.5h95.7v12.2z"/><path d="M138.7 91.3h13.8v3h-13.8zm-55.9-7.8H51.3v3h31.5a9.5 9.5 0 010 19H40.7a1.5 1.5 0 00-1.5 1.5 23.3 23.3 0 01-23.3 23.3v3a26.4 26.4 0 0026.3-24.8h10a12.7 12.7 0 00-.1 19.5H52a12.7 12.7 0 00-8.2 22.5H4.5v3h58.7a12.7 12.7 0 008.2-22.5h.1a12.7 12.7 0 008.1-22.5h3.2a12.5 12.5 0 000-25zm-9.9 57.3a9.8 9.8 0 01-9.7 9.7H51.9a9.7 9.7 0 110-19.5h11.3a9.8 9.8 0 019.7 9.8zm8.3-22.5a9.8 9.8 0 01-9.7 9.7H60.3a9.7 9.7 0 110-19.5h11.2a9.8 9.8 0 019.7 9.8z"/></svg>