<svg xmlns="http://www.w3.org/2000/svg" viewBox="0 0 170 170"><path d="M69.8 87.3a16 16 0 1116-16 16 16 0 01-16 16zm0-29a13 13 0 1013 13 13 13 0 00-13-13zm78.5 59H21.7v-3h125V54.2h3v61.7a1.5 1.5 0 01-1.4 1.4z"/><path d="M163.5 131.1H37v-3h125V67.9h3v61.7a1.5 1.5 0 01-1.5 1.5z"/><path d="M133 38.9H6.5A1.5 1.5 0 005 40.4v61.7a1.5 1.5 0 001.5 1.5H133a1.5 1.5 0 001.5-1.5V40.4a1.5 1.5 0 00-1.5-1.5zm-1.5 19.6h-7.6a10.6 10.6 0 00-8.9-9v-7.6h16.6zM112 91.3v9.2H27.5v-9.2a1.5 1.5 0 00-1.5-1.5 7.6 7.6 0 01-7.6-7.6 1.5 1.5 0 00-1.4-1.4H8V61.5h9a1.5 1.5 0 001.5-1.5 7.6 7.6 0 017.5-7.6 1.5 1.5 0 001.5-1.5v-9H112v9a1.5 1.5 0 001.5 1.5A7.6 7.6 0 01121 60a1.5 1.5 0 001.5 1.5h9v19.3h-9a1.5 1.5 0 00-1.5 1.5 7.6 7.6 0 01-7.6 7.6 1.5 1.5 0 00-1.4 1.4zM24.5 41.9v7.6a10.6 10.6 0 00-8.9 9H8V41.9zM8 83.8h7.6a10.6 10.6 0 008.9 9v7.9H8zm107 16.8v-7.9a10.6 10.6 0 008.9-9h7.6v16.8z"/></svg>