<svg xmlns="http://www.w3.org/2000/svg" viewBox="0 0 170 170"><path d="M59.7 30.8A14.9 14.9 0 0174.6 16h20.8a15 15 0 0110.3 4.1l2.1-2.1a17.7 17.7 0 00-12.4-5H74.6a17.9 17.9 0 00-17.9 17.8v.5h3z"/><path d="M72.1 28.1v58.3h3V48.9H84a1.5 1.5 0 001.5-1.5A7.5 7.5 0 0193 40a1.5 1.5 0 001.5-1.5v-8.9H106V37a1.5 1.5 0 001.5 1.5A7.5 7.5 0 01115 46a1.5 1.5 0 001.5 1.5h7.7v33.6h3v-53a1.5 1.5 0 00-1.5-1.5H73.6a1.5 1.5 0 00-1.5 1.5zm36.9 1.5h15.2v14.9h-6.3a10.5 10.5 0 00-8.9-8.9zm-33.9 0h16.4v7.5a10.5 10.5 0 00-8.9 8.8h-7.5z"/><path d="M114.9 85v-3.5a15.3 15.3 0 10-29.3 6l2.7-1.2a12.8 12.8 0 01-.9-4.8 12.3 12.3 0 0124.5 0V85zm25.5-8.9h3V33.9a1.5 1.5 0 00-1.5-1.5h-9.1v3h7.6z"/><path d="M162 38.8h-10.3v3h8.8v35.6c-6.8 3.1-38.5 17-75.5 17s-69.1-13.9-75.5-17V41.8h53.2v-3H8a1.5 1.5 0 00-1.5 1.5v113.2A1.5 1.5 0 008 155h154a1.5 1.5 0 001.5-1.5V40.3a1.5 1.5 0 00-1.5-1.5zM59 95.3a164.9 164.9 0 0026 2.1 166.8 166.8 0 0025-1.9v5.6a12.2 12.2 0 01-12.2 12.2H71.2A12.2 12.2 0 0159 101.1zM9.5 152V80.8a205.1 205.1 0 0046.5 14v6.3a15.2 15.2 0 0015.2 15.2h26.6a15.2 15.2 0 0015.2-15.2V95a203.6 203.6 0 0047.5-14.2V152z"/></svg>