<svg xmlns="http://www.w3.org/2000/svg" viewBox="0 0 170 170"><path d="M48.2 99.3h-.4a42 42 0 01-8.2-3 1.5 1.5 0 01-.8-1.4V86a33.9 33.9 0 01-4.8-4l-8.8 1.7a1.5 1.5 0 01-1.5-.6 42.3 42.3 0 01-4.3-7.5 1.5 1.5 0 01.2-1.6l5.8-6.8a33.7 33.7 0 01-.8-6.2l-7.8-4.4a1.5 1.5 0 01-.8-1.4 42.4 42.4 0 011.5-8.5 1.5 1.5 0 011.2-1.1l8.8-1.4a33.8 33.8 0 013.1-5.4l-3.2-8.3a1.5 1.5 0 01.3-1.6 42.6 42.6 0 016.6-5.6 1.5 1.5 0 011.6 0l7.7 4.6a33.6 33.6 0 015.9-2.1l2.9-8.4a1.5 1.5 0 011.3-1 43.1 43.1 0 018.7 0 1.5 1.5 0 011.3 1l2.9 8.4a33.5 33.5 0 015.9 2.1l7.7-4.6a1.5 1.5 0 011.6 0 42.5 42.5 0 016.6 5.6 1.5 1.5 0 01.3 1.6l-3.2 8.3a33.7 33.7 0 013.1 5.4l8.8 1.4a1.5 1.5 0 011.2 1.1 42.2 42.2 0 011.5 8.5 1.5 1.5 0 01-.8 1.4L91 61.4l-1.5-2.6 7.7-4.3a39.4 39.4 0 00-1.1-6.1L87.5 47a1.5 1.5 0 01-1.1-.9 30.7 30.7 0 00-3.6-6.3 1.5 1.5 0 01-.2-1.4l3.1-8.2a39.7 39.7 0 00-4.7-4l-7.5 4.5a1.5 1.5 0 01-1.4.1 30.6 30.6 0 00-6.8-2.5 1.5 1.5 0 01-1.1-1L61.3 19a40.1 40.1 0 00-6.2 0l-2.9 8.3a1.5 1.5 0 01-1.1 1 30.6 30.6 0 00-6.8 2.5 1.5 1.5 0 01-1.4-.1l-7.5-4.5a39.6 39.6 0 00-4.7 4l3.1 8.2a1.5 1.5 0 01-.2 1.4 30.7 30.7 0 00-3.6 6.3 1.5 1.5 0 01-1.1.9l-8.7 1.4a39.5 39.5 0 00-1.1 6.1l7.7 4.3a1.5 1.5 0 01.8 1.2 30.7 30.7 0 001.2 7.1 1.5 1.5 0 01-.3 1.4l-5.7 6.6a39.4 39.4 0 003.1 5.3l8.6-1.7a1.5 1.5 0 011.4.4 30.8 30.8 0 005.4 4.9 1.5 1.5 0 01.7 1.3V94a39.1 39.1 0 005.8 2.1l5.6-6.8 2.3 1.9-6.2 7.6a1.5 1.5 0 01-1.3.5z"/><path d="M118.7 154a1.5 1.5 0 01-1.2-.6l-6.3-7.7a35.9 35.9 0 01-7 0l-6.2 7.7a1.5 1.5 0 01-1.5.5 46.1 46.1 0 01-8.9-3.2 1.5 1.5 0 01-.8-1.4v-9.9a37.1 37.1 0 01-5.4-4.5l-9.7 1.9a1.5 1.5 0 01-1.5-.6 46.4 46.4 0 01-4.8-8.2 1.5 1.5 0 01.2-1.6l6.5-7.5A37 37 0 0171 112l-8.6-4.8a1.5 1.5 0 01-.8-1.4 46.3 46.3 0 011.6-9.4 1.5 1.5 0 011.2-1.1l9.8-1.6a36.9 36.9 0 013.5-6.1l-3.5-9.2a1.5 1.5 0 01.3-1.6 46.6 46.6 0 017.3-6.1 1.5 1.5 0 011.6 0l8.6 5a36.7 36.7 0 016.6-2.4l3.3-9.4a1.5 1.5 0 011.3-1 47.1 47.1 0 019.5 0 1.5 1.5 0 011.3 1l3.3 9.4a36.7 36.7 0 016.6 2.4l8.5-5.1a1.5 1.5 0 011.6 0 46.7 46.7 0 017.3 6.1 1.5 1.5 0 01.3 1.6l-3.5 9.2a36.9 36.9 0 013.5 6.1l9.8 1.6a1.5 1.5 0 011.2 1.1 46.3 46.3 0 011.6 9.4 1.5 1.5 0 01-.8 1.4l-8.6 4.8a36.8 36.8 0 01-1.2 6.9l6.5 7.5a1.5 1.5 0 01.2 1.6 46.4 46.4 0 01-4.8 8.2 1.5 1.5 0 01-1.5.6l-9.7-1.9a37.1 37.1 0 01-5.4 4.5v9.9a1.5 1.5 0 01-.8 1.4 46 46 0 01-8.9 3.2zm-6.7-11.3a1.5 1.5 0 011.2.6l6.2 7.6a43 43 0 006.6-2.4v-9.8a1.5 1.5 0 01.7-1.3 34.1 34.1 0 006.1-5.1 1.5 1.5 0 011.4-.4l9.6 1.8a43.4 43.4 0 003.5-6.1l-6.4-7.4a1.5 1.5 0 01-.3-1.4 33.8 33.8 0 001.4-7.8 1.5 1.5 0 01.8-1.2l8.5-4.7a43.3 43.3 0 00-1.2-6.9l-9.6-1.6a1.5 1.5 0 01-1.1-.9 33.9 33.9 0 00-4-6.9 1.5 1.5 0 01-.2-1.4l3.5-9.1a43.7 43.7 0 00-5.4-4.5l-8.4 5a1.5 1.5 0 01-1.4.1 33.8 33.8 0 00-7.5-2.7 1.5 1.5 0 01-1.1-1l-3.2-9.2a44 44 0 00-7 0l-3.2 9.2a1.5 1.5 0 01-1.1 1 33.8 33.8 0 00-7.5 2.7 1.5 1.5 0 01-1.4-.1l-8.4-5a43.7 43.7 0 00-5.4 4.5l3.5 9.1a1.5 1.5 0 01-.2 1.4 33.8 33.8 0 00-4 6.9 1.5 1.5 0 01-1.1.9l-9.6 1.6a43.3 43.3 0 00-1.2 6.9l8.5 4.7a1.5 1.5 0 01.4 1.2 33.8 33.8 0 001.4 7.8 1.5 1.5 0 01-.3 1.4l-6.4 7.4a43.2 43.2 0 003.5 6.1l9.6-1.8a1.5 1.5 0 011.4.4 34.1 34.1 0 006.1 5.1 1.5 1.5 0 01.7 1.3v9.8a43 43 0 006.6 2.4l6.2-7.6a1.5 1.5 0 011.3-.5 32.9 32.9 0 008 0z"/><path d="M107.8 125a16 16 0 1116-16 16 16 0 01-16 16zm0-29a13 13 0 1013 13 13 13 0 00-13-13zM57.9 73.7a16 16 0 1116-16 16 16 0 01-16 16zm0-29a13 13 0 1013 13 13 13 0 00-13-13z"/></svg>