<svg xmlns="http://www.w3.org/2000/svg" viewBox="0 0 170 170"><path d="M161.9 20.6a1.5 1.5 0 00-1.7.7l-44.7 75.6-18.9-23.2a1.6 1.6 0 00-1.3-.6 1.5 1.5 0 00-1.2.7l-22.5 35.4-15.8-12a1.5 1.5 0 00-2 .1L6.9 148.4a1.6 1.6 0 00-.3 1.6 1.5 1.5 0 001.4.9h154a1.2 1.2 0 001-.4 1.6 1.6 0 00.5-1.1L163 22a1.5 1.5 0 00-1.1-1.4zM11.4 147.9l43.7-47.5 16 12.1a1.3 1.3 0 001.2.3 1.7 1.7 0 001-.7l22.2-34.9 19 23.2a1.6 1.6 0 001.3.6 1.5 1.5 0 001.2-.7l43-72.8.5 120.4zM5 73.4h49.9v3H5zm0-26.8h77v3H5zM5 19h102.2v3H5z"/></svg>