<svg xmlns="http://www.w3.org/2000/svg" viewBox="0 0 170 170"><path d="M159.9 64.5a13.1 13.1 0 00-9.8-4.3h-39.6a5.1 5.1 0 01-5.1-5.1v-33a11.9 11.9 0 00-3.6-8.8 12.7 12.7 0 00-9-3.6c-7.6 0-10.7 6.9-10.8 7.1-17 35-38.4 50.4-41.4 52.4H5v3h34.6v78.7H5v3h36.1a1.5 1.5 0 001.5-1.5v-11.6c6.3.1 12.5 2.8 17.2 5.1l4.4 2.3c4.6 2.4 9.3 4.9 14.3 6.4 6.8 2 13.8 2.2 21.6 2.3h35.6c7 0 13-5.2 13.6-11.9a13.1 13.1 0 00-3.3-10.2 17.1 17.1 0 00-2-1.8 13.4 13.4 0 0010.2-11.5 12.7 12.7 0 00-3.4-10.1 18 18 0 00-2-1.9 13.3 13.3 0 0010-11.4 13.5 13.5 0 00-3.4-10.2 9.1 9.1 0 00-2.1-1.8 13.1 13.1 0 006.6-21.6zm.4 9.9c-.5 5.1-5.2 9.2-10.7 9.2h-4a1.5 1.5 0 000 3 10.3 10.3 0 017.6 3.3 10.4 10.4 0 012.6 7.9c-.5 5.2-5.2 9.2-10.7 9.2H141a1.5 1.5 0 00-1.5 1.5 1.5 1.5 0 001.5 1.5 10.4 10.4 0 017.6 3.4 9.8 9.8 0 012.6 7.9c-.5 5.1-5.2 9.2-10.7 9.2h-4.3a1.5 1.5 0 00-1.5 1.5 1.5 1.5 0 001.5 1.5 10.1 10.1 0 0110.1 11.2c-.4 5.2-5.1 9.2-10.6 9.2h-35.6c-7.5-.1-14.3-.3-20.7-2.2a77.2 77.2 0 01-13.8-6.1l-4.4-2.3c-5.1-2.6-11.7-5.4-18.6-5.5V71.5c4.1-2.8 25-18.2 42.2-53.4 0-.2 2.4-5.4 8-5.4a9.9 9.9 0 016.9 2.8 8.7 8.7 0 012.7 6.6v33a8.1 8.1 0 008.1 8.1h39.6a10.1 10.1 0 0110.2 11.2z"/></svg>