<svg xmlns="http://www.w3.org/2000/svg" viewBox="0 0 170 170"><path d="M38 154h-.6a1.5 1.5 0 01-.9-1.4v-27.7H19.3a1.5 1.5 0 01-1.5-1.5V17.5a1.5 1.5 0 011.5-1.5h131.4a1.5 1.5 0 011.5 1.5v105.9a1.5 1.5 0 01-1.5 1.5H67.6L39 153.6a1.5 1.5 0 01-1 .4zm-17.2-32.1H38a1.5 1.5 0 011.5 1.5v25.5l26.4-26.5a1.5 1.5 0 011.1-.4h82.2V19H20.8z"/><path d="M48.8 79.3a9.1 9.1 0 119.1-9.1 9.1 9.1 0 01-9.1 9.1zm0-15.1a6.1 6.1 0 106.1 6.1 6.1 6.1 0 00-6.1-6.1zm72.4 15.1a9.1 9.1 0 119.1-9.1 9.1 9.1 0 01-9.1 9.1zm0-15.1a6.1 6.1 0 106.1 6.1 6.1 6.1 0 00-6.1-6.1zM85 79.3a9.1 9.1 0 119.1-9.1 9.1 9.1 0 01-9.1 9.1zm0-15.1a6.1 6.1 0 106.1 6.1 6.1 6.1 0 00-6.1-6.1z"/></svg>