<svg xmlns="http://www.w3.org/2000/svg" viewBox="0 0 170 170"><path d="M141.3 165h-3v-26.9c0-17.6-13.4-32.5-30.6-34.2l-21.9 14.5a1.5 1.5 0 01-1.7 0l-21.8-14.5c-17.2 1.7-30.6 16.7-30.6 34.2V165h-3v-26.9a37 37 0 0133-37.2 1.5 1.5 0 011.6 0L85 115.4l21.3-14.2h.3a1.5 1.5 0 011.6 0c18.6 2 33 18.2 33 37.2zM85 95.8a27.2 27.2 0 01-27.2-27.2V32.2a1.5 1.5 0 011.5-1.5h1.6c13.7 0 24.6 10.2 25.1 10.6s10.5 9.8 23 9.8h1.6a1.5 1.5 0 011.5 1.5v16A27.2 27.2 0 0185 95.8zM60.8 33.7v35a24.2 24.2 0 0048.4 0V54.1h-.2c-13.7 0-24.6-10.2-25.1-10.6s-10.5-9.8-23-9.8z"/><path d="M51.9 93.1c-6.7-1.7-14.6-4.7-14.6-9.7V49.7C37.3 27 55.5 8.3 77.8 8h13.9c22.4.3 40.6 19 40.6 41.7v33.7c0 4.9-7.6 7.9-14 9.5l-.8-2.9c8.7-2.3 11.8-5 11.8-6.6V49.7c0-21.1-16.9-38.4-37.6-38.7H77.9c-20.7.3-37.6 17.6-37.6 38.7v33.7c0 1.7 3.2 4.5 12.3 6.8z"/></svg>