<svg xmlns="http://www.w3.org/2000/svg" viewBox="0 0 170 170"><path d="M121.3 163.5H48.7A16.8 16.8 0 0132 146.8V23.2A16.8 16.8 0 0148.7 6.5h72.6A16.8 16.8 0 01138 23.2v123.6a16.8 16.8 0 01-16.7 16.7zM48.7 9.5a13.7 13.7 0 00-13.8 13.7v123.6a13.7 13.7 0 0013.7 13.7h72.6a13.7 13.7 0 0013.7-13.7V23.2a13.7 13.7 0 00-13.6-13.7z"/><path d="M121.9 83.3H48.1a1.5 1.5 0 01-1.5-1.5v-61a1.5 1.5 0 011.5-1.5h73.8a1.5 1.5 0 011.5 1.5v61a1.5 1.5 0 01-1.5 1.5zm-72.3-3h70.8v-58H49.6zm27.1 18.1h16.7v3H76.7zm0 15.8h16.7v3H76.7zm0 15.4h16.7v3H76.7zm0 15.9h16.7v3H76.7zM45.3 98.4H62v3H45.3zm0 15.8H62v3H45.3zm0 15.4H62v3H45.3zm0 15.9H62v3H45.3zm59.9-47.1h16.7v3h-16.7zm0 15.8h16.7v3h-16.7zm0 15.4h16.7v3h-16.7zm0 15.9h16.7v3h-16.7z"/><path d="M81 62.2a1.5 1.5 0 01-1.1-.4l-8.7-8.7 2.2-2.1 7.6 7.6 18-17.9 2.1 2.1-19 19a1.5 1.5 0 01-1.1.4z"/></svg>