<svg xmlns="http://www.w3.org/2000/svg" viewBox="0 0 170 170"><path d="M85 9.3a18.1 18.1 0 0118 18.1h3a21 21 0 10-42 0h3A18.1 18.1 0 0185 9.3z"/><path d="M85 31.9a65.9 65.9 0 1065.9 65.9A66 66 0 0085 31.9zm0 128.8a62.9 62.9 0 1162.9-62.9A62.9 62.9 0 0185 160.7z"/><path d="M97.2 109.3l22.2-43.9a1.5 1.5 0 00-.3-1.8 1.5 1.5 0 00-1.7-.2L73.5 85.6l-.7.7-22.2 43.9a1.4 1.4 0 00.3 1.7 1.2 1.2 0 001 .5l.7-.2 43.9-22.3a1.3 1.3 0 00.7-.6zm-1.8-3.2L76.7 87.4l38-19.3zM74.6 89.5l18.7 18.7-38 19.3zm8.9-46.1h3v15.46h-3zm0 93.3h3v15.46h-3zm26-27.9l-2.7 1.4 9.8 19.2-19.2-9.8-1.4 2.7 23.3 11.8.7.2a1.6 1.6 0 001.1-.5 1.5 1.5 0 00.2-1.7zM63.6 86.2l-10.2-20 20.5 10.4 1.3-2.7-24.5-12.4a1.4 1.4 0 00-2 2l12.2 24z"/></svg>