<svg xmlns="http://www.w3.org/2000/svg" viewBox="0 0 170 170"><path d="M86.5 99.8h-3V162H67v3h36v-3H86.5V99.8z"/><path d="M124.9 87.8c-9.6-5.8-19.1-8.8-24.5-8.3a16 16 0 00-11.5-20.1c2.5-3.3 4.4-9.6 5.1-17.3a34.1 34.1 0 0120.7 16.4l2.4-1.8a37.1 37.1 0 00-22.8-17.6c.1-1.6.2-3.3.2-5a73.3 73.3 0 00-1.2-13.6A55 55 0 01140 74.9a55.6 55.6 0 01-.4 6.4l3 .3a58.6 58.6 0 00.4-6.7 58 58 0 00-50.4-57.5C90.8 10.7 88.1 6.3 85 6.3c-5.2 0-9.5 12.5-9.5 27.8 0 11.3 2.3 20.9 5.6 25.3a16 16 0 00-11.4 20.1c-4.1-.4-10.4 1.2-17.4 4.5a33.9 33.9 0 011.5-22.5L51 60.3a37.1 37.1 0 00-1.5 25.1l-4.4 2.4a73.3 73.3 0 00-11 8 55 55 0 0114.2-62l-2.3-2a58 58 0 00-14.2 66.3c-4.9 5-7.2 9.6-5.6 12.2 2.7 4.5 15.6 1.7 28.7-6.2 9.6-5.8 16.8-12.7 18.8-17.8a16 16 0 0022.5 0c1.6 3.8 6 8.7 12.1 13.3a34 34 0 01-9.5 6.4l1.2 2.8a37.1 37.1 0 0010.8-7.4l4.2 2.7a73.3 73.3 0 0012.2 6 55 55 0 01-29.9 18.5l.6 2.9a58 58 0 0032.5-20.5c6.7 2 11.8 1.9 13.4-.8 2.7-4.4-5.8-14.5-18.9-22.4zM78.5 34.1c0-13.7 2.9-24.8 6.5-24.8s6.5 11.1 6.5 24.8-2.9 24.8-6.5 24.8-6.5-11.1-6.5-24.8zm-25.1 67.4c-11.7 7.1-22.8 10.3-24.6 7.2S35 97.4 46.7 90.4s22.8-10.3 24.6-7.2-6.2 11.2-17.9 18.3zM85 87.9a13 13 0 1113-13 13 13 0 01-13 13zm56.2 20.8c-1.8 3.1-12.9-.2-24.6-7.2S96.9 86.2 98.7 83.2s12.9.2 24.6 7.2 19.8 15.3 17.9 18.3z"/></svg>