<svg xmlns="http://www.w3.org/2000/svg" viewBox="0 0 170 170"><path d="M124.6 98.2H53.3v-3h71.4a28 28 0 004.7-55.7l-.9-.2-.3-.9a28 28 0 00-26.6-19.2v-3a31 31 0 0129.2 20.4 31 31 0 01-6.1 61.5zm-79.2 0A31 31 0 0135 37.9c0-.6-.1-1.3-.1-1.9a31 31 0 0157-17l-2.5 1.6A28 28 0 0038 36c0 .9 0 1.9.1 2.8V40l-1.2.4a28 28 0 008.3 54.8zm-19.198 66.045l9.697-17.493 2.623 1.455-9.696 17.492zm-4.851-34.922l9.696-17.493 2.624 1.455-9.696 17.492zm33.122.247l9.696-17.493 2.624 1.455-9.696 17.492zm5.516 34.712l9.696-17.492 2.624 1.454-9.696 17.493zm28.271-34.774l9.696-17.493 2.624 1.455-9.696 17.492zm5.564 34.725l9.696-17.493 2.624 1.455-9.696 17.492zm28.222-34.687l9.697-17.493 2.623 1.455L124.67 131z"/></svg>