<svg xmlns="http://www.w3.org/2000/svg" viewBox="0 0 170 170"><path d="M49.1 32.8a27.8 27.8 0 00-27.8 27.7V79A27.8 27.8 0 0049 106.7v-3A24.8 24.8 0 0124.3 79v-6a27.7 27.7 0 1024.8-40.2zm0 52.5a24.7 24.7 0 1124.7-24.8 24.8 24.8 0 01-24.7 24.7zm37.4 4.3a27.8 27.8 0 00-27.7 27.7v18.5a27.7 27.7 0 0055.5 0v-18.4a27.8 27.8 0 00-27.8-27.8zm0 3a24.7 24.7 0 11-24.7 24.7 24.8 24.8 0 0124.7-24.7zm1.5 52.5a27.5 27.5 0 009.6-2.3v15.1a24.5 24.5 0 01-9.6 2.6zm-26.2-9.2V130A27.8 27.8 0 0085 145.1v15.5a24.8 24.8 0 01-23.2-24.8zm49.5 0a24.7 24.7 0 01-10.6 20.3v-15a27.9 27.9 0 0010.6-11.3zm9.6-129.4a27.8 27.8 0 00-27.7 27.7v18.5a27.7 27.7 0 0055.5 0V34.2a27.8 27.8 0 00-27.8-27.7zm0 3a24.7 24.7 0 11-24.7 24.7 24.8 24.8 0 0124.7-24.7zm-1.5 52.4v15.5a24.5 24.5 0 01-9.6-2.6V59.6a27.5 27.5 0 009.6 2.3zm-23.2-9.2v-6A27.9 27.9 0 00106.8 58v14.9a24.7 24.7 0 01-10.6-20.2zm49.5 0a24.8 24.8 0 01-23.2 24.7V61.9a27.8 27.8 0 0023.2-15.2z"/></svg>