<svg xmlns="http://www.w3.org/2000/svg" viewBox="0 0 170 170"><path d="M154.9 114.4h-61l-.5-1.5a14.5 14.5 0 00-8.1-7.9L47.4 90.1H8a1.5 1.5 0 00-1.5 1.5V162a1.5 1.5 0 001.5 1.5h20.9a1.5 1.5 0 001.5-1.5v-12l40.9 8.6a27.5 27.5 0 0014.7-1.2l71.9-26.4a8.6 8.6 0 00-3-16.6zM27.4 160.5H9.5V93h17.9zm129.4-32.3l-71.9 26.4a24.5 24.5 0 01-13 1.1L30.4 147V93h16.2l37.6 14.7a11.6 11.6 0 01-8.5 21.5l-25.7-10-1.1 2.8 25.7 10.1a14.7 14.7 0 005.4 1 14.6 14.6 0 0014.5-15.7H155a5.6 5.6 0 011.9 10.8zM85 52.8a23.1 23.1 0 10-23.1-23.2A23.2 23.2 0 0085 52.8zm0-43.3a20.1 20.1 0 11-20.1 20.1A20.2 20.2 0 0185 9.5zm45.9 90.9a23.1 23.1 0 10-23.1-23.1 23.2 23.2 0 0023.1 23.1zm0-43.3a20.1 20.1 0 11-20.1 20.1 20.2 20.2 0 0120.1-20.1z"/></svg>