<svg xmlns="http://www.w3.org/2000/svg" viewBox="0 0 170 170"><path d="M48.1 107.5a16 16 0 1116-16 16 16 0 01-16 16zm0-29a13 13 0 1013 13 13 13 0 00-13-13zm7.6 41a16 16 0 0116 16V165h-3v-29.5a13 13 0 00-13-13h-15a13 13 0 00-13 13V165h-3v-29.5a16 16 0 0116-16zm66.2-12a16 16 0 1116-16 16 16 0 01-16 16zm0-29a13 13 0 1013 13 13 13 0 00-13-13zm7.5 41a16 16 0 0116 16V165h-3v-29.5a13 13 0 00-13-13h-15a13 13 0 00-13 13V165h-3v-29.5a16 16 0 0116-16zM85 38.5a16 16 0 1116-16 16 16 0 01-16 16zm0-29a13 13 0 1013 13 13 13 0 00-13-13zm7.5 41h-15a16 16 0 00-16 16v3.7h3v-3.7a13 13 0 0113-13h15a13 13 0 0113 13v3.7h3v-3.7a16 16 0 00-16-16z"/></svg>