<svg xmlns="http://www.w3.org/2000/svg" viewBox="0 0 170 170"><path d="M152.8 19h-136A10.5 10.5 0 006.3 29.5v83.4a10.5 10.5 0 0010.5 10.5h45.4v10.3A14.2 14.2 0 0148 147.9a1.5 1.5 0 000 3h73.6a1.5 1.5 0 100-3 14.2 14.2 0 01-14.2-14.2v-10.3h45.3a10.5 10.5 0 0010.5-10.5V29.5A10.5 10.5 0 00152.8 19zm-136 3h136a7.5 7.5 0 017.5 7.5v6.2H9.3v-6.2a7.5 7.5 0 017.5-7.5zm143.5 16.7v65.9H9.3V38.7zM112 147.9H57.8a17.2 17.2 0 007.5-14.2v-10.3h39.3v10.3a17.2 17.2 0 007.4 14.2zm40.8-27.4h-136a7.5 7.5 0 01-7.5-7.5v-5.2h151v5.2a7.5 7.5 0 01-7.5 7.4z"/></svg>