<svg xmlns="http://www.w3.org/2000/svg" viewBox="0 0 170 170"><path d="M163.3 112.5l-25.7-45.6h-36v3h34.2l23.5 41.9h-40.6a1.5 1.5 0 00-1.5 1.5v23.2H52.7v-23.3a1.5 1.5 0 00-1.5-1.5H10.5l23.3-41.8H68v-3H32.9a1.5 1.5 0 00-1.3.8l-25 44.8a1.5 1.5 0 00-.2.7v50.3A1.5 1.5 0 008 165h154a1.5 1.5 0 001.5-1.5v-50.3a1.5 1.5 0 00-.2-.7zm-2.8 49.5H9.5v-47.3h40.2v23.2a1.5 1.5 0 001.5 1.5h67.5a1.5 1.5 0 001.5-1.5v-23.2h40.3z"/><path d="M122.1 81.1l-35.6 35.5V5h-3v111.6L48 81.1l-2.1 2.1L85 122.4l39.2-39.2-2.1-2.1z"/></svg>