<svg xmlns="http://www.w3.org/2000/svg" viewBox="0 0 170 170"><path d="M120.3 64.3a8.7 8.7 0 00-2.5 5.8h-10.4a1.6 1.6 0 00-1.1.5l-9.6 9.6V49.6a8.7 8.7 0 007.3-8.7 8.9 8.9 0 10-17.7 0 8.9 8.9 0 002.6 6.3 8.8 8.8 0 004.8 2.4v51.3L77.7 85a1.3 1.3 0 00-1-.4H66.2a8.8 8.8 0 00-2.5-5.9 9.1 9.1 0 00-12.6 0 8.9 8.9 0 006.3 15.2 9.1 9.1 0 006.3-2.6 10.1 10.1 0 002.2-3.7H76l17.7 17.6v47.5h3V84.4L108 73.1h10.1a8.7 8.7 0 002.2 3.7 8.9 8.9 0 006.3 2.6 8.9 8.9 0 100-17.7 8.9 8.9 0 00-6.3 2.6zM61.5 89.2a5.7 5.7 0 01-4.1 1.7 5.9 5.9 0 01-4.2-1.7 6 6 0 010-8.4 5.9 5.9 0 014.2-1.7 5.7 5.7 0 014.1 1.7 5.8 5.8 0 010 8.4zm27.8-48.3a5.8 5.8 0 015.9-5.9 5.8 5.8 0 014.1 1.7 5.9 5.9 0 011.7 4.2 5.9 5.9 0 01-11.7 0zm43.2 29.7a5.8 5.8 0 01-1.7 4.1 5.9 5.9 0 01-4.2 1.7 5.9 5.9 0 010-11.7 5.8 5.8 0 015.9 5.9z"/><path d="M92.2 6.5a59.2 59.2 0 00-38.6 16.2 52.9 52.9 0 00-15.7 38.2 9 9 0 01-1.4 4.8L19.7 92.3a8.9 8.9 0 007.6 13.6h7.1a3.5 3.5 0 013.5 3.4v9.7a17.9 17.9 0 0017.9 17.9h9.5V162a1.5 1.5 0 001.5 1.5h55.9a1.5 1.5 0 001.5-1.5v-34.6a30.8 30.8 0 019.5-22.6A56.9 56.9 0 0092.2 6.5zm39.5 96.1a34 34 0 00-10.5 24.8v33.1H68.3v-25.1a1.5 1.5 0 00-1.5-1.5h-11A14.9 14.9 0 0140.9 119v-9.7a6.4 6.4 0 00-6.5-6.4h-7.1a6 6 0 01-5.1-9l16.9-26.6a12.8 12.8 0 001.8-6.4c0-28.4 21.6-50 51.4-51.4a53.9 53.9 0 0139.4 93.1z"/></svg>