<svg xmlns="http://www.w3.org/2000/svg" viewBox="0 0 170 170"><path d="M117.9 152.4V165h3v-12.6a31.9 31.9 0 0030.3-31.8 1.5 1.5 0 00-1.5-1.5 31.8 31.8 0 00-30.3 22.2 31.8 31.8 0 00-30.3-22.2 1.5 1.5 0 00-1.5 1.5 31.9 31.9 0 0030.3 31.8zm30.2-30.2a28.8 28.8 0 01-27.2 27.2 28.8 28.8 0 0127.2-27.2zm-30.2 27.2a28.8 28.8 0 01-27.2-27.2 28.8 28.8 0 0127.2 27.2zm1.5-32.3a31.9 31.9 0 0031.8-31.8 1.5 1.5 0 00-1.5-1.5 31.8 31.8 0 00-30.3 22.1 31.8 31.8 0 00-30.3-22.1 1.5 1.5 0 00-1.5 1.5 31.9 31.9 0 0031.8 31.8zm28.7-30.3a28.8 28.8 0 01-27.2 27.3 28.9 28.9 0 0127.2-27.3zm-30.2 27.3a28.8 28.8 0 01-27.2-27.3 28.9 28.9 0 0127.2 27.3zM87.6 50a31.8 31.8 0 1063.6 0 1.5 1.5 0 00-1.5-1.5 31.8 31.8 0 00-30.3 22.1 31.8 31.8 0 00-30.3-22.1 1.5 1.5 0 00-1.5 1.5zm60.5 1.5a28.6 28.6 0 01-27.2 27.2 28.9 28.9 0 0127.2-27.2zm-30.2 27.2a28.6 28.6 0 01-27.2-27.2 28.9 28.9 0 0127.2 27.2z"/><path d="M119.4 52.3a1.5 1.5 0 001.1-.4 31.9 31.9 0 000-45 1.8 1.8 0 00-2.2 0 31.9 31.9 0 000 45 1.5 1.5 0 001.1.4zm0-42.1a28.8 28.8 0 010 38.4 28.1 28.1 0 01-7.4-19.2 28.3 28.3 0 017.4-19.2zM44.1 146.1V165h3v-18.9a26.8 26.8 0 0025.3-26.7 1.5 1.5 0 00-1.5-1.5 26.9 26.9 0 00-25.3 17.9 26.9 26.9 0 00-25.3-17.9 1.5 1.5 0 00-1.5 1.5 26.8 26.8 0 0025.3 26.7zm25.2-25.2a23.8 23.8 0 01-22.1 22.2 23.8 23.8 0 0122.1-22.2zm-25.2 22.2a23.8 23.8 0 01-22.2-22.2 23.9 23.9 0 0122.2 22.2zM18.8 84.3a26.8 26.8 0 0053.6 0 1.5 1.5 0 00-1.5-1.5 26.8 26.8 0 00-25.3 18 26.8 26.8 0 00-25.3-18 1.5 1.5 0 00-1.5 1.5zm50.5 1.6a23.8 23.8 0 01-22.1 22.2 23.7 23.7 0 0122.1-22.2zm-25.2 22.2a23.8 23.8 0 01-22.2-22.2 23.8 23.8 0 0122.2 22.2zm1.5-27.4a1.6 1.6 0 001.1-.5 26.9 26.9 0 000-37.9 1.6 1.6 0 00-2.2 0 26.9 26.9 0 000 37.9 1.6 1.6 0 001.1.5zm0-35.1a23.5 23.5 0 015.9 15.7A23.9 23.9 0 0145.6 77a23.8 23.8 0 010-31.4z"/></svg>