<svg xmlns="http://www.w3.org/2000/svg" viewBox="0 0 170 170"><path d="M61.9 85.5a11.2 11.2 0 10-11.2-11.2 11.2 11.2 0 0011.2 11.2zm0-19.4a8.2 8.2 0 11-8.2 8.2 8.2 8.2 0 018.2-8.2zm-13.2 37.6a8.1 8.1 0 018-8.2h10.4a8.1 8.1 0 018 8.2v46.8h3v-46.8a11.1 11.1 0 00-11-11.2H56.7a11.1 11.1 0 00-11 11.2v46.8h3zm59.4-18.2a11.2 11.2 0 10-11.2-11.2 11.2 11.2 0 0011.2 11.2zm0-19.4a8.2 8.2 0 11-8.2 8.2 8.2 8.2 0 018.2-8.2zm-13.3 37.6a8.1 8.1 0 018-8.2h10.4a8.1 8.1 0 018 8.2v46.8h3v-46.8a11.1 11.1 0 00-11-11.2h-10.3a11.1 11.1 0 00-11 11.2v46.8h3z"/><path d="M144.4 41.8H25.6a1.5 1.5 0 00-1.5 1.5V162a1.5 1.5 0 001.5 1.5h118.8a1.5 1.5 0 001.5-1.5V43.3a1.5 1.5 0 00-1.5-1.5zm-1.5 118.7H27.1V44.8h115.8zm-76-126.8l13.9-13.9-2.1-2.1L68.4 28V5.9h-3V28L55.1 17.7 53 19.8l13.9 13.9zm39.7-27.8L92.7 19.8l2.1 2.1 10.3-10.3v22.1h3V11.6l10.3 10.3 2.2-2.1-14-13.9z"/></svg>