<svg xmlns="http://www.w3.org/2000/svg" viewBox="0 0 170 170"><path d="M8 123.5h18.4a15.8 15.8 0 0031.5 0h54.2a15.8 15.8 0 0031.5 0H162a1.5 1.5 0 001.5-1.5V96.6a7.4 7.4 0 00-5.1-7.1l-14.3-5.3-7.2-17.5a7.5 7.5 0 00-7-4.8h-25V33.6a1.5 1.5 0 00-1.5-1.5H8a1.5 1.5 0 00-1.5 1.5V122a1.5 1.5 0 001.5 1.5zm34.2 11.4a12.9 12.9 0 110-25.7 12.9 12.9 0 010 25.7zm85.6 0a12.9 12.9 0 1112.9-12.9 12.8 12.8 0 01-12.9 12.9zM9.5 35.1h92.4v58.2H9.5zm0 61.2h93.9a1.5 1.5 0 001.5-1.5V64.9h25a4.6 4.6 0 014.2 2.9l7.5 18.1a1.4 1.4 0 00.9.8l14.9 5.6a4.4 4.4 0 013.1 4.3v23.9h-16.9a15.8 15.8 0 00-31.5 0H57.9a15.8 15.8 0 00-31.5 0H9.5z"/><path d="M113.5 86.5h15v3h-15z"/></svg>