<svg xmlns="http://www.w3.org/2000/svg" viewBox="0 0 170 170"><path d="M124.3 24a1.7 1.7 0 00-2.1 0l-16.9 16.9-.6.7a17.3 17.3 0 01-9.6 4.8l-4.5.7-3 .7-5.6-2a15.2 15.2 0 00-5.3-1.3h-1.6c-3.3-.5-7-1-9.9-3.3L48.4 24.3a1.4 1.4 0 00-2.1 0L6.9 63.6a1.6 1.6 0 000 2.2l16.9 16.8 14.3 14.3a9.4 9.4 0 00.1 13.3 8.9 8.9 0 006.3 2.7 9.6 9.6 0 00-2 5.9 9.4 9.4 0 002.7 6.7 9.6 9.6 0 006.7 2.7 10 10 0 003.8-.8 9.4 9.4 0 009.3 10 8.6 8.6 0 003.9-.9 9.3 9.3 0 009.4 9.9 9.6 9.6 0 006.6-2.7l.3-.3 3.4-3.4.3-.2.3-.3h.1a21.4 21.4 0 001.3-1.9 9.1 9.1 0 005.6 1.8 9.6 9.6 0 006.6-2.7 9.1 9.1 0 002.7-6.6v-.2a10.3 10.3 0 004.5 1.1 9.3 9.3 0 008.9-12.2h1.2a9.1 9.1 0 006.6-2.8 9.2 9.2 0 000-13.2l-.7-.7 20.2-20.2L163.1 65a1.4 1.4 0 000-2.1zM10.1 64.7l37.2-37.2 14.8 14.7-37.2 37.2zm34.7 45.2a6.3 6.3 0 01-4.5-1.8 6.5 6.5 0 010-9.1l4-4a6.5 6.5 0 019 0 6.5 6.5 0 010 9.1l-2 2-1.2 1.2-.8.8a6.3 6.3 0 01-4.5 1.8zm13.6 11.4l-2 2a6.4 6.4 0 01-4.5 1.9 6.6 6.6 0 01-4.6-1.9 6.5 6.5 0 010-9l4.9-4.9 1.2-1.2a6.6 6.6 0 014.6-1.9 6.4 6.4 0 014.5 10.9l-4.1 4.1zm11.1 11.2a6.4 6.4 0 01-9-9l4.1-4.1a6.3 6.3 0 019 0 6.3 6.3 0 010 9l-.9 1zm17.6 4.7h-.2v.2h-.1l-3.8 3.9h-.2a6.3 6.3 0 01-9 0 6.3 6.3 0 010-9l4.1-4.1h.1a6.4 6.4 0 019.1 8.9zm37.5-23.4a6.3 6.3 0 01-9 0L97.7 95.9 95.6 98l17.9 17.9a5.2 5.2 0 001.1 1h-.1a6.3 6.3 0 010 9 6.5 6.5 0 01-9 0L86.6 107l-2.2 2.1 16.3 16.3a6.3 6.3 0 011.8 4.5 6.2 6.2 0 01-1.8 4.4 6.3 6.3 0 01-9 0l-.2.2a9.3 9.3 0 00-13-10 10.1 10.1 0 00-2.7-7.3 9.8 9.8 0 00-6.7-2.7l-2 .2a9.4 9.4 0 00-9.1-11.4h-.6a9.3 9.3 0 00-2-10.4 9.4 9.4 0 00-13.2 0l-2 1.9L27 81.6l37.4-37.4c3.3 2.1 7 2.7 10.3 3.1l1.7.2a12.3 12.3 0 014.3 1h.2l2.7 1a25.9 25.9 0 00-4.2 3.2L61 71.2a7.2 7.2 0 003.7 12.1c5.7 1.1 13.6-2.6 17.7-6.8l5.4-5.3a2.2 2.2 0 013.2 0l22.6 22.6 11 11a6.3 6.3 0 010 9zm-.7-14l-19.8-19.7-11-11a5.1 5.1 0 00-7.4 0l-5.4 5.3c-3.6 3.6-10.5 6.8-15 5.9a4.2 4.2 0 01-3.2-2.8 4.3 4.3 0 011-4.2L81.5 55a17.4 17.4 0 019.6-4.9l4.5-.7a20.8 20.8 0 0010.8-5.3L143 80.7zm21.2-21.2L108.5 42l14.8-14.8 36.6 36.6z"/></svg>