<svg xmlns="http://www.w3.org/2000/svg" viewBox="0 0 170 170"><path d="M163 59.8L122.5 27l6.4-5.4a8.7 8.7 0 002.5-6.4 8.7 8.7 0 10-17.4 0h3a5.7 5.7 0 0111.4-.1 1.6 1.6 0 000 .2 5.7 5.7 0 01-1.7 4.3L78.6 59.8a1.5 1.5 0 00.9 2.7H162a1.5 1.5 0 00.9-2.7zm-79.2-.3L120.1 29l37.7 30.5zM39.5 71.3a16 16 0 1116-16 16 16 0 01-16 16zm0-29a13 13 0 1013 13 13 13 0 00-13-13z"/><path d="M39.5 71.3a16 16 0 1116-16 16 16 0 01-16 16zm0-29a13 13 0 1013 13 13 13 0 00-13-13zM70 161.7l-7-40.1V99.3a16 16 0 00-16-16H32a16 16 0 00-16 16v22.3l-7 40.1a1.5 1.5 0 001.5 1.7h58.1a1.5 1.5 0 001.4-1.7zm-24-1.3H12.3l6.7-38.8V99.3a13 13 0 0113-13h15a13 13 0 0113 13v22.3l6.7 38.8z"/></svg>