<svg xmlns="http://www.w3.org/2000/svg" viewBox="0 0 170 170"><path d="M140.1 58.1h-.5a54.5 54.5 0 00-109.1 0H30a15.5 15.5 0 00-15.5 15.5v22.8A15.5 15.5 0 0030 111.9h.5a54.9 54.9 0 0039.3 50.9h.5a7.6 7.6 0 005.2 2.1h18.9a7.7 7.7 0 000-15.4H75.6a7.7 7.7 0 00-7.5 9.5 51.8 51.8 0 01-34.6-48.7V59.6a51.5 51.5 0 11103 0v50.8a1.5 1.5 0 001.5 1.5h2a15.5 15.5 0 0015.5-15.5V73.6a15.5 15.5 0 00-15.4-15.5zm-64.5 94.6h18.8a4.6 4.6 0 010 9.3H75.6a4.6 4.6 0 010-9.3zm-58-56.2V73.6a12.4 12.4 0 0112.3-12.5h.5v47.7h-.5a12.4 12.4 0 01-12.4-12.4zm134.9 0a12.4 12.4 0 01-12.4 12.4h-.5V61.1h.5a12.4 12.4 0 0112.4 12.4z"/></svg>