<svg xmlns="http://www.w3.org/2000/svg" viewBox="0 0 170 170"><path d="M8 13.5A1.5 1.5 0 006.5 15v67.3A1.5 1.5 0 008 83.8h81.4v-3H30.9v-9.9a1.5 1.5 0 00-1.5-1.5A8.4 8.4 0 0121 61a1.5 1.5 0 00-1.5-1.5h-10V38.1h10a1.5 1.5 0 001.5-1.5 8.4 8.4 0 018.4-8.4 1.5 1.5 0 001.5-1.5V16.5h92.5v8.2a1.5 1.5 0 001.5 1.5 8.5 8.5 0 018.4 8.4 1.5 1.5 0 001.5 1.5h9.9V51h3V15a1.4 1.4 0 00-1.5-1.5zm136.7 3v16.6h-8.5a11.5 11.5 0 00-9.8-9.8v-6.8zm-116.8 0v8.8a11.4 11.4 0 00-9.8 9.8H9.5V16.5zm-18.4 46h8.6a11.5 11.5 0 009.8 9.8v8.5H9.5z"/><path d="M78.8 34.3c2.8 0 4.9 1.6 6.5 4.6l2.9-1.4c-2-3.7-4.9-6.1-9.3-6.1s-9.1 3.5-9.1 9.6v5.3h-3.7v2.4h3.7v12.2h-4.1v3H88v-3H73.1V48.7h8.3v-2.4h-8.3v-4.9c0-4.9 2.3-7.1 5.7-7.1zm-19.5 63a31.6 31.6 0 1031.6 31.6 31.7 31.7 0 00-31.6-31.6zm0 60.2a28.6 28.6 0 1128.6-28.6 28.6 28.6 0 01-28.6 28.6z"/><path d="M60 115.5c2.5 0 4.7 1.5 6 4.6l3-1.1c-1.8-4.4-5.1-6.6-9-6.6-5.5 0-9.8 4.2-10.8 12.2h-3.1v1.8H49v4.2h-2.9v1.8h3c.9 8.3 5.3 12.8 10.9 12.8 3.9 0 7.2-2.2 9-6.6l-3-1.1c-1.3 3.1-3.5 4.6-6 4.6s-6.7-3.2-7.5-9.7h10.8l.6-1.8H52.3v-2.1a14.8 14.8 0 01.1-2.1h12.5l.6-1.8H52.6c.8-6.1 3.8-9.1 7.4-9.1zm71.9-57.1A31.7 31.7 0 10163.5 90a31.7 31.7 0 00-31.6-31.6zm0 60.3A28.7 28.7 0 11160.5 90a28.8 28.8 0 01-28.6 28.7z"/><path d="M135.7 88.5l-1.4-.2V76.5a9.3 9.3 0 016.2 4.7l3.1-1.3a11.9 11.9 0 00-9.3-6.4v-4.1h-2.5v4c-5.6.2-9.8 3.6-9.8 8.6v.3c0 5.5 4.3 7.5 8.7 8.3l1.1.2v12.5a9 9 0 01-7.4-5.1l-3.1 1.3a12.1 12.1 0 0010.5 6.8v4.1h2.5v-4.1c5.8-.5 9.9-4.1 9.9-9.4v-.3c0-5.2-4.2-7.3-8.5-8.1zm-3.9-.7h-.4c-3.4-.7-6.1-2.1-6.1-5.6s2.9-5.7 6.5-5.9zm2.5 15.5V91.2l.8.2c2.7.5 5.7 2 5.7 5.7s-2.7 5.8-6.5 6.2z"/></svg>