<svg xmlns="http://www.w3.org/2000/svg" viewBox="0 0 170 170"><path d="M8 141.2h59.5a1.5 1.5 0 001.5-1.5V88.5a1.5 1.5 0 00-1.5-1.5h-7.8V69.3a22.4 22.4 0 10-44.7 0V87H8a1.5 1.5 0 00-1.5 1.5v51.2a1.5 1.5 0 001.5 1.5zm10-71.9a19.4 19.4 0 1138.7 0V87H18zM9.5 90H66v48.2H9.5z"/><path d="M31.1 30.3v9.4h3v-7.9h106.4v9.3a1.5 1.5 0 001.5 1.5 7.7 7.7 0 017.8 7.7 1.4 1.4 0 001.5 1.5h9.2v19.8h-9.2a1.5 1.5 0 00-1.5 1.5 7.8 7.8 0 01-7.8 7.8 1.5 1.5 0 00-1.5 1.5v9.5H77.1v3H162a1.5 1.5 0 001.5-1.5V30.3a1.5 1.5 0 00-1.5-1.5H32.6a1.5 1.5 0 00-1.5 1.5zm112.4 61.6v-8.1a10.8 10.8 0 009.2-9.2h7.8v17.3zm17-43.1h-7.8a10.7 10.7 0 00-9.2-9.1v-7.9h17z"/><path d="M115.5 61.9A18.2 18.2 0 1097.3 80a18.2 18.2 0 0018.2-18.1zm-33.3 0A15.2 15.2 0 1197.3 77a15.2 15.2 0 01-15.1-15.1z"/></svg>