<svg xmlns="http://www.w3.org/2000/svg" viewBox="0 0 170 170"><path d="M162 13.6H8a1.5 1.5 0 00-1.5 1.5v125.4A1.5 1.5 0 008 142h61.7v-3h-8.9V16.6h48.3v37.9h3V16.6h48.3V139h-8v3h9.6a1.5 1.5 0 001.5-1.5V15.1a1.5 1.5 0 00-1.5-1.5zM57.8 139H9.5V16.6h48.3z"/><path d="M20.7 37.3h25.7v3H20.7zm0 15.7h25.7v3H20.7zm51.4-15.7h25.7v3H72.1zm0 15.7h25.7v3H72.1zm51.4-15.7h25.7v3h-25.7zm0 15.7h25.7v3h-25.7zM41.9 77.8h3v12.43h-3zm66.9 46.5h3v12.43h-3zm38.9-46.5h3v12.43h-3z"/><path d="M138.9 104.7H92V88a18.3 18.3 0 0136.6 0v9.7h3V88A21.3 21.3 0 0089 88v16.7h-6.6a1.5 1.5 0 00-1.5 1.5v48.6a1.5 1.5 0 001.5 1.5h56.5a1.5 1.5 0 001.5-1.5v-48.6a1.5 1.5 0 00-1.5-1.5zm-1.5 48.6H83.9v-45.6h53.5z"/></svg>