<svg xmlns="http://www.w3.org/2000/svg" viewBox="0 0 170 170"><path d="M49.6 143.7a24 24 0 01-17-41l31.9-31.9a24 24 0 0134 0l-2.1 2.1a21 21 0 00-29.7 0l-32 31.9a21 21 0 0029.7 29.7l12.4-12.4 2.1 2.1-12.3 12.4a24 24 0 01-17 7.1z"/><path d="M87 106.2a23.9 23.9 0 01-17-7l2.1-2.1a21 21 0 0029.7 0l31.8-31.8A21 21 0 10104 35.5L91.6 47.9l-2.1-2.1 12.4-12.4a24 24 0 0134 34L104 99.2a23.9 23.9 0 01-17 7zM30.282 38.767l2.122-2.122 15.832 15.832-2.121 2.122zM59.2 25.5h3v22.39h-3zm-40.1 40h22.4v3H19.1z"/></svg>