<svg xmlns="http://www.w3.org/2000/svg" viewBox="0 0 170 170"><path d="M64 121.4l-20.3 20.3v-41.6h-3v41.6l-20.2-20.3-2.2 2.1 22.9 22.9 1 1 1.1-1 22.8-22.9-2.1-2.1zm81.6-35.3H24.4A17.9 17.9 0 016.5 68.2h3a14.9 14.9 0 0014.9 14.9h121.2a14.9 14.9 0 0014.9-14.9h3a17.9 17.9 0 01-17.9 17.9z"/><path d="M132.7 69.7h-29.8a1.5 1.5 0 01-1.5-1.3l-5.7-49.5a1.5 1.5 0 011.5-1.7h41.2a1.5 1.5 0 011.5 1.7l-5.7 49.4a1.5 1.5 0 01-1.5 1.4zm-28.4-3h27.1l5.4-46.4H98.9zm-13 3H38.9a1.5 1.5 0 01-1.1-.4L20.6 51.9a1.5 1.5 0 011.1-2.6h66.2v3H25.2l14.4 14.4h51.7zm-87 90.8h161.4v3H4.3z"/></svg>