<svg xmlns="http://www.w3.org/2000/svg" viewBox="0 0 170 170"><path d="M147.6 165h-3v-32.7c0-19.7-15.1-36.5-34.4-38.4l-24.4 16.3a1.5 1.5 0 01-1.7 0L59.5 94c-19.2 2-34.2 18.7-34.2 38.4h-3c0-21.7 16.1-39.5 37.4-41.4a1.5 1.5 0 011 .2L85 107.1l24.1-16a1.5 1.5 0 011-.2c21.1 1.8 37.6 20 37.6 41.4z"/><path d="M22.4 132.3h3v32.68h-3zM85 84.9a30.2 30.2 0 01-30.1-30.1V36.6a30.1 30.1 0 1160.3 0v18.2A30.2 30.2 0 0185 84.9zm0-75.5a27.2 27.2 0 00-27.1 27.2v18.2a27.1 27.1 0 0054.3 0V36.6A27.2 27.2 0 0085 9.4z"/></svg>