<svg xmlns="http://www.w3.org/2000/svg" viewBox="0 0 170 170"><path d="M33.6 105.8h3v37.97h-3zm114.5-10.6H134v-11h-3v39.2H66.1V84.2h-3v11H49a1.5 1.5 0 00-1.5 1.5v56.2a1.5 1.5 0 001.5 1.5h14.1v11.1h3v-39.2H131v39.2h3v-11.1h14.2a1.5 1.5 0 001.5-1.5V96.7a1.5 1.5 0 00-1.6-1.5zm-97.6 56.2V98.2h12.6v53.2zm96.2 0H134V98.2h12.7zm13.8-45.6h3v37.97h-3z"/><path d="M76.4 50.2V36.3a9.5 9.5 0 00-9.5-9.5h-26a9.5 9.5 0 00-9.5 9.5v13.6a46.9 46.9 0 00-7.3 77.8l1.9-2.3A43.9 43.9 0 1192.2 112l2.6 1.4a46.9 46.9 0 00-18.4-63.2zm-42-1.8V36.3a6.5 6.5 0 016.5-6.5h26a6.5 6.5 0 016.5 6.5v12.4a46.8 46.8 0 00-38.9-.3z"/></svg>