<svg xmlns="http://www.w3.org/2000/svg" viewBox="0 0 170 170"><path d="M85 31.6A12.6 12.6 0 1197.6 19 12.6 12.6 0 0185 31.6zm0-22.1a9.6 9.6 0 109.6 9.5A9.6 9.6 0 0085 9.5zm30.7 155H54.3a1.5 1.5 0 01-1.5-1.5V61a1.5 1.5 0 011.5-1.5h61.3a1.5 1.5 0 011.5 1.5v102a1.5 1.5 0 01-1.4 1.5zm-59.8-3h58.3v-99H55.8zm-31.3-21.9A12.5 12.5 0 0037.1 127a12.6 12.6 0 10-12.5 12.7zm0-22.1a9.5 9.5 0 019.5 9.5 9.6 9.6 0 11-9.5-9.7zm18.2 43.1a12.4 12.4 0 00-12.3-12.5H18.8a12.4 12.4 0 00-12.3 12.5v4.4h3v-4.4a9.4 9.4 0 019.3-9.5h11.7a9.4 9.4 0 019.3 9.5v4.4h3v-4.4zM24.6 77.1a12.5 12.5 0 0012.5-12.6 12.6 12.6 0 10-12.5 12.6zm0-22.1a9.5 9.5 0 019.5 9.5 9.6 9.6 0 11-9.5-9.5zm18.2 43.1a12.4 12.4 0 00-12.3-12.5H18.8A12.4 12.4 0 006.5 98.1v4.4h3v-4.4a9.4 9.4 0 019.3-9.5h11.7a9.4 9.4 0 019.3 9.5v4.4h3v-4.4zm102.4 41.5a12.5 12.5 0 0012.5-12.6 12.6 12.6 0 10-12.5 12.7zm0-22.1a9.5 9.5 0 019.5 9.5 9.6 9.6 0 11-9.5-9.7zm18.2 43.1a12.4 12.4 0 00-12.3-12.5h-11.7a12.4 12.4 0 00-12.3 12.5v4.4h3v-4.4a9.4 9.4 0 019.3-9.5h11.7a9.4 9.4 0 019.3 9.5v4.4h3v-4.4zm-18.2-83.5a12.5 12.5 0 0012.5-12.6 12.6 12.6 0 10-12.5 12.7zm0-22.1a9.5 9.5 0 019.5 9.5 9.6 9.6 0 11-9.5-9.7zm18.2 43.1a12.4 12.4 0 00-12.3-12.5h-11.7a12.4 12.4 0 00-12.3 12.5v4.4h3v-4.4a9.4 9.4 0 019.3-9.5h11.7a9.4 9.4 0 019.3 9.5v4.4h3v-4.4zm-60.1-45.5a12.4 12.4 0 00-12.4-12.5H79.1a12.4 12.4 0 00-12.4 12.5v1h3v-1a9.4 9.4 0 019.4-9.5h11.8a9.4 9.4 0 019.4 9.5v1h3v-1z"/></svg>