<svg xmlns="http://www.w3.org/2000/svg" viewBox="0 0 170 170"><path d="M162 163.5h-25.6a1.5 1.5 0 01-1.5-1.5v-13h-34.1v13a1.5 1.5 0 01-1.5 1.5H70.7a1.5 1.5 0 01-1.5-1.5v-13H35.1v13a1.5 1.5 0 01-1.5 1.5H8a1.5 1.5 0 01-1.5-1.5v-30.6a1.5 1.5 0 011.5-1.5h154a1.5 1.5 0 011.5 1.5V162a1.5 1.5 0 01-1.5 1.5zm-24.1-3h22.6v-27.6H9.5v27.6h22.6v-13a1.5 1.5 0 011.5-1.5h37.1a1.5 1.5 0 011.5 1.5v13h25.6v-13a1.5 1.5 0 011.5-1.5h37.1a1.5 1.5 0 011.5 1.5zM86.5 80.2l7.6 7.6 2.1-2.1L85 74.5 73.7 85.7l2.1 2.1 7.7-7.6v21.6H58.4V80.2l7.7 7.6 2.1-2.1-11.3-11.2-11.2 11.2 2.1 2.1 7.6-7.6v21.6h-8.7v3h48.5v-3h-8.7V80.2z"/><path d="M136.4 16H33.6a1.5 1.5 0 00-1.5 1.5v101.3a1.5 1.5 0 001.5 1.5h102.8a1.5 1.5 0 001.5-1.5V17.5a1.5 1.5 0 00-1.5-1.5zm-64.9 3h27v17.7l-6 6-6.4-6.4a1.5 1.5 0 00-2.1 0l-6.4 6.4-6-6zm63.4 98.3H35.1V19h33.4v18.3a1.5 1.5 0 00.4 1.1l7.5 7.5a1.5 1.5 0 002.1 0l6.5-6.4 6.4 6.4a1.5 1.5 0 002.1 0l7.5-7.5a1.5 1.5 0 00.4-1.1V19h33.4z"/></svg>