<svg id="PIKTO_LIGHT" xmlns="http://www.w3.org/2000/svg" viewBox="0 0 170 170"><title>light_black</title><path d="M142,85a1.5,1.5,0,0,0-1.4-1.5H139a57,57,0,0,0-52.5,38.7v-43a27.1,27.1,0,0,0,25.4-27.1V31.8a3,3,0,0,0-3-3h-9V8h-3V28.8H72.6V8h-3V28.8h-9a3,3,0,0,0-3,3V52.2A27.1,27.1,0,0,0,83.5,79.3v42.9A57,57,0,0,0,31,83.5H29.4A1.5,1.5,0,0,0,28,85a57,57,0,0,0,55.5,56.9V165h3V141.9A57,57,0,0,0,142,85ZM31.1,86.5a54,54,0,0,1,52.4,52.4A54,54,0,0,1,31.1,86.5ZM60.6,52.2V31.8h48.3V52.2a24.1,24.1,0,0,1-48.3,0Zm25.9,86.7a54,54,0,0,1,52.4-52.4A54,54,0,0,1,86.5,138.9Z"/></svg>