<svg xmlns="http://www.w3.org/2000/svg" viewBox="0 0 170 170"><path d="M139.7 117.2a23.6 23.6 0 00-10 2.2l-20.9-38.7a1.5 1.5 0 00-1.3-.8H89.8v3h16.8l20.5 37.9a23.8 23.8 0 1012.6-3.7zm0 44.8a20.9 20.9 0 01-11.2-38.5l9.9 18.3 2.6-1.4-9.9-18.4a20.6 20.6 0 018.6-1.9 20.9 20.9 0 010 41.8z"/><path d="M135.5 103.7h4.1a1.5 1.5 0 001.5-1.5V87a1.5 1.5 0 00-1.5-1.5h-4a9.1 9.1 0 00-.1 18.2zm.1-15.2h2.5v12.2h-2.5a6.1 6.1 0 010-12.2zm-40.3 6.8H82.8a14 14 0 00-13.7 11.2H24.9a1.5 1.5 0 000 3h5.2a33.2 33.2 0 0133.1 31.7H54a23.8 23.8 0 100 3h10.8a1.5 1.5 0 001.5-1.5 36.2 36.2 0 00-21.7-33.2h25.5a1.5 1.5 0 001.8-1.3 11 11 0 0111-9.9h12.4a11 11 0 0111 10.7l-4.1 9.8H71v3h29.9l-8.2 19.3H74.5v3h19.3a1.5 1.5 0 001.4-.9l14.1-33.4a1.5 1.5 0 00.1-.6 14 14 0 00-14.1-13.9zm-65 68.2A20.8 20.8 0 1151 141.2H30.3v3h20.6a20.8 20.8 0 01-20.6 19.3z"/></svg>