<svg xmlns="http://www.w3.org/2000/svg" viewBox="0 0 170 170"><path d="M64.6 35.1h-3a16.8 16.8 0 0116.8-16.7A13.8 13.8 0 0092.2 4.8h3a16.8 16.8 0 01-16.8 16.6 13.8 13.8 0 00-13.8 13.7zm25.6 13.2h-3A16.8 16.8 0 01104 31.6a13.8 13.8 0 0013.8-13.7h3A16.8 16.8 0 01104 34.6a13.8 13.8 0 00-13.8 13.7zm59.1 21.8h-20.8v-6.6A1.5 1.5 0 00127 62H43a1.5 1.5 0 00-1.5 1.5v40.8a43.6 43.6 0 0086.4 7.8h7.1a15.8 15.8 0 0015.8-15.7V71.6a1.5 1.5 0 00-1.5-1.5zm-23.8 34.2a40.5 40.5 0 01-81.1 0V65h81.1zm22.3-7.9a12.8 12.8 0 01-12.8 12.7h-6.8a43.1 43.1 0 00.3-4.8V73.1h19.3z"/><path d="M145.6 163.5H24.4a17.9 17.9 0 01-17.9-17.9h3a14.9 14.9 0 0014.9 14.9h121.2a14.9 14.9 0 0014.9-14.9h3a17.9 17.9 0 01-17.9 17.9z"/></svg>