<svg xmlns="http://www.w3.org/2000/svg" viewBox="0 0 170 170"><path d="M36.4 100h15.5v3H36.4z"/><path d="M152.5 80.8h-19.3V49.3a1.5 1.5 0 00-.4-1.1l-31.9-31.8a1.5 1.5 0 00-1.1-.4H38.3a1.5 1.5 0 00-1.5 1.5v63.3H17.5a1.5 1.5 0 00-1.5 1.5v56.3a1.5 1.5 0 001.5 1.5h19.3v12.4a1.5 1.5 0 001.5 1.5h93.4a1.5 1.5 0 001.5-1.5v-12.4h19.3a1.5 1.5 0 001.5-1.5V82.3a1.5 1.5 0 00-1.5-1.5zm-51.1-59.7l26.7 26.7h-26.7zM39.8 19h58.6v30.3a1.5 1.5 0 001.5 1.5h30.3v30H39.8zm90.4 132H39.8v-30.6h90.4zm20.8-13.9h-17.8v-18.2a1.5 1.5 0 00-1.5-1.5H38.3a1.5 1.5 0 00-1.5 1.5v18.2H19V83.8h132z"/></svg>