<svg id="PIKTO_LIGHT" xmlns="http://www.w3.org/2000/svg" viewBox="0 0 170 170"><title>light_black</title><rect x="36.4" y="100" width="15.5" height="3"/><path d="M152.5,80.8H133.2V49.3a1.5,1.5,0,0,0-.4-1.1L100.9,16.4a1.5,1.5,0,0,0-1.1-.4H38.3a1.5,1.5,0,0,0-1.5,1.5V80.8H17.5A1.5,1.5,0,0,0,16,82.3v56.3a1.5,1.5,0,0,0,1.5,1.5H36.8v12.4a1.5,1.5,0,0,0,1.5,1.5h93.4a1.5,1.5,0,0,0,1.5-1.5V140.1h19.3a1.5,1.5,0,0,0,1.5-1.5V82.3A1.5,1.5,0,0,0,152.5,80.8ZM101.4,21.1l26.7,26.7H101.4ZM39.8,19H98.4V49.3a1.5,1.5,0,0,0,1.5,1.5h30.3V80.8H39.8Zm90.4,132H39.8V120.4h90.4ZM151,137.1H133.2V118.9a1.5,1.5,0,0,0-1.5-1.5H38.3a1.5,1.5,0,0,0-1.5,1.5v18.2H19V83.8H151Z"/></svg>