<svg xmlns="http://www.w3.org/2000/svg" viewBox="0 0 170 170"><path d="M21.7 52.7h74.1v3H21.7zm13.8-13.8h75.2v3H35.5z"/><path d="M162 38.9h-28.8l30.5-30.5-2.1-2.1-46.4 46.4h-.2v.2L82.7 85.1a17.8 17.8 0 00-25.1 25.1l-17.8 17.9H29v-9a1.5 1.5 0 00-1.5-1.5A7.6 7.6 0 0120 110a1.5 1.5 0 00-1.5-1.5h-9V89.2h9a1.5 1.5 0 001.5-1.5 7.6 7.6 0 017.6-7.6 1.5 1.5 0 001.4-1.4v-9.3h56v-3H8a1.5 1.5 0 00-1.5 1.5v61.7a1.5 1.5 0 001.5 1.5h28.8L6.3 161.6l2.1 2.1 94.3-94.3h10.8v9.2a1.5 1.5 0 001.5 1.5 7.6 7.6 0 017.6 7.6 1.5 1.5 0 001.5 1.5h9v19.3h-9a1.5 1.5 0 00-1.5 1.5 7.6 7.6 0 01-7.6 7.6 1.5 1.5 0 00-1.5 1.5v9H57.3v3h77.3a1.5 1.5 0 001.5-1.5V67.9a1.5 1.5 0 00-1.5-1.5h-28.9l10.7-10.7h30.3v60.2h3V54.2a1.5 1.5 0 00-1.5-1.5h-28.8L130.1 42h30.3v60.2h3V40.4a1.5 1.5 0 00-1.4-1.5zM26 69.4v7.9a10.6 10.6 0 00-9 9H9.5V69.4zM9.5 111.5h7.6a10.6 10.6 0 009 9v7.6H9.5zm107 16.6v-7.6a10.6 10.6 0 009-9h7.5v16.6zM133 86.2h-7.6a10.6 10.6 0 00-9-9v-7.8H133zM56.5 98.7a14.8 14.8 0 0124.1-11.4l-20.8 20.8a14.7 14.7 0 01-3.3-9.4z"/><path d="M86.1 98.7a14.8 14.8 0 01-14.8 14.8v3a17.8 17.8 0 0017.8-17.8z"/></svg>