<svg xmlns="http://www.w3.org/2000/svg" viewBox="0 0 170 170"><path d="M83.5 4.7h3v160.62h-3zm-44 57a16 16 0 1116-16 16 16 0 01-16 16zm0-29a13 13 0 1013 13 13 13 0 00-13-13zm7.5 41a16 16 0 0116 16v64.1h-3V89.7a13 13 0 00-13-13H32a13 13 0 00-13 13v64.1h-3V89.7a16 16 0 0116-16zm83.5-12a16 16 0 1116-16 16 16 0 01-16 16zm0-29a13 13 0 1013 13 13 13 0 00-13-13z"/><path d="M130.5 61.7a16 16 0 1116-16 16 16 0 01-16 16zm0-29a13 13 0 1013 13 13 13 0 00-13-13zM161 152l-7-40.1V89.7a16 16 0 00-16-16h-15a16 16 0 00-16 16V112l-7 40a1.5 1.5 0 001.5 1.7h58.1a1.5 1.5 0 001.4-1.7zm-24-1.3h-33.7l6.7-38.8V89.7a13 13 0 0113-13h15a13 13 0 0113 13V112l6.7 38.8z"/></svg>