<svg xmlns="http://www.w3.org/2000/svg" viewBox="0 0 170 170"><path d="M51.3 85.2a16.3 16.3 0 1116.3-16.3 16.3 16.3 0 01-16.3 16.3zm0-29.6a13.3 13.3 0 1013.3 13.3 13.3 13.3 0 00-13.3-13.3zm24 61.8h-3v-3.6a13.1 13.1 0 00-13-13.2H43.4a13.1 13.1 0 00-13 13.2v3.6h-3v-3.6a16.1 16.1 0 0116-16.2h15.8a16.1 16.1 0 0116 16.2zm20.8-52h46.5v3H96.1zm0 33.7h23.3v3H96.1zm0-16.8h46.5v3H96.1z"/><path d="M17.8 29.9A11.4 11.4 0 006.5 41.2v87.5A11.4 11.4 0 0017.8 140h134.4a11.4 11.4 0 0011.3-11.3V41.2a11.4 11.4 0 00-11.3-11.3zm134.3 3a8.3 8.3 0 018.3 8.3v87.5a8.3 8.3 0 01-8.3 8.3H17.8a8.3 8.3 0 01-8.3-8.3V41.2a8.3 8.3 0 018.3-8.3z"/></svg>