<svg xmlns="http://www.w3.org/2000/svg" viewBox="0 0 170 170"><path d="M17.585 150.312l36.833-36.706 2.118 2.125-36.834 36.706zM99.6 72.5a22.7 22.7 0 0015 5.6 23.8 23.8 0 0016.9-6.9l22.1-22.1-2.1-2.1-22.1 22c-7.6 7.6-19.8 8.1-27.6 1.4l36.6-36.6-2.1-2.1-36.7 36.6a20.1 20.1 0 011-27.3L123 18.6l-2.1-2.1-22.4 22.4a23.1 23.1 0 00-1 31.5L85.1 82.8 24.2 22a1.5 1.5 0 00-2.1 0c-5.1 5.1-6.3 13.3-3.4 23.2s9.1 19.7 17.9 28.4l32.1 32.1a17.1 17.1 0 0024.6-.4l4.9-5.2 51.9 51.9 2.1-2.1-65-65zm-8.5 30.7a14.1 14.1 0 01-20.3.3L38.7 71.4c-8.4-8.4-14.4-18-17.1-27.1s-1.8-14.8 1.6-19.1L96 98z"/></svg>