<svg xmlns="http://www.w3.org/2000/svg" viewBox="0 0 170 170"><path d="M162.7 105.3l-22.8-69.8a10.1 10.1 0 00-12.6-6.5l-22.9 7.5.9 2.9 22.9-7.5a7.1 7.1 0 018.9 4.5l3.3 10.1-14.2 4.6.9 2.9 14.2-4.6 18.6 56.9a7 7 0 01-4.5 8.9L109 130.3l.9 2.9 46.4-15.2a10.1 10.1 0 006.4-12.7z"/><path d="M120.074 102.395l17.87-5.84.932 2.851-17.87 5.84zM98.9 96.8l14.5-9.1a1.5 1.5 0 00.6-1.9l-8.2-17.1 10.7-14.9a1.5 1.5 0 00-.8-2.3l-75.6-22a10.1 10.1 0 00-12.4 6.9L7.2 106.9a10 10 0 006.8 12.4l75.6 22.1h.4a1.5 1.5 0 001.5-1.5l-.4-18.5 11.8-8.4a1.5 1.5 0 00.6-1.7zM30.5 37.2a7.1 7.1 0 016.8-5.1l2 .3 73.6 21.5-10 13.9a1.5 1.5 0 00-.2 1.4L27.6 47.3zm58.3 82.3a1.5 1.5 0 00-.6 1.3l.4 17.2-73.7-21.5a7 7 0 01-4.8-8.7l16.6-57.6 77.6 22.5 6.3 13.2-14.3 9a1.5 1.5 0 00-.6 1.7l4.7 14.6z"/><path d="M29.196 99.757l.832-2.882 18.014 5.2-.832 2.882zm4.764-16.488l.832-2.883 36.231 10.458-.832 2.882z"/></svg>