<svg xmlns="http://www.w3.org/2000/svg" viewBox="0 0 170 170"><path d="M143.4 6.7c-22.9-1.3-39.1 3.2-49.6 13.7S78.9 46.9 80.1 69.3l-4.3 4.3-8.1-8c.8-14.5-2.1-24.8-8.9-31.6s-17.5-9.8-32.3-8.9a1.4 1.4 0 00-1.4 1.4c-.9 14.8 2.1 25.3 8.9 32.2s15.1 9.1 27.4 9.1h4.2l7.7 7.7v13.7H28a1.5 1.5 0 00-1.5 1.5v19a1.5 1.5 0 001.5 1.5h6.6l8.5 51.1a1.5 1.5 0 001.5 1.2h58.6a1.5 1.5 0 001.5-1.2l8.5-51.1h6.6a1.5 1.5 0 001.5-1.5v-19a1.5 1.5 0 00-1.5-1.5H76.3V77.3l5.9-5.8 6.9.2c18.9 0 32.7-4.6 42-13.9S146.2 31 144.8 8.1a1.5 1.5 0 00-1.4-1.4zm-41.5 153.8h-56l-8.2-49.3h72.4zm16.4-52.3H29.5v-16h88.8zM36.2 56.6c-6.1-6-8.7-15.4-8.2-28.6 13.2-.6 22.6 2.1 28.7 8.1s8.4 14.4 8.1 26.6L47.5 45.3l-2.2 2.1 17.4 17.4c-12.1.2-20.8-2.5-26.5-8.2zm92.8-1c-9.4 9.4-23.8 13.7-43.9 13l42.8-42.9-2.1-2.1-42.9 42.9c-.6-20.2 3.6-34.6 13-44s24.8-13.9 46-12.9c1 21.3-3.2 36.3-12.9 46z"/></svg>