<svg xmlns="http://www.w3.org/2000/svg" viewBox="0 0 170 170"><path d="M85 137a16 16 0 1116-16 16 16 0 01-16 16zm0-29a13 13 0 1013 13 13 13 0 00-13-13zm23.5 57h-3a12.9 12.9 0 00-12.7-12.9H77.2A12.9 12.9 0 0064.5 165h-3a15.9 15.9 0 0115.7-15.9h15.6a15.9 15.9 0 0115.7 15.9zm31.5-28a16 16 0 1116-16 16 16 0 01-16 16zm0-29a13 13 0 1013 13 13 13 0 00-13-13zm23.5 57h-3a12.9 12.9 0 00-12.7-12.9h-15.5a12.9 12.9 0 00-12.8 12.9h-3a15.9 15.9 0 0115.7-15.9h15.5a15.8 15.8 0 0115.8 15.9zM30 137a16 16 0 1116-16 16 16 0 01-16 16zm0-29a13 13 0 1013 13 13 13 0 00-13-13zm23.5 57h-3a12.9 12.9 0 00-12.7-12.9H22.2A12.9 12.9 0 009.5 165h-3a15.9 15.9 0 0115.7-15.9h15.6A15.9 15.9 0 0153.5 165zM51.3 57a16 16 0 1116-16 16 16 0 01-16 16zm0-29a13 13 0 1013 13 13 13 0 00-13-13zM30.8 98.4h-3V85a15.8 15.8 0 0115.7-15.9H59a15.8 15.8 0 0115.7 14.4h11.9v3H73.3a1.5 1.5 0 01-1.5-1.5A12.8 12.8 0 0059 72.1H43.5A12.9 12.9 0 0030.8 85z"/><path d="M163.5 86.5H93.6v-3H162V8H8v75.5h9.5v3h-11A1.5 1.5 0 015 85V6.5A1.5 1.5 0 016.5 5h157a1.5 1.5 0 011.5 1.5V85a1.5 1.5 0 01-1.5 1.5z"/></svg>