<svg id="PIKTO_LIGHT" xmlns="http://www.w3.org/2000/svg" viewBox="0 0 170 170"><title>light_black</title><path d="M69.8,87.3a16,16,0,1,1,16-16A16,16,0,0,1,69.8,87.3Zm0-29a13,13,0,1,0,13,13A13,13,0,0,0,69.8,58.3Z"/><path d="M148.3,117.3H21.7v-3h125V54.2h3v61.7A1.5,1.5,0,0,1,148.3,117.3Z"/><path d="M163.5,131.1H37v-3H162V67.9h3v61.7A1.5,1.5,0,0,1,163.5,131.1Z"/><path d="M133,38.9H6.5A1.5,1.5,0,0,0,5,40.4v61.7a1.5,1.5,0,0,0,1.5,1.5H133a1.5,1.5,0,0,0,1.5-1.5V40.4A1.5,1.5,0,0,0,133,38.9Zm-1.5,19.6h-7.6a10.6,10.6,0,0,0-8.9-9V41.9h16.6ZM112,91.3v9.2H27.5V91.3A1.5,1.5,0,0,0,26,89.8a7.6,7.6,0,0,1-7.6-7.6A1.5,1.5,0,0,0,17,80.8H8V61.5h9A1.5,1.5,0,0,0,18.5,60,7.6,7.6,0,0,1,26,52.4a1.5,1.5,0,0,0,1.5-1.5v-9H112v9a1.5,1.5,0,0,0,1.5,1.5A7.6,7.6,0,0,1,121,60a1.5,1.5,0,0,0,1.5,1.5h9V80.8h-9a1.5,1.5,0,0,0-1.5,1.5,7.6,7.6,0,0,1-7.6,7.6A1.5,1.5,0,0,0,112,91.3ZM24.5,41.9v7.6a10.6,10.6,0,0,0-8.9,9H8V41.9ZM8,83.8h7.6a10.6,10.6,0,0,0,8.9,9v7.9H8Zm107,16.8V92.7a10.6,10.6,0,0,0,8.9-9h7.6v16.8Z"/></svg>