<svg xmlns="http://www.w3.org/2000/svg" viewBox="0 0 170 170"><path d="M109.8 52.5a11.7 11.7 0 001.8 21.6 11.3 11.3 0 003.6.6 12.6 12.6 0 005.4-1.3 12 12 0 005.8-6.9 11.8 11.8 0 00-16.6-14zm13.2 6.4a9.2 9.2 0 01.5 6.7 8.8 8.8 0 01-11 5.7 9.2 9.2 0 01-5.1-4.4 8.8 8.8 0 013.8-11.8 9.3 9.3 0 014-.9 8.8 8.8 0 017.8 4.7z"/><path d="M17.6 61.9l17.5 72.3-1 1.9a16.9 16.9 0 007.9 22.7 17.1 17.1 0 007.4 1.7 17.6 17.6 0 005.5-.9A17 17 0 0065.4 138a16.7 16.7 0 00-7.6-9.2L40.2 56.4a14.1 14.1 0 001.3-2.4h.1l46-16 10.2 14.5 2.5-1.8-10.9-15.2a1.5 1.5 0 00-1.7-.6L42.6 50.5a16.1 16.1 0 00-.6-8.9 16.8 16.8 0 00-5-7.4l62.3-21.3 14.3 32.2 2.7-1.2-14.8-33.5a1.5 1.5 0 00-1.9-.8L33.8 32.1a16.9 16.9 0 00-23.1 7.7 16.5 16.5 0 00-.7 12.9 16.1 16.1 0 007.6 9.2zm45 77a14 14 0 01-8.7 17.8 13.5 13.5 0 01-10.6-.6 13.7 13.7 0 01-7.1-8 13.9 13.9 0 018.6-17.8 14.4 14.4 0 014.6-.8 14.2 14.2 0 0113.2 9.4zm-8.3-11.6a16.4 16.4 0 00-10.5.2 16.9 16.9 0 00-6.3 3.8L21 63.4a17.4 17.4 0 005 .8 18.4 18.4 0 005.6-1 16 16 0 006.2-3.9zM21.4 34a12.4 12.4 0 014.6-.8 14 14 0 014.6 27.2 14.2 14.2 0 01-10.7-.6A14 14 0 0121.4 34z"/><path d="M114.1 95.6a13.6 13.6 0 007.5 16.6l-5.2 16.5a31 31 0 01-18.7-38.3 29.8 29.8 0 015.2-9.8l-2.4-1.8a35.6 35.6 0 00-5.7 10.7 33.9 33.9 0 0022.1 42.5h.4a1.5 1.5 0 001.5-1.1l6.1-19.2a1.7 1.7 0 00-.1-1.2 1.6 1.6 0 00-.9-.7 10.7 10.7 0 01-6.9-13.3 10.6 10.6 0 0113.3-6.9 10.7 10.7 0 017 13.4 1.4 1.4 0 001 1.8l19.2 6.2a1.6 1.6 0 001.9-1 34 34 0 00-2.2-25.8 33.4 33.4 0 00-19.8-16.7l-1 2.8a30.9 30.9 0 0120.6 37.3l-16.5-5.2a13.6 13.6 0 00-26.4-6.8z"/></svg>