<svg xmlns="http://www.w3.org/2000/svg" viewBox="0 0 170 170"><path d="M116.1 48.4a29.3 29.3 0 1029.3 29.3 29.3 29.3 0 00-29.3-29.3zm0 55.6a26.3 26.3 0 1126.3-26.3 26.3 26.3 0 01-26.3 26.3zm25.242.955l2.122-2.122 20.47 20.471-2.12 2.121z"/><path d="M17 123.5h43.4v10.3a14.1 14.1 0 01-14.2 14.1 1.5 1.5 0 000 3h73.7a1.5 1.5 0 000-3 14.1 14.1 0 01-14.2-14.1v-10.3h30v-3H17a7.6 7.6 0 01-7.5-7.5v-5.3h71.1v-3H9.5V38.8h148v51.4h3V29.6A10.5 10.5 0 00150 19.1H17A10.5 10.5 0 006.5 29.6V113A10.5 10.5 0 0017 123.5zm93.2 24.4H55.9a17.2 17.2 0 007.5-14.1v-10.3h39.3v10.3a17.2 17.2 0 007.5 14.1zM17 22.1h133a7.5 7.5 0 017.5 7.5v6.2H9.5v-6.2a7.5 7.5 0 017.5-7.5z"/></svg>