<svg xmlns="http://www.w3.org/2000/svg" viewBox="0 0 170 170"><path d="M25.2 64.3v-1.7c0-11.8 5.5-17.2 12-17.2s12 5.4 12 17.2v1.7c0 11.8-5.5 17.2-12 17.2s-12-5.5-12-17.2zm20.2-.1v-1.5c0-9.9-3.6-14.1-8.2-14.1S29 52.8 29 62.7v1.4c0 9.9 3.6 14.1 8.2 14.1s8.2-4.2 8.2-14.1zm27.6.1v-1.7c0-11.8 5.5-17.2 12-17.2s12 5.4 12 17.2v1.7c0 11.7-5.5 17.2-12 17.2S73 76 73 64.3zm20.2-.1v-1.5c0-9.9-3.6-14.1-8.2-14.1s-8.2 4.2-8.2 14.1v1.4c0 9.9 3.6 14.1 8.2 14.1s8.2-4.2 8.2-14.1zm41.8-8.3l4.4 6-2.2 1.6-4.3-6-4.3 6-2.2-1.5 4.3-6-7-2.3.8-2.6 7.1 2.3v-7.5h2.7v7.4l7.1-2.3.8 2.6zm-95.7 54.3l4.4 6-2.2 1.6-4.3-6-4.3 6-2.2-1.5 4.3-6-7-2.3.8-2.6 7.1 2.3v-7.4h2.7v7.4l7.1-2.3.8 2.6zm47.9 0l4.4 6-2.2 1.6-4.3-6-4.3 6-2.2-1.5 4.3-6-7-2.3.8-2.6 7.1 2.3v-7.4h2.7v7.4l7.1-2.3.8 2.6zm47.8 0l4.4 6-2.2 1.6-4.3-6-4.3 6-2.2-1.5 4.3-6-7-2.3.8-2.6 7.1 2.3v-7.4h2.7v7.4l7.1-2.3.8 2.6z"/></svg>