<svg xmlns="http://www.w3.org/2000/svg" viewBox="0 0 170 170"><path d="M22.2 163.5h-.6a1.5 1.5 0 01-.9-1.4v-20.8H8a1.5 1.5 0 01-1.5-1.5V59.1A1.5 1.5 0 018 57.6h100.1a1.5 1.5 0 011.5 1.5v80.8a1.5 1.5 0 01-1.5 1.5H50.6l-6.2.5-21.1 21.2a1.5 1.5 0 01-1.1.4zM9.5 138.3h12.7a1.5 1.5 0 011.5 1.5v18.6l19-19a1.5 1.5 0 01.9-.4l6.8-.6h56.2V60.6H9.5z"/><path d="M162 112.4h-40.1v-3h38.6V31.7h-12.7a1.5 1.5 0 01-1.5-1.5V11.6l-19.6 19.6a1.5 1.5 0 01-1.1.4H63.4v15h-3V30.2a1.5 1.5 0 011.5-1.5h63.2l21.6-21.8a1.5 1.5 0 012.6 1.1v20.7H162a1.5 1.5 0 011.5 1.5V111a1.5 1.5 0 01-1.5 1.4zM24.9 89.5h54.7v3H24.9zm0 19.3h27.3v3H24.9z"/></svg>