<svg xmlns="http://www.w3.org/2000/svg" viewBox="0 0 170 170"><path d="M60.8 79.4a34.6 34.6 0 1042.7 45.7l-2.8-1.1a31.6 31.6 0 11-39-41.7z"/><path d="M131.8 111.1h-23V71.3a13.1 13.1 0 00-13-13.1H83.3a13.1 13.1 0 00-13 13.1v29.6a13.2 13.2 0 0013.2 13.2h30v34.4h3v-34.4h13.8v34.4h3v-35.9a1.5 1.5 0 00-1.5-1.5zm-26 0H83.5a10.2 10.2 0 01-10.2-10.2V71.3a10.1 10.1 0 0110-10.1h12.5a10.1 10.1 0 0110 10.1zm-16.3-62a13.2 13.2 0 1113.2-13.2 13.2 13.2 0 01-13.2 13.2zm0-23.5a10.3 10.3 0 1010.3 10.3 10.3 10.3 0 00-10.3-10.3z"/></svg>