<svg xmlns="http://www.w3.org/2000/svg" viewBox="0 0 170 170"><path d="M76.8 26.2h16.1v3H76.8zm-15.5 83.1h11.1v3H61.3zm36.4 0h11.1v3H97.7zm-18.3 0h11.1v3H79.4zm-18.1 14h11.1v3H61.3zm36.4 0h11.1v3H97.7zm-18.3 0h11.1v3H79.4zm-18.1 14h11.1v3H61.3zm36.4 0h11.1v3H97.7zm-18.3 0h11.1v3H79.4z"/><path d="M111.8 154H57.9a12.5 12.5 0 01-12.5-12.5v-113A12.5 12.5 0 0157.9 16h53.9a12.5 12.5 0 0112.5 12.5v113a12.5 12.5 0 01-12.5 12.5zM57.9 19a9.5 9.5 0 00-9.5 9.5v113a9.5 9.5 0 009.5 9.5h53.9a9.5 9.5 0 009.5-9.5v-113a9.5 9.5 0 00-9.5-9.5z"/><path d="M108.7 98.3H61.3a1.5 1.5 0 01-1.5-1.5V39a1.5 1.5 0 011.5-1.5h47.5a1.5 1.5 0 011.5 1.5v57.8a1.5 1.5 0 01-1.6 1.5zm-46-3h44.5V40.5H62.8z"/><path d="M75.5 63.9a3.8 3.8 0 11-2.6-7.2L94 49a3.8 3.8 0 012.6 7.2zm0 11.5a3.8 3.8 0 01-2.6-7.2L94 60.4a3.8 3.8 0 012.6 7.2zm0 11.5a3.8 3.8 0 01-2.6-7.2L94 71.9a3.8 3.8 0 012.6 7.2z"/></svg>