<svg xmlns="http://www.w3.org/2000/svg" viewBox="0 0 170 170"><path d="M162 10H8a1.5 1.5 0 00-1.5 1.5v46.6A1.5 1.5 0 008 59.6h75.5v12.3H8a1.5 1.5 0 00-1.5 1.5v46.7a1.5 1.5 0 001.5 1.5h75.5v10.8A14.2 14.2 0 0070.9 145H17.5v3h53.4a14.2 14.2 0 0028.2 0h53.4v-3H99.1a14.2 14.2 0 00-12.6-12.6v-10.8H162a1.5 1.5 0 001.5-1.5V73.4a1.5 1.5 0 00-1.5-1.5H86.5V59.6H162a1.5 1.5 0 001.5-1.5V11.5A1.5 1.5 0 00162 10zM96.2 146.5A11.2 11.2 0 1185 135.3a11.2 11.2 0 0111.2 11.2zm64.3-27.9H9.5V74.9h151zm0-62H9.5V13h151z"/><path d="M25 26.3h23.4v3H25zm0 14.2h23.4v3H25zm116.2-11.2h3v11.29h-3zM25 88.2h23.4v3H25zm0 14.3h23.4v3H25zm116.2-11.3h3v11.29h-3z"/></svg>