<svg xmlns="http://www.w3.org/2000/svg" viewBox="0 0 170 170"><path d="M106.8 78.3l-2.1-2.1 7.2-7.2a1.5 1.5 0 011.7-.3 25.6 25.6 0 0036.1-29.2L134.1 55a1.5 1.5 0 01-2.1 0l-16.6-16.7a1.5 1.5 0 010-2.1l15.5-15.5a25.8 25.8 0 00-24.3 6.8 25.5 25.5 0 00-5.4 28.3 1.5 1.5 0 01-.3 1.7L85.8 72.7l-2.1-2.1 14.4-14.5a28.5 28.5 0 016.4-30.7 28.8 28.8 0 0129.7-6.8 1.5 1.5 0 01.6 2.5l-16.2 16.2 14.5 14.5 16.2-16.2a1.5 1.5 0 012.5.6 28.6 28.6 0 01-38.5 35.7zm-79.9 75.3a10.9 10.9 0 01-7.7-18.6l51.1-51.1 2.1 2.1-51.1 51.1a7.9 7.9 0 1011.2 11.2l43.8-43.8 2.1 2.1-43.7 43.8a10.9 10.9 0 01-7.8 3.2z"/><path d="M149.8 134.4l-48.5-48.5a1.5 1.5 0 00-2.1 0l-5.6 5.6-45.9-45.9-1-13.9a1.5 1.5 0 00-.4-.9L32.4 16.9a1.5 1.5 0 00-2.1 0L16.9 30.3a1.5 1.5 0 000 2.1l13.9 13.8a1.5 1.5 0 00.9.4l13.9 1 45.9 46-5.6 5.6a1.5 1.5 0 000 2.1l48.5 48.5a10.9 10.9 0 0015.5-15.5zM32.5 43.7L20.1 31.3l11.2-11.2 12.4 12.4.9 12.1zm115.2 104a7.9 7.9 0 01-11.2 0L89 100.3 100.3 89l47.4 47.4a7.9 7.9 0 010 11.3z"/></svg>