<svg xmlns="http://www.w3.org/2000/svg" viewBox="0 0 170 170"><path d="M133.9 165.1h-3v-9.4H39.5v9.4h-3v-10.9a1.5 1.5 0 011.5-1.5h94.4a1.5 1.5 0 011.5 1.5zM83.7 5.1h3v126.17h-3zm-6.3 29.5H32.5a1.5 1.5 0 00-1.4.9l-21 48.6a1.5 1.5 0 00-.4 1v.2a22.8 22.8 0 0045.6 0v-.2a1.5 1.5 0 00-.4-1L34.8 37.6h42.6zm-44.9 5.3l19 43.7H13.6zm0 65a19.8 19.8 0 01-19.7-18.3h39.5a19.8 19.8 0 01-19.8 18.3zm20 36.1h65.2v3H52.5zm107.7-56.9l-21-48.6a1.5 1.5 0 00-1.4-.9h-45v3h42.8l-20.2 46.5a1.5 1.5 0 00-.4 1v.2a22.8 22.8 0 0045.6 0v-.2a1.5 1.5 0 00-.4-1zm-3.5-.5h-37.8l18.9-43.7zm-18.9 21.3a19.8 19.8 0 01-19.7-18.3h39.5a19.8 19.8 0 01-19.8 18.3z"/></svg>