<svg xmlns="http://www.w3.org/2000/svg" viewBox="0 0 170 170"><path d="M96.9 147.9H111v3H96.9z"/><path d="M126.3 41.8H81.6a12.5 12.5 0 00-12.5 12.5V151a12.5 12.5 0 0012.5 12.5h44.7a12.5 12.5 0 0012.5-12.5V54.3a12.5 12.5 0 00-12.5-12.5zm-44.7 3h44.7a9.5 9.5 0 019.5 9.5v11.1H72.1V54.3a9.5 9.5 0 019.5-9.5zm54.2 23.6v68.1H72.1V68.4zm-9.5 92.1H81.6a9.5 9.5 0 01-9.5-9.5v-11.4h63.7V151a9.5 9.5 0 01-9.5 9.5zM31.2 43.3h3A33.9 33.9 0 0168 9.5v-3a36.9 36.9 0 00-36.8 36.8z"/><path d="M43 43.3h3a22.1 22.1 0 0122-22v-3a25.1 25.1 0 00-25 25zm11.8 0h3A10.3 10.3 0 0168 33v-3a13.3 13.3 0 00-13.2 13.3z"/></svg>