<svg xmlns="http://www.w3.org/2000/svg" viewBox="0 0 170 170"><path d="M97.8 162v-17.5h39.4a1.5 1.5 0 001.3-2.2l-21.4-37h9.9a1.5 1.5 0 001.3-2.2l-19.1-33.3h10.7a1.5 1.5 0 001.3-2.2L86.3 5.7a1.5 1.5 0 00-2.6 0L48.8 67.5a1.5 1.5 0 001.3 2.3h10.7L41.6 103a1.5 1.5 0 001.3 2.3h9.9l-21.4 37a1.5 1.5 0 001.3 2.3h39.5V162H23.6v3h122.8v-3zm-41.1-57.5a1.5 1.5 0 00-1.3-2.2h-9.9L64.7 69a1.5 1.5 0 00-1.3-2.2H52.7L85 9.5l32.3 57.3h-10.7a1.5 1.5 0 00-1.3 2.3l19.2 33.2h-9.9a1.5 1.5 0 00-1.3 2.3l21.4 37H35.4zm18.5 40h19.6V162H75.2z"/></svg>