<svg id="PIKTOGRAM" xmlns="http://www.w3.org/2000/svg" viewBox="0 0 170 170"><title>light_black</title><metadata><?xpacket begin="﻿" id="W5M0MpCehiHzreSzNTczkc9d"?>
<x:xmpmeta xmlns:x="adobe:ns:meta/" x:xmptk="Adobe XMP Core 5.6-c137 79.159547, 2016/07/07-11:39:24        ">
   <rdf:RDF xmlns:rdf="http://www.w3.org/1999/02/22-rdf-syntax-ns#">
      <rdf:Description rdf:about=""
            xmlns:dc="http://purl.org/dc/elements/1.1/"
            xmlns:xmpMM="http://ns.adobe.com/xap/1.0/mm/"
            xmlns:stEvt="http://ns.adobe.com/xap/1.0/sType/ResourceEvent#"
            xmlns:xmp="http://ns.adobe.com/xap/1.0/">
         <dc:title>
            <rdf:Alt>
               <rdf:li xml:lang="x-default">light_black</rdf:li>
            </rdf:Alt>
         </dc:title>
         <xmpMM:PreservedFileName>light_black_2.svg</xmpMM:PreservedFileName>
         <xmpMM:InstanceID>xmp.iid:141ee6c2-e061-9240-ae44-0bd6f5195573</xmpMM:InstanceID>
         <xmpMM:DocumentID>xmp.did:141ee6c2-e061-9240-ae44-0bd6f5195573</xmpMM:DocumentID>
         <xmpMM:OriginalDocumentID>xmp.did:141ee6c2-e061-9240-ae44-0bd6f5195573</xmpMM:OriginalDocumentID>
         <xmpMM:History>
            <rdf:Seq>
               <rdf:li>
                  <rdf:Description>
                     <stEvt:action>saved</stEvt:action>
                     <stEvt:instanceID>xmp.iid:141ee6c2-e061-9240-ae44-0bd6f5195573</stEvt:instanceID>
                     <stEvt:when>2017-11-29T15:52:35+01:00</stEvt:when>
                     <stEvt:softwareAgent>Adobe Bridge CC 2017 (Windows)</stEvt:softwareAgent>
                     <stEvt:changed>/metadata</stEvt:changed>
                  </rdf:Description>
               </rdf:li>
            </rdf:Seq>
         </xmpMM:History>
         <xmp:MetadataDate>2017-11-29T15:52:35+01:00</xmp:MetadataDate>
      </rdf:Description>
   </rdf:RDF>
</x:xmpmeta>
                                                                                                    
                                                                                                    
                                                                                                    
                                                                                                    
                                                                                                    
                                                                                                    
                                                                                                    
                                                                                                    
                                                                                                    
                                                                                                    
                                                                                                    
                                                                                                    
                                                                                                    
                                                                                                    
                                                                                                    
                                                                                                    
                                                                                                    
                                                                                                    
                                                                                                    
                                                                                                    
                           
<?xpacket end="w"?></metadata>
<path d="M109.8,52.5a11.7,11.7,0,0,0,1.8,21.6,11.3,11.3,0,0,0,3.6.6,12.6,12.6,0,0,0,5.4-1.3h0a12,12,0,0,0,5.8-6.9,11.8,11.8,0,0,0-16.6-14ZM123,58.9a9.2,9.2,0,0,1,.5,6.7,8.8,8.8,0,0,1-11,5.7,9.2,9.2,0,0,1-5.1-4.4,8.8,8.8,0,0,1,3.8-11.8,9.3,9.3,0,0,1,4-.9A8.8,8.8,0,0,1,123,58.9Z"/><path d="M17.6,61.9l17.5,72.3-1,1.9A16.9,16.9,0,0,0,42,158.8a17.1,17.1,0,0,0,7.4,1.7,17.6,17.6,0,0,0,5.5-.9A17,17,0,0,0,65.4,138a16.7,16.7,0,0,0-7.6-9.2L40.2,56.4A14.1,14.1,0,0,0,41.5,54h.1l46-16L97.8,52.5l2.5-1.8L89.4,35.5a1.5,1.5,0,0,0-1.7-.6L42.6,50.5a16.1,16.1,0,0,0-.6-8.9,16.8,16.8,0,0,0-5-7.4L99.3,12.9l14.3,32.2,2.7-1.2L101.5,10.4a1.5,1.5,0,0,0-1.9-.8L33.8,32.1a16.9,16.9,0,0,0-23.1,7.7A16.5,16.5,0,0,0,10,52.7,16.1,16.1,0,0,0,17.6,61.9Zm45,77a14,14,0,0,1-8.7,17.8,13.5,13.5,0,0,1-10.6-.6,13.7,13.7,0,0,1-7.1-8,13.9,13.9,0,0,1,8.6-17.8,14.4,14.4,0,0,1,4.6-.8A14.2,14.2,0,0,1,62.6,138.9Zm-8.3-11.6a16.4,16.4,0,0,0-10.5.2,16.9,16.9,0,0,0-6.3,3.8L21,63.4a17.4,17.4,0,0,0,5,.8,18.4,18.4,0,0,0,5.6-1,16,16,0,0,0,6.2-3.9ZM21.4,34a12.4,12.4,0,0,1,4.6-.8,14,14,0,0,1,4.6,27.2,14.2,14.2,0,0,1-10.7-.6A14,14,0,0,1,21.4,34Z"/><path d="M114.1,95.6a13.6,13.6,0,0,0,7.5,16.6l-5.2,16.5A31,31,0,0,1,97.7,90.4a29.8,29.8,0,0,1,5.2-9.8l-2.4-1.8a35.6,35.6,0,0,0-5.7,10.7A33.9,33.9,0,0,0,116.9,132h.4a1.5,1.5,0,0,0,1.5-1.1l6.1-19.2a1.7,1.7,0,0,0-.1-1.2,1.6,1.6,0,0,0-.9-.7A10.7,10.7,0,0,1,117,96.5a10.6,10.6,0,0,1,13.3-6.9,10.7,10.7,0,0,1,7,13.4,1.4,1.4,0,0,0,1,1.8l19.2,6.2a1.6,1.6,0,0,0,1.9-1,34,34,0,0,0-2.2-25.8,33.4,33.4,0,0,0-19.8-16.7l-1,2.8A30.9,30.9,0,0,1,157,107.6l-16.5-5.2a13.6,13.6,0,0,0-26.4-6.8Z"/></svg>