<svg xmlns="http://www.w3.org/2000/svg" viewBox="0 0 170 170"><path d="M124.2 45.9a49.7 49.7 0 0139.3 41.9v13.9a49.6 49.6 0 01-35.8 41V162a1.5 1.5 0 01-1.5 1.5H102a1.5 1.5 0 01-1.5-1.5v-17.4H79.4V162a1.5 1.5 0 01-1.5 1.5H53.7a1.5 1.5 0 01-1.5-1.5v-19.3a49.8 49.8 0 01-34.4-34.4H8a1.5 1.5 0 01-1.5-1.5V82.7A1.5 1.5 0 018 81.2h9.8a49.9 49.9 0 0129.1-32.6V29a1.5 1.5 0 011.5-1.5 19.7 19.7 0 0119.3 17.4h13.6v3H65.8a1.5 1.5 0 01-1.5-1.5 15.9 15.9 0 00-14.4-15.8v19a1.5 1.5 0 01-1 1.4 46.9 46.9 0 00-28.5 32 1.5 1.5 0 01-1.5 1.1H9.5v21.2h9.4a1.5 1.5 0 011.5 1.1A46.8 46.8 0 0054 140.1a1.5 1.5 0 011.1 1.5v18.9h21.3v-17.4a1.5 1.5 0 011.5-1.5H102a1.5 1.5 0 011.5 1.5v17.3h21.2v-18.8a1.5 1.5 0 011.1-1.5 46.6 46.6 0 0034.7-38.7V88.1a46.7 46.7 0 00-37-39.3z"/><path d="M68.1 67.9h50.6v3H68.1zm13.5-36.7a12.3 12.3 0 1112.3-12.4 12.4 12.4 0 01-12.3 12.4zm0-21.7a9.3 9.3 0 109.3 9.3 9.3 9.3 0 00-9.3-9.3zm20.9 48a12.3 12.3 0 1112.3-12.3 12.4 12.4 0 01-12.3 12.3zm0-21.7a9.3 9.3 0 109.3 9.3 9.3 9.3 0 00-9.3-9.2z"/></svg>