<svg xmlns="http://www.w3.org/2000/svg" viewBox="0 0 170 170"><path d="M108.2 17.5h3v12.63h-3zm30.42 24.04l8.909-8.909 2.121 2.122-8.91 8.91zM152.1 71h12.6v3h-12.6zm-13.532 32.602l2.122-2.122 8.93 8.931-2.12 2.121zm-68.798-68.9l2.122-2.122 8.93 8.931-2.12 2.121z"/><path d="M121.6 98.9a29 29 0 10-37.3-40.4l2.6 1.5a26 26 0 1130.5 37.3l-2.7-.7a28.9 28.9 0 00-27.2-19v3a25.9 25.9 0 0124.7 17.8l.3.9.9.2a26 26 0 01-4.4 51.6H42.6v3H109A29 29 0 00121.6 99z"/><path d="M35.2 154a29 29 0 01-9.7-56.3V96a29 29 0 0153.1-15.8l-2.5 1.6a26 26 0 00-47.7 14.3c0 .9 0 1.7.1 2.6v1.2l-1.2.4a26 26 0 007.9 50.7z"/></svg>