<svg id="PIKTO_LIGHT" xmlns="http://www.w3.org/2000/svg" viewBox="0 0 170 170"><title>light_black</title><path d="M163.5,40.5H152.8V28.2a1.5,1.5,0,0,0-1.5-1.5H86.4A15.9,15.9,0,0,0,70.7,12.9H31a1.5,1.5,0,0,0-1.5,1.5V26.7H18.7a1.5,1.5,0,0,0-1.5,1.5V40.5H6.5A1.5,1.5,0,0,0,5,42v98.3a1.5,1.5,0,0,0,1.5,1.5H72.7a12.4,12.4,0,0,0,24.6,0h66.2a1.5,1.5,0,0,0,1.5-1.5V42A1.5,1.5,0,0,0,163.5,40.5ZM149.8,29.7v96.8H86.5V29.7ZM32.5,15.9H70.7A12.9,12.9,0,0,1,83.5,28.7v90.7a13.8,13.8,0,0,0-10.8-5.2H32.5ZM20.2,29.7h9.3v86.1a1.5,1.5,0,0,0,1.5,1.5H72.7a10.8,10.8,0,0,1,10.7,9.3H20.2ZM162,138.8H95.9a1.5,1.5,0,0,0-1.5,1.5,9.4,9.4,0,1,1-18.8,0,1.5,1.5,0,0,0-1.5-1.5H8V43.5h9.3V128a1.5,1.5,0,0,0,1.5,1.5H151.3a1.5,1.5,0,0,0,1.5-1.5V43.5H162Z"/></svg>