<svg id="PIKTO_LIGHT" xmlns="http://www.w3.org/2000/svg" viewBox="0 0 170 170"><title>light_black</title><path d="M122.8,152.5c-17,0-42.9-14.3-67-38.3C23.9,82.2,9.2,46.9,22.3,33.8h0L33.5,22.6a17.3,17.3,0,0,1,24.5,0L69.1,33.8a17.3,17.3,0,0,1,0,24.5,14.3,14.3,0,0,0,0,20.3l22.4,22.4a14.4,14.4,0,0,0,20.3,0,17.3,17.3,0,0,1,24.5,0l11.2,11.2a17.3,17.3,0,0,1,0,24.4l-11.2,11.2C133,151,128.4,152.5,122.8,152.5ZM24.4,35.9c-11.6,11.6,3.8,46.5,33.6,76.2s64.7,45.1,76.2,33.6l11.2-11.2a14.3,14.3,0,0,0,0-20.3L134.1,103a14.3,14.3,0,0,0-20.3,0,17.3,17.3,0,0,1-24.5,0L67,80.6a17.3,17.3,0,0,1,0-24.4,14.4,14.4,0,0,0,0-20.3L55.8,24.7a14.3,14.3,0,0,0-20.3,0Z"/></svg>