<svg id="PIKTOGRAM" xmlns="http://www.w3.org/2000/svg" viewBox="0 0 170 170"><title>light_black</title><metadata><?xpacket begin="﻿" id="W5M0MpCehiHzreSzNTczkc9d"?>
<x:xmpmeta xmlns:x="adobe:ns:meta/" x:xmptk="Adobe XMP Core 5.6-c137 79.159547, 2016/07/07-11:39:24        ">
   <rdf:RDF xmlns:rdf="http://www.w3.org/1999/02/22-rdf-syntax-ns#">
      <rdf:Description rdf:about=""
            xmlns:dc="http://purl.org/dc/elements/1.1/"
            xmlns:xmpMM="http://ns.adobe.com/xap/1.0/mm/"
            xmlns:stEvt="http://ns.adobe.com/xap/1.0/sType/ResourceEvent#"
            xmlns:xmp="http://ns.adobe.com/xap/1.0/">
         <dc:title>
            <rdf:Alt>
               <rdf:li xml:lang="x-default">light_black</rdf:li>
            </rdf:Alt>
         </dc:title>
         <xmpMM:PreservedFileName>light_black_1.svg</xmpMM:PreservedFileName>
         <xmpMM:InstanceID>xmp.iid:d01a46f9-3f94-104b-98e9-e8c52755e089</xmpMM:InstanceID>
         <xmpMM:DocumentID>xmp.did:d01a46f9-3f94-104b-98e9-e8c52755e089</xmpMM:DocumentID>
         <xmpMM:OriginalDocumentID>xmp.did:d01a46f9-3f94-104b-98e9-e8c52755e089</xmpMM:OriginalDocumentID>
         <xmpMM:History>
            <rdf:Seq>
               <rdf:li>
                  <rdf:Description>
                     <stEvt:action>saved</stEvt:action>
                     <stEvt:instanceID>xmp.iid:d01a46f9-3f94-104b-98e9-e8c52755e089</stEvt:instanceID>
                     <stEvt:when>2017-11-29T15:52:35+01:00</stEvt:when>
                     <stEvt:softwareAgent>Adobe Bridge CC 2017 (Windows)</stEvt:softwareAgent>
                     <stEvt:changed>/metadata</stEvt:changed>
                  </rdf:Description>
               </rdf:li>
            </rdf:Seq>
         </xmpMM:History>
         <xmp:MetadataDate>2017-11-29T15:52:35+01:00</xmp:MetadataDate>
      </rdf:Description>
   </rdf:RDF>
</x:xmpmeta>
                                                                                                    
                                                                                                    
                                                                                                    
                                                                                                    
                                                                                                    
                                                                                                    
                                                                                                    
                                                                                                    
                                                                                                    
                                                                                                    
                                                                                                    
                                                                                                    
                                                                                                    
                                                                                                    
                                                                                                    
                                                                                                    
                                                                                                    
                                                                                                    
                                                                                                    
                                                                                                    
                           
<?xpacket end="w"?></metadata>
<path d="M59.7,30.8A14.9,14.9,0,0,1,74.6,16H95.4a15,15,0,0,1,10.3,4.1l2.1-2.1a17.7,17.7,0,0,0-12.4-5H74.6A17.9,17.9,0,0,0,56.7,30.8v.5h3Z"/><path d="M72.1,28.1V86.4h3V48.9H84a1.5,1.5,0,0,0,1.5-1.5A7.5,7.5,0,0,1,93,40a1.5,1.5,0,0,0,1.5-1.5V29.6H106V37a1.5,1.5,0,0,0,1.5,1.5A7.5,7.5,0,0,1,115,46a1.5,1.5,0,0,0,1.5,1.5h7.7V81.1h3v-53a1.5,1.5,0,0,0-1.5-1.5H73.6A1.5,1.5,0,0,0,72.1,28.1ZM109,29.6h15.2V44.5h-6.3a10.5,10.5,0,0,0-8.9-8.9Zm-33.9,0H91.5v7.5a10.5,10.5,0,0,0-8.9,8.8H75.1Z"/><path d="M114.9,85V81.5a15.3,15.3,0,1,0-29.3,6l2.7-1.2a12.8,12.8,0,0,1-.9-4.8,12.3,12.3,0,0,1,24.5,0V85Z"/><path d="M140.4,76.1h3V33.9a1.5,1.5,0,0,0-1.5-1.5h-9.1v3h7.6Z"/><path d="M162,38.8H151.7v3h8.8V77.4c-6.8,3.1-38.5,17-75.5,17S15.9,80.5,9.5,77.4h0V41.8H62.7v-3H8a1.5,1.5,0,0,0-1.5,1.5V153.5A1.5,1.5,0,0,0,8,155H162a1.5,1.5,0,0,0,1.5-1.5V40.3A1.5,1.5,0,0,0,162,38.8ZM59,95.3a164.9,164.9,0,0,0,26,2.1,166.8,166.8,0,0,0,25-1.9v5.6a12.2,12.2,0,0,1-12.2,12.2H71.2A12.2,12.2,0,0,1,59,101.1ZM9.5,152V80.8A205.1,205.1,0,0,0,56,94.8v6.3a15.2,15.2,0,0,0,15.2,15.2H97.8A15.2,15.2,0,0,0,113,101.1V95a203.6,203.6,0,0,0,47.5-14.2V152Z"/></svg>