<svg id="PIKTOGRAM" xmlns="http://www.w3.org/2000/svg" viewBox="0 0 170 170"><title>light_black</title><metadata><?xpacket begin="﻿" id="W5M0MpCehiHzreSzNTczkc9d"?>
<x:xmpmeta xmlns:x="adobe:ns:meta/" x:xmptk="Adobe XMP Core 5.6-c137 79.159547, 2016/07/07-11:39:24        ">
   <rdf:RDF xmlns:rdf="http://www.w3.org/1999/02/22-rdf-syntax-ns#">
      <rdf:Description rdf:about=""
            xmlns:dc="http://purl.org/dc/elements/1.1/"
            xmlns:xmpMM="http://ns.adobe.com/xap/1.0/mm/"
            xmlns:stEvt="http://ns.adobe.com/xap/1.0/sType/ResourceEvent#"
            xmlns:xmp="http://ns.adobe.com/xap/1.0/">
         <dc:title>
            <rdf:Alt>
               <rdf:li xml:lang="x-default">light_black</rdf:li>
            </rdf:Alt>
         </dc:title>
         <xmpMM:PreservedFileName>light_black_6.svg</xmpMM:PreservedFileName>
         <xmpMM:InstanceID>xmp.iid:0e3548ba-8ce1-7347-ac21-51e873ddecf2</xmpMM:InstanceID>
         <xmpMM:DocumentID>xmp.did:0e3548ba-8ce1-7347-ac21-51e873ddecf2</xmpMM:DocumentID>
         <xmpMM:OriginalDocumentID>xmp.did:0e3548ba-8ce1-7347-ac21-51e873ddecf2</xmpMM:OriginalDocumentID>
         <xmpMM:History>
            <rdf:Seq>
               <rdf:li>
                  <rdf:Description>
                     <stEvt:action>saved</stEvt:action>
                     <stEvt:instanceID>xmp.iid:0e3548ba-8ce1-7347-ac21-51e873ddecf2</stEvt:instanceID>
                     <stEvt:when>2017-11-29T15:52:35+01:00</stEvt:when>
                     <stEvt:softwareAgent>Adobe Bridge CC 2017 (Windows)</stEvt:softwareAgent>
                     <stEvt:changed>/metadata</stEvt:changed>
                  </rdf:Description>
               </rdf:li>
            </rdf:Seq>
         </xmpMM:History>
         <xmp:MetadataDate>2017-11-29T15:52:35+01:00</xmp:MetadataDate>
      </rdf:Description>
   </rdf:RDF>
</x:xmpmeta>
                                                                                                    
                                                                                                    
                                                                                                    
                                                                                                    
                                                                                                    
                                                                                                    
                                                                                                    
                                                                                                    
                                                                                                    
                                                                                                    
                                                                                                    
                                                                                                    
                                                                                                    
                                                                                                    
                                                                                                    
                                                                                                    
                                                                                                    
                                                                                                    
                                                                                                    
                                                                                                    
                           
<?xpacket end="w"?></metadata>
<path d="M116.1,48.4a29.3,29.3,0,1,0,29.3,29.3A29.3,29.3,0,0,0,116.1,48.4Zm0,55.6a26.3,26.3,0,1,1,26.3-26.3A26.3,26.3,0,0,1,116.1,104Z"/><rect x="151.1" y="99.7" width="3" height="28.95" transform="translate(-36 141.3) rotate(-45)"/><path d="M17,123.5H60.4v10.3a14.1,14.1,0,0,1-14.2,14.1,1.5,1.5,0,0,0,0,3h73.7a1.5,1.5,0,0,0,0-3,14.1,14.1,0,0,1-14.2-14.1V123.5h30v-3H17A7.6,7.6,0,0,1,9.5,113v-5.3H80.6v-3H9.5V38.8h148V90.2h3V29.6A10.5,10.5,0,0,0,150,19.1H17A10.5,10.5,0,0,0,6.5,29.6V113A10.5,10.5,0,0,0,17,123.5Zm93.2,24.4H55.9a17.2,17.2,0,0,0,7.5-14.1V123.5h39.3v10.3A17.2,17.2,0,0,0,110.2,147.9ZM17,22.1H150a7.5,7.5,0,0,1,7.5,7.5v6.2H9.5V29.6A7.5,7.5,0,0,1,17,22.1Z"/></svg>