<svg id="PIKTO_LIGHT" xmlns="http://www.w3.org/2000/svg" viewBox="0 0 170 170"><title>light_black</title><path d="M100.5,67a1.5,1.5,0,0,0-1.3-.8H78.9v3H98.3l9.8,18.1H58.9L50.7,73.7h9.8v-3H39.6v3h7.6l9.1,15.2L44.8,111.4a26.8,26.8,0,0,0-11-2.4,27.2,27.2,0,1,0,13.7,3.7L58.1,91.9l25.6,42.4a1.5,1.5,0,0,0,2.6,0L111.1,93,122,113.1a27.1,27.1,0,1,0,14.2-4.1,26.9,26.9,0,0,0-11.6,2.6ZM57.8,136.2A24.1,24.1,0,1,1,33.7,112a23.9,23.9,0,0,1,9.7,2l-11,21.5,2.7,1.4,11-21.5A24.2,24.2,0,0,1,57.8,136.2ZM85,130.6,60.7,90.3h48.6Zm51.3,29.9a24.2,24.2,0,0,1-12.8-44.8L134.9,137l2.6-1.4-11.5-21.3a23.9,23.9,0,0,1,10.2-2.3,24.2,24.2,0,0,1,0,48.5Z"/></svg>