<svg id="PIKTOGRAM" xmlns="http://www.w3.org/2000/svg" viewBox="0 0 170 170"><title>light_black</title><metadata><?xpacket begin="﻿" id="W5M0MpCehiHzreSzNTczkc9d"?>
<x:xmpmeta xmlns:x="adobe:ns:meta/" x:xmptk="Adobe XMP Core 5.6-c137 79.159547, 2016/07/07-11:39:24        ">
   <rdf:RDF xmlns:rdf="http://www.w3.org/1999/02/22-rdf-syntax-ns#">
      <rdf:Description rdf:about=""
            xmlns:dc="http://purl.org/dc/elements/1.1/"
            xmlns:xmpMM="http://ns.adobe.com/xap/1.0/mm/"
            xmlns:stEvt="http://ns.adobe.com/xap/1.0/sType/ResourceEvent#"
            xmlns:xmp="http://ns.adobe.com/xap/1.0/">
         <dc:title>
            <rdf:Alt>
               <rdf:li xml:lang="x-default">light_black</rdf:li>
            </rdf:Alt>
         </dc:title>
         <xmpMM:PreservedFileName>light_black_8.svg</xmpMM:PreservedFileName>
         <xmpMM:InstanceID>xmp.iid:12c8af80-9b3e-1441-ae0c-91a727b94a5a</xmpMM:InstanceID>
         <xmpMM:DocumentID>xmp.did:12c8af80-9b3e-1441-ae0c-91a727b94a5a</xmpMM:DocumentID>
         <xmpMM:OriginalDocumentID>xmp.did:12c8af80-9b3e-1441-ae0c-91a727b94a5a</xmpMM:OriginalDocumentID>
         <xmpMM:History>
            <rdf:Seq>
               <rdf:li>
                  <rdf:Description>
                     <stEvt:action>saved</stEvt:action>
                     <stEvt:instanceID>xmp.iid:12c8af80-9b3e-1441-ae0c-91a727b94a5a</stEvt:instanceID>
                     <stEvt:when>2017-11-29T15:52:35+01:00</stEvt:when>
                     <stEvt:softwareAgent>Adobe Bridge CC 2017 (Windows)</stEvt:softwareAgent>
                     <stEvt:changed>/metadata</stEvt:changed>
                  </rdf:Description>
               </rdf:li>
            </rdf:Seq>
         </xmpMM:History>
         <xmp:MetadataDate>2017-11-29T15:52:35+01:00</xmp:MetadataDate>
      </rdf:Description>
   </rdf:RDF>
</x:xmpmeta>
                                                                                                    
                                                                                                    
                                                                                                    
                                                                                                    
                                                                                                    
                                                                                                    
                                                                                                    
                                                                                                    
                                                                                                    
                                                                                                    
                                                                                                    
                                                                                                    
                                                                                                    
                                                                                                    
                                                                                                    
                                                                                                    
                                                                                                    
                                                                                                    
                                                                                                    
                                                                                                    
                           
<?xpacket end="w"?></metadata>
<path d="M8,141.2H67.5a1.5,1.5,0,0,0,1.5-1.5V88.5A1.5,1.5,0,0,0,67.5,87H59.7V69.3a22.4,22.4,0,1,0-44.7,0V87H8a1.5,1.5,0,0,0-1.5,1.5v51.2A1.5,1.5,0,0,0,8,141.2ZM18,69.3a19.4,19.4,0,1,1,38.7,0V87H18ZM9.5,90H66v48.2H9.5Z"/><path d="M31.1,30.3v9.4h3V31.8H140.5v9.3a1.5,1.5,0,0,0,1.5,1.5,7.7,7.7,0,0,1,7.8,7.7,1.4,1.4,0,0,0,1.5,1.5h9.2V71.6h-9.2a1.5,1.5,0,0,0-1.5,1.5,7.8,7.8,0,0,1-7.8,7.8,1.5,1.5,0,0,0-1.5,1.5v9.5H77.1v3H162a1.5,1.5,0,0,0,1.5-1.5V30.3a1.5,1.5,0,0,0-1.5-1.5H32.6A1.5,1.5,0,0,0,31.1,30.3ZM143.5,91.9V83.8a10.8,10.8,0,0,0,9.2-9.2h7.8V91.9Zm17-43.1h-7.8a10.7,10.7,0,0,0-9.2-9.1V31.8h17Z"/><path d="M115.5,61.9A18.2,18.2,0,1,0,97.3,80,18.2,18.2,0,0,0,115.5,61.9Zm-33.3,0A15.2,15.2,0,1,1,97.3,77,15.2,15.2,0,0,1,82.2,61.9Z"/></svg>