<svg id="PIKTOGRAM" xmlns="http://www.w3.org/2000/svg" viewBox="0 0 170 170"><title>122-Picto-Light_black</title><path d="M8,13.5A1.5,1.5,0,0,0,6.5,15V82.3A1.5,1.5,0,0,0,8,83.8H89.4v-3H30.9V70.9a1.5,1.5,0,0,0-1.5-1.5A8.4,8.4,0,0,1,21,61a1.5,1.5,0,0,0-1.5-1.5H9.5V38.1h10A1.5,1.5,0,0,0,21,36.6a8.4,8.4,0,0,1,8.4-8.4,1.5,1.5,0,0,0,1.5-1.5V16.5h92.5v8.2a1.5,1.5,0,0,0,1.5,1.5,8.5,8.5,0,0,1,8.4,8.4,1.5,1.5,0,0,0,1.5,1.5h9.9V51h3V15a1.4,1.4,0,0,0-1.5-1.5Zm136.7,3V33.1h-8.5a11.5,11.5,0,0,0-9.8-9.8V16.5Zm-116.8,0v8.8a11.4,11.4,0,0,0-9.8,9.8H9.5V16.5ZM9.5,62.5h8.6a11.5,11.5,0,0,0,9.8,9.8v8.5H9.5Z"/><path d="M78.8,34.3c2.8,0,4.9,1.6,6.5,4.6l2.9-1.4c-2-3.7-4.9-6.1-9.3-6.1s-9.1,3.5-9.1,9.6v5.3H66.1v2.4h3.7V60.9H65.7v3H88v-3H73.1V48.7h8.3V46.3H73.1V41.4C73.1,36.5,75.4,34.3,78.8,34.3Z"/><path d="M59.3,97.3a31.6,31.6,0,1,0,31.6,31.6A31.7,31.7,0,0,0,59.3,97.3Zm0,60.2a28.6,28.6,0,1,1,28.6-28.6A28.6,28.6,0,0,1,59.3,157.5Z"/><path d="M60,115.5c2.5,0,4.7,1.5,6,4.6l3-1.1c-1.8-4.4-5.1-6.6-9-6.6-5.5,0-9.8,4.2-10.8,12.2H46.1v1.8H49v4.2H46.1v1.8h3c.9,8.3,5.3,12.8,10.9,12.8,3.9,0,7.2-2.2,9-6.6l-3-1.1c-1.3,3.1-3.5,4.6-6,4.6s-6.7-3.2-7.5-9.7H63.3l.6-1.8H52.3v-2.1a14.8,14.8,0,0,1,.1-2.1H64.9l.6-1.8H52.6C53.4,118.5,56.4,115.5,60,115.5Z"/><path d="M131.9,58.4A31.7,31.7,0,1,0,163.5,90,31.7,31.7,0,0,0,131.9,58.4Zm0,60.3A28.7,28.7,0,1,1,160.5,90,28.8,28.8,0,0,1,131.9,118.7Z"/><path d="M135.7,88.5l-1.4-.2V76.5a9.3,9.3,0,0,1,6.2,4.7l3.1-1.3a11.9,11.9,0,0,0-9.3-6.4V69.4h-2.5v4c-5.6.2-9.8,3.6-9.8,8.6v.3c0,5.5,4.3,7.5,8.7,8.3l1.1.2v12.5a9,9,0,0,1-7.4-5.1l-3.1,1.3a12.1,12.1,0,0,0,10.5,6.8v4.1h2.5v-4.1c5.8-.5,9.9-4.1,9.9-9.4v-.3C144.2,91.4,140,89.3,135.7,88.5Zm-3.9-.7h-.4c-3.4-.7-6.1-2.1-6.1-5.6s2.9-5.7,6.5-5.9Zm2.5,15.5V91.2l.8.2c2.7.5,5.7,2,5.7,5.7S138.1,102.9,134.3,103.3Z"/></svg>