<svg id="PIKTOGRAM" xmlns="http://www.w3.org/2000/svg" viewBox="0 0 170 170"><title>light_black</title><metadata><?xpacket begin="﻿" id="W5M0MpCehiHzreSzNTczkc9d"?>
<x:xmpmeta xmlns:x="adobe:ns:meta/" x:xmptk="Adobe XMP Core 5.6-c137 79.159547, 2016/07/07-11:39:24        ">
   <rdf:RDF xmlns:rdf="http://www.w3.org/1999/02/22-rdf-syntax-ns#">
      <rdf:Description rdf:about=""
            xmlns:dc="http://purl.org/dc/elements/1.1/"
            xmlns:xmpMM="http://ns.adobe.com/xap/1.0/mm/"
            xmlns:stEvt="http://ns.adobe.com/xap/1.0/sType/ResourceEvent#"
            xmlns:xmp="http://ns.adobe.com/xap/1.0/">
         <dc:title>
            <rdf:Alt>
               <rdf:li xml:lang="x-default">light_black</rdf:li>
            </rdf:Alt>
         </dc:title>
         <xmpMM:PreservedFileName>light_black_11.svg</xmpMM:PreservedFileName>
         <xmpMM:InstanceID>xmp.iid:26979e5d-c88a-6246-8a01-9d4b8ae0d819</xmpMM:InstanceID>
         <xmpMM:DocumentID>xmp.did:26979e5d-c88a-6246-8a01-9d4b8ae0d819</xmpMM:DocumentID>
         <xmpMM:OriginalDocumentID>xmp.did:26979e5d-c88a-6246-8a01-9d4b8ae0d819</xmpMM:OriginalDocumentID>
         <xmpMM:History>
            <rdf:Seq>
               <rdf:li>
                  <rdf:Description>
                     <stEvt:action>saved</stEvt:action>
                     <stEvt:instanceID>xmp.iid:26979e5d-c88a-6246-8a01-9d4b8ae0d819</stEvt:instanceID>
                     <stEvt:when>2017-11-29T15:52:35+01:00</stEvt:when>
                     <stEvt:softwareAgent>Adobe Bridge CC 2017 (Windows)</stEvt:softwareAgent>
                     <stEvt:changed>/metadata</stEvt:changed>
                  </rdf:Description>
               </rdf:li>
            </rdf:Seq>
         </xmpMM:History>
         <xmp:MetadataDate>2017-11-29T15:52:35+01:00</xmp:MetadataDate>
      </rdf:Description>
   </rdf:RDF>
</x:xmpmeta>
                                                                                                    
                                                                                                    
                                                                                                    
                                                                                                    
                                                                                                    
                                                                                                    
                                                                                                    
                                                                                                    
                                                                                                    
                                                                                                    
                                                                                                    
                                                                                                    
                                                                                                    
                                                                                                    
                                                                                                    
                                                                                                    
                                                                                                    
                                                                                                    
                                                                                                    
                                                                                                    
                           
<?xpacket end="w"?></metadata>
<path d="M143.4,6.7c-22.9-1.3-39.1,3.2-49.6,13.7S78.9,46.9,80.1,69.3l-4.3,4.3-8.1-8c.8-14.5-2.1-24.8-8.9-31.6s-17.5-9.8-32.3-8.9a1.4,1.4,0,0,0-1.4,1.4c-.9,14.8,2.1,25.3,8.9,32.2s15.1,9.1,27.4,9.1h4.2l7.7,7.7v.7h0V89.2H28a1.5,1.5,0,0,0-1.5,1.5v19a1.5,1.5,0,0,0,1.5,1.5h6.6l8.5,51.1a1.5,1.5,0,0,0,1.5,1.2h58.6a1.5,1.5,0,0,0,1.5-1.2l8.5-51.1h6.6a1.5,1.5,0,0,0,1.5-1.5v-19a1.5,1.5,0,0,0-1.5-1.5H76.3V77.3l5.9-5.8,6.9.2c18.9,0,32.7-4.6,42-13.9S146.2,31,144.8,8.1A1.5,1.5,0,0,0,143.4,6.7ZM101.9,160.5h-56l-8.2-49.3h72.4Zm16.4-52.3H29.5v-16h88.8ZM36.2,56.6c-6.1-6-8.7-15.4-8.2-28.6,13.2-.6,22.6,2.1,28.7,8.1s8.4,14.4,8.1,26.6L47.5,45.3l-2.2,2.1L62.7,64.8C50.6,65,41.9,62.3,36.2,56.6Zm92.8-1c-9.4,9.4-23.8,13.7-43.9,13l42.8-42.9-2.1-2.1L82.9,66.5c-.6-20.2,3.6-34.6,13-44s24.8-13.9,46-12.9C142.9,30.9,138.7,45.9,129,55.6Z"/></svg>