<svg id="PIKTOGRAM" xmlns="http://www.w3.org/2000/svg" viewBox="0 0 170 170"><title>light_black</title><metadata><?xpacket begin="﻿" id="W5M0MpCehiHzreSzNTczkc9d"?>
<x:xmpmeta xmlns:x="adobe:ns:meta/" x:xmptk="Adobe XMP Core 5.6-c137 79.159547, 2016/07/07-11:39:24        ">
   <rdf:RDF xmlns:rdf="http://www.w3.org/1999/02/22-rdf-syntax-ns#">
      <rdf:Description rdf:about=""
            xmlns:dc="http://purl.org/dc/elements/1.1/"
            xmlns:xmpMM="http://ns.adobe.com/xap/1.0/mm/"
            xmlns:stEvt="http://ns.adobe.com/xap/1.0/sType/ResourceEvent#"
            xmlns:xmp="http://ns.adobe.com/xap/1.0/">
         <dc:title>
            <rdf:Alt>
               <rdf:li xml:lang="x-default">light_black</rdf:li>
            </rdf:Alt>
         </dc:title>
         <xmpMM:PreservedFileName>light_black_12.svg</xmpMM:PreservedFileName>
         <xmpMM:InstanceID>xmp.iid:94935c92-d571-634f-b2dd-423b47d3df25</xmpMM:InstanceID>
         <xmpMM:DocumentID>xmp.did:94935c92-d571-634f-b2dd-423b47d3df25</xmpMM:DocumentID>
         <xmpMM:OriginalDocumentID>xmp.did:94935c92-d571-634f-b2dd-423b47d3df25</xmpMM:OriginalDocumentID>
         <xmpMM:History>
            <rdf:Seq>
               <rdf:li>
                  <rdf:Description>
                     <stEvt:action>saved</stEvt:action>
                     <stEvt:instanceID>xmp.iid:94935c92-d571-634f-b2dd-423b47d3df25</stEvt:instanceID>
                     <stEvt:when>2017-11-29T15:52:35+01:00</stEvt:when>
                     <stEvt:softwareAgent>Adobe Bridge CC 2017 (Windows)</stEvt:softwareAgent>
                     <stEvt:changed>/metadata</stEvt:changed>
                  </rdf:Description>
               </rdf:li>
            </rdf:Seq>
         </xmpMM:History>
         <xmp:MetadataDate>2017-11-29T15:52:35+01:00</xmp:MetadataDate>
      </rdf:Description>
   </rdf:RDF>
</x:xmpmeta>
                                                                                                    
                                                                                                    
                                                                                                    
                                                                                                    
                                                                                                    
                                                                                                    
                                                                                                    
                                                                                                    
                                                                                                    
                                                                                                    
                                                                                                    
                                                                                                    
                                                                                                    
                                                                                                    
                                                                                                    
                                                                                                    
                                                                                                    
                                                                                                    
                                                                                                    
                                                                                                    
                           
<?xpacket end="w"?></metadata>
<path d="M162,40.8H8a1.5,1.5,0,0,0-1.5,1.5V153.5A1.5,1.5,0,0,0,8,155H162a1.5,1.5,0,0,0,1.5-1.5V42.3A1.5,1.5,0,0,0,162,40.8Zm-1.5,3V79.4c-5.4,2.6-37.4,17-75.5,17S14.9,82,9.5,79.4V43.8ZM59,97.3a164.9,164.9,0,0,0,26,2.1,166.8,166.8,0,0,0,25-1.9v5.6a12.2,12.2,0,0,1-12.2,12.2H71.2A12.2,12.2,0,0,1,59,103.1ZM9.5,152V82.7A193.5,193.5,0,0,0,56,96.8v6.3a15.2,15.2,0,0,0,15.2,15.2H97.8A15.2,15.2,0,0,0,113,103.1V97a194.2,194.2,0,0,0,47.5-14.3V152Z"/><path d="M113.3,31.3v-.5A17.9,17.9,0,0,0,95.4,13H74.6A17.9,17.9,0,0,0,56.7,30.8v.5h3v-.5A14.9,14.9,0,0,1,74.6,16H95.4a14.9,14.9,0,0,1,14.9,14.8v.5Z"/></svg>