<svg id="PIKTOGRAM" xmlns="http://www.w3.org/2000/svg" viewBox="0 0 170 170"><title>light_black</title><metadata><?xpacket begin="﻿" id="W5M0MpCehiHzreSzNTczkc9d"?>
<x:xmpmeta xmlns:x="adobe:ns:meta/" x:xmptk="Adobe XMP Core 5.6-c137 79.159547, 2016/07/07-11:39:24        ">
   <rdf:RDF xmlns:rdf="http://www.w3.org/1999/02/22-rdf-syntax-ns#">
      <rdf:Description rdf:about=""
            xmlns:dc="http://purl.org/dc/elements/1.1/"
            xmlns:xmpMM="http://ns.adobe.com/xap/1.0/mm/"
            xmlns:stEvt="http://ns.adobe.com/xap/1.0/sType/ResourceEvent#"
            xmlns:xmp="http://ns.adobe.com/xap/1.0/">
         <dc:title>
            <rdf:Alt>
               <rdf:li xml:lang="x-default">light_black</rdf:li>
            </rdf:Alt>
         </dc:title>
         <xmpMM:PreservedFileName>light_black_13.svg</xmpMM:PreservedFileName>
         <xmpMM:InstanceID>xmp.iid:19f528e1-ed2f-f940-8002-a5a20ee90ca1</xmpMM:InstanceID>
         <xmpMM:DocumentID>xmp.did:19f528e1-ed2f-f940-8002-a5a20ee90ca1</xmpMM:DocumentID>
         <xmpMM:OriginalDocumentID>xmp.did:19f528e1-ed2f-f940-8002-a5a20ee90ca1</xmpMM:OriginalDocumentID>
         <xmpMM:History>
            <rdf:Seq>
               <rdf:li>
                  <rdf:Description>
                     <stEvt:action>saved</stEvt:action>
                     <stEvt:instanceID>xmp.iid:19f528e1-ed2f-f940-8002-a5a20ee90ca1</stEvt:instanceID>
                     <stEvt:when>2017-11-29T15:52:35+01:00</stEvt:when>
                     <stEvt:softwareAgent>Adobe Bridge CC 2017 (Windows)</stEvt:softwareAgent>
                     <stEvt:changed>/metadata</stEvt:changed>
                  </rdf:Description>
               </rdf:li>
            </rdf:Seq>
         </xmpMM:History>
         <xmp:MetadataDate>2017-11-29T15:52:35+01:00</xmp:MetadataDate>
      </rdf:Description>
   </rdf:RDF>
</x:xmpmeta>
                                                                                                    
                                                                                                    
                                                                                                    
                                                                                                    
                                                                                                    
                                                                                                    
                                                                                                    
                                                                                                    
                                                                                                    
                                                                                                    
                                                                                                    
                                                                                                    
                                                                                                    
                                                                                                    
                                                                                                    
                                                                                                    
                                                                                                    
                                                                                                    
                                                                                                    
                                                                                                    
                           
<?xpacket end="w"?></metadata>
<path d="M161.9,20.6a1.5,1.5,0,0,0-1.7.7L115.5,96.9,96.6,73.7a1.6,1.6,0,0,0-1.3-.6,1.5,1.5,0,0,0-1.2.7L71.6,109.2l-15.8-12a1.5,1.5,0,0,0-2,.1L6.9,148.4a1.6,1.6,0,0,0-.3,1.6,1.5,1.5,0,0,0,1.4.9H162a1.2,1.2,0,0,0,1-.4,1.6,1.6,0,0,0,.5-1.1L163,22A1.5,1.5,0,0,0,161.9,20.6ZM11.4,147.9l43.7-47.5,16,12.1a1.3,1.3,0,0,0,1.2.3,1.7,1.7,0,0,0,1-.7L95.5,77.2l19,23.2a1.6,1.6,0,0,0,1.3.6,1.5,1.5,0,0,0,1.2-.7l43-72.8.5,120.4Z"/><rect x="5" y="73.4" width="49.9" height="3"/><rect x="5" y="46.6" width="77" height="3"/><rect x="5" y="19" width="102.2" height="3"/></svg>