<svg id="PIKTOGRAM" xmlns="http://www.w3.org/2000/svg" viewBox="0 0 170 170"><title>light_black</title><metadata><?xpacket begin="﻿" id="W5M0MpCehiHzreSzNTczkc9d"?>
<x:xmpmeta xmlns:x="adobe:ns:meta/" x:xmptk="Adobe XMP Core 5.6-c137 79.159547, 2016/07/07-11:39:24        ">
   <rdf:RDF xmlns:rdf="http://www.w3.org/1999/02/22-rdf-syntax-ns#">
      <rdf:Description rdf:about=""
            xmlns:dc="http://purl.org/dc/elements/1.1/"
            xmlns:xmpMM="http://ns.adobe.com/xap/1.0/mm/"
            xmlns:stEvt="http://ns.adobe.com/xap/1.0/sType/ResourceEvent#"
            xmlns:xmp="http://ns.adobe.com/xap/1.0/">
         <dc:title>
            <rdf:Alt>
               <rdf:li xml:lang="x-default">light_black</rdf:li>
            </rdf:Alt>
         </dc:title>
         <xmpMM:PreservedFileName>light_black_16.svg</xmpMM:PreservedFileName>
         <xmpMM:InstanceID>xmp.iid:59dfd238-37b9-b14e-9258-d0f983df7440</xmpMM:InstanceID>
         <xmpMM:DocumentID>xmp.did:59dfd238-37b9-b14e-9258-d0f983df7440</xmpMM:DocumentID>
         <xmpMM:OriginalDocumentID>xmp.did:59dfd238-37b9-b14e-9258-d0f983df7440</xmpMM:OriginalDocumentID>
         <xmpMM:History>
            <rdf:Seq>
               <rdf:li>
                  <rdf:Description>
                     <stEvt:action>saved</stEvt:action>
                     <stEvt:instanceID>xmp.iid:59dfd238-37b9-b14e-9258-d0f983df7440</stEvt:instanceID>
                     <stEvt:when>2017-11-29T15:52:36+01:00</stEvt:when>
                     <stEvt:softwareAgent>Adobe Bridge CC 2017 (Windows)</stEvt:softwareAgent>
                     <stEvt:changed>/metadata</stEvt:changed>
                  </rdf:Description>
               </rdf:li>
            </rdf:Seq>
         </xmpMM:History>
         <xmp:MetadataDate>2017-11-29T15:52:36+01:00</xmp:MetadataDate>
      </rdf:Description>
   </rdf:RDF>
</x:xmpmeta>
                                                                                                    
                                                                                                    
                                                                                                    
                                                                                                    
                                                                                                    
                                                                                                    
                                                                                                    
                                                                                                    
                                                                                                    
                                                                                                    
                                                                                                    
                                                                                                    
                                                                                                    
                                                                                                    
                                                                                                    
                                                                                                    
                                                                                                    
                                                                                                    
                                                                                                    
                                                                                                    
                           
<?xpacket end="w"?></metadata>
<path d="M120.3,64.3a8.7,8.7,0,0,0-2.5,5.8H107.4a1.6,1.6,0,0,0-1.1.5l-9.6,9.6V49.6a8.7,8.7,0,0,0,7.3-8.7,8.9,8.9,0,1,0-17.7,0,8.9,8.9,0,0,0,2.6,6.3,8.8,8.8,0,0,0,4.8,2.4v51.3L77.7,85a1.3,1.3,0,0,0-1-.4H66.2a8.8,8.8,0,0,0-2.5-5.9,9.1,9.1,0,0,0-12.6,0,8.9,8.9,0,0,0,6.3,15.2,9.1,9.1,0,0,0,6.3-2.6,10.1,10.1,0,0,0,2.2-3.7H76l17.7,17.6v47.5h3V84.4L108,73.1h10.1a8.7,8.7,0,0,0,2.2,3.7,8.9,8.9,0,0,0,6.3,2.6,8.9,8.9,0,1,0,0-17.7A8.9,8.9,0,0,0,120.3,64.3ZM61.5,89.2a5.7,5.7,0,0,1-4.1,1.7,5.9,5.9,0,0,1-4.2-1.7,6,6,0,0,1,0-8.4,5.9,5.9,0,0,1,4.2-1.7,5.7,5.7,0,0,1,4.1,1.7,5.8,5.8,0,0,1,0,8.4ZM89.3,40.9A5.8,5.8,0,0,1,95.2,35a5.8,5.8,0,0,1,4.1,1.7,5.9,5.9,0,0,1,1.7,4.2,5.9,5.9,0,0,1-11.7,0Zm43.2,29.7a5.8,5.8,0,0,1-1.7,4.1,5.9,5.9,0,0,1-4.2,1.7,5.9,5.9,0,0,1,0-11.7,5.8,5.8,0,0,1,5.9,5.9Z"/><path d="M92.2,6.5A59.2,59.2,0,0,0,53.6,22.7,52.9,52.9,0,0,0,37.9,60.9a9,9,0,0,1-1.4,4.8L19.7,92.3a8.9,8.9,0,0,0,7.6,13.6h7.1a3.5,3.5,0,0,1,3.5,3.4V119a17.9,17.9,0,0,0,17.9,17.9h9.5V162a1.5,1.5,0,0,0,1.5,1.5h55.9a1.5,1.5,0,0,0,1.5-1.5V127.4a30.8,30.8,0,0,1,9.5-22.6A56.9,56.9,0,0,0,92.2,6.5Zm39.5,96.1a34,34,0,0,0-10.5,24.8v33.1H68.3V135.4a1.5,1.5,0,0,0-1.5-1.5h-11A14.9,14.9,0,0,1,40.9,119v-9.7a6.4,6.4,0,0,0-6.5-6.4H27.3a6,6,0,0,1-5.1-9L39.1,67.3a12.8,12.8,0,0,0,1.8-6.4c0-28.4,21.6-50,51.4-51.4a53.9,53.9,0,0,1,39.4,93.1Z"/></svg>