<svg id="PIKTO_LIGHT" xmlns="http://www.w3.org/2000/svg" viewBox="0 0 170 170"><title>light_black</title><path d="M120,6.5A43.6,43.6,0,0,0,76.5,50v9.5A35.6,35.6,0,0,0,42.4,95a1.5,1.5,0,0,0,1.5,1.5H112a1.5,1.5,0,0,0,1.5-1.5A35.6,35.6,0,0,0,79.5,59.5V50a40.5,40.5,0,1,1,81,0V165.5h3V50A43.6,43.6,0,0,0,120,6.5Zm-9.5,87h-65a32.6,32.6,0,0,1,65,0Z"/><rect x="49.1" y="115" width="3" height="16.5"/><rect x="103.8" y="115" width="3" height="16.5"/><rect x="76.5" y="115" width="3" height="16.5"/><rect x="62.8" y="149" width="3" height="16.5"/><rect x="117.5" y="149" width="3" height="16.5"/><rect x="90.2" y="149" width="3" height="16.5"/><rect x="35.4" y="149" width="3" height="16.5"/></svg>