<svg id="PIKTO_LIGHT" xmlns="http://www.w3.org/2000/svg" viewBox="0 0 170 170"><title>light_black</title><rect x="21.7" y="52.7" width="74.1" height="3"/><rect x="35.5" y="38.9" width="75.2" height="3"/><path d="M162,38.9H133.2L163.7,8.4l-2.1-2.1L115.2,52.7H115v.2L82.7,85.1a17.8,17.8,0,0,0-25.1,25.1L39.8,128.1H29v-9a1.5,1.5,0,0,0-1.5-1.5A7.6,7.6,0,0,1,20,110a1.5,1.5,0,0,0-1.5-1.5h-9V89.2h9A1.5,1.5,0,0,0,20,87.7a7.6,7.6,0,0,1,7.6-7.6A1.5,1.5,0,0,0,29,78.7V69.4H85v-3H8a1.5,1.5,0,0,0-1.5,1.5v61.7A1.5,1.5,0,0,0,8,131.1H36.8L6.3,161.6l2.1,2.1,94.3-94.3h10.8v9.2a1.5,1.5,0,0,0,1.5,1.5,7.6,7.6,0,0,1,7.6,7.6,1.5,1.5,0,0,0,1.5,1.5h9v19.3h-9a1.5,1.5,0,0,0-1.5,1.5,7.6,7.6,0,0,1-7.6,7.6,1.5,1.5,0,0,0-1.5,1.5v9H57.3v3h77.3a1.5,1.5,0,0,0,1.5-1.5V67.9a1.5,1.5,0,0,0-1.5-1.5H105.7l10.7-10.7h30.3v60.2h3V54.2a1.5,1.5,0,0,0-1.5-1.5H119.4l10.7-10.7h30.3v60.2h3V40.4A1.5,1.5,0,0,0,162,38.9ZM26,69.4v7.9a10.6,10.6,0,0,0-9,9H9.5V69.4ZM9.5,111.5h7.6a10.6,10.6,0,0,0,9,9v7.6H9.5Zm107,16.6v-7.6a10.6,10.6,0,0,0,9-9H133v16.6ZM133,86.2h-7.6a10.6,10.6,0,0,0-9-9V69.4H133ZM56.5,98.7A14.8,14.8,0,0,1,80.6,87.3L59.8,108.1A14.7,14.7,0,0,1,56.5,98.7Z"/><path d="M86.1,98.7a14.8,14.8,0,0,1-14.8,14.8v3A17.8,17.8,0,0,0,89.1,98.7Z"/></svg>