<svg id="PIKTO_LIGHT" xmlns="http://www.w3.org/2000/svg" viewBox="0 0 170 170"><title>light_black</title><path d="M48.1,107.5a16,16,0,1,1,16-16A16,16,0,0,1,48.1,107.5Zm0-29a13,13,0,1,0,13,13A13,13,0,0,0,48.1,78.5Z"/><path d="M55.7,119.5a16,16,0,0,1,16,16V165h-3V135.5a13,13,0,0,0-13-13h-15a13,13,0,0,0-13,13V165h-3V135.5a16,16,0,0,1,16-16Z"/><path d="M121.9,107.5a16,16,0,1,1,16-16A16,16,0,0,1,121.9,107.5Zm0-29a13,13,0,1,0,13,13A13,13,0,0,0,121.9,78.5Z"/><path d="M129.4,119.5a16,16,0,0,1,16,16V165h-3V135.5a13,13,0,0,0-13-13h-15a13,13,0,0,0-13,13V165h-3V135.5a16,16,0,0,1,16-16Z"/><path d="M85,38.5a16,16,0,1,1,16-16A16,16,0,0,1,85,38.5Zm0-29a13,13,0,1,0,13,13A13,13,0,0,0,85,9.5Z"/><path d="M92.5,50.5h-15a16,16,0,0,0-16,16v3.7h3V66.5a13,13,0,0,1,13-13h15a13,13,0,0,1,13,13v3.7h3V66.5A16,16,0,0,0,92.5,50.5Z"/></svg>