<svg id="PIKTO_LIGHT" xmlns="http://www.w3.org/2000/svg" viewBox="0 0 170 170"><title>light_black</title><path d="M130.3,40a16,16,0,1,1,16-16A16,16,0,0,1,130.3,40Zm0-29a13,13,0,1,0,13,13A13,13,0,0,0,130.3,11Z"/><path d="M40.3,64.7a16,16,0,1,1,16-16A16,16,0,0,1,40.3,64.7Zm0-29a13,13,0,1,0,13,13A13,13,0,0,0,40.3,35.7Z"/><path d="M165,95.6H153.8V68a16,16,0,0,0-16-16h-15a16,16,0,0,0-16,16V95.6H63.8V92.7a16,16,0,0,0-16-16h-15a16,16,0,0,0-16,16v2.9H5v3H16.8V165h3V92.7a13,13,0,0,1,13-13h15a13,13,0,0,1,13,13V165h3V98.6H165ZM109.8,68a13,13,0,0,1,13-13h15a13,13,0,0,1,13,13V95.6h-41Z"/></svg>