<svg id="PIKTO_LIGHT" xmlns="http://www.w3.org/2000/svg" viewBox="0 0 170 170"><title>light_black</title><path d="M154.9,114.4h-61l-.5-1.5a14.5,14.5,0,0,0-8.1-7.9L47.4,90.1H8a1.5,1.5,0,0,0-1.5,1.5V162A1.5,1.5,0,0,0,8,163.5H28.9a1.5,1.5,0,0,0,1.5-1.5V150l40.9,8.6A27.5,27.5,0,0,0,86,157.4l71.9-26.4a8.6,8.6,0,0,0-3-16.6ZM27.4,160.5H9.5V93H27.4Zm129.4-32.3L84.9,154.6a24.5,24.5,0,0,1-13,1.1L30.4,147V93H46.6l37.6,14.7a11.6,11.6,0,0,1-8.5,21.5L50,119.2,48.9,122l25.7,10.1a14.7,14.7,0,0,0,5.4,1,14.6,14.6,0,0,0,14.5-15.7h60.5a5.6,5.6,0,0,1,1.9,10.8Z"/><path d="M85,52.8A23.1,23.1,0,1,0,61.9,29.6,23.2,23.2,0,0,0,85,52.8ZM85,9.5A20.1,20.1,0,1,1,64.9,29.6,20.2,20.2,0,0,1,85,9.5Z"/><path d="M130.9,100.4a23.1,23.1,0,1,0-23.1-23.1A23.2,23.2,0,0,0,130.9,100.4Zm0-43.3a20.1,20.1,0,1,1-20.1,20.1A20.2,20.2,0,0,1,130.9,57.1Z"/></svg>