<svg id="PIKTO_LIGHT" xmlns="http://www.w3.org/2000/svg" viewBox="0 0 170 170"><title>light_black</title><path d="M162,163.5H136.4a1.5,1.5,0,0,1-1.5-1.5V149H100.8v13a1.5,1.5,0,0,1-1.5,1.5H70.7a1.5,1.5,0,0,1-1.5-1.5V149H35.1v13a1.5,1.5,0,0,1-1.5,1.5H8A1.5,1.5,0,0,1,6.5,162V131.4A1.5,1.5,0,0,1,8,129.9H162a1.5,1.5,0,0,1,1.5,1.5V162A1.5,1.5,0,0,1,162,163.5Zm-24.1-3h22.6V132.9H9.5v27.6H32.1v-13a1.5,1.5,0,0,1,1.5-1.5H70.7a1.5,1.5,0,0,1,1.5,1.5v13H97.8v-13a1.5,1.5,0,0,1,1.5-1.5h37.1a1.5,1.5,0,0,1,1.5,1.5Z"/><polygon points="86.5 80.2 94.1 87.8 96.2 85.7 85 74.5 73.7 85.7 75.8 87.8 83.5 80.2 83.5 101.8 58.4 101.8 58.4 80.2 66.1 87.8 68.2 85.7 56.9 74.5 45.7 85.7 47.8 87.8 55.4 80.2 55.4 101.8 46.7 101.8 46.7 104.8 95.2 104.8 95.2 101.8 86.5 101.8 86.5 80.2"/><path d="M136.4,16H33.6a1.5,1.5,0,0,0-1.5,1.5V118.8a1.5,1.5,0,0,0,1.5,1.5H136.4a1.5,1.5,0,0,0,1.5-1.5V17.5A1.5,1.5,0,0,0,136.4,16ZM71.5,19h27V36.7l-6,6-6.4-6.4a1.5,1.5,0,0,0-2.1,0l-6.4,6.4-6-6Zm63.4,98.3H35.1V19H68.5V37.3a1.5,1.5,0,0,0,.4,1.1l7.5,7.5a1.5,1.5,0,0,0,2.1,0L85,39.5l6.4,6.4a1.5,1.5,0,0,0,2.1,0l7.5-7.5a1.5,1.5,0,0,0,.4-1.1V19h33.4Z"/></svg>