<svg id="PIKTO_LIGHT" xmlns="http://www.w3.org/2000/svg" viewBox="0 0 170 170"><title>light_black</title><path d="M102.4,141.4H67.6a1.5,1.5,0,0,1-1.3-2.2l9.3-16a15.2,15.2,0,1,1,18.8,0l9.3,16a1.5,1.5,0,0,1-1.3,2.3Zm-32.1-3H99.8l-8.6-15a1.5,1.5,0,0,1,.5-2,12.2,12.2,0,1,0-13.2,0,1.5,1.5,0,0,1,.5,2Z"/><path d="M135.1,74.1H50.8V43.3a33.6,33.6,0,0,1,67.2,0V60.6h3V43.3a36.6,36.6,0,0,0-73.2,0V74.1H34.9a1.5,1.5,0,0,0-1.5,1.5v86.2a1.5,1.5,0,0,0,1.5,1.5H135.1a1.5,1.5,0,0,0,1.5-1.5V75.6A1.5,1.5,0,0,0,135.1,74.1Zm-1.5,86.2H36.4V77.1h97.2Z"/></svg>