<svg id="PIKTO_LIGHT" xmlns="http://www.w3.org/2000/svg" viewBox="0 0 170 170"><title>light_black</title><path d="M153,19.1H17A10.5,10.5,0,0,0,6.5,29.6V113A10.5,10.5,0,0,0,17,123.5H62.4v10.3a14.2,14.2,0,0,1-14.2,14.2,1.5,1.5,0,1,0,0,3h73.6a1.5,1.5,0,0,0,0-3,14.2,14.2,0,0,1-14.2-14.2V123.5H153A10.5,10.5,0,0,0,163.5,113V29.6A10.5,10.5,0,0,0,153,19.1ZM112.2,147.9H57.9a17.2,17.2,0,0,0,7.5-14.2V123.5h39.3v10.3A17.2,17.2,0,0,0,112.2,147.9ZM160.5,113a7.5,7.5,0,0,1-7.5,7.5H17A7.5,7.5,0,0,1,9.5,113V29.6A7.5,7.5,0,0,1,17,22.1H153a7.5,7.5,0,0,1,7.5,7.5Z"/><path d="M123.5,61.6,85.9,35a1.5,1.5,0,0,0-1.7,0L46.5,61.6a1.5,1.5,0,0,0,.9,2.7h75.2a1.5,1.5,0,0,0,.9-2.7Zm-71.4-.3L85,38.1l32.9,23.3Z"/><rect x="59.4" y="70.6" width="3" height="27.32"/><rect x="107.6" y="70.6" width="3" height="27.32"/><rect x="91.5" y="70.6" width="3" height="27.32"/><rect x="75.5" y="70.6" width="3" height="27.32"/><rect x="50.1" y="104.6" width="69.8" height="3"/></svg>