<svg id="PIKTO_LIGHT" xmlns="http://www.w3.org/2000/svg" viewBox="0 0 170 170"><title>light_black</title><path d="M152.5,19.1H140.8a15.1,15.1,0,0,0-29.8,0H74.9a15.1,15.1,0,0,0-29.8,0H17.5A1.5,1.5,0,0,0,16,20.6V149.5a1.5,1.5,0,0,0,1.5,1.5H31.9v11a1.5,1.5,0,0,0,1.5,1.5H152.5A1.5,1.5,0,0,0,154,162V20.6A1.5,1.5,0,0,0,152.5,19.1ZM125.9,9.5a12.1,12.1,0,0,1,11.9,9.6H114A12.2,12.2,0,0,1,125.9,9.5ZM60,9.5a12.1,12.1,0,0,1,11.9,9.6H48.1A12.2,12.2,0,0,1,60,9.5ZM72.1,22.1A12.1,12.1,0,0,1,60,33.7v3A15.1,15.1,0,0,0,75.1,22.1H138a12.1,12.1,0,0,1-12.1,11.6v3A15.1,15.1,0,0,0,141,22.1h10V45.3H34.9V22.1Zm-40.2,0V45.3H19V22.1ZM19,148V48.3H31.9V148Zm15.9,12.5V48.3H151V160.5Z"/><rect x="82.6" y="76.2" width="20.7" height="3"/><rect x="114.6" y="76.2" width="20.7" height="3"/><rect x="50.6" y="96.5" width="20.7" height="3"/><rect x="82.6" y="96.5" width="20.7" height="3"/><rect x="114.6" y="96.5" width="20.7" height="3"/><rect x="50.6" y="116.8" width="20.7" height="3"/><rect x="82.6" y="116.8" width="20.7" height="3"/><rect x="114.6" y="116.8" width="20.7" height="3"/><rect x="50.6" y="134.3" width="20.7" height="3"/><rect x="82.6" y="134.3" width="20.7" height="3"/></svg>