<svg id="PIKTO_LIGHT" xmlns="http://www.w3.org/2000/svg" viewBox="0 0 170 170"><title>light_black</title><path d="M162.7,105.3,139.9,35.5A10.1,10.1,0,0,0,127.3,29l-22.9,7.5.9,2.9,22.9-7.5a7.1,7.1,0,0,1,8.9,4.5l3.3,10.1-14.2,4.6.9,2.9,14.2-4.6,18.6,56.9a7,7,0,0,1-4.5,8.9L109,130.3l.9,2.9L156.3,118A10.1,10.1,0,0,0,162.7,105.3Z"/><rect x="120" y="99.5" width="18.8" height="3" transform="translate(-24.9 45.1) rotate(-18.1)"/><path d="M98.9,96.8l14.5-9.1a1.5,1.5,0,0,0,.6-1.9l-8.2-17.1,10.7-14.9a1.5,1.5,0,0,0-.8-2.3L40.1,29.5a10.1,10.1,0,0,0-12.4,6.9L7.2,106.9A10,10,0,0,0,14,119.3l75.6,22.1h.4a1.5,1.5,0,0,0,1.5-1.5l-.4-18.5,11.8-8.4a1.5,1.5,0,0,0,.6-1.7ZM30.5,37.2a7.1,7.1,0,0,1,6.8-5.1l2,.3,73.6,21.5-10,13.9a1.5,1.5,0,0,0-.2,1.4L27.6,47.3Zm58.3,82.3a1.5,1.5,0,0,0-.6,1.3l.4,17.2L14.9,116.5a7,7,0,0,1-4.8-8.7L26.7,50.2l77.6,22.5,6.3,13.2-14.3,9a1.5,1.5,0,0,0-.6,1.7l4.7,14.6Z"/><rect x="37.1" y="91.6" width="3" height="18.75" transform="translate(-69.1 110) rotate(-73.9)"/><rect x="51" y="68.4" width="3" height="37.71" transform="translate(-45.9 113.3) rotate(-73.9)"/></svg>