<svg id="PIKTO_LIGHT" xmlns="http://www.w3.org/2000/svg" viewBox="0 0 170 170"><title>light_black</title><path d="M143.9,37.8H26.1A10.1,10.1,0,0,0,16,47.9v74.1a10.1,10.1,0,0,0,10.1,10.1H143.9A10.1,10.1,0,0,0,154,122.1V47.9A10.1,10.1,0,0,0,143.9,37.8Zm-117.8,3H143.9a7.1,7.1,0,0,1,7.1,7.1V58.6H19V47.9A7.1,7.1,0,0,1,26.1,40.8Zm117.8,88.4H26.1a7.1,7.1,0,0,1-7.1-7.1V61.6H151v60.4A7.1,7.1,0,0,1,143.9,129.2Z"/><rect x="114" y="106" width="18.9" height="3"/><rect x="35.3" y="106" width="18.9" height="3"/><rect x="35.3" y="88.8" width="38" height="3"/></svg>