<svg id="PIKTO_LIGHT" xmlns="http://www.w3.org/2000/svg" viewBox="0 0 170 170"><title>light_black</title><path d="M121.3,163.5H48.7a16.8,16.8,0,0,1-16.7-16.7V23.2A16.8,16.8,0,0,1,48.7,6.5h72.6a16.8,16.8,0,0,1,16.7,16.7V146.8A16.8,16.8,0,0,1,121.3,163.5ZM48.7,9.5A13.7,13.7,0,0,0,34.9,23.2V146.8a13.7,13.7,0,0,0,13.7,13.7h72.6a13.7,13.7,0,0,0,13.7-13.7V23.2A13.7,13.7,0,0,0,121.3,9.5Z"/><path d="M121.9,83.3H48.1a1.5,1.5,0,0,1-1.5-1.5v-61a1.5,1.5,0,0,1,1.5-1.5h73.8a1.5,1.5,0,0,1,1.5,1.5v61A1.5,1.5,0,0,1,121.9,83.3Zm-72.3-3h70.8v-58H49.6Z"/><rect x="76.7" y="98.4" width="16.7" height="3"/><rect x="76.7" y="114.2" width="16.7" height="3"/><rect x="76.7" y="129.6" width="16.7" height="3"/><rect x="76.7" y="145.5" width="16.7" height="3"/><rect x="45.3" y="98.4" width="16.7" height="3"/><rect x="45.3" y="114.2" width="16.7" height="3"/><rect x="45.3" y="129.6" width="16.7" height="3"/><rect x="45.3" y="145.5" width="16.7" height="3"/><rect x="105.2" y="98.4" width="16.7" height="3"/><rect x="105.2" y="114.2" width="16.7" height="3"/><rect x="105.2" y="129.6" width="16.7" height="3"/><rect x="105.2" y="145.5" width="16.7" height="3"/><path d="M81,62.2a1.5,1.5,0,0,1-1.1-.4l-8.7-8.7L73.4,51,81,58.6,99,40.7l2.1,2.1-19,19A1.5,1.5,0,0,1,81,62.2Z"/></svg>