<svg id="PIKTO_LIGHT" xmlns="http://www.w3.org/2000/svg" viewBox="0 0 170 170"><title>light_black</title><path d="M133.9,165.1h-3v-9.4H39.5v9.4h-3V154.2a1.5,1.5,0,0,1,1.5-1.5h94.4a1.5,1.5,0,0,1,1.5,1.5Z"/><rect x="83.7" y="5.1" width="3" height="126.17"/><path d="M77.4,34.6H32.5a1.5,1.5,0,0,0-1.4.9l-21,48.6a1.5,1.5,0,0,0-.4,1v.2h0a22.8,22.8,0,0,0,45.6,0h0v-.2a1.5,1.5,0,0,0-.4-1L34.8,37.6H77.4ZM32.5,39.9,51.5,83.6H13.6Zm0,65A19.8,19.8,0,0,1,12.8,86.6H52.3A19.8,19.8,0,0,1,32.5,104.9Z"/><rect x="52.5" y="141" width="65.2" height="3"/><path d="M160.2,84.1l-21-48.6a1.5,1.5,0,0,0-1.4-.9H92.8v3h42.8L115.4,84.1a1.5,1.5,0,0,0-.4,1v.2h0a22.8,22.8,0,0,0,45.6,0h0v-.2A1.5,1.5,0,0,0,160.2,84.1Zm-3.5-.5H118.9l18.9-43.7Zm-18.9,21.3a19.8,19.8,0,0,1-19.7-18.3h39.5A19.8,19.8,0,0,1,137.8,104.9Z"/></svg>