<svg id="PIKTO_LIGHT" xmlns="http://www.w3.org/2000/svg" viewBox="0 0 170 170"><title>light_black</title><path d="M49.6,143.7a24,24,0,0,1-17-41L64.5,70.8a24,24,0,0,1,34,0l-2.1,2.1a21,21,0,0,0-29.7,0L34.7,104.8a21,21,0,0,0,29.7,29.7l12.4-12.4,2.1,2.1L66.6,136.6A24,24,0,0,1,49.6,143.7Z"/><path d="M87,106.2a23.9,23.9,0,0,1-17-7l2.1-2.1a21,21,0,0,0,29.7,0l31.8-31.8A21,21,0,1,0,104,35.5L91.6,47.9l-2.1-2.1,12.4-12.4a24,24,0,0,1,34,34L104,99.2A23.9,23.9,0,0,1,87,106.2Z"/><rect x="37.7" y="34.4" width="3" height="22.39" transform="translate(-20.7 41.1) rotate(-45)"/><rect x="59.2" y="25.5" width="3" height="22.39"/><rect x="19.1" y="65.5" width="22.4" height="3"/></svg>