<svg id="PIKTO_LIGHT" xmlns="http://www.w3.org/2000/svg" viewBox="0 0 170 170"><title>light_black</title><path d="M85,154a17.8,17.8,0,0,1-17.8-17.8h3a14.8,14.8,0,1,0,29.6,0h3A17.8,17.8,0,0,1,85,154Z"/><path d="M138.8,123.1,116.3,76.4V51.2A17.8,17.8,0,0,0,98.4,33.4H86.5V17.5h-3V33.4H71.6A17.8,17.8,0,0,0,53.7,51.2V76.4L31.2,123.1a1.5,1.5,0,0,0,1.4,2.2H137.5a1.5,1.5,0,0,0,1.4-2.2Zm-103.9-.8L56.1,78.5H93.6v-3H56.7V51.2A14.8,14.8,0,0,1,71.6,36.4H98.4a14.8,14.8,0,0,1,14.8,14.8V76.8a1.5,1.5,0,0,0,.1.7l21.7,44.8Z"/></svg>