<svg id="PIKTO_LIGHT" xmlns="http://www.w3.org/2000/svg" viewBox="0 0 170 170"><title>light_black</title><path d="M39.5,71.2a16,16,0,1,1,16-16A16,16,0,0,1,39.5,71.2Zm0-29a13,13,0,1,0,13,13A13,13,0,0,0,39.5,42.2Z"/><path d="M47,83.2a16,16,0,0,1,16,16v64.1H60V99.2a13,13,0,0,0-13-13H32a13,13,0,0,0-13,13v64.1H16V99.2a16,16,0,0,1,16-16Z"/><path d="M163,59.8,122.5,27l6.4-5.4a8.7,8.7,0,0,0,2.5-6.4h0a8.7,8.7,0,1,0-17.4,0h3a5.7,5.7,0,0,1,11.4-.1,1.6,1.6,0,0,0,0,.2,5.7,5.7,0,0,1-1.7,4.3L78.6,59.8a1.5,1.5,0,0,0,.9,2.7H162a1.5,1.5,0,0,0,.9-2.7Zm-79.2-.3L120.1,29l37.7,30.5Z"/></svg>