<svg id="PIKTO_LIGHT" xmlns="http://www.w3.org/2000/svg" viewBox="0 0 170 170"><title>light_black</title><path d="M163,59.8,122.5,27l6.4-5.4a8.7,8.7,0,0,0,2.5-6.4h0a8.7,8.7,0,1,0-17.4,0h3a5.7,5.7,0,0,1,11.4-.1,1.6,1.6,0,0,0,0,.2,5.7,5.7,0,0,1-1.7,4.3L78.6,59.8a1.5,1.5,0,0,0,.9,2.7H162a1.5,1.5,0,0,0,.9-2.7Zm-79.2-.3L120.1,29l37.7,30.5Z"/><path d="M39.5,71.3a16,16,0,1,1,16-16A16,16,0,0,1,39.5,71.3Zm0-29a13,13,0,1,0,13,13A13,13,0,0,0,39.5,42.3Z"/><path d="M39.5,71.3a16,16,0,1,1,16-16A16,16,0,0,1,39.5,71.3Zm0-29a13,13,0,1,0,13,13A13,13,0,0,0,39.5,42.3Z"/><path d="M70,161.7l-7-40.1V99.3a16,16,0,0,0-16-16H32a16,16,0,0,0-16,16v22.3L9,161.7a1.5,1.5,0,0,0,1.5,1.7H68.6A1.5,1.5,0,0,0,70,161.7Zm-24-1.3H12.3L19,121.6V99.3a13,13,0,0,1,13-13H47a13,13,0,0,1,13,13v22.3l6.7,38.8Z"/></svg>