<svg id="PIKTO_LIGHT" xmlns="http://www.w3.org/2000/svg" viewBox="0 0 170 170"><title>light_black</title><path d="M124.2,45.9a49.7,49.7,0,0,1,39.3,41.9v13.9a49.6,49.6,0,0,1-35.8,41V162a1.5,1.5,0,0,1-1.5,1.5H102a1.5,1.5,0,0,1-1.5-1.5V144.6H79.4V162a1.5,1.5,0,0,1-1.5,1.5H53.7a1.5,1.5,0,0,1-1.5-1.5V142.7a49.8,49.8,0,0,1-34.4-34.4H8a1.5,1.5,0,0,1-1.5-1.5V82.7A1.5,1.5,0,0,1,8,81.2h9.8A49.9,49.9,0,0,1,46.9,48.6V29a1.5,1.5,0,0,1,1.5-1.5A19.7,19.7,0,0,1,67.7,44.9H81.3v3H65.8a1.5,1.5,0,0,1-1.5-1.5A15.9,15.9,0,0,0,49.9,30.6v19a1.5,1.5,0,0,1-1,1.4A46.9,46.9,0,0,0,20.4,83a1.5,1.5,0,0,1-1.5,1.1H9.5v21.2h9.4a1.5,1.5,0,0,1,1.5,1.1A46.8,46.8,0,0,0,54,140.1a1.5,1.5,0,0,1,1.1,1.5v18.9H76.4V143.1a1.5,1.5,0,0,1,1.5-1.5H102a1.5,1.5,0,0,1,1.5,1.5v17.3h21.2V141.6a1.5,1.5,0,0,1,1.1-1.5,46.6,46.6,0,0,0,34.7-38.7V88.1a46.7,46.7,0,0,0-37-39.3Z"/><rect x="68.1" y="67.9" width="50.6" height="3"/><path d="M81.6,31.2A12.3,12.3,0,1,1,93.9,18.8,12.4,12.4,0,0,1,81.6,31.2Zm0-21.7a9.3,9.3,0,1,0,9.3,9.3A9.3,9.3,0,0,0,81.6,9.5Z"/><path d="M102.5,57.5a12.3,12.3,0,1,1,12.3-12.3A12.4,12.4,0,0,1,102.5,57.5Zm0-21.7a9.3,9.3,0,1,0,9.3,9.3A9.3,9.3,0,0,0,102.5,35.9Z"/></svg>