<svg id="PIKTO_LIGHT" xmlns="http://www.w3.org/2000/svg" viewBox="0 0 170 170"><title>light_black</title><path d="M152.5,52.2H117.8V17.5a1.5,1.5,0,0,0-1.5-1.5H17.5A1.5,1.5,0,0,0,16,17.5v98.8a1.5,1.5,0,0,0,1.5,1.5H52.2v34.7a1.5,1.5,0,0,0,1.5,1.5h98.8a1.5,1.5,0,0,0,1.5-1.5V53.7A1.5,1.5,0,0,0,152.5,52.2ZM52.2,53.7v61.1H19V19h95.8V52.2H53.7A1.5,1.5,0,0,0,52.2,53.7ZM151,151H55.2V55.2H151Z"/><polygon points="136.9 101.6 104.6 101.6 104.6 69.4 101.6 69.4 101.6 101.6 69.4 101.6 69.4 104.6 101.6 104.6 101.6 136.9 104.6 136.9 104.6 104.6 136.9 104.6 136.9 101.6"/></svg>