<svg id="PIKTO_LIGHT" xmlns="http://www.w3.org/2000/svg" viewBox="0 0 170 170"><title>light_black</title><path d="M128.1,154H50.2a1.5,1.5,0,0,1-1.5-1.5V17.2a1.5,1.5,0,0,1,1.5-1.5h53.6a1.5,1.5,0,0,1,1.1.4l24.4,24.4a1.5,1.5,0,0,1,.4,1.1V152.5A1.5,1.5,0,0,1,128.1,154Zm-76.4-3h74.9V42.2L103.1,18.7H51.7Z"/><rect x="107.9" y="82.3" width="3" height="11.03"/><rect x="107.9" y="102.3" width="3" height="11.03"/><rect x="87.6" y="62.3" width="3" height="11.03"/><rect x="107.9" y="62.3" width="3" height="11.03"/><rect x="87.6" y="42.3" width="3" height="11.03"/><rect x="87.6" y="122.3" width="3" height="11.03"/><rect x="87.6" y="102.3" width="3" height="11.03"/><rect x="67.4" y="42.3" width="3" height="11.03"/><rect x="67.4" y="62.3" width="3" height="11.03"/><rect x="67.4" y="82.3" width="3" height="11.03"/><rect x="67.4" y="122.3" width="3" height="11.03"/></svg>