<svg id="PIKTO_LIGHT" xmlns="http://www.w3.org/2000/svg" viewBox="0 0 170 170"><title>light_black</title><rect x="5" y="149.5" width="60.9" height="3"/><path d="M164.1,33.7,130.7,16a1.5,1.5,0,0,0-2,.6L76.3,115.5a1.5,1.5,0,0,0-.2.8h0L79,151.1a1.5,1.5,0,0,0,.8,1.2l.7.2.7-.2,30.5-17.2h0a1.5,1.5,0,0,0,.6-.6l52.4-98.8A1.5,1.5,0,0,0,164.1,33.7ZM130.7,19.4l14,7.4L93.7,123l-14-7.4Zm-50,116.1-1.4-16.7,28.5,15.1L93,142.3A15.3,15.3,0,0,0,80.7,135.5Zm.2,3a12.4,12.4,0,0,1,9.4,5.3l-8.6,4.8Zm29.4-6.7-14-7.4,51-96.2,14,7.4Z"/></svg>