<svg id="PIKTO_LIGHT" xmlns="http://www.w3.org/2000/svg" viewBox="0 0 170 170"><title>light_black</title><path d="M124.6,98.2H53.3v-3h71.4a28,28,0,0,0,4.7-55.7l-.9-.2-.3-.9a28,28,0,0,0-26.6-19.2v-3a31,31,0,0,1,29.2,20.4,31,31,0,0,1-6.1,61.5Z"/><path d="M45.4,98.2A31,31,0,0,1,35,37.9c0-.6-.1-1.3-.1-1.9a31,31,0,0,1,57-17l-2.5,1.6A28,28,0,0,0,38,36c0,.9,0,1.9.1,2.8V40l-1.2.4a28,28,0,0,0,8.3,54.8Z"/><rect x="22.3" y="154.8" width="20" height="3" transform="translate(-120 108.7) rotate(-61)"/><rect x="17.5" y="119.9" width="20" height="3" transform="translate(-92 86.5) rotate(-61)"/><rect x="50.6" y="120.1" width="20" height="3" transform="translate(-75.1 115.6) rotate(-61)"/><rect x="56.1" y="154.8" width="20" height="3" transform="translate(-102.6 138.3) rotate(-61)"/><rect x="84.4" y="120.1" width="20" height="3" transform="translate(-57.7 145.1) rotate(-61)"/><rect x="90" y="154.8" width="20" height="3" transform="translate(-85.2 167.9) rotate(-61)"/><rect x="118.2" y="120.1" width="20" height="3" transform="translate(-40.3 174.7) rotate(-61)"/></svg>