<svg id="PIKTO_LIGHT" xmlns="http://www.w3.org/2000/svg" viewBox="0 0 170 170"><title>light_black</title><path d="M48.2,99.3h-.4a42,42,0,0,1-8.2-3,1.5,1.5,0,0,1-.8-1.4V86a33.9,33.9,0,0,1-4.8-4l-8.8,1.7a1.5,1.5,0,0,1-1.5-.6,42.3,42.3,0,0,1-4.3-7.5,1.5,1.5,0,0,1,.2-1.6l5.8-6.8A33.7,33.7,0,0,1,24.6,61l-7.8-4.4a1.5,1.5,0,0,1-.8-1.4,42.4,42.4,0,0,1,1.5-8.5,1.5,1.5,0,0,1,1.2-1.1l8.8-1.4a33.8,33.8,0,0,1,3.1-5.4l-3.2-8.3a1.5,1.5,0,0,1,.3-1.6,42.6,42.6,0,0,1,6.6-5.6,1.5,1.5,0,0,1,1.6,0l7.7,4.6a33.6,33.6,0,0,1,5.9-2.1l2.9-8.4a1.5,1.5,0,0,1,1.3-1,43.1,43.1,0,0,1,8.7,0,1.5,1.5,0,0,1,1.3,1l2.9,8.4a33.5,33.5,0,0,1,5.9,2.1l7.7-4.6a1.5,1.5,0,0,1,1.6,0,42.5,42.5,0,0,1,6.6,5.6,1.5,1.5,0,0,1,.3,1.6l-3.2,8.3a33.7,33.7,0,0,1,3.1,5.4l8.8,1.4a1.5,1.5,0,0,1,1.2,1.1,42.2,42.2,0,0,1,1.5,8.5,1.5,1.5,0,0,1-.8,1.4L91,61.4l-1.5-2.6,7.7-4.3a39.4,39.4,0,0,0-1.1-6.1L87.5,47a1.5,1.5,0,0,1-1.1-.9,30.7,30.7,0,0,0-3.6-6.3,1.5,1.5,0,0,1-.2-1.4l3.1-8.2a39.7,39.7,0,0,0-4.7-4l-7.5,4.5a1.5,1.5,0,0,1-1.4.1,30.6,30.6,0,0,0-6.8-2.5,1.5,1.5,0,0,1-1.1-1l-2.9-8.3a40.1,40.1,0,0,0-6.2,0l-2.9,8.3a1.5,1.5,0,0,1-1.1,1,30.6,30.6,0,0,0-6.8,2.5,1.5,1.5,0,0,1-1.4-.1l-7.5-4.5a39.6,39.6,0,0,0-4.7,4l3.1,8.2a1.5,1.5,0,0,1-.2,1.4,30.7,30.7,0,0,0-3.6,6.3,1.5,1.5,0,0,1-1.1.9l-8.7,1.4a39.5,39.5,0,0,0-1.1,6.1l7.7,4.3a1.5,1.5,0,0,1,.8,1.2,30.7,30.7,0,0,0,1.2,7.1,1.5,1.5,0,0,1-.3,1.4l-5.7,6.6a39.4,39.4,0,0,0,3.1,5.3l8.6-1.7a1.5,1.5,0,0,1,1.4.4A30.8,30.8,0,0,0,41.3,84a1.5,1.5,0,0,1,.7,1.3V94a39.1,39.1,0,0,0,5.8,2.1l5.6-6.8,2.3,1.9-6.2,7.6A1.5,1.5,0,0,1,48.2,99.3Z"/><path d="M118.7,154a1.5,1.5,0,0,1-1.2-.6l-6.3-7.7a35.9,35.9,0,0,1-7,0L98,153.4a1.5,1.5,0,0,1-1.5.5,46.1,46.1,0,0,1-8.9-3.2,1.5,1.5,0,0,1-.8-1.4v-9.9a37.1,37.1,0,0,1-5.4-4.5l-9.7,1.9a1.5,1.5,0,0,1-1.5-.6,46.4,46.4,0,0,1-4.8-8.2,1.5,1.5,0,0,1,.2-1.6l6.5-7.5A37,37,0,0,1,71,112l-8.6-4.8a1.5,1.5,0,0,1-.8-1.4,46.3,46.3,0,0,1,1.6-9.4,1.5,1.5,0,0,1,1.2-1.1l9.8-1.6a36.9,36.9,0,0,1,3.5-6.1l-3.5-9.2a1.5,1.5,0,0,1,.3-1.6,46.6,46.6,0,0,1,7.3-6.1,1.5,1.5,0,0,1,1.6,0L92,75.7a36.7,36.7,0,0,1,6.6-2.4l3.3-9.4a1.5,1.5,0,0,1,1.3-1,47.1,47.1,0,0,1,9.5,0,1.5,1.5,0,0,1,1.3,1l3.3,9.4a36.7,36.7,0,0,1,6.6,2.4l8.5-5.1a1.5,1.5,0,0,1,1.6,0,46.7,46.7,0,0,1,7.3,6.1,1.5,1.5,0,0,1,.3,1.6l-3.5,9.2a36.9,36.9,0,0,1,3.5,6.1l9.8,1.6a1.5,1.5,0,0,1,1.2,1.1,46.3,46.3,0,0,1,1.6,9.4,1.5,1.5,0,0,1-.8,1.4l-8.6,4.8a36.8,36.8,0,0,1-1.2,6.9l6.5,7.5a1.5,1.5,0,0,1,.2,1.6,46.4,46.4,0,0,1-4.8,8.2,1.5,1.5,0,0,1-1.5.6l-9.7-1.9a37.1,37.1,0,0,1-5.4,4.5v9.9a1.5,1.5,0,0,1-.8,1.4,46,46,0,0,1-8.9,3.2ZM112,142.7a1.5,1.5,0,0,1,1.2.6l6.2,7.6a43,43,0,0,0,6.6-2.4v-9.8a1.5,1.5,0,0,1,.7-1.3,34.1,34.1,0,0,0,6.1-5.1,1.5,1.5,0,0,1,1.4-.4l9.6,1.8a43.4,43.4,0,0,0,3.5-6.1l-6.4-7.4a1.5,1.5,0,0,1-.3-1.4,33.8,33.8,0,0,0,1.4-7.8,1.5,1.5,0,0,1,.8-1.2l8.5-4.7a43.3,43.3,0,0,0-1.2-6.9l-9.6-1.6a1.5,1.5,0,0,1-1.1-.9,33.9,33.9,0,0,0-4-6.9,1.5,1.5,0,0,1-.2-1.4l3.5-9.1a43.7,43.7,0,0,0-5.4-4.5l-8.4,5a1.5,1.5,0,0,1-1.4.1,33.8,33.8,0,0,0-7.5-2.7,1.5,1.5,0,0,1-1.1-1l-3.2-9.2a44,44,0,0,0-7,0l-3.2,9.2a1.5,1.5,0,0,1-1.1,1,33.8,33.8,0,0,0-7.5,2.7,1.5,1.5,0,0,1-1.4-.1l-8.4-5a43.7,43.7,0,0,0-5.4,4.5l3.5,9.1a1.5,1.5,0,0,1-.2,1.4,33.8,33.8,0,0,0-4,6.9,1.5,1.5,0,0,1-1.1.9l-9.6,1.6a43.3,43.3,0,0,0-1.2,6.9l8.5,4.7A1.5,1.5,0,0,1,74,111a33.8,33.8,0,0,0,1.4,7.8,1.5,1.5,0,0,1-.3,1.4l-6.4,7.4a43.2,43.2,0,0,0,3.5,6.1l9.6-1.8a1.5,1.5,0,0,1,1.4.4,34.1,34.1,0,0,0,6.1,5.1,1.5,1.5,0,0,1,.7,1.3v9.8a43,43,0,0,0,6.6,2.4l6.2-7.6a1.5,1.5,0,0,1,1.3-.5,32.9,32.9,0,0,0,8,0Z"/><path d="M107.8,125a16,16,0,1,1,16-16A16,16,0,0,1,107.8,125Zm0-29a13,13,0,1,0,13,13A13,13,0,0,0,107.8,96Z"/><path d="M57.9,73.7a16,16,0,1,1,16-16A16,16,0,0,1,57.9,73.7Zm0-29a13,13,0,1,0,13,13A13,13,0,0,0,57.9,44.7Z"/></svg>