<svg id="PIKTO_LIGHT" xmlns="http://www.w3.org/2000/svg" viewBox="0 0 170 170"><title>light_black</title><path d="M162,13.6H8a1.5,1.5,0,0,0-1.5,1.5V140.5A1.5,1.5,0,0,0,8,142H69.7v-3H60.8V16.6h48.3V54.5h3V16.6h48.3V139h-8v3H162a1.5,1.5,0,0,0,1.5-1.5V15.1A1.5,1.5,0,0,0,162,13.6ZM57.8,139H9.5V16.6H57.8Z"/><rect x="20.7" y="37.3" width="25.7" height="3"/><rect x="20.7" y="53" width="25.7" height="3"/><rect x="72.1" y="37.3" width="25.7" height="3"/><rect x="72.1" y="53" width="25.7" height="3"/><rect x="123.5" y="37.3" width="25.7" height="3"/><rect x="123.5" y="53" width="25.7" height="3"/><rect x="41.9" y="77.8" width="3" height="12.43"/><rect x="108.8" y="124.3" width="3" height="12.43"/><rect x="147.7" y="77.8" width="3" height="12.43"/><path d="M138.9,104.7H92V88a18.3,18.3,0,0,1,36.6,0v9.7h3V88A21.3,21.3,0,0,0,89,88v16.7H82.4a1.5,1.5,0,0,0-1.5,1.5v48.6a1.5,1.5,0,0,0,1.5,1.5h56.5a1.5,1.5,0,0,0,1.5-1.5V106.2A1.5,1.5,0,0,0,138.9,104.7Zm-1.5,48.6H83.9V107.7h53.5Z"/></svg>