<svg id="PIKTO_LIGHT" xmlns="http://www.w3.org/2000/svg" viewBox="0 0 170 170"><title>light_black</title><path d="M162,71.2h-7.9v-13a35.2,35.2,0,1,0-70.4,0v13H75.7a1.5,1.5,0,0,0-1.5,1.5V94.4l3.7,24.8,3-.4L77.2,94.1V74.2h83.3V94.1l-9.9,66.4H112.8v3h39.1a1.5,1.5,0,0,0,1.5-1.3l10.1-67.8V72.7A1.5,1.5,0,0,0,162,71.2Zm-75.3-13a32.2,32.2,0,1,1,64.4,0v13H86.7Z"/><polygon points="106.7 136.9 57.1 136.9 57.1 4.5 54.1 4.5 54.1 136.9 4.5 136.9 4.5 139.9 12.1 139.9 12.1 165.5 15.1 165.5 15.1 139.9 33.1 139.9 33.1 165.5 36.1 165.5 36.1 139.9 54.1 139.9 54.1 165.5 57.1 165.5 57.1 139.9 75.1 139.9 75.1 165.5 78.1 165.5 78.1 139.9 96.2 139.9 96.2 165.5 99.2 165.5 99.2 139.9 106.7 139.9 106.7 136.9"/></svg>