<?xml version="1.0" standalone="no"?>
<!DOCTYPE svg PUBLIC "-//W3C//DTD SVG 1.1//EN" "http://www.w3.org/Graphics/SVG/1.1/DTD/svg11.dtd" >
<svg xmlns="http://www.w3.org/2000/svg">
<metadata>Generated by IcoMoon</metadata>
<defs>
<font id="seb-light-pictograms" horiz-adv-x="1024">
<font-face units-per-em="1024" ascent="921.6" descent="-102.4" />
<missing-glyph horiz-adv-x="1024" />
<glyph unicode="&#x20;" horiz-adv-x="122.88" d="" />
<glyph unicode="&#xe900;" glyph-name="Picto-Light_black" d="M907.144 537.073h-790.287c-4.99 0-9.035 4.045-9.035 9.035 0 2.946 1.41 5.562 3.591 7.212l0.023 0.016 395.144 279.492c1.431 0.996 3.206 1.591 5.12 1.591s3.689-0.595 5.15-1.61l-0.030 0.020 395.144-279.492c2.204-1.666 3.614-4.282 3.614-7.228 0-4.99-4.045-9.035-9.035-9.035v0zM145.167 555.144h733.666l-366.833 259.614zM252.386 490.089h18.071v-337.378h-18.071v337.378zM758.965 490.089h18.071v-337.378h-18.071v337.378zM589.704 490.089h18.071v-337.378h-18.071v337.378zM421.045 490.089h18.071v-337.378h-18.071v337.378zM145.167 100.367h733.064v-18.071h-733.064v18.071zM106.616 18.447h810.165v-18.071h-810.165v18.071z" />
<glyph unicode="&#xe901;" glyph-name="Picto-Light_black1" d="M342.136 104.584h96.979v-18.071h-96.979v18.071zM171.068 182.287v469.233h114.447v18.071h-114.447v86.739c0 31.604 25.62 57.224 57.224 57.224v0h324.668c31.604 0 57.224-25.62 57.224-57.224v0h18.071c0 41.584-33.71 75.294-75.294 75.294v0h-324.668c-41.584 0-75.294-33.71-75.294-75.294v0-680.659c0-41.584 33.71-75.294 75.294-75.294v0h324.668c41.584 0 75.294 33.71 75.294 75.294v0 106.616zM552.96 18.447h-324.668c-31.604 0-57.224 25.62-57.224 57.224v0 88.546h439.115v-88.546c0-31.604-25.62-57.224-57.224-57.224v0zM516.819 596.706h186.127v-18.071h-186.127v18.071zM730.052 238.306h-88.546c-4.99 0-9.035 4.045-9.035 9.035v0 60.235h-71.078v-60.235c0-4.99-4.045-9.035-9.035-9.035v0h-89.148c-4.99 0-9.035 4.045-9.035 9.035v0 68.066c-60.42 18.578-106.995 65.351-124.945 124.569l-0.345 1.323h-33.732c-4.99 0-9.035 4.045-9.035 9.035v0 89.148c0 4.99 4.045 9.035 9.035 9.035v0h33.129c16.578 53.94 55.357 96.659 105.399 118.197l1.217 0.466v69.271c0 4.99 4.045 9.035 9.035 9.035v0c37.051-0.021 67.635-27.686 72.244-63.485l0.038-0.364h165.045c104.599-0.255 189.294-85.107 189.294-189.741 0-81.503-51.388-151.003-123.531-177.869l-1.311-0.428-6.024-2.409v-63.849c0-0.006 0-0.013 0-0.020 0-4.99-4.045-9.035-9.035-9.035-0.212 0-0.422 0.007-0.63 0.022l0.028-0.002zM649.939 256.376h71.078v62.042c0.127 4.020 2.861 7.369 6.562 8.418l0.064 0.015 11.445 3.614c66.626 24.607 113.27 87.572 113.27 161.432 0 94.609-76.532 171.343-171.065 171.67h-173.509c-4.99 0-9.035 4.045-9.035 9.035v0c0 0.044 0 0.096 0 0.147 0 27.082-19.64 49.576-45.453 54.018l-0.326 0.046v-66.259c-0.038-3.876-2.511-7.165-5.961-8.413l-0.063-0.020c-50.63-19.838-88.737-61.907-102.731-113.865l-0.272-1.184c-1.064-3.765-4.413-6.499-8.419-6.626h-31.336v-71.078h31.322c0.097 0.004 0.211 0.006 0.326 0.006 4.135 0 7.621-2.777 8.694-6.568l0.015-0.064c15.547-59.699 61.485-105.836 119.895-121.408l1.178-0.267c3.854-1.089 6.632-4.575 6.632-8.71 0-0.114-0.002-0.228-0.006-0.342v0.016-65.656h71.078v60.235c0 4.99 4.045 9.035 9.035 9.035v0h89.148c4.99 0 9.035-4.045 9.035-9.035v0z" />
<glyph unicode="&#xe902;" glyph-name="Picto-Light_black2" d="M463.812 104.584h96.979v-18.071h-96.979v18.071zM674.033 831.624h-324.066c-41.584 0-75.294-33.71-75.294-75.294v0-680.659c0-41.584 33.71-75.294 75.294-75.294v0h324.668c41.584 0 75.294 33.71 75.294 75.294v0 680.659c0 0.001 0 0.002 0 0.002 0 41.584-33.71 75.294-75.294 75.294-0.212 0-0.423-0.001-0.635-0.003h0.032zM349.967 813.553h324.668c31.604 0 57.224-25.62 57.224-57.224v0-86.739h-439.115v86.739c0 31.604 25.62 57.224 57.224 57.224v0zM731.859 651.52v-469.233h-439.115v469.233zM674.033 18.447h-324.066c-31.604 0-57.224 25.62-57.224 57.224v0 88.546h439.115v-88.546c0-0.001 0-0.002 0-0.003 0-31.604-25.62-57.224-57.224-57.224-0.212 0-0.423 0.001-0.635 0.003h0.032zM567.416 344.32l22.889-8.433c-13.854-33.732-39.153-50.598-69.271-50.598-42.767 0-76.499 34.334-83.727 98.184h-23.492v13.854h22.287c0 3.614 0 7.228 0 10.24v7.228c0 5.421 0 10.24 0.602 15.059h-22.889v13.854h24.094c7.831 61.44 40.96 93.967 83.125 93.967 30.118 0 55.416-16.866 69.271-50.598l-22.889-8.433c-10.24 23.492-27.106 34.936-46.984 34.936s-50.598-22.889-56.621-69.873h98.786l-4.216-13.854h-96.376c0-4.819-0.602-10.24-0.602-15.661v-4.819c0-3.614 0-7.831 0-11.445h89.148l-4.216-14.456h-83.125c6.024-49.393 28.913-74.089 57.826-74.089s35.539 11.445 46.381 34.936z" />
<glyph unicode="&#xe903;" glyph-name="Picto-Light_black3" d="M898.711 393.713h-30.118v18.071h30.118c23.492 0 42.767 25.299 42.767 56.019v239.134c0 30.72-19.275 56.019-42.767 56.019h-773.421c-23.492 0-42.767-25.299-42.767-56.019v-239.134c0-30.72 19.275-56.019 42.767-56.019h30.118v-18.071h-30.118c-33.732 0-60.838 33.129-60.838 74.089v239.134c0 40.96 27.106 74.089 60.838 74.089h773.421c33.732 0 60.838-33.129 60.838-74.089v-239.134c0-40.96-27.106-74.089-60.838-74.089zM751.134 673.205h116.856v-18.071h-116.856v18.071zM867.991 561.167h-711.981v-18.071h63.849v-481.882c0-33.6 27.238-60.838 60.838-60.838v0h462.005c33.6 0 60.838 27.238 60.838 60.838v0 481.882h64.452zM237.929 61.214v481.882h418.635v-524.649h-375.868c-23.62 0-42.767 19.147-42.767 42.767v0zM786.071 61.214c0-23.62-19.147-42.767-42.767-42.767v0h-68.066v524.649h110.833zM363.821 241.318h18.071v-117.158h-18.071v117.158z" />
<glyph unicode="&#xe904;" glyph-name="Picto-Light_black4" d="M867.991 561.167h-711.981v-18.071h117.459v-533.685c0-4.99 4.045-9.035 9.035-9.035v0h459.595c4.99 0 9.035 4.045 9.035 9.035v0 533.685h117.459zM624.64 481.054c0.003-0.287 0.004-0.626 0.004-0.966 0-62.209-50.431-112.64-112.64-112.64s-112.64 50.431-112.64 112.64c0 23.51 7.203 45.338 19.522 63.397l-0.251-0.389h186.729c11.958-17.384 19.145-38.861 19.275-62.010v-0.033zM291.539 146.146h62.645c4.318-35.052 31.809-62.544 66.49-66.824l0.372-0.037v-60.838h-129.506zM604.762 18.447v60.838c35.052 4.318 62.544 31.809 66.824 66.49l0.037 0.372h60.838v-127.699zM732.461 164.216h-68.668c-4.99 0-9.035-4.045-9.035-9.035v0c0-32.269-26.159-58.428-58.428-58.428v0c-4.99 0-9.035-4.045-9.035-9.035v0-69.271h-148.179v69.271c0 4.99-4.045 9.035-9.035 9.035v0c-32.269 0-58.428 26.159-58.428 58.428v0c0 4.99-4.045 9.035-9.035 9.035v0h-71.078v378.88h106.014c-10.235-18.211-16.264-39.973-16.264-63.144 0-72.189 58.521-130.711 130.711-130.711s130.711 58.521 130.711 130.711c0 23.17-6.029 44.932-16.603 63.803l0.34-0.66h106.014zM898.711 393.713h-80.113v18.071h80.113c23.492 0 42.767 25.299 42.767 56.019v239.134c0 30.72-19.275 56.019-42.767 56.019h-773.421c-23.492 0-42.767-25.299-42.767-56.019v-239.134c0-30.72 19.275-56.019 42.767-56.019h98.184v-18.071h-98.184c-33.732 0-60.838 33.129-60.838 74.089v239.134c0 40.96 27.106 74.089 60.838 74.089h773.421c33.732 0 60.838-33.129 60.838-74.089v-239.134c0-40.96-27.106-74.089-60.838-74.089zM751.134 673.205h116.856v-18.071h-116.856v18.071z" />
<glyph unicode="&#xe905;" glyph-name="Picto-Light_black5" d="M265.035-65.882c-49.901 0-90.353 40.452-90.353 90.353s40.452 90.353 90.353 90.353c49.901 0 90.353-40.452 90.353-90.353v0c0-49.901-40.452-90.353-90.353-90.353v0zM265.035 96.753c-39.92 0-72.282-32.362-72.282-72.282s32.362-72.282 72.282-72.282c39.92 0 72.282 32.362 72.282 72.282v0c0 39.92-32.362 72.282-72.282 72.282v0zM753.544-65.882c-49.901 0-90.353 40.452-90.353 90.353s40.452 90.353 90.353 90.353c49.901 0 90.353-40.452 90.353-90.353v0c0-49.901-40.452-90.353-90.353-90.353v0zM753.544 96.753c-39.92 0-72.282-32.362-72.282-72.282s32.362-72.282 72.282-72.282c39.92 0 72.282 32.362 72.282 72.282v0c0 39.92-32.362 72.282-72.282 72.282v0zM905.336 237.704l-169.261 30.72-171.671 145.167c-1.578 1.467-3.692 2.377-6.017 2.409h-319.253c-2.332-0.032-4.445-0.942-6.029-2.415l0.006 0.005-190.946-184.922c-1.86-1.662-3.025-4.068-3.025-6.746 0-0.17 0.005-0.338 0.014-0.505l-0.001 0.023 10.24-212.631c0.325-4.724 4.237-8.433 9.015-8.433 0.007 0 0.014 0 0.021 0h62.644v18.071h-54.212l-9.638 199.981 186.127 179.501h312.019l170.466-144.565 4.216-1.807 171.671-31.322c37.15-6.553 65.016-38.567 65.054-77.097v-115.656h-70.475v-18.071h79.511c4.99 0 9.035 4.045 9.035 9.035v0 124.687c-0.161 47.134-34.133 86.286-78.92 94.48l-0.59 0.090zM512 212.405h116.856v-18.071h-116.856v18.071zM405.986 27.482h207.209v-18.071h-207.209v18.071z" />
<glyph unicode="&#xe906;" glyph-name="Picto-Light_black6" d="M309.609 106.993c-2.332 0.032-4.445 0.942-6.029 2.415l0.006-0.005-198.174 198.776 12.649 12.649 192.151-192.151 596.329 596.329 12.649-12.649-602.353-602.353c-1.662-1.86-4.068-3.025-6.746-3.025-0.17 0-0.338 0.005-0.505 0.014l0.023-0.001z" />
<glyph unicode="&#xe907;" glyph-name="Picto-Light_black7" d="M984.847 684.047h-64.452v74.089c0 4.99-4.045 9.035-9.035 9.035v0h-390.927c-6.447 47.049-46.289 82.934-94.55 83.125h-239.154c-4.99 0-9.035-4.045-9.035-9.035v0-74.089h-65.054c-4.99 0-9.035-4.045-9.035-9.035v0-74.089h-64.452c-4.99 0-9.035-4.045-9.035-9.035v0-592.113c0-4.99 4.045-9.035 9.035-9.035v0h398.758c4.86-36.977 36.176-65.225 74.089-65.225s69.23 28.249 74.049 64.847l0.041 0.379h398.758c4.99 0 9.035 4.045 9.035 9.035v0 592.113c0 4.99-4.045 9.035-9.035 9.035v0zM902.325 749.101v-583.078h-381.289v583.078zM195.765 832.226h230.099c42.445-0.338 76.763-34.656 77.101-77.069v-546.366c-15.361 19.16-38.765 31.322-65.009 31.322-0.016 0-0.031 0-0.047 0h-242.144zM121.675 749.101h56.019v-518.626c0-4.99 4.045-9.035 9.035-9.035v0h251.181c0.008 0 0.018 0 0.028 0 32.741 0 59.833-24.188 64.382-55.669l0.041-0.35h-380.687zM975.812 91.934h-398.155c-4.99 0-9.035-4.045-9.035-9.035v0c0-31.271-25.35-56.621-56.621-56.621s-56.621 25.35-56.621 56.621v0c0 4.99-4.045 9.035-9.035 9.035v0h-398.155v574.042h56.019v-508.988c0-4.99 4.045-9.035 9.035-9.035v0h798.118c4.99 0 9.035 4.045 9.035 9.035v0 508.988h55.416z" />
<glyph unicode="&#xe908;" glyph-name="Picto-Light_black8" d="M364.424 281.675h18.071v-93.365h-18.071v93.365zM641.506 281.675h18.071v-93.365h-18.071v93.365zM502.965 281.675h18.071v-93.365h-18.071v93.365zM364.424 462.381h18.071v-93.365h-18.071v93.365zM641.506 462.381h18.071v-93.365h-18.071v93.365zM502.965 462.381h18.071v-93.365h-18.071v93.365zM364.424 625.016h18.071v-93.365h-18.071v93.365zM641.506 625.016h18.071v-93.365h-18.071v93.365zM502.965 625.016h18.071v-93.365h-18.071v93.365zM364.424 805.722h18.071v-93.365h-18.071v93.365zM641.506 805.722h18.071v-93.365h-18.071v93.365zM502.965 805.722h18.071v-93.365h-18.071v93.365zM774.626-38.776v927.624c0 4.99-4.045 9.035-9.035 9.035v0h-507.181c-4.99 0-9.035-4.045-9.035-9.035v0-927.624h-201.186v-18.071h927.624v18.071zM383.096-35.765v127.699h56.621v-127.699zM457.788-38.776v139.746c0 4.99-4.045 9.035-9.035 9.035v0h-74.692c-4.99 0-9.035-4.045-9.035-9.035v0-139.746h-97.581v918.588h489.111v-918.588z" />
<glyph unicode="&#xe909;" glyph-name="Picto-Light_black9" d="M389.12 481.656h529.468v-18.071h-529.468v18.071zM389.12 368.414h325.873v-18.071h-325.873v18.071zM389.12 775.002h529.468v-18.071h-529.468v18.071zM389.12 662.362h325.873v-18.071h-325.873v18.071zM389.12 187.708h529.468v-18.071h-529.468v18.071zM389.12 75.068h325.873v-18.071h-325.873v18.071zM192.151 614.174c-53.227 0-96.376 43.149-96.376 96.376s43.149 96.376 96.376 96.376c53.227 0 96.376-43.149 96.376-96.376v0c0-53.227-43.149-96.376-96.376-96.376v0zM192.151 788.856c-43.247 0-78.306-35.059-78.306-78.306s35.059-78.306 78.306-78.306c43.247 0 78.306 35.059 78.306 78.306v0c0 43.247-35.059 78.306-78.306 78.306v0zM192.151 25.073c-53.227 0-96.376 43.149-96.376 96.376s43.149 96.376 96.376 96.376c53.227 0 96.376-43.149 96.376-96.376v0c0-53.227-43.149-96.376-96.376-96.376v0zM192.151 199.755c-43.247 0-78.306-35.059-78.306-78.306s35.059-78.306 78.306-78.306c43.247 0 78.306 35.059 78.306 78.306v0c0 43.247-35.059 78.306-78.306 78.306v0zM192.151 320.828c-53.227 0-96.376 43.149-96.376 96.376s43.149 96.376 96.376 96.376c53.227 0 96.376-43.149 96.376-96.376v0c0-53.227-43.149-96.376-96.376-96.376v0zM192.151 495.511c-43.247 0-78.306-35.059-78.306-78.306s35.059-78.306 78.306-78.306c43.247 0 78.306 35.059 78.306 78.306v0c0 43.247-35.059 78.306-78.306 78.306v0z" />
<glyph unicode="&#xe90a;" glyph-name="Picto-Light_black10" d="M389.12 716.574h-18.071c0.342 55.629 45.517 100.593 101.194 100.593 0.001 0 0.001 0 0.002 0v0c0.003 0 0.006 0 0.009 0 45.485 0 82.437 36.533 83.115 81.856l0.001 0.064h18.071c-0.68-55.368-45.723-99.991-101.188-99.991-0.003 0-0.005 0-0.008 0v0c-0.001 0-0.001 0-0.002 0-45.697 0-82.781-36.874-83.122-82.49v-0.032zM543.322 637.064h-18.071c0.342 55.629 45.517 100.593 101.194 100.593 0.001 0 0.001 0 0.002 0v0c0.001 0 0.001 0 0.002 0 45.697 0 82.781 36.874 83.122 82.49v0.032h18.071c-0.342-55.629-45.517-100.593-101.194-100.593-0.001 0-0.001 0-0.002 0v0c-0.001 0-0.001 0-0.002 0-45.697 0-82.781-36.874-83.122-82.49v-0.032zM899.313 505.751h-125.289v39.755c0 4.99-4.045 9.035-9.035 9.035v0h-505.976c-4.99 0-9.035-4.045-9.035-9.035v0-245.76c1.698-143.745 118.621-259.619 262.609-259.619 127.36 0 233.546 90.658 257.546 210.962l0.279 1.674h42.767c0.001 0 0.001 0 0.002 0 52.35 0 94.828 42.267 95.17 94.537v149.416c0 4.99-4.045 9.035-9.035 9.035v0zM755.953 299.746c0-134.898-109.356-244.254-244.254-244.254s-244.254 109.356-244.254 244.254v0 236.725h488.508zM890.278 347.332c-0.341-42.322-34.729-76.499-77.099-76.499-0.001 0-0.002 0-0.002 0h-40.96c1.083 8.611 1.737 18.646 1.807 28.82v188.027h116.254zM877.026-56.847h-730.052c-59.548 0-107.821 48.273-107.821 107.821v0h18.071c0-49.568 40.183-89.751 89.751-89.751v0h730.052c49.568 0 89.751 40.183 89.751 89.751v0h18.071c0-59.548-48.273-107.821-107.821-107.821v0z" />
<glyph unicode="&#xe90b;" glyph-name="Picto-Light_black11" d="M605.365 524.424c-1.521 2.842-4.445 4.756-7.822 4.819h-122.286v-18.071h116.856l59.031-109.026h-296.358l-49.393 81.92h59.031v18.071h-125.892v-18.071h45.779l54.814-91.558-69.271-135.529c-19.455 9.059-42.226 14.377-66.231 14.456h-0.028c-90.477-0.013-163.818-73.361-163.818-163.84 0-90.486 73.354-163.84 163.84-163.84s163.84 73.354 163.84 163.84c0 60.088-32.347 112.622-80.578 141.136l-0.762 0.417 63.849 125.289 154.202-255.398c1.59-2.725 4.5-4.528 7.831-4.528s6.241 1.802 7.807 4.485l0.023 0.043 149.384 248.772 65.656-121.073c-46.479-29.307-76.904-80.37-76.904-138.539 0-90.154 73.084-163.238 163.238-163.238s163.238 73.084 163.238 163.238c0 90.154-73.084 163.238-163.238 163.238-0.281 0-0.562-0.001-0.842-0.002h0.043c-0.111 0-0.243 0-0.374 0-25.255 0-49.16-5.778-70.466-16.083l0.967 0.422zM348.16 107.595c-0.342-79.914-65.204-144.565-145.166-144.565-80.174 0-145.167 64.994-145.167 145.167s64.993 145.166 145.166 145.167v0c0.23 0.001 0.502 0.002 0.774 0.002 20.856 0 40.677-4.435 58.569-12.414l-0.915 0.364-66.259-129.506 16.264-8.433 66.259 129.506c42.523-25.972 70.476-72.131 70.476-124.818 0-0.166 0-0.331-0.001-0.497v0.026zM512 141.327l-146.372 242.748h292.744zM821.007-38.776c-0.18-0.001-0.393-0.001-0.607-0.001-80.506 0-145.769 65.263-145.769 145.769 0 52.193 27.43 97.979 68.661 123.729l0.614 0.357 68.668-128.301 15.661 8.433-69.271 128.301c17.984 8.718 39.112 13.825 61.43 13.854h0.010c80.673 0 146.071-65.398 146.071-146.071s-65.398-146.071-146.071-146.071v0z" />
<glyph unicode="&#xe90c;" glyph-name="Picto-Light_black12" d="M920.395 813.553h-819.2c-34.93 0-63.247-28.317-63.247-63.247v0-502.362c0-34.93 28.317-63.247 63.247-63.247v0h273.468v-62.042c0-47.239-38.295-85.534-85.534-85.534v0c-4.99 0-9.035-4.045-9.035-9.035s4.045-9.035 9.035-9.035v0h443.332c4.99 0 9.035 4.045 9.035 9.035s-4.045 9.035-9.035 9.035v0c-47.239 0-85.534 38.295-85.534 85.534v0 62.042h272.866c34.93 0 63.247 28.317 63.247 63.247v0 502.362c0 0.001 0 0.002 0 0.003 0 34.719-27.974 62.903-62.612 63.244h-0.032zM101.195 795.482h819.2c24.95 0 45.176-20.226 45.176-45.176v0-37.346h-909.553v37.346c0 24.95 20.226 45.176 45.176 45.176v0zM965.572 694.889v-396.951h-909.553v396.951zM674.635 37.12h-326.475c27.422 18.911 45.168 50.149 45.176 85.533v62.043h236.725v-62.042c0-0.116-0.001-0.253-0.001-0.391 0-35.137 17.491-66.188 44.241-84.922l0.333-0.221zM920.395 202.165h-819.2c-24.95 0-45.176 20.226-45.176 45.176v0 31.322h909.553v-31.322c-0.34-24.69-20.434-44.574-45.172-44.574-0.001 0-0.003 0-0.004 0v0z" />
<glyph unicode="&#xe90d;" glyph-name="Picto-Light_black13" d="M385.506 196.744l-122.278-122.278v250.579h-18.071v-250.579l-121.675 122.278-13.252-12.649 143.962-143.962 6.626 6.024 137.336 137.939-12.649 12.649zM877.026 409.374h-730.052c-59.548 0-107.821 48.273-107.821 107.821v0h18.071c0-49.568 40.183-89.751 89.751-89.751v0h730.052c49.568 0 89.751 40.183 89.751 89.751h18.071c0-59.548-48.273-107.821-107.821-107.821v0zM799.322 508.16h-179.501c-0.024 0-0.052 0-0.081 0-4.565 0-8.34 3.386-8.949 7.784l-0.005 0.047-34.334 298.165c-0.051 0.362-0.081 0.78-0.081 1.205 0 4.99 4.045 9.035 9.035 9.035 0.028 0 0.057 0 0.085 0h248.165c0.024 0 0.052 0 0.081 0 4.99 0 9.035-4.045 9.035-9.035 0-0.425-0.029-0.843-0.086-1.252l0.005 0.047-34.334-297.562c-0.325-4.724-4.237-8.433-9.015-8.433-0.007 0-0.014 0-0.021 0h0.001zM628.254 526.231h163.238l32.527 279.492h-228.292zM549.948 508.16h-315.633c-0.14-0.008-0.305-0.012-0.47-0.012-2.381 0-4.547 0.921-6.161 2.427l0.005-0.005-103.605 104.809c-1.79 1.656-2.907 4.017-2.907 6.64 0 4.99 4.045 9.035 9.035 9.035 0.175 0 0.349-0.005 0.522-0.015l-0.024 0.001h398.758v-18.071h-377.675l86.739-86.739h311.416zM25.901-38.776h972.198v-18.071h-972.198v18.071z" />
<glyph unicode="&#xe90e;" glyph-name="Picto-Light_black14" d="M348.16 531.652h439.115v-18.071h-439.115v18.071zM348.16 430.456h439.115v-18.071h-439.115v18.071zM348.16 328.659h439.115v-18.071h-439.115v18.071zM348.16 226.861h219.256v-18.071h-219.256v18.071zM878.833 737.656l-148.781 148.781c-1.609 1.5-3.775 2.422-6.156 2.422-0.165 0-0.33-0.004-0.493-0.013l0.023 0.001h-460.8c-4.99 0-9.035-4.045-9.035-9.035v0-816.791c0-4.99 4.045-9.035 9.035-9.035v0h610.184c4.99 0 9.035 4.045 9.035 9.035v0 668.009c-0.033 2.632-1.186 4.988-3.003 6.618l-0.008 0.007zM733.064 858.127l118.061-118.061h-118.061zM271.661 72.056v798.72h443.332v-139.746c0-4.99 4.045-9.035 9.035-9.035v0h139.746v-649.939zM761.374-56.847h-610.184c-4.99 0-9.035 4.045-9.035 9.035v0 816.791c0 4.99 4.045 9.035 9.035 9.035v0h55.416v-18.071h-46.381v-798.72h591.511v46.381h18.071v-55.416c0-0.006 0-0.013 0-0.020 0-4.778-3.709-8.69-8.405-9.014l-0.028-0.002z" />
<glyph unicode="&#xe90f;" glyph-name="Picto-Light_black15" d="M722.824 888.847c-144.574-0.342-261.682-117.45-262.023-261.991v-57.256c-114.335-4.971-205.174-98.758-205.402-213.813v-0.022c0-4.99 4.045-9.035 9.035-9.035v0h410.202c4.99 0 9.035 4.045 9.035 9.035v0c-0.213 114.877-90.724 208.544-204.326 213.818l-0.474 0.018v57.224c0 134.731 109.221 243.953 243.953 243.953s243.953-109.221 243.953-243.953v0-695.718h18.071v695.718c-0.342 144.574-117.45 261.682-261.991 262.023h-0.032zM665.6 364.8h-391.529c8.219 101.633 92.723 180.998 195.765 180.998s187.546-79.365 195.719-180.301l0.045-0.697zM295.755 235.294h18.071v-99.388h-18.071v99.388zM625.242 235.294h18.071v-99.388h-18.071v99.388zM460.8 235.294h18.071v-99.388h-18.071v99.388zM378.278 30.494h18.071v-99.388h-18.071v99.388zM707.765 30.494h18.071v-99.388h-18.071v99.388zM543.322 30.494h18.071v-99.388h-18.071v99.388zM213.233 30.494h18.071v-99.388h-18.071v99.388z" />
<glyph unicode="&#xe910;" glyph-name="Picto-Light_black16" d="M130.711 610.56h446.344v-18.071h-446.344v18.071zM213.835 693.685h452.969v-18.071h-452.969v18.071zM975.812 693.685h-173.478l183.718 183.718-12.649 12.649-279.492-279.492h-1.205v-1.205l-194.56-193.958c-18.639 16.068-43.090 25.854-69.826 25.854-59.215 0-107.219-48.004-107.219-107.219 0-26.736 9.786-51.186 25.971-69.965l-0.117 0.139-107.219-107.821h-65.054v54.212c0 4.99-4.045 9.035-9.035 9.035v0c-25.023 0.34-45.176 20.704-45.176 45.775 0 0.001 0 0.003 0 0.004v0c0 4.99-4.045 9.035-9.035 9.035v0h-54.212v116.254h54.212c4.99 0 9.035 4.045 9.035 9.035v0c0 25.283 20.496 45.779 45.779 45.779v0c4.531 0.302 8.131 3.902 8.431 8.406l0.001 0.027v56.019h337.318v18.071h-463.812c-4.99 0-9.035-4.045-9.035-9.035v0-371.652c0-4.99 4.045-9.035 9.035-9.035v0h173.478l-183.718-183.718 12.649-12.649 568.019 568.019h65.054v-55.416c0-4.99 4.045-9.035 9.035-9.035v0c25.283 0 45.779-20.496 45.779-45.779v0c0-4.99 4.045-9.035 9.035-9.035v0h54.212v-116.254h-54.212c-4.99 0-9.035-4.045-9.035-9.035v0c0-25.283-20.496-45.779-45.779-45.779v0c-4.99 0-9.035-4.045-9.035-9.035v0-54.212h-338.522v-18.071h465.619c4.99 0 9.035 4.045 9.035 9.035v0 371.652c0 4.99-4.045 9.035-9.035 9.035v0h-174.080l64.452 64.452h182.513v-362.616h18.071v371.652c0 4.99-4.045 9.035-9.035 9.035v0h-173.478l64.452 64.452h182.513v-362.616h18.071v372.254c0 0.006 0 0.013 0 0.020 0 4.778-3.709 8.69-8.405 9.014l-0.028 0.002zM156.612 509.967v-47.586c-28.128-4.117-50.095-26.084-54.17-53.865l-0.042-0.347h-45.176v101.798zM57.224 256.376h45.779c4.117-28.128 26.084-50.095 53.865-54.17l0.347-0.042v-45.779h-99.991zM701.741 156.386v45.779c28.128 4.117 50.095 26.084 54.17 53.865l0.042 0.347h45.176v-99.991zM801.129 408.772h-45.779c-4.117 28.128-26.084 50.095-53.865 54.17l-0.347 0.042v46.984h99.991zM340.329 333.478c0.385 48.942 40.149 88.469 89.146 88.469 21.298 0 40.853-7.469 56.186-19.931l-0.164 0.129-125.289-125.289c-12.378 15.111-19.881 34.632-19.881 55.906 0 0.252 0.001 0.503 0.003 0.754v-0.038zM518.626 333.478c0-49.235-39.913-89.148-89.148-89.148v0-18.071c59.215 0 107.219 48.004 107.219 107.219v0z" />
<glyph unicode="&#xe911;" glyph-name="Picto-Light_black17" d="M851.125-65.882h-18.071v162.033c0 106.014-80.715 195.765-184.32 206.005l-131.915-87.341c-1.431-0.996-3.206-1.591-5.12-1.591s-3.689 0.595-5.15 1.61l0.030-0.020-131.313 87.341c-103.605-10.24-184.32-100.593-184.32-206.005v-162.033h-18.071v162.033c-0.009 0.746-0.014 1.627-0.014 2.509 0 114.605 86.503 209.006 197.779 221.474l1.012 0.092c1.366 0.873 3.032 1.392 4.819 1.392s3.453-0.519 4.855-1.414l-0.036 0.022 130.711-87.341 128.301 85.534h1.807c1.366 0.873 3.032 1.392 4.819 1.392s3.453-0.519 4.855-1.414l-0.036 0.022c112.038-12.047 198.776-109.628 198.776-224.075zM512 350.946c-90.486 0-163.84 73.354-163.84 163.84v0 219.256c0 4.99 4.045 9.035 9.035 9.035v0h9.638c82.522 0 148.179-61.44 151.191-63.849s63.247-59.031 138.541-59.031h9.638c4.99 0 9.035-4.045 9.035-9.035v0-96.376c0 0 0-0.001 0-0.001 0-90.274-73.011-163.496-163.205-163.839h-0.033zM366.231 725.007v-210.824c0-80.506 65.263-145.769 145.769-145.769s145.769 65.263 145.769 145.769v0 87.944h-1.205c-82.522 0-148.179 61.44-151.191 63.849s-63.247 59.031-138.541 59.031zM312.621 367.209c-40.358 10.24-87.944 28.311-87.944 58.428v202.993c0 136.734 109.628 249.374 243.953 251.181h83.727c134.927-1.807 244.555-114.447 244.555-251.181v-202.993c0-29.515-45.779-47.586-84.329-57.224l-4.819 17.468c52.405 13.854 71.078 30.118 71.078 39.755v202.993c0 127.096-101.798 231.304-226.485 233.111h-83.125c-124.687-1.807-226.485-106.014-226.485-233.111v-202.993c0-10.24 19.275-27.106 74.089-40.96z" />
<glyph unicode="&#xe912;" glyph-name="Picto-Light_black18" d="M912.565 667.181h-801.129c-4.99 0-9.035-4.045-9.035-9.035v0-484.292c0-4.99 4.045-9.035 9.035-9.035v0h801.129c4.99 0 9.035 4.045 9.035 9.035v0 484.292c0 4.99-4.045 9.035-9.035 9.035v0zM887.868 649.111l-375.868-318.042-375.868 318.042zM120.471 182.889v455.981l385.506-326.475c1.545-1.272 3.544-2.043 5.722-2.043s4.177 0.771 5.738 2.056l-0.016-0.012 386.108 326.475v-455.981z" />
<glyph unicode="&#xe913;" glyph-name="Picto-Light_black19" d="M462.607 770.184h96.979v-18.071h-96.979v18.071zM369.242 269.628h66.861v-18.071h-66.861v18.071zM588.499 269.628h66.861v-18.071h-66.861v18.071zM478.268 269.628h66.861v-18.071h-66.861v18.071zM369.242 185.299h66.861v-18.071h-66.861v18.071zM588.499 185.299h66.861v-18.071h-66.861v18.071zM478.268 185.299h66.861v-18.071h-66.861v18.071zM369.242 100.969h66.861v-18.071h-66.861v18.071zM588.499 100.969h66.861v-18.071h-66.861v18.071zM478.268 100.969h66.861v-18.071h-66.861v18.071zM673.431 0.376h-324.668c-41.584 0-75.294 33.71-75.294 75.294v0 680.659c0 41.584 33.71 75.294 75.294 75.294v0h324.668c41.584 0 75.294-33.71 75.294-75.294v0-680.659c0-41.584-33.71-75.294-75.294-75.294v0zM348.762 813.553c-31.604 0-57.224-25.62-57.224-57.224v0-680.659c0-31.604 25.62-57.224 57.224-57.224v0h324.668c31.604 0 57.224 25.62 57.224 57.224v0 680.659c0 31.604-25.62 57.224-57.224 57.224v0zM654.758 335.887h-285.515c-4.99 0-9.035 4.045-9.035 9.035v0 348.16c0 4.99 4.045 9.035 9.035 9.035v0h286.118c4.99 0 9.035-4.045 9.035-9.035v0-348.16c0-0.006 0-0.013 0-0.020 0-4.99-4.045-9.035-9.035-9.035-0.212 0-0.422 0.007-0.63 0.022l0.028-0.002zM377.675 353.958h268.047v330.089h-267.445zM454.776 543.096c-2.33-0.868-5.022-1.371-7.831-1.371-12.733 0-23.055 10.322-23.055 23.055 0 9.924 6.27 18.383 15.065 21.633l0.16 0.052 127.096 46.381c2.33 0.868 5.022 1.371 7.831 1.371 12.733 0 23.055-10.322 23.055-23.055 0-9.924-6.27-18.383-15.065-21.633l-0.16-0.052zM454.776 473.826c-2.33-0.868-5.022-1.371-7.831-1.371-12.733 0-23.055 10.322-23.055 23.055 0 9.924 6.27 18.383 15.065 21.633l0.16 0.052 127.096 46.984c2.33 0.868 5.022 1.371 7.831 1.371 12.733 0 23.055-10.322 23.055-23.055 0-9.924-6.27-18.383-15.065-21.633l-0.16-0.052zM454.776 404.555c-2.33-0.868-5.022-1.371-7.831-1.371-12.733 0-23.055 10.322-23.055 23.055 0 9.924 6.27 18.383 15.065 21.633l0.16 0.052 127.096 46.984c2.33 0.868 5.022 1.371 7.831 1.371 12.733 0 23.055-10.322 23.055-23.055 0-9.924-6.27-18.383-15.065-21.633l-0.16-0.052z" />
<glyph unicode="&#xe914;" glyph-name="Picto-Light_black20" d="M900.518 898.485h18.071v-964.247h-18.071v964.247zM306.598 373.835c-62.042 0-123.482 11.445-171.068 33.732-3.219 1.43-5.422 4.598-5.422 8.282 0 0.053 0 0.106 0.001 0.159v-0.008 414.419c-0.001 0.045-0.001 0.099-0.001 0.153 0 4.99 4.045 9.035 9.035 9.035 1.308 0 2.551-0.278 3.673-0.778l-0.057 0.023c90.955-43.369 237.327-43.369 327.078-0.602s247.567 45.176 341.534 0c3.219-1.43 5.422-4.598 5.422-8.282 0-0.053 0-0.106-0.001-0.159v0.008-413.816c0.001-0.045 0.001-0.099 0.001-0.153 0-4.99-4.045-9.035-9.035-9.035-1.308 0-2.551 0.278-3.673 0.778l0.057-0.023c-89.751 43.369-236.122 43.369-325.873 0-47.586-22.287-109.628-33.732-171.671-33.732zM148.781 422.024c90.353-40.96 232.508-39.755 321.054 2.409s233.713 45.176 328.885 6.024v393.939c-90.353 40.96-232.508 39.755-321.054-2.409s-233.713-45.176-328.885-6.024z" />
<glyph unicode="&#xe915;" glyph-name="Picto-Light_black21" d="M289.732 280.471c-53.227 0-96.376 43.149-96.376 96.376s43.149 96.376 96.376 96.376c53.227 0 96.376-43.149 96.376-96.376v0c0-53.227-43.149-96.376-96.376-96.376v0zM289.732 455.153c-43.247 0-78.306-35.059-78.306-78.306s35.059-78.306 78.306-78.306c43.247 0 78.306 35.059 78.306 78.306v0c0 43.247-35.059 78.306-78.306 78.306v0zM335.511 208.188c53.227 0 96.376-43.149 96.376-96.376v0-177.694h-18.071v177.694c0 43.247-35.059 78.306-78.306 78.306v0h-90.353c-43.247 0-78.306-35.059-78.306-78.306v0-177.694h-18.071v177.694c0 53.227 43.149 96.376 96.376 96.376v0zM734.268 280.471c-53.227 0-96.376 43.149-96.376 96.376s43.149 96.376 96.376 96.376c53.227 0 96.376-43.149 96.376-96.376v0c0-53.227-43.149-96.376-96.376-96.376v0zM734.268 455.153c-43.247 0-78.306-35.059-78.306-78.306s35.059-78.306 78.306-78.306c43.247 0 78.306 35.059 78.306 78.306v0c0 43.247-35.059 78.306-78.306 78.306v0zM779.445 208.188c53.227 0 96.376-43.149 96.376-96.376v0-177.694h-18.071v177.694c0 43.247-35.059 78.306-78.306 78.306v0h-90.353c-43.247 0-78.306-35.059-78.306-78.306v0-177.694h-18.071v177.694c0 53.227 43.149 96.376 96.376 96.376v0zM512 696.094c-53.227 0-96.376 43.149-96.376 96.376s43.149 96.376 96.376 96.376c53.227 0 96.376-43.149 96.376-96.376v0c0-53.227-43.149-96.376-96.376-96.376v0zM512 870.776c-43.247 0-78.306-35.059-78.306-78.306s35.059-78.306 78.306-78.306c43.247 0 78.306 35.059 78.306 78.306v0c0 43.247-35.059 78.306-78.306 78.306v0zM557.176 623.812h-90.353c-53.227 0-96.376-43.149-96.376-96.376v0-22.287h18.071v22.287c0 43.247 35.059 78.306 78.306 78.306v0h90.353c43.247 0 78.306-35.059 78.306-78.306v0-22.287h18.071v22.287c0 53.227-43.149 96.376-96.376 96.376v0z" />
<glyph unicode="&#xe916;" glyph-name="Picto-Light_black22" d="M784.866 687.059c-53.227 0-96.376 43.149-96.376 96.376s43.149 96.376 96.376 96.376c53.227 0 96.376-43.149 96.376-96.376v0c0-53.227-43.149-96.376-96.376-96.376v0zM784.866 861.741c-43.247 0-78.306-35.059-78.306-78.306s35.059-78.306 78.306-78.306c43.247 0 78.306 35.059 78.306 78.306v0c0 43.247-35.059 78.306-78.306 78.306v0zM242.748 538.278c-53.227 0-96.376 43.149-96.376 96.376s43.149 96.376 96.376 96.376c53.227 0 96.376-43.149 96.376-96.376v0c0-53.227-43.149-96.376-96.376-96.376v0zM242.748 712.96c-43.247 0-78.306-35.059-78.306-78.306s35.059-78.306 78.306-78.306c43.247 0 78.306 35.059 78.306 78.306v0c0 43.247-35.059 78.306-78.306 78.306v0zM993.882 352.151h-67.464v166.249c0 53.227-43.149 96.376-96.376 96.376v0h-90.353c-53.227 0-96.376-43.149-96.376-96.376v0-166.249h-259.012v17.468c0 53.227-43.149 96.376-96.376 96.376v0h-90.353c-53.227 0-96.376-43.149-96.376-96.376v0-17.468h-71.078v-18.071h71.078v-399.962h18.071v435.501c0 43.247 35.059 78.306 78.306 78.306v0h90.353c43.247 0 78.306-35.059 78.306-78.306v0-435.501h18.071v399.962h609.581zM661.384 518.4c0 43.247 35.059 78.306 78.306 78.306v0h90.353c43.247 0 78.306-35.059 78.306-78.306v0-166.249h-246.965z" />
<glyph unicode="&#xe917;" glyph-name="Picto-Light_black23" d="M445.741 616.584c-0.14-0.008-0.305-0.012-0.47-0.012-2.381 0-4.547 0.921-6.161 2.427l-115.044 115.044c-18.324 16.644-29.782 40.565-29.782 67.162 0 50.048 40.572 90.62 90.62 90.62 23.451 0 44.821-8.908 60.912-23.525l-0.075 0.067c15.501 12.876 35.607 20.689 57.538 20.689 25.074 0 47.762-10.214 64.132-26.707l0.006-0.006c16.507-16.376 26.726-39.070 26.726-64.151s-10.219-47.774-26.72-64.145l-115.055-115.055c-1.609-1.5-3.775-2.422-6.156-2.422-0.165 0-0.33 0.004-0.493 0.013l0.023-0.001zM387.915 870.776c-0.053 0-0.115 0-0.178 0-39.92 0-72.282-32.362-72.282-72.282 0-20.004 8.126-38.111 21.258-51.198l109.028-109.028 109.026 109.026c13.134 13.089 21.26 31.196 21.26 51.2s-8.126 38.111-21.258 51.198l-0.002 0.002c-13.089 13.134-31.196 21.26-51.2 21.26s-38.111-8.126-51.198-21.258l-0.002-0.002c-1.628-1.597-3.861-2.583-6.325-2.583s-4.696 0.986-6.326 2.584l0.001-0.001c-13.072 13.030-31.109 21.087-51.027 21.087-0.273 0-0.545-0.002-0.817-0.005h0.041zM917.384 205.176c-0.274 53.019-43.318 95.893-96.375 95.893-53.227 0-96.376-43.149-96.376-96.376 0-49.833 37.821-90.832 86.324-95.859l0.414-0.035c-8.825-83.154-78.501-147.397-163.219-147.576h-28.931c-90.819 0-164.442 73.623-164.442 164.442v0 220.461c172.958 5.357 311.161 146.723 311.416 320.427v123.507c0 4.99-4.045 9.035-9.035 9.035v0h-76.499v-18.071h68.066v-114.447c0-167.167-135.516-302.682-302.682-302.682s-302.682 135.516-302.682 302.682v0 114.447h68.066v18.071h-77.101c-4.99 0-9.035-4.045-9.035-9.035v0-123.482c0.256-173.729 138.458-315.095 310.925-320.44l0.492-0.012v-220.461c0-100.799 81.714-182.513 182.513-182.513h28.913c94.682 0.227 172.409 72.514 181.251 164.909l0.057 0.738c49.474 4.475 87.944 45.748 87.944 96.007 0 0.13 0 0.26-0.001 0.39v-0.020zM821.007 126.871c-43.247 0-78.306 35.059-78.306 78.306s35.059 78.306 78.306 78.306c43.247 0 78.306-35.059 78.306-78.306v0c0-43.247-35.059-78.306-78.306-78.306v0z" />
<glyph unicode="&#xe918;" glyph-name="Picto-Light_black24" d="M933.045 238.908h-367.435l-3.012 9.035c-9.329 21.852-26.651 38.782-48.201 47.378l-0.589 0.207-228.292 89.751h-237.327c-4.99 0-9.035-4.045-9.035-9.035v0-424.056c0-4.99 4.045-9.035 9.035-9.035v0h125.892c4.99 0 9.035 4.045 9.035 9.035v0 72.282l246.362-51.802c9.407-1.897 20.222-2.982 31.289-2.982 20.555 0 40.236 3.744 58.398 10.587l-1.141-0.377 433.092 159.021c19.379 7.786 32.813 26.423 32.813 48.196 0 28.287-22.672 51.278-50.835 51.794l-0.048 0.001zM165.045-38.776h-107.821v406.588h107.821zM944.489 155.784l-433.092-159.021c-15.202-5.792-32.783-9.147-51.147-9.147-9.604 0-18.993 0.917-28.086 2.669l0.927-0.149-249.976 52.405v325.271h97.581l226.485-88.546c23.211-11.685 38.856-35.321 38.856-62.612 0-38.59-31.283-69.873-69.873-69.873-7.199 0-14.144 1.089-20.679 3.11l0.495-0.132-154.805 60.235-6.626-16.866 154.805-60.838c9.519-3.813 20.553-6.025 32.103-6.025 0.149 0 0.298 0 0.447 0.001h-0.023c48.418 0.2 87.591 39.497 87.591 87.943 0 2.332-0.091 4.643-0.269 6.929l0.019-0.303h364.424c18.179-0.576 32.697-15.45 32.697-33.716 0-14.135-8.694-26.239-21.026-31.257l-0.226-0.081zM512 609.958c76.846 0.001 139.142 62.297 139.142 139.144s-62.297 139.144-139.144 139.144c-76.635 0-138.8-61.954-139.142-138.508v-0.033c0 0 0-0.001 0-0.001 0-76.968 62.224-139.402 139.111-139.744h0.033zM512 870.776c66.867 0 121.073-54.206 121.073-121.073s-54.206-121.073-121.073-121.073c-66.867 0-121.073 54.206-121.073 121.073v0c0.34 66.729 54.343 120.733 121.040 121.073h0.033zM788.48 323.238c76.847 0 139.144 62.297 139.144 139.144s-62.297 139.144-139.144 139.144c-76.847 0-139.144-62.297-139.144-139.144v0c0.34-76.709 62.434-138.803 139.111-139.143h0.033zM788.48 584.056c66.867 0 121.073-54.206 121.073-121.073s-54.206-121.073-121.073-121.073c-66.867 0-121.073 54.206-121.073 121.073v0c0.34 66.729 54.343 120.733 121.040 121.073h0.033z" />
<glyph unicode="&#xe919;" glyph-name="Picto-Light_black25" d="M589.101-47.812v105.412h237.327c4.921 0.090 8.876 4.1 8.876 9.034 0 1.543-0.387 2.996-1.069 4.266l0.024-0.048-128.904 222.871h59.633c4.921 0.090 8.876 4.1 8.876 9.034 0 1.543-0.387 2.996-1.069 4.266l0.024-0.048-115.049 200.584h64.452c4.921 0.090 8.876 4.1 8.876 9.034 0 1.543-0.387 2.996-1.069 4.266l0.024-0.048-210.221 372.856c-1.59 2.725-4.5 4.528-7.831 4.528s-6.241-1.802-7.807-4.485l-0.023-0.043-210.221-372.254c-0.874-1.366-1.394-3.033-1.394-4.821 0-4.99 4.045-9.035 9.035-9.035 0.066 0 0.133 0.001 0.199 0.002h64.442l-115.652-199.981c-0.874-1.366-1.394-3.033-1.394-4.821 0-4.99 4.045-9.035 9.035-9.035 0.066 0 0.133 0.001 0.199 0.002h59.623l-128.904-222.871c-0.874-1.366-1.394-3.033-1.394-4.821 0-4.99 4.045-9.035 9.035-9.035 0.066 0 0.133 0.001 0.199 0.002h237.919v-104.809h-292.744v-18.071h739.689v18.071zM341.534 298.541c0.658 1.222 1.045 2.675 1.045 4.218 0 4.934-3.955 8.944-8.867 9.034h-59.641l115.652 200.584c0.658 1.222 1.045 2.675 1.045 4.218 0 4.934-3.955 8.944-8.867 9.034h-64.46l194.56 345.148 194.56-345.148h-64.452c-0.056 0.001-0.122 0.002-0.189 0.002-4.99 0-9.035-4.045-9.035-9.035 0-1.788 0.519-3.454 1.415-4.857l-0.022 0.036 115.652-199.981h-59.633c-0.056 0.001-0.122 0.002-0.189 0.002-4.99 0-9.035-4.045-9.035-9.035 0-1.788 0.519-3.454 1.415-4.857l-0.022 0.036 128.904-222.871h-598.136zM452.969 57.6h118.061v-105.412h-118.061z" />
<glyph unicode="&#xe91a;" glyph-name="Picto-Light_black26" d="M975.812-56.847h-154.202c-4.99 0-9.035 4.045-9.035 9.035v0 78.306h-205.402v-78.306c0-4.99-4.045-9.035-9.035-9.035v0h-172.273c-4.99 0-9.035 4.045-9.035 9.035v0 78.306h-205.402v-78.306c0-4.99-4.045-9.035-9.035-9.035v0h-154.202c-4.99 0-9.035 4.045-9.035 9.035v0 184.32c0 4.99 4.045 9.035 9.035 9.035v0h927.624c4.99 0 9.035-4.045 9.035-9.035v0-184.32c0-4.99-4.045-9.035-9.035-9.035v0zM830.645-38.776h136.132v166.249h-909.553v-166.249h136.132v78.306c0 4.99 4.045 9.035 9.035 9.035v0h223.473c4.99 0 9.035-4.045 9.035-9.035v0-78.306h154.202v78.306c0 4.99 4.045 9.035 9.035 9.035v0h223.473c4.99 0 9.035-4.045 9.035-9.035v0zM521.035 444.913l45.779-45.779 12.649 12.649-67.464 67.464-68.066-67.464 12.649-12.649 46.381 45.779v-130.108h-151.191v130.108l46.381-45.779 12.649 12.649-68.066 67.464-67.464-67.464 12.649-12.649 45.779 45.779v-130.108h-52.405v-18.071h292.141v18.071h-52.405v130.108zM821.609 831.624h-619.219c-4.99 0-9.035-4.045-9.035-9.035v0-610.184c0-4.99 4.045-9.035 9.035-9.035v0h619.219c4.99 0 9.035 4.045 9.035 9.035v0 610.184c0 4.99-4.045 9.035-9.035 9.035v0zM430.682 813.553h162.635v-106.616l-36.141-36.141-38.551 38.551c-1.628 1.597-3.861 2.583-6.325 2.583s-4.696-0.986-6.326-2.584l-38.55-38.55-36.141 36.141zM812.574 221.44h-601.148v592.113h201.186v-110.231c-0.008-0.14-0.012-0.305-0.012-0.47 0-2.381 0.921-4.547 2.427-6.161l45.171-45.171c1.628-1.597 3.861-2.583 6.325-2.583s4.696 0.986 6.326 2.584l-0.001-0.001 39.153 38.551 38.551-38.551c1.628-1.597 3.861-2.583 6.325-2.583s4.696 0.986 6.326 2.584l45.175 45.175c1.5 1.609 2.422 3.775 2.422 6.156 0 0.165-0.004 0.33-0.013 0.493l0.001-0.023v110.231h201.186z" />
<glyph unicode="&#xe91b;" glyph-name="Picto-Light_black27" d="M855.341 416c0 0.006 0 0.013 0 0.020 0 4.778-3.709 8.69-8.405 9.014l-0.028 0.002h-9.638c-146.567-3.95-269.9-99.165-315.508-230.7l-0.727-2.411v259.012c85.638 5.547 152.998 76.365 152.998 162.916 0 0.113 0 0.226 0 0.339v-0.018 122.278c0 9.98-8.090 18.071-18.071 18.071v0h-54.212v125.289h-18.071v-125.289h-146.372v125.289h-18.071v-125.289h-54.212c-9.98 0-18.071-8.090-18.071-18.071v0-122.88c0-0.048 0-0.104 0-0.16 0-87.611 69.020-159.102 155.653-163.065l0.357-0.013v-258.409c-46.335 133.946-169.668 229.16-315.773 233.101l-0.462 0.010h-9.638c-4.724-0.325-8.433-4.237-8.433-9.015 0-0.007 0-0.014 0-0.021v0.001c0.271-186.238 148.78-337.701 333.841-342.729l0.465-0.010v-139.144h18.071v139.144c185.526 5.038 334.035 156.501 334.306 342.712v0.027zM187.332 406.965c172.193-5.189 310.444-143.441 315.621-315.147l0.012-0.486c-172.193 5.189-310.444 143.441-315.621 315.147l-0.012 0.486zM365.026 613.572v122.88h290.936v-122.88c0-80.34-65.128-145.468-145.468-145.468s-145.468 65.128-145.468 145.468v0zM521.035 91.332c5.189 172.193 143.441 310.444 315.147 315.621l0.486 0.012c-5.189-172.193-143.441-310.444-315.147-315.621l-0.486-0.012z" />
<glyph unicode="&#xe91c;" glyph-name="Picto-Light_black28" d="M521.035 326.852h-18.071v-374.664h-99.388v-18.071h216.847v18.071h-99.388v374.664zM752.339 399.134c-57.826 34.936-115.049 53.007-147.576 49.995 2.543 8.233 4.008 17.698 4.008 27.505 0 45.026-30.877 82.841-72.613 93.425l-0.666 0.143c15.059 19.878 26.504 57.826 30.72 104.207 54.037-15.429 97.987-50.941 124.153-97.746l0.534-1.040 14.456 10.842c-29.68 51.78-78.088 89.977-135.77 105.652l-1.566 0.363c0.602 9.638 1.205 19.878 1.205 30.118 0.004 0.69 0.006 1.505 0.006 2.321 0 28.141-2.633 55.666-7.665 82.344l0.431-2.745c160.203-25.137 281.299-162.177 281.299-327.5 0-0.063 0-0.126 0-0.19v0.010c-0.066-13.658-0.94-27.040-2.575-40.185l0.166 1.635 18.071-1.807c1.501 12.081 2.375 26.098 2.409 40.312v0.045c0 0 0 0 0 0.001 0 176.807-131.339 322.938-301.776 346.151l-1.81 0.202c-10.842 40.358-27.106 66.861-45.779 66.861-31.322 0-57.224-75.294-57.224-167.454 0-68.066 13.854-125.892 33.732-152.395-42.119-10.928-72.718-48.604-72.718-93.428 0-9.858 1.48-19.371 4.23-28.328l-0.18 0.683c-24.696 2.409-62.645-7.228-104.809-27.106-4.783 16.471-7.534 35.392-7.534 54.955 0 29.122 6.096 56.819 17.082 81.887l-0.513-1.312-16.866 7.228c-11.45-25.986-18.115-56.283-18.115-88.138 0-22.474 3.318-44.174 9.49-64.635l-0.41 1.583-26.504-14.456c-25.024-14.981-46.689-30.894-66.734-48.6l0.475 0.411c-15.845 37.353-25.055 80.794-25.055 126.386 0 98.043 42.589 186.14 110.276 246.797l0.313 0.276-13.854 12.047c-70.721-64.175-114.949-156.446-114.949-259.046 0-50.767 10.828-99.004 30.301-142.529l-0.886 2.215c-29.515-30.118-43.369-57.826-33.732-73.487 16.264-27.106 93.967-10.24 172.875 37.346 57.826 34.936 101.195 76.499 113.242 107.219 17.402-17.213 41.341-27.846 67.765-27.846s50.363 10.634 67.773 27.855l-0.009-0.008c9.638-22.889 36.141-52.405 72.885-80.113-16.255-15.536-35.165-28.47-55.95-38.026l-1.274-0.525 7.228-16.866c25.161 11.494 46.685 26.464 65.080 44.6l-0.026-0.026 25.299-16.264c20.937-13.084 45.14-25.233 70.48-35.11l3.007-1.032c-45.4-54.577-107.231-94.084-177.848-110.98l-2.256-0.456 3.614-17.468c79.754 18.684 147.213 62.628 195.223 122.78l0.542 0.702c40.358-12.047 71.078-11.445 80.715 4.819 16.264 26.504-34.936 87.341-113.845 134.927zM472.847 722.598c0 82.522 17.468 149.384 39.153 149.384s39.153-66.861 39.153-149.384-17.468-149.384-39.153-149.384-39.153 66.861-39.153 149.384zM321.656 316.612c-70.475-42.767-137.336-62.042-148.179-43.369s37.346 68.066 107.821 110.231 137.336 62.042 148.179 43.369-37.346-67.464-107.821-110.231zM512 398.532c-43.247 0-78.306 35.059-78.306 78.306s35.059 78.306 78.306 78.306c43.247 0 78.306-35.059 78.306-78.306v0c0-43.247-35.059-78.306-78.306-78.306v0zM850.522 273.242c-10.842-18.673-77.704 1.205-148.179 43.369s-118.664 92.16-107.821 110.231 77.704-1.205 148.179-43.369 119.266-92.16 107.821-110.231z" />
<glyph unicode="&#xe91d;" glyph-name="Picto-Light_black29" d="M202.391 290.711h18.071v-228.713h-18.071v228.713zM892.085 354.56h-84.932v66.259h-18.071v-236.122h-390.927v236.122h-18.071v-66.259h-84.932c-4.99 0-9.035-4.045-9.035-9.035v0-338.522c0-4.99 4.045-9.035 9.035-9.035v0h84.932v-66.861h18.071v236.122h390.927v-236.122h18.071v66.861h85.534c4.99 0 9.035 4.045 9.035 9.035v0 338.522c0 0.006 0 0.013 0 0.020 0 4.99-4.045 9.035-9.035 9.035-0.212 0-0.422-0.007-0.63-0.022l0.028 0.002zM304.188 16.038v320.452h75.896v-320.452zM883.652 16.038h-76.499v320.452h76.499zM966.776 290.711h18.071v-228.713h-18.071v228.713zM460.198 625.619v83.727c0 31.604-25.62 57.224-57.224 57.224v0h-156.612c-31.604 0-57.224-25.62-57.224-57.224v0-81.92c-89.31-48.646-148.9-141.821-148.9-248.914 0-88.508 40.702-167.509 104.409-219.307l0.519-0.409 11.445 13.854c-60.326 48.868-98.573 122.942-98.573 205.949 0 146.042 118.391 264.433 264.433 264.433s264.433-118.391 264.433-264.433c0-45.87-11.679-89.012-32.227-126.615l0.691 1.381 15.661-8.433c21.311 38.77 33.848 84.963 33.848 134.084 0 105.401-57.722 197.321-143.281 245.872l-1.4 0.731zM207.209 636.461v72.885c0 21.624 17.529 39.153 39.153 39.153v0h156.612c21.624 0 39.153-17.529 39.153-39.153v0-74.692c-34.917 16.673-75.889 26.411-119.135 26.411-41.718 0-81.319-9.062-116.943-25.325l1.763 0.721z" />
<glyph unicode="&#xe91e;" glyph-name="Picto-Light_black30" d="M616.809 76.273h-209.619c-4.921 0.090-8.876 4.1-8.876 9.034 0 1.543 0.387 2.996 1.069 4.266l-0.024-0.048 56.019 96.376c-21.358 16.916-34.936 42.847-34.936 71.95 0 50.566 40.992 91.558 91.558 91.558s91.558-40.992 91.558-91.558c0-29.103-13.579-55.034-34.746-71.805l-0.19-0.146 56.019-96.376c0.874-1.366 1.394-3.033 1.394-4.821 0-4.99-4.045-9.035-9.035-9.035-0.066 0-0.133 0.001-0.199 0.002h0.010zM423.454 94.344h177.694l-51.802 90.353c-0.731 1.275-1.161 2.803-1.161 4.432 0 3.185 1.648 5.985 4.138 7.594l0.035 0.021c20.419 13.281 33.732 35.988 33.732 61.805 0 40.586-32.901 73.487-73.487 73.487s-73.487-32.901-73.487-73.487c0-25.817 13.313-48.524 33.448-61.632l0.284-0.173c2.525-1.63 4.173-4.431 4.173-7.616 0-1.628-0.431-3.156-1.185-4.476l0.023 0.044zM813.779 481.656h-507.784v185.525c0 111.777 90.613 202.391 202.391 202.391s202.391-90.613 202.391-202.391v0-104.207h18.071v104.207c0 121.757-98.704 220.461-220.461 220.461s-220.461-98.704-220.461-220.461v0-185.525h-77.704c-4.99 0-9.035-4.045-9.035-9.035v0-519.228c0-4.99 4.045-9.035 9.035-9.035v0h603.558c4.99 0 9.035 4.045 9.035 9.035v0 519.228c0 4.99-4.045 9.035-9.035 9.035v0zM804.744-37.572h-585.487v501.158h585.487z" />
<glyph unicode="&#xe91f;" glyph-name="Picto-Light_black31" d="M843.896 578.033h-3.012c0 181.472-147.112 328.584-328.584 328.584s-328.584-147.112-328.584-328.584v0h-3.012c-51.564 0-93.365-41.801-93.365-93.365v0-137.336c0-51.564 41.801-93.365 93.365-93.365v0h3.012c4.752-144.882 102-265.826 234.382-305.987l2.342-0.611h3.012c8.136-7.77 19.161-12.575 31.308-12.649h113.86c25.616 0 46.381 20.766 46.381 46.381s-20.766 46.381-46.381 46.381h-113.242c-0.024 0-0.052 0-0.080 0-25.616 0-46.381-20.766-46.381-46.381 0-3.848 0.469-7.586 1.352-11.161l-0.067 0.319c-122.132 43.905-207.981 158.544-208.414 293.293v305.446c0 171.325 138.887 310.212 310.212 310.212s310.212-138.887 310.212-310.212v0-305.995c0-4.99 4.045-9.035 9.035-9.035v0h12.047c51.564 0 93.365 41.801 93.365 93.365v0 137.336c0 0.001 0 0.001 0 0.002 0 51.352-41.458 93.021-92.73 93.363h-0.033zM455.379 8.207h113.242c15.469 0 28.009-12.54 28.009-28.009s-12.54-28.009-28.009-28.009v0h-113.242c-15.469 0-28.009 12.54-28.009 28.009s12.54 28.009 28.009 28.009v0zM106.014 346.729v137.939c-0.002 0.18-0.002 0.392-0.002 0.605 0 41.040 33.1 74.35 74.060 74.689h3.044v-287.322h-3.012c-41.251 0-74.692 33.441-74.692 74.692v0zM918.588 346.729c0-41.251-33.441-74.692-74.692-74.692h-3.012v287.925h3.012c41.251 0 74.692-33.441 74.692-74.692v0z" />
<glyph unicode="&#xe920;" glyph-name="Picto-Light_black32" d="M917.986-56.847h-274.071c-4.99 0-9.035 4.045-9.035 9.035v0 454.776h-245.76v-454.776c0-4.99-4.045-9.035-9.035-9.035v0h-274.071c-4.99 0-9.035 4.045-9.035 9.035v0 463.812h18.071v-454.776h256v454.776c0 4.99 4.045 9.035 9.035 9.035v0h264.433c4.99 0 9.035-4.045 9.035-9.035v0-454.776h256v454.776h18.071v-463.812c0-0.006 0-0.013 0-0.020 0-4.99-4.045-9.035-9.035-9.035-0.212 0-0.422 0.007-0.63 0.022l0.028-0.002zM508.988 222.042h72.282v-18.071h-72.282v18.071zM850.522 588.875v233.713c0 4.99-4.045 9.035-9.035 9.035v0h-131.313c-4.99 0-9.035-4.045-9.035-9.035v0-99.388l-183.115 163.238c-1.591 1.428-3.705 2.301-6.024 2.301s-4.432-0.873-6.032-2.308l0.008 0.007-466.824-417.431 12.047-13.252 460.8 412.009 460.8-412.009 12.047 13.252zM719.209 813.553h113.845v-208.414l-113.845 101.798z" />
<glyph unicode="&#xe921;" glyph-name="Picto-Light_black33" d="M372.856 412.988c37.259 0 67.464 30.204 67.464 67.464s-30.204 67.464-67.464 67.464c-37.259 0-67.464-30.204-67.464-67.464v0c0-37.259 30.204-67.464 67.464-67.464v0zM372.856 529.845c27.279 0 49.393-22.114 49.393-49.393s-22.114-49.393-49.393-49.393c-27.279 0-49.393 22.114-49.393 49.393v0c0 27.279 22.114 49.393 49.393 49.393v0zM293.346 303.36c-0.002 0.18-0.004 0.393-0.004 0.606 0 26.736 21.504 48.449 48.16 48.787h62.677c26.688-0.338 48.192-22.051 48.192-48.787 0-0.213-0.001-0.426-0.004-0.638v0.032-281.901h18.071v281.901c0.002 0.18 0.003 0.392 0.003 0.605 0 36.716-29.594 66.519-66.229 66.858h-62.677c-36.668-0.339-66.262-30.143-66.262-66.858 0-0.213 0.001-0.425 0.003-0.638v0.032-281.901h18.071zM651.144 412.988c37.259 0 67.464 30.204 67.464 67.464s-30.204 67.464-67.464 67.464c-37.259 0-67.464-30.204-67.464-67.464v0c0-37.259 30.204-67.464 67.464-67.464v0zM651.144 529.845c27.279 0 49.393-22.114 49.393-49.393s-22.114-49.393-49.393-49.393c-27.279 0-49.393 22.114-49.393 49.393v0c0 27.279 22.114 49.393 49.393 49.393v0zM571.031 303.36c-0.002 0.18-0.004 0.393-0.004 0.606 0 26.736 21.504 48.449 48.16 48.787h62.677c26.688-0.338 48.192-22.051 48.192-48.787 0-0.213-0.001-0.426-0.004-0.638v0.032-281.901h18.071v281.901c0.002 0.18 0.003 0.392 0.003 0.605 0 36.716-29.594 66.519-66.229 66.858h-62.074c-36.668-0.339-66.262-30.143-66.262-66.858 0-0.213 0.001-0.425 0.003-0.638v0.032-281.901h18.071zM869.798 676.216h-715.595c-4.99 0-9.035-4.045-9.035-9.035v0-714.993c0-4.99 4.045-9.035 9.035-9.035v0h715.595c4.99 0 9.035 4.045 9.035 9.035v0 714.993c0 4.99-4.045 9.035-9.035 9.035v0zM860.762-38.776h-697.525v696.922h697.525zM402.974 725.007l83.727 83.727-12.649 12.649-62.042-62.042v133.12h-18.071v-133.12l-62.042 62.042-12.649-12.649 83.727-83.727zM642.108 892.461l-83.727-83.727 12.649-12.649 62.042 62.042v-133.12h18.071v133.12l62.042-62.042 13.252 12.649-84.329 83.727z" />
<glyph unicode="&#xe922;" glyph-name="Picto-Light_black34" d="M512 72.659c-2.332 0.032-4.445 0.942-6.029 2.415l0.006-0.005-340.932 340.329c-36.458 36.458-59.007 86.824-59.007 142.456 0 111.265 90.198 201.464 201.464 201.464 55.633 0 105.999-22.55 142.456-59.007v0l62.042-61.44 62.042 61.44c36.458 36.458 86.824 59.007 142.456 59.007 111.265 0 201.464-90.198 201.464-201.464 0-55.633-22.55-105.999-59.007-142.456v0l-340.932-340.329c-1.578-1.467-3.692-2.377-6.017-2.409h-0.006zM307.802 741.873c-0.119 0-0.26 0-0.401 0-101.464 0-183.718-82.253-183.718-183.718 0-50.832 20.644-96.842 54.006-130.104l334.31-334.31 334.306 334.306c33.298 33.298 53.893 79.298 53.893 130.108 0 101.621-82.38 184.001-184.001 184.001-50.81 0-96.811-20.595-130.108-53.893v0l-68.066-68.668c-1.628-1.597-3.861-2.583-6.325-2.583s-4.696 0.986-6.326 2.584l0.001-0.001-67.464 68.668c-33.135 33.124-78.905 53.611-129.459 53.611-0.228 0-0.456 0-0.684-0.001h0.035z" />
<glyph unicode="&#xe923;" glyph-name="Picto-Light_black35" d="M512 102.776c-53.227 0-96.376 43.149-96.376 96.376s43.149 96.376 96.376 96.376c53.227 0 96.376-43.149 96.376-96.376v0c0-53.227-43.149-96.376-96.376-96.376v0zM512 277.459c-43.247 0-78.306-35.059-78.306-78.306s35.059-78.306 78.306-78.306c43.247 0 78.306 35.059 78.306 78.306v0c0 43.247-35.059 78.306-78.306 78.306v0zM653.553-65.882h-18.071c0 0.003 0 0.006 0 0.009 0 42.491-34.106 77.016-76.435 77.693l-0.064 0.001h-93.967c-42.393-0.678-76.499-35.203-76.499-77.694 0-0.003 0-0.006 0-0.010v0h-18.071c0 0.002 0 0.005 0 0.008 0 52.471 42.196 95.087 94.505 95.766l0.064 0.001h93.967c52.374-0.68 94.569-43.296 94.569-95.767 0-0.003 0-0.005 0-0.008v0zM843.294 102.776c-53.227 0-96.376 43.149-96.376 96.376s43.149 96.376 96.376 96.376c53.227 0 96.376-43.149 96.376-96.376v0c0-53.227-43.149-96.376-96.376-96.376v0zM843.294 277.459c-43.247 0-78.306-35.059-78.306-78.306s35.059-78.306 78.306-78.306c43.247 0 78.306 35.059 78.306 78.306v0c0 43.247-35.059 78.306-78.306 78.306v0zM984.847-65.882h-18.071c0 0.003 0 0.006 0 0.009 0 42.491-34.106 77.016-76.435 77.693l-0.064 0.001h-93.365c-42.655-0.341-77.101-34.999-77.101-77.701 0-0.001 0-0.002 0-0.003v0h-18.071c0 0.002 0 0.005 0 0.008 0 52.471 42.196 95.087 94.505 95.766l0.064 0.001h93.365c0.001 0 0.001 0 0.002 0 52.562 0 95.172-42.61 95.172-95.172 0-0.212-0.001-0.423-0.002-0.635v0.033zM180.706 102.776c-53.227 0-96.376 43.149-96.376 96.376s43.149 96.376 96.376 96.376c53.227 0 96.376-43.149 96.376-96.376v0c0-53.227-43.149-96.376-96.376-96.376v0zM180.706 277.459c-43.247 0-78.306-35.059-78.306-78.306s35.059-78.306 78.306-78.306c43.247 0 78.306 35.059 78.306 78.306v0c0 43.247-35.059 78.306-78.306 78.306v0zM322.259-65.882h-18.071c0 0.003 0 0.006 0 0.009 0 42.491-34.106 77.016-76.435 77.693l-0.064 0.001h-93.967c-42.393-0.678-76.499-35.203-76.499-77.694 0-0.003 0-0.006 0-0.010v0h-18.071c0 0.002 0 0.005 0 0.008 0 52.471 42.196 95.087 94.505 95.766l0.064 0.001h93.967c52.374-0.68 94.569-43.296 94.569-95.767 0-0.003 0-0.005 0-0.008v0zM309.007 584.659c-53.227 0-96.376 43.149-96.376 96.376s43.149 96.376 96.376 96.376c53.227 0 96.376-43.149 96.376-96.376v0c0-53.227-43.149-96.376-96.376-96.376v0zM309.007 759.341c-43.247 0-78.306-35.059-78.306-78.306s35.059-78.306 78.306-78.306c43.247 0 78.306 35.059 78.306 78.306v0c0 43.247-35.059 78.306-78.306 78.306v0zM185.525 335.285h-18.071v80.715c-0.001 0.179-0.002 0.392-0.002 0.604 0 52.351 42.268 94.829 94.539 95.17h93.397c49.497-0.122 90.106-38.011 94.542-86.366l0.028-0.372h71.68v-18.071h-80.113c-4.99 0-9.035 4.045-9.035 9.035v0c0.001 0.179 0.002 0.391 0.002 0.602 0 42.582-34.519 77.101-77.101 77.101-0.001 0-0.002 0-0.003 0h-93.365c-42.393-0.678-76.499-35.203-76.499-77.694 0-0.003 0-0.006 0-0.010v0zM984.847 406.965h-421.045v18.071h412.009v454.776h-927.624v-454.776h57.224v-18.071h-66.259c-4.99 0-9.035 4.045-9.035 9.035v0 0 472.847c0 4.99 4.045 9.035 9.035 9.035v0h945.694c4.99 0 9.035-4.045 9.035-9.035v0-472.847c0-4.99-4.045-9.035-9.035-9.035v0z" />
<glyph unicode="&#xe924;" glyph-name="Picto-Light_black36" d="M307.802 278.061c-0.179-0.001-0.391-0.002-0.602-0.002-54.225 0-98.184 43.958-98.184 98.184s43.958 98.184 98.184 98.184c54.225 0 98.182-43.957 98.184-98.182v0c0-0.001 0-0.001 0-0.002 0-54.013-43.616-97.84-97.549-98.182h-0.033zM307.802 456.358c-0.179 0.001-0.391 0.002-0.602 0.002-44.245 0-80.113-35.868-80.113-80.113s35.868-80.113 80.113-80.113c44.244 0 80.112 35.867 80.113 80.111v0c-0.338 43.776-35.735 79.172-79.478 79.51h-0.032zM451.765 84.104h-18.071v21.685c0.001 0.18 0.002 0.392 0.002 0.605 0 43.369-34.987 78.566-78.276 78.906h-95.806c-43.321-0.34-78.308-35.537-78.308-78.906 0-0.213 0.001-0.425 0.003-0.637v0.032-21.685h-18.071v21.685c-0.001 0.179-0.002 0.392-0.002 0.604 0 53.349 43.077 96.636 96.346 96.977h95.806c53.301-0.341 96.378-43.628 96.378-96.977 0-0.212-0.001-0.425-0.002-0.637v0.033zM577.054 397.327h280.094v-18.071h-280.094v18.071zM577.054 194.334h140.348v-18.071h-140.348v18.071zM577.054 295.529h280.094v-18.071h-280.094v18.071zM916.781 663.567h-300.574v160.226c0 4.99-4.045 9.035-9.035 9.035v0h-190.344c-4.99 0-9.035-4.045-9.035-9.035v0-160.226h-300.574c-37.664-0.341-68.066-30.953-68.066-68.666 0-0.001 0-0.002 0-0.003v0-527.059c0.338-37.455 30.611-67.728 68.034-68.066h809.594c37.455 0.338 67.728 30.611 68.066 68.034v527.091c0 0.001 0 0.002 0 0.003 0 37.713-30.401 68.325-68.034 68.665h-0.032zM425.864 814.758h172.273v-239.134h-172.273zM966.776 67.84c0-27.612-22.384-49.995-49.995-49.995v0h-809.562c-27.612 0-49.995 22.384-49.995 49.995v0 527.059c0 27.612 22.384 49.995 49.995 49.995v0h300.574v-69.271h-84.932v-18.071h378.88v18.071h-85.534v69.873h299.972c27.612 0 49.995-22.384 49.995-49.995v0z" />
<glyph unicode="&#xe925;" glyph-name="Picto-Light_black37" d="M309.007 414.795c-54.225 0-98.184 43.958-98.184 98.184s43.958 98.184 98.184 98.184c54.225 0 98.184-43.958 98.184-98.184v0c0-54.225-43.958-98.184-98.184-98.184v0zM309.007 593.092c-44.245 0-80.113-35.868-80.113-80.113s35.868-80.113 80.113-80.113c44.245 0 80.113 35.868 80.113 80.113v0c0 44.245-35.868 80.113-80.113 80.113v0zM453.572 220.838h-18.071v21.685c0.001 0.18 0.002 0.392 0.002 0.605 0 43.369-34.987 78.566-78.276 78.906h-95.806c-43.321-0.34-78.308-35.537-78.308-78.906 0-0.213 0.001-0.425 0.003-0.637v0.032-21.685h-18.071v21.685c-0.001 0.179-0.002 0.392-0.002 0.604 0 53.349 43.077 96.636 96.346 96.977h95.204c53.301-0.341 96.378-43.628 96.378-96.977 0-0.212-0.001-0.425-0.002-0.637v0.033zM578.861 534.061h280.094v-18.071h-280.094v18.071zM578.861 331.068h140.348v-18.071h-140.348v18.071zM578.861 432.264h280.094v-18.071h-280.094v18.071zM107.219 747.896c-37.455-0.338-67.728-30.611-68.066-68.034v-527.091c0.338-37.455 30.611-67.728 68.034-68.066h809.594c37.455 0.338 67.728 30.611 68.066 68.034v527.091c-0.338 37.455-30.611 67.728-68.034 68.066h-0.032zM916.179 729.826c27.612 0 49.995-22.384 49.995-49.995v-527.059c0-27.612-22.384-49.995-49.995-49.995v0h-808.96c-27.612 0-49.995 22.384-49.995 49.995v0 527.059c0 27.612 22.384 49.995 49.995 49.995v0z" />
<glyph unicode="&#xe926;" glyph-name="Picto-Light_black38" d="M975.812 729.826h-927.624c-4.99 0-9.035-4.045-9.035-9.035v0-609.581c0-4.99 4.045-9.035 9.035-9.035v0h927.624c4.99 0 9.035 4.045 9.035 9.035v0 609.581c0 4.99-4.045 9.035-9.035 9.035v0zM512 349.139c-36.926 0-66.861 29.935-66.861 66.861s29.935 66.861 66.861 66.861c36.926 0 66.861-29.935 66.861-66.861v0c0-36.926-29.935-66.861-66.861-66.861v0zM57.224 541.892h127.699v-251.784h-127.699zM57.224 272.038h136.734c4.99 0 9.035 4.045 9.035 9.035v0 269.854c0 4.99-4.045 9.035-9.035 9.035v0h-136.734v151.793h445.741v-211.426c-42.36-5.218-74.834-40.981-74.834-84.329s32.475-79.111 74.422-84.288l0.412-0.041v-211.426h-445.741zM521.035 120.245v211.426c42.36 5.218 74.834 40.981 74.834 84.329s-32.475 79.111-74.422 84.288l-0.412 0.041v211.426h445.741v-151.793h-136.734c-4.99 0-9.035-4.045-9.035-9.035v0-269.854c0-4.99 4.045-9.035 9.035-9.035v0h136.734v-151.793zM966.776 541.892v-251.784h-127.699v251.784z" />
<glyph unicode="&#xe927;" glyph-name="Picto-Light_black39" d="M983.642 250.353v0l-154.805 274.673h-216.847v-18.071h206.005l141.553-252.386h-244.555c-4.99 0-9.035-4.045-9.035-9.035v0-139.746h-388.518v140.348c0 4.99-4.045 9.035-9.035 9.035v0h-245.158l140.348 251.784h206.005v18.071h-211.426c-3.385-0.062-6.309-1.977-7.807-4.77l-0.024-0.048-150.588-269.854c-0.711-1.211-1.151-2.657-1.204-4.201v-302.999c0-0.006 0-0.013 0-0.020 0-4.99 4.045-9.035 9.035-9.035 0.212 0 0.422 0.007 0.63 0.022l-0.028-0.002h927.624c4.99 0 9.035 4.045 9.035 9.035v0 302.984c-0.053 1.56-0.494 3.006-1.228 4.259l0.023-0.043zM966.776-47.812h-909.553v284.913h242.146v-139.746c0-4.99 4.045-9.035 9.035-9.035v0h406.588c4.99 0 9.035 4.045 9.035 9.035v0 139.746h242.748zM735.473 439.492l-214.438-213.835v672.226h-18.071v-672.226l-213.835 213.835-12.649-12.649 235.52-236.122 236.122 236.122-12.649 12.649z" />
<glyph unicode="&#xe928;" glyph-name="Picto-Light_black40" d="M921.6 812.951h-819.2c-34.93 0-63.247-28.317-63.247-63.247v0-502.362c0-34.93 28.317-63.247 63.247-63.247v0h273.468v-62.042c0-47.239-38.295-85.534-85.534-85.534v0c-4.99 0-9.035-4.045-9.035-9.035s4.045-9.035 9.035-9.035v0h443.332c4.99 0 9.035 4.045 9.035 9.035s-4.045 9.035-9.035 9.035v0c-47.239 0-85.534 38.295-85.534 85.534v0 62.042h273.468c34.93 0 63.247 28.317 63.247 63.247v0 502.362c0 34.93-28.317 63.247-63.247 63.247v0zM675.84 37.12h-327.078c27.422 18.911 45.168 50.149 45.176 85.533v61.441h236.725v-62.042c0.22-35.156 17.915-66.133 44.829-84.705l0.347-0.227zM966.776 247.341c0-24.95-20.226-45.176-45.176-45.176v0h-819.2c-24.95 0-45.176 20.226-45.176 45.176v0 502.362c0 24.95 20.226 45.176 45.176 45.176v0h819.2c24.95 0 45.176-20.226 45.176-45.176v0zM743.906 556.951l-226.485 160.226c-1.431 0.996-3.206 1.591-5.12 1.591s-3.689-0.595-5.15-1.61l0.030 0.020-227.087-160.226c-2.204-1.666-3.614-4.282-3.614-7.228 0-4.99 4.045-9.035 9.035-9.035h452.969c4.99 0 9.035 4.045 9.035 9.035 0 2.946-1.41 5.562-3.591 7.212l-0.023 0.016zM313.826 558.758l198.174 139.746 198.174-140.348zM357.798 502.739h18.071v-164.563h-18.071v164.563zM648.132 502.739h18.071v-164.563h-18.071v164.563zM551.153 502.739h18.071v-164.563h-18.071v164.563zM454.776 502.739h18.071v-164.563h-18.071v164.563zM301.779 297.939h420.442v-18.071h-420.442v18.071z" />
<glyph unicode="&#xe929;" glyph-name="Picto-Light_black41" d="M918.588 812.951h-70.475c-7.346 43.489-44.728 76.201-89.751 76.201s-82.405-32.712-89.676-75.665l-0.075-0.535h-217.449c-7.346 43.489-44.728 76.201-89.751 76.201s-82.405-32.712-89.676-75.665l-0.075-0.535h-166.249c-4.99 0-9.035-4.045-9.035-9.035v0-776.433c0-4.99 4.045-9.035 9.035-9.035v0h86.739v-66.259c0-4.99 4.045-9.035 9.035-9.035v0h717.402c4.99 0 9.035 4.045 9.035 9.035v0 851.727c0 4.99-4.045 9.035-9.035 9.035v0zM758.362 870.776c0.109 0.001 0.238 0.001 0.368 0.001 34.92 0 64.105-24.558 71.225-57.346l0.088-0.481h-143.36c7.443 33.267 36.692 57.767 71.673 57.826h0.007zM361.412 870.776c0.109 0.001 0.238 0.001 0.368 0.001 34.92 0 64.105-24.558 71.225-57.346l0.088-0.481h-143.36c7.443 33.267 36.692 57.767 71.673 57.826h0.007zM434.296 794.88c-1.66-38.936-33.629-69.873-72.822-69.873-0.022 0-0.044 0-0.066 0h0.003v-18.071c0.015 0 0.032 0 0.050 0 49.174 0 89.234 39.023 90.901 87.791l0.004 0.153h378.88c-1.66-38.936-33.629-69.873-72.822-69.873-0.022 0-0.044 0-0.066 0h0.003v-18.071c0.015 0 0.032 0 0.050 0 49.174 0 89.234 39.023 90.901 87.791l0.004 0.153h60.235v-139.746h-699.332v139.746zM192.151 794.88v-139.746h-77.704v139.746zM114.447 36.518v600.546h77.704v-600.546zM210.221-38.776v675.84h699.332v-675.84zM497.544 469.007h124.687v-18.071h-124.687v18.071zM690.296 469.007h124.687v-18.071h-124.687v18.071zM304.791 346.729h124.687v-18.071h-124.687v18.071zM497.544 346.729h124.687v-18.071h-124.687v18.071zM690.296 346.729h124.687v-18.071h-124.687v18.071zM304.791 224.452h124.687v-18.071h-124.687v18.071zM497.544 224.452h124.687v-18.071h-124.687v18.071zM690.296 224.452h124.687v-18.071h-124.687v18.071zM304.791 119.040h124.687v-18.071h-124.687v18.071zM497.544 119.040h124.687v-18.071h-124.687v18.071z" />
<glyph unicode="&#xe92a;" glyph-name="Picto-Light_black42" d="M984.245 578.033c-0.779 2.774-2.775 4.968-5.36 6.002l-0.061 0.021-693.308 246.965c-0.883 0.317-1.902 0.5-2.963 0.5-3.872 0-7.175-2.436-8.461-5.859l-0.021-0.062-97.581-272.866c-0.317-0.883-0.5-1.902-0.5-2.963 0-3.872 2.436-7.175 5.859-8.461l0.062-0.021 213.233-76.499v-84.932c0-104.126-84.411-188.536-188.536-188.536v0h-86.739v145.167c0 4.99-4.045 9.035-9.035 9.035v0h-80.113v-18.071h71.078v-309.007h-71.078v-18.071h80.113c4.99 0 9.035 4.045 9.035 9.035v0 164.442h87.341c113.636 0.341 205.663 92.369 206.005 205.972v78.339l374.664-133.12h3.012c2.946 0 5.562 1.41 7.212 3.591l0.016 0.023 184.922 242.146c0.934 1.4 1.491 3.121 1.491 4.972 0 0.802-0.104 1.579-0.3 2.319l0.014-0.063zM287.925 811.144l437.911-156.009-90.955-256-438.513 156.009zM787.878 344.32l-136.132 48.791 90.955 256 218.052-77.704z" />
<glyph unicode="&#xe92b;" glyph-name="Picto-Light_black43" d="M512-56.847c-261.146 0-472.847 211.701-472.847 472.847s211.701 472.847 472.847 472.847c261.146 0 472.847-211.701 472.847-472.847v0c-0.342-261.008-211.838-472.504-472.814-472.847h-0.033zM512 870.776c-251.166 0-454.776-203.61-454.776-454.776s203.61-454.776 454.776-454.776c251.166 0 454.776 203.61 454.776 454.776v0c-0.342 251.028-203.748 454.434-454.743 454.776h-0.033zM105.412 425.035h93.365v-18.071h-93.365v18.071zM217.643 135.095l66.019 66.019 12.778-12.778-66.019-66.019-12.778 12.778zM502.965 102.776h18.071v-93.365h-18.071v93.365zM218.366 697.026l12.778 12.778 66.019-66.019-12.778-12.778-66.019 66.019zM727.057 643.664l66.019 66.019 12.778-12.778-66.019-66.019-12.778 12.778zM825.224 425.035h93.365v-18.071h-93.365v18.071zM726.935 188.215l12.778 12.778 66.019-66.019-12.778-12.778-66.019 66.019zM669.214 246.136l-163.84 163.238c-1.5 1.609-2.422 3.775-2.422 6.156 0 0.165 0.004 0.33 0.013 0.493l-0.001-0.023v406.588h18.071v-402.974l160.828-160.828z" />
<glyph unicode="&#xe92c;" glyph-name="Picto-Light_black44" d="M133.722-56.847h-3.614c-3.219 1.43-5.422 4.598-5.422 8.282 0 0.053 0 0.106 0.001 0.159v-0.008 125.289h-76.499c-4.99 0-9.035 4.045-9.035 9.035v0 486.099c0 4.99 4.045 9.035 9.035 9.035v0h602.955c4.99 0 9.035-4.045 9.035-9.035v0-486.701c0-4.99-4.045-9.035-9.035-9.035v0h-346.353l-37.346-3.012-127.096-127.699c-1.609-1.5-3.775-2.422-6.156-2.422-0.165 0-0.33 0.004-0.493 0.013l0.023-0.001zM57.224 94.946h76.499c4.99 0 9.035-4.045 9.035-9.035v0-112.038l114.447 114.447c1.432 1.343 3.309 2.227 5.387 2.407l0.034 0.002 40.96 3.614h338.522v468.631h-584.885zM975.812 250.955h-241.544v18.071h232.508v468.028h-76.499c-4.99 0-9.035 4.045-9.035 9.035v0 112.038l-118.061-118.061c-1.609-1.5-3.775-2.422-6.156-2.422-0.165 0-0.33 0.004-0.493 0.013l0.023-0.001h-374.664v-90.353h-18.071v98.786c0 4.99 4.045 9.035 9.035 9.035v0h380.687l130.108 131.313c1.656 1.79 4.017 2.907 6.64 2.907 4.99 0 9.035-4.045 9.035-9.035 0-0.175-0.005-0.349-0.015-0.522l0.001 0.024v-124.687h76.499c4.99 0 9.035-4.045 9.035-9.035v0-486.701c-0.325-4.724-4.237-8.433-9.015-8.433-0.007 0-0.014 0-0.021 0h0.001zM149.986 388.894h329.487v-18.071h-329.487v18.071zM149.986 272.64h164.442v-18.071h-164.442v18.071z" />
<glyph unicode="&#xe92d;" glyph-name="Picto-Light_black45" d="M916.781-65.882h-730.654c-4.99 0-9.035 4.045-9.035 9.035v0 945.694c0 4.99 4.045 9.035 9.035 9.035v0h730.654c4.99 0 9.035-4.045 9.035-9.035v0-945.694c0-4.99-4.045-9.035-9.035-9.035v0zM195.162-47.812h712.584v927.624h-712.584zM581.271 525.026c-53.227 0-96.376 43.149-96.376 96.376s43.149 96.376 96.376 96.376c53.227 0 96.376-43.149 96.376-96.376v0c0-53.227-43.149-96.376-96.376-96.376v0zM581.271 699.708c-43.247 0-78.306-35.059-78.306-78.306s35.059-78.306 78.306-78.306c43.247 0 78.306 35.059 78.306 78.306v0c0 43.247-35.059 78.306-78.306 78.306v0zM722.824 356.367h-18.071c0.002 0.18 0.002 0.392 0.002 0.605 0 42.371-34.178 76.759-76.469 77.099h-93.999c-42.323-0.34-76.501-34.728-76.501-77.099 0-0.213 0.001-0.425 0.003-0.637v0.033h-18.071c-0.005 0.359-0.008 0.782-0.008 1.207 0 52.353 42.272 94.833 94.545 95.17h93.397c0.002 0 0.005 0 0.008 0 52.562 0 95.172-42.61 95.172-95.172 0-0.424-0.003-0.847-0.008-1.269l0.001 0.064zM186.127 592.489c-48.57 0-87.944 39.374-87.944 87.944s39.374 87.944 87.944 87.944c48.57 0 87.944-39.374 87.944-87.944v0h-18.071c0 38.59-31.283 69.873-69.873 69.873s-69.873-31.283-69.873-69.873c0-38.59 31.283-69.873 69.873-69.873v0zM186.127 336.489c-48.57 0-87.944 39.374-87.944 87.944s39.374 87.944 87.944 87.944c48.57 0 87.944-39.374 87.944-87.944v0h-18.071c0 38.59-31.283 69.873-69.873 69.873s-69.873-31.283-69.873-69.873c0-38.59 31.283-69.873 69.873-69.873v0zM186.127 80.489c-48.57 0-87.944 39.374-87.944 87.944s39.374 87.944 87.944 87.944c48.57 0 87.944-39.374 87.944-87.944v0h-18.071c0 38.59-31.283 69.873-69.873 69.873s-69.873-31.283-69.873-69.873c0-38.59 31.283-69.873 69.873-69.873v0zM434.899 248.546h233.713v-18.071h-233.713v18.071zM434.899 134.701h128.904v-18.071h-128.904v18.071z" />
<glyph unicode="&#xe92e;" glyph-name="Picto-Light_black46" d="M980.028 293.722l-137.336 420.442c-8.213 24.535-30.986 41.902-57.816 41.902-6.455 0-12.675-1.005-18.512-2.868l0.431 0.119-137.939-45.176 5.421-17.468 137.939 45.176c3.904 1.297 8.398 2.045 13.068 2.045 18.748 0 34.678-12.063 40.452-28.851l0.090-0.301 19.878-60.838-85.534-27.708 5.421-17.468 85.534 27.708 112.038-342.739c1.397-4.013 2.203-8.638 2.203-13.452 0-18.694-12.165-34.546-29.011-40.073l-0.298-0.085-279.492-90.955 5.421-17.468 279.492 91.558c24.341 8.324 41.53 31.001 41.53 57.693 0 6.722-1.090 13.19-3.104 19.236l0.124-0.429zM723.27 311.22l107.639 35.182 5.614-17.176-107.639-35.182-5.614 17.176zM595.727 344.922l87.341 54.814c2.654 1.606 4.401 4.477 4.401 7.756 0 1.336-0.29 2.604-0.81 3.745l0.023-0.057-49.393 103.002 64.452 89.751c1.027 1.446 1.642 3.248 1.642 5.193 0 4.072-2.694 7.515-6.397 8.644l-0.064 0.017-455.379 132.518c-4.884 1.411-10.494 2.222-16.293 2.222-27.523 0-50.776-18.276-58.288-43.354l-0.111-0.431-123.482-424.659c-1.529-5.051-2.409-10.856-2.409-16.866 0-27.257 18.104-50.285 42.943-57.716l0.426-0.11 455.379-133.12h2.409c4.99 0 9.035 4.045 9.035 9.035v0l-2.409 111.435 71.078 50.598c2.445 1.643 4.032 4.398 4.032 7.524 0 0.97-0.153 1.904-0.436 2.78l0.018-0.064zM183.718 703.925c5.37 17.877 21.665 30.685 40.956 30.72h0.004l12.047-1.807 443.332-129.506-60.235-83.727c-1.093-1.476-1.749-3.333-1.749-5.343 0-1.109 0.2-2.171 0.565-3.152l-0.020 0.062-452.367 131.915zM534.889 208.188c-2.215-1.665-3.633-4.288-3.633-7.243 0-0.207 0.007-0.412 0.021-0.616l-0.001 0.028 2.409-103.605-443.934 129.506c-17.816 5.195-30.613 21.379-30.613 40.552 0 4.224 0.621 8.304 1.777 12.152l-0.077-0.299 99.991 346.955 467.426-135.529 37.948-79.511-86.136-54.212c-2.445-1.643-4.032-4.398-4.032-7.524 0-0.97 0.153-1.904 0.436-2.78l-0.018 0.064 28.311-87.944zM175.861 327.11l5.011 17.362 108.512-31.32-5.011-17.362-108.512 31.32zM204.561 426.429l5.011 17.362 218.238-62.991-5.011-17.362-218.238 62.991z" />
<glyph unicode="&#xe92f;" glyph-name="Picto-Light_black47" d="M975.812 696.094h-594.522c-4.99 0-9.035-4.045-9.035-9.035v0-145.167h-239.736c-0.14 0.008-0.305 0.012-0.47 0.012-2.381 0-4.547-0.921-6.161-2.427l-84.324-84.324 12.649-12.649 81.92 81.318h236.122v-45.779h18.071v108.424h576.452v-292.744h-334.908v-18.071h343.944c4.99 0 9.035 4.045 9.035 9.035v0 402.372c0 4.99-4.045 9.035-9.035 9.035v0zM390.325 604.536v73.487h576.452v-73.487zM835.464 378.052h83.125v-18.071h-83.125v18.071zM498.748 425.035h-189.741v-18.071h189.741c31.604 0 57.224-25.62 57.224-57.224s-25.62-57.224-57.224-57.224v0h-253.591c-4.99 0-9.035-4.045-9.035-9.035v0c0-77.512-62.836-140.348-140.348-140.348v0-18.071c84.303 0.17 153.196 65.912 158.396 148.927l0.023 0.457h60.235c-17.022-14.133-27.782-35.301-27.782-58.981 0-23.404 10.51-44.354 27.068-58.386l0.111-0.092h-0.602c-0.22 0.002-0.48 0.004-0.741 0.004-42.249 0-76.499-34.25-76.499-76.499 0-23.71 10.786-44.9 27.719-58.932l0.127-0.102h-236.725v-18.071h353.581c0.22-0.002 0.48-0.004 0.741-0.004 42.249 0 76.499 34.25 76.499 76.499 0 23.71-10.786 44.9-27.719 58.932l-0.127 0.102h0.602c0.040 0 0.087 0 0.134 0 42.249 0 76.499 34.25 76.499 76.499 0 23.708-10.785 44.897-27.715 58.928l-0.127 0.102h19.275c41.584 0 75.294 33.71 75.294 75.294s-33.71 75.294-75.294 75.294v0zM439.115 79.887c-0.337-32.133-26.296-58.092-58.396-58.428h-68.098c-32.435 0-58.729 26.294-58.729 58.729s26.294 58.729 58.729 58.729h68.066c32.342-0.341 58.428-26.638 58.428-59.028 0-0.001 0-0.002 0-0.003v0zM489.111 215.416c-0.337-32.133-26.296-58.092-58.396-58.428h-67.496c-32.435 0-58.729 26.294-58.729 58.729s26.294 58.729 58.729 58.729h67.464c32.342-0.341 58.428-26.638 58.428-59.028 0-0.001 0-0.002 0-0.003v0z" />
<glyph unicode="&#xe930;" glyph-name="Picto-Light_black48" d="M866.786 700.311h-709.572c-33.6 0-60.838-27.238-60.838-60.838v-446.344c0-33.6 27.238-60.838 60.838-60.838h709.572c0.001 0 0.002 0 0.003 0 33.388 0 60.494 26.896 60.834 60.203v446.978c0 33.6-27.238 60.838-60.838 60.838v0zM157.214 682.24h709.572c23.62 0 42.767-19.147 42.767-42.767v0-64.452h-795.106v64.452c0 23.62 19.147 42.767 42.767 42.767v0zM866.786 149.76h-709.572c-23.62 0-42.767 19.147-42.767 42.767v0 364.424h795.106v-363.821c0.003-0.179 0.004-0.391 0.004-0.602 0-23.62-19.147-42.767-42.767-42.767-0.001 0-0.003 0-0.004 0v0zM686.682 289.506h113.845v-18.071h-113.845v18.071zM212.631 289.506h113.845v-18.071h-113.845v18.071zM212.631 393.111h228.894v-18.071h-228.894v18.071z" />
<glyph unicode="&#xe931;" glyph-name="Picto-Light_black49" d="M637.289 508.762h-251.784c-0.18-0.003-0.393-0.005-0.607-0.005-22.079 0-40.016 17.73-40.353 39.728v86.168c0.668 21.767 18.473 39.158 40.34 39.158 0.218 0 0.436-0.002 0.653-0.005h251.751c11.001-0.025 20.98-4.383 28.323-11.457l-0.013 0.012c7.427-7.042 12.048-16.979 12.048-27.996 0-0.111 0-0.221-0.001-0.331v0.017-85.534c-0.339-22.028-18.276-39.755-40.353-39.755-0.002 0-0.003 0-0.005 0v0zM385.506 655.736c-0.010 0-0.021 0-0.033 0-11.885 0-21.597-9.303-22.252-21.024l-0.003-0.058v-86.136c0.336-12.047 10.182-21.685 22.279-21.685 0.003 0 0.006 0 0.009 0h251.783c0.010 0 0.021 0 0.033 0 11.885 0 21.597 9.303 22.252 21.024l0.003 0.058v86.739c-0.007 5.952-2.552 11.308-6.611 15.046l-0.014 0.013c-4.134 4.096-9.825 6.626-16.107 6.626-0.055 0-0.11 0-0.165-0.001h0.008zM475.859 312.395h77.101v-18.071h-77.101v18.071zM353.581 312.395h77.101v-18.071h-77.101v18.071zM591.511 312.395h77.101v-18.071h-77.101v18.071zM475.859 165.421h77.101v-18.071h-77.101v18.071zM371.049 165.421h60.235v-18.071h-60.235v18.071zM591.511 165.421h60.235v-18.071h-60.235v18.071zM475.859 383.473h77.101v-18.071h-77.101v18.071zM353.581 455.153h122.278v-18.071h-122.278v18.071zM353.581 383.473h77.101v-18.071h-77.101v18.071zM553.562 455.153h115.049v-18.071h-115.049v18.071zM591.511 383.473h77.101v-18.071h-77.101v18.071zM475.859 238.908h77.101v-18.071h-77.101v18.071zM353.581 238.908h77.101v-18.071h-77.101v18.071zM591.511 238.908h77.101v-18.071h-77.101v18.071zM752.339 752.715h-39.153v90.955c0 24.95-20.226 45.176-45.176 45.176v0h-306.598c-24.95 0-45.176-20.226-45.176-45.176v0-90.955h-41.562c-4.99 0-9.035-4.045-9.035-9.035v0-527.661c0.341-89.351 72.682-161.692 162-162.033h83.76c4.651-36.496 35.503-64.428 72.882-64.452h49.998c30.606 0 55.416-24.811 55.416-55.416h18.071c0 40.586-32.901 73.487-73.487 73.487h-49.995c-0.041 0-0.090 0-0.139 0-27.415 0-50.18 19.907-54.629 46.054l-0.046 0.327h69.873c89.351 0.341 161.692 72.682 162.033 162v527.694c0 4.99-4.045 9.035-9.035 9.035v0zM334.306 843.671c0 14.97 12.136 27.106 27.106 27.106v0h306.598c14.97 0 27.106-12.136 27.106-27.106v0-90.955h-46.984v69.873c0 4.99-4.045 9.035-9.035 9.035v0h-70.475c-4.99 0-9.035-4.045-9.035-9.035v0-69.873h-225.28zM630.061 752.715h-52.405v60.838h52.405zM743.304 216.019c-0.341-79.371-64.591-143.622-143.93-143.962h-171.704c-79.371 0.341-143.622 64.591-143.962 143.93v518.659h459.595z" />
<glyph unicode="&#xe932;" glyph-name="Picto-Light_black50" d="M730.654-56.847h-437.308c-55.419 0.339-100.253 45.174-100.593 100.56v744.541c0.339 55.419 45.174 100.253 100.56 100.593h437.341c55.419-0.339 100.253-45.174 100.593-100.56v-744.541c-0.339-55.419-45.174-100.253-100.56-100.593h-0.033zM293.346 870.776c-0.179 0.001-0.391 0.002-0.602 0.002-45.576 0-82.522-36.947-82.522-82.522 0-0.001 0-0.002 0-0.002v0-744.508c0-45.576 36.947-82.522 82.522-82.522h437.308c45.576 0 82.522 36.947 82.522 82.522v0 744.508c0 0.001 0 0.001 0 0.002 0 45.364-36.604 82.179-81.888 82.52h-0.032zM734.268 426.24h-444.536c-4.99 0-9.035 4.045-9.035 9.035v0 367.435c0 4.99 4.045 9.035 9.035 9.035v0h444.536c4.99 0 9.035-4.045 9.035-9.035v0-367.435c0-4.99-4.045-9.035-9.035-9.035v0zM298.767 444.311h426.466v349.365h-426.466zM462.005 335.285h100.593v-18.071h-100.593v18.071zM462.005 240.113h100.593v-18.071h-100.593v18.071zM462.005 147.351h100.593v-18.071h-100.593v18.071zM462.005 51.576h100.593v-18.071h-100.593v18.071zM272.866 335.285h100.593v-18.071h-100.593v18.071zM272.866 240.113h100.593v-18.071h-100.593v18.071zM272.866 147.351h100.593v-18.071h-100.593v18.071zM272.866 51.576h100.593v-18.071h-100.593v18.071zM633.675 335.285h100.593v-18.071h-100.593v18.071zM633.675 240.113h100.593v-18.071h-100.593v18.071zM633.675 147.351h100.593v-18.071h-100.593v18.071zM633.675 51.576h100.593v-18.071h-100.593v18.071zM487.906 553.336c-0.14-0.008-0.305-0.012-0.47-0.012-2.381 0-4.547 0.921-6.161 2.427l-52.4 52.4 13.252 12.649 45.779-45.779 108.424 107.821 12.649-12.649-114.447-114.447c-1.609-1.5-3.775-2.422-6.156-2.422-0.165 0-0.33 0.004-0.493 0.013l0.023-0.001z" />
<glyph unicode="&#xe933;" glyph-name="Picto-Light_black51" d="M524.649 416v0l393.939 393.939-12.649 12.649-393.939-393.939-393.939 393.939-12.649-12.649 393.939-393.939-393.939-393.939 12.649-12.649 393.939 393.939 393.939-393.939 12.649 12.649-393.939 393.939z" />
<glyph unicode="&#xe934;" glyph-name="Picto-Light_black52" d="M242.748 303.36c-53.227 0-96.376 43.149-96.376 96.376s43.149 96.376 96.376 96.376c53.227 0 96.376-43.149 96.376-96.376v0c0-53.227-43.149-96.376-96.376-96.376v0zM242.748 478.042c-43.247 0-78.306-35.059-78.306-78.306s35.059-78.306 78.306-78.306c43.247 0 78.306 35.059 78.306 78.306v0c0 43.247-35.059 78.306-78.306 78.306v0zM784.866 452.141c-53.227 0-96.376 43.149-96.376 96.376s43.149 96.376 96.376 96.376c53.227 0 96.376-43.149 96.376-96.376v0c0-53.227-43.149-96.376-96.376-96.376v0zM784.866 626.824c-43.247 0-78.306-35.059-78.306-78.306s35.059-78.306 78.306-78.306c43.247 0 78.306 35.059 78.306 78.306v0c0 43.247-35.059 78.306-78.306 78.306v0zM504.169 506.955c-0.14-0.008-0.305-0.012-0.47-0.012-2.381 0-4.547 0.921-6.161 2.427l0.005-0.005-75.896 76.499h-222.268c-4.99 0-9.035 4.045-9.035 9.035v0 284.913c0 4.99 4.045 9.035 9.035 9.035v0h354.786c4.99 0 9.035-4.045 9.035-9.035v0-285.515c0-4.99-4.045-9.035-9.035-9.035v0h-40.96v-69.271c0.001-0.045 0.001-0.098 0.001-0.151 0-3.683-2.204-6.852-5.365-8.259l-0.057-0.023zM425.261 603.934c0.14 0.008 0.305 0.012 0.47 0.012 2.381 0 4.547-0.921 6.161-2.427l-0.005 0.005 63.247-63.849v56.621c0 4.99 4.045 9.035 9.035 9.035v0h41.562v267.445h-337.318v-267.445h216.847zM993.882 117.233h-67.464v166.249c0 53.227-43.149 96.376-96.376 96.376v0h-90.353c-53.227 0-96.376-43.149-96.376-96.376v0-166.249h-259.012v16.866c0 53.227-43.149 96.376-96.376 96.376v0h-90.353c-53.227 0-96.376-43.149-96.376-96.376v0-16.866h-71.078v-18.071h71.078v-165.045h18.071v200.584c0 43.247 35.059 78.306 78.306 78.306v0h90.353c43.247 0 78.306-35.059 78.306-78.306v0-200.584h18.071v165.045h609.581zM661.384 283.482c0 43.247 35.059 78.306 78.306 78.306v0h90.353c43.247 0 78.306-35.059 78.306-78.306v0-166.249h-246.965z" />
<glyph unicode="&#xe935;" glyph-name="Picto-Light_black53" d="M806.551-66.485h-18.071v56.621h-550.551v-56.621h-18.071v65.656c0 4.99 4.045 9.035 9.035 9.035v0h568.621c4.99 0 9.035-4.045 9.035-9.035v0zM504.169 897.28h18.071v-759.989h-18.071v759.989zM466.221 719.586h-270.456c-0.045 0.001-0.098 0.001-0.151 0.001-3.683 0-6.852-2.204-8.259-5.365l-0.023-0.057-126.494-292.744c-1.467-1.578-2.377-3.692-2.409-6.017v-1.211c0-75.849 61.488-137.336 137.336-137.336s137.336 61.488 137.336 137.336v0 1.205c-0.032 2.332-0.942 4.445-2.415 6.029l0.005-0.006-121.073 280.094h256.602zM195.765 687.661l114.447-263.228h-228.292zM195.765 296.132c-62.579 0.141-113.829 48.455-118.638 109.818l-0.026 0.412h237.929c-4.842-61.865-56.234-110.231-118.923-110.231-0.12 0-0.241 0-0.361 0.001h0.019zM316.235 78.682h392.734v-18.071h-392.734v18.071zM964.969 421.421l-126.494 292.744c-1.43 3.219-4.598 5.422-8.282 5.422-0.053 0-0.106 0-0.159-0.001h-271.051v-18.071h257.807l-121.675-280.094c-1.467-1.578-2.377-3.692-2.409-6.017v-1.211c0-75.849 61.488-137.336 137.336-137.336s137.336 61.488 137.336 137.336v0 1.205c-0.032 2.332-0.942 4.445-2.415 6.029l0.005-0.006zM943.887 424.433h-227.689l113.845 263.228zM830.042 296.132c-62.579 0.141-113.829 48.455-118.638 109.818l-0.026 0.412h237.929c-4.842-61.865-56.234-110.231-118.923-110.231-0.12 0-0.241 0-0.361 0.001h0.019z" />
<glyph unicode="&#xe936;" glyph-name="Picto-Light_black54" d="M298.767 62.419c-0.106 0-0.23 0-0.355 0-79.841 0-144.565 64.724-144.565 144.565 0 40.009 16.253 76.222 42.516 102.397l192.155 192.155c26.179 26.267 62.391 42.52 102.4 42.52s76.221-16.253 102.396-42.516l0.004-0.004-12.649-12.649c-22.891 22.894-54.517 37.054-89.449 37.054s-66.558-14.16-89.449-37.054v0l-192.753-192.151c-22.892-22.892-37.051-54.517-37.051-89.449 0-69.864 56.636-126.501 126.501-126.501 34.932 0 66.557 14.159 89.449 37.051v0l74.692 74.692 12.649-12.649-74.089-74.692c-26.146-26.358-62.358-42.697-102.386-42.767h-0.014zM524.047 288.301c-0.179-0.001-0.391-0.001-0.603-0.001-39.754 0-75.745 16.114-101.797 42.166v0l12.649 12.649c22.891-22.894 54.517-37.054 89.449-37.054s66.558 14.16 89.449 37.054l191.548 191.548c23.072 22.922 37.353 54.668 37.353 89.751 0 69.865-56.637 126.501-126.501 126.501-34.783 0-66.286-14.038-89.155-36.757l-74.685-74.685-12.649 12.649 74.692 74.692c26.206 26.206 62.41 42.415 102.4 42.415 79.979 0 144.815-64.836 144.815-144.815 0-39.99-16.209-76.194-42.415-102.4v0l-192.151-191.548c-26.052-26.052-62.043-42.166-101.797-42.166-0.212 0-0.424 0-0.635 0.001h0.033zM182.407 694.489l12.778 12.778 95.365-95.365-12.778-12.778-95.365 95.365zM356.593 774.4h18.071v-134.867h-18.071v134.867zM115.049 533.459h134.927v-18.071h-134.927v18.071z" />
<glyph unicode="&#xe937;" glyph-name="Picto-Light_black55" d="M852.932 897.882c-0.043 0-0.095 0-0.146 0-72.855 0-131.915-59.060-131.915-131.915 0-16.212 2.925-31.741 8.275-46.088l-0.298 0.911-449.958-202.993c-22.514 42.393-66.388 70.772-116.889 70.772-72.855 0-131.915-59.060-131.915-131.915s59.060-131.915 131.915-131.915c41.916 0 79.265 19.549 103.428 50.028l0.209 0.274 324.668-242.748c-11.36-19.138-18.074-42.19-18.074-66.81 0-73.187 59.33-132.518 132.518-132.518s132.518 59.33 132.518 132.518c0 73.187-59.33 132.518-132.518 132.518-42.16 0-79.721-19.688-103.992-50.371l-0.212-0.278-324.668 242.748c11.36 19.085 18.075 42.083 18.075 66.649 0 16.066-2.872 31.461-8.131 45.7l0.295-0.914 449.958 202.993c22.563-42.229 66.35-70.475 116.734-70.475 72.855 0 131.915 59.060 131.915 131.915 0 72.812-58.991 131.845-131.786 131.915h-0.007zM704.151 179.878c62.875 0 113.845-50.97 113.845-113.845s-50.97-113.845-113.845-113.845c-62.875 0-113.845 50.97-113.845 113.845v0c0 62.875 50.97 113.845 113.845 113.845v0zM162.033 342.513c-62.875 0-113.845 50.97-113.845 113.845s50.97 113.845 113.845 113.845c62.875 0 113.845-50.97 113.845-113.845v0c0-62.875-50.97-113.845-113.845-113.845v0zM852.932 652.122c-62.875 0-113.845 50.97-113.845 113.845s50.97 113.845 113.845 113.845c62.875 0 113.845-50.97 113.845-113.845v0c0-62.875-50.97-113.845-113.845-113.845v0z" />
<glyph unicode="&#xe938;" glyph-name="Picto-Light_black56" d="M512 0.376c-59.215 0-107.219 48.004-107.219 107.219v0h18.071c0-49.235 39.913-89.148 89.148-89.148s89.148 39.913 89.148 89.148v0h18.071c0-59.215-48.004-107.219-107.219-107.219v0zM836.066 186.504l-135.529 281.299v151.793c0 0.001 0 0.001 0 0.002 0 59.215-48.004 107.219-107.219 107.219-0.212 0-0.423-0.001-0.635-0.002h-71.647v95.774h-18.071v-95.774h-71.68c-0.179 0.001-0.391 0.002-0.602 0.002-59.215 0-107.219-48.004-107.219-107.219 0-0.001 0-0.001 0-0.002v0-151.793l-135.529-281.299c-0.661-1.225-1.050-2.681-1.050-4.228 0-4.99 4.045-9.035 9.035-9.035 0.157 0 0.314 0.004 0.47 0.012l-0.022-0.001h631.868c0.134-0.007 0.29-0.011 0.448-0.011 4.99 0 9.035 4.045 9.035 9.035 0 1.547-0.389 3.003-1.074 4.276l0.024-0.048zM210.221 191.322l127.699 263.831h225.882v18.071h-222.268v146.372c0 0.001 0 0.001 0 0.002 0 49.235 39.913 89.148 89.148 89.148 0.212 0 0.423-0.001 0.635-0.002h161.399c49.235 0 89.148-39.913 89.148-89.148v-154.202c-0.027-0.26-0.042-0.561-0.042-0.866 0-1.207 0.237-2.358 0.666-3.41l-0.022 0.060 130.711-269.854z" />
<glyph unicode="&#xe939;" glyph-name="Picto-Light_black57" d="M772.819-57.449h-515.614c-38.257 0-69.271 31.013-69.271 69.271v0 807.153c0 38.257 31.013 69.271 69.271 69.271v0h515.614c38.257 0 69.271-31.013 69.271-69.271v0-807.153c0-38.257-31.013-69.271-69.271-69.271v0zM257.205 870.174c-28.277 0-51.2-22.923-51.2-51.2v0-807.153c0-28.277 22.923-51.2 51.2-51.2v0h515.614c28.277 0 51.2 22.923 51.2 51.2v0 807.153c0 28.277-22.923 51.2-51.2 51.2v0zM725.835 546.108h-415.021c-4.99 0-9.035 4.045-9.035 9.035v0 203.595c0 4.99 4.045 9.035 9.035 9.035v0h415.021c4.99 0 9.035-4.045 9.035-9.035v0-203.595c0-4.99-4.045-9.035-9.035-9.035v0zM319.849 564.179h396.951v185.525h-396.951zM725.835 52.179h-92.16c-4.99 0-9.035 4.045-9.035 9.035v0 94.569c0 4.99 4.045 9.035 9.035 9.035v0h92.762c4.99 0 9.035-4.045 9.035-9.035v0-94.569c0-0.006 0-0.013 0-0.020 0-4.99-4.045-9.035-9.035-9.035-0.212 0-0.422 0.007-0.63 0.022l0.028-0.002zM642.108 70.249h74.692v76.499h-74.089zM295.755 447.925h92.762v-18.071h-92.762v18.071zM295.755 259.388h92.762v-18.071h-92.762v18.071zM295.755 70.249h92.762v-18.071h-92.762v18.071zM648.734 447.925h92.762v-18.071h-92.762v18.071zM295.755 353.355h92.762v-18.071h-92.762v18.071zM295.755 164.819h92.762v-18.071h-92.762v18.071zM472.245 447.925h92.762v-18.071h-92.762v18.071zM472.245 259.388h92.762v-18.071h-92.762v18.071zM472.245 70.249h92.762v-18.071h-92.762v18.071zM472.245 353.355h92.762v-18.071h-92.762v18.071zM472.245 164.819h92.762v-18.071h-92.762v18.071zM648.734 259.388h92.762v-18.071h-92.762v18.071zM648.734 353.355h92.762v-18.071h-92.762v18.071z" />
<glyph unicode="&#xe93a;" glyph-name="Picto-Light_black58" d="M105.412 425.035h813.176v-18.071h-813.176v18.071z" />
<glyph unicode="&#xe93b;" glyph-name="Picto-Light_black59" d="M583.68 37.12h84.932v-18.071h-84.932v18.071zM760.772 676.216h-269.252c-41.584 0-75.294-33.71-75.294-75.294v0-582.475c0-41.584 33.71-75.294 75.294-75.294v0h269.252c41.584 0 75.294 33.71 75.294 75.294v0 582.475c0 41.584-33.71 75.294-75.294 75.294v0zM491.52 658.146h269.252c31.604 0 57.224-25.62 57.224-57.224v0-66.861h-383.699v66.861c0 31.604 25.62 57.224 57.224 57.224v0zM817.995 515.991v-410.202h-383.699v410.202zM760.772-38.776h-269.252c-31.604 0-57.224 25.62-57.224 57.224v0 68.668h383.699v-68.668c0-31.604-25.62-57.224-57.224-57.224v0zM187.934 667.181h18.071c0.341 112.305 91.29 203.254 203.563 203.595h0.032v18.071c-122.285-0.342-221.324-99.381-221.666-221.633v-0.032zM259.012 667.181h18.071c0.34 73.050 59.468 132.177 132.485 132.518h0.032v18.071c-83.030-0.341-150.248-67.558-150.588-150.556v-0.033zM330.089 667.181h18.071c0 0.001 0 0.002 0 0.003 0 34.053 27.435 61.699 61.408 62.039h0.032v18.071c-43.985-0.341-79.511-36.077-79.511-80.111 0-0.001 0-0.002 0-0.002v0z" />
<glyph unicode="&#xe93c;" glyph-name="Picto-Light_black60" d="M463.812 104.584h96.979v-18.071h-96.979v18.071zM674.033 831.624h-324.066c-41.584 0-75.294-33.71-75.294-75.294v0-680.659c0-41.584 33.71-75.294 75.294-75.294v0h324.668c41.584 0 75.294 33.71 75.294 75.294v0 680.659c0 0.001 0 0.002 0 0.002 0 41.584-33.71 75.294-75.294 75.294-0.212 0-0.423-0.001-0.635-0.003h0.032zM349.967 813.553h324.668c31.604 0 57.224-25.62 57.224-57.224v0-86.739h-439.115v86.739c0 31.604 25.62 57.224 57.224 57.224v0zM731.859 651.52v-469.233h-439.115v469.233zM674.033 18.447h-324.066c-31.604 0-57.224 25.62-57.224 57.224v0 88.546h439.115v-88.546c0-0.001 0-0.002 0-0.003 0-31.604-25.62-57.224-57.224-57.224-0.212 0-0.423 0.001-0.635 0.003h0.032z" />
<glyph unicode="&#xe93d;" glyph-name="Picto-Light_black61" d="M777.638 104.584h-478.268v18.071h478.268c103.745 0.936 187.485 85.255 187.485 189.132 0 92.589-66.53 169.64-154.393 185.954l-1.167 0.18-5.421 1.205-1.807 5.421c-25.556 75.852-96.041 129.506-179.057 129.506-0.156 0-0.312 0-0.468-0.001h0.024v18.071c0.038 0 0.082 0 0.127 0 89.045 0 164.933-56.331 193.972-135.301l0.461-1.433c95.193-20.005 165.638-103.274 165.638-202.996 0-114.012-92.080-206.517-205.931-207.206h-0.065zM246.362 104.584c-114.030 0.539-206.26 93.102-206.26 207.207 0 89.476 56.713 165.706 136.152 194.705l1.44 0.46c0 4.216-0.602 9.035-0.602 13.252 0.044 114.405 92.798 207.133 207.209 207.133 72.283 0 135.921-37.011 172.997-93.116l0.48-0.774-15.059-9.638c-34.349 51.457-92.179 84.893-157.818 84.893-104.233 0-188.773-84.315-189.138-188.463v-0.035c0-6.024 0.602-12.649 1.205-18.673v-7.228l-7.228-2.409c-76.866-25.19-131.403-96.282-131.403-180.111 0-103.855 83.704-188.159 187.33-189.13l0.092-0.001z" />
<glyph unicode="&#xe93e;" glyph-name="Picto-Light_black62" d="M512 737.656c-41.916 0-75.896 33.98-75.896 75.896s33.98 75.896 75.896 75.896c41.916 0 75.896-33.98 75.896-75.896v0c0-41.916-33.98-75.896-75.896-75.896v0zM512 870.776c-31.935-0.002-57.823-25.891-57.823-57.826 0-31.936 25.89-57.826 57.826-57.826s57.826 25.89 57.826 57.826c0 0.212-0.001 0.423-0.003 0.635v-0.032c-0.34 31.676-26.098 57.224-57.823 57.224-0.001 0-0.002 0-0.003 0v0zM696.922-62.871h-369.845c-4.99 0-9.035 4.045-9.035 9.035v0 614.4c0 4.99 4.045 9.035 9.035 9.035v0h369.242c4.99 0 9.035-4.045 9.035-9.035v0 0-614.4c0-0.006 0-0.013 0-0.020 0-4.778-3.709-8.69-8.405-9.014l-0.028-0.002zM336.715-44.8h351.172v596.329h-351.774zM148.179 87.115c0.001 0 0.002 0 0.002 0 41.584 0 75.294 33.71 75.294 75.294 0 0.212-0.001 0.423-0.003 0.635v-0.032c-0.343 41.656-34.19 75.292-75.894 75.292-41.916 0-75.896-33.98-75.896-75.896s33.98-75.896 75.896-75.896c0.211 0 0.422 0.001 0.632 0.003h-0.032zM148.179 220.235v0c31.604 0 57.224-25.62 57.224-57.224v0 0c-0.342-31.675-26.099-57.22-57.823-57.22-31.936 0-57.826 25.89-57.826 57.826s25.89 57.826 57.826 57.826c0.211 0 0.421-0.001 0.631-0.003h-0.032zM257.807-39.379c0.002 0.18 0.002 0.392 0.002 0.605 0 41.040-33.1 74.35-74.060 74.689h-70.507c-40.992-0.34-74.092-33.649-74.092-74.689 0-0.213 0.001-0.425 0.003-0.637v0.032-26.504h18.071v26.504c-0.002 0.18-0.003 0.393-0.003 0.606 0 31.060 25.010 56.279 55.99 56.618h70.507c31.012-0.339 56.022-25.558 56.022-56.618 0-0.213-0.001-0.426-0.004-0.638v0.032-26.504h18.071v26.504zM148.179 463.586c0.001 0 0.002 0 0.002 0 41.584 0 75.294 33.71 75.294 75.294 0 0.212-0.001 0.423-0.003 0.635v-0.032c-0.001 41.915-33.981 75.894-75.896 75.894s-75.896-33.98-75.896-75.896c0-41.916 33.98-75.896 75.896-75.896 0.212 0 0.423 0.001 0.635 0.003h-0.032zM148.179 596.706v0c31.604 0 57.224-25.62 57.224-57.224v0 0c0.002-0.178 0.003-0.389 0.003-0.599 0-31.936-25.89-57.826-57.826-57.826s-57.826 25.89-57.826 57.826c0 31.936 25.89 57.826 57.826 57.826 0.211 0 0.421-0.001 0.631-0.003h-0.032zM257.807 337.092c0.002 0.18 0.002 0.392 0.002 0.605 0 41.040-33.1 74.35-74.060 74.689h-70.507c-40.992-0.34-74.092-33.649-74.092-74.689 0-0.213 0.001-0.425 0.003-0.637v0.032-26.504h18.071v26.504c-0.002 0.18-0.003 0.393-0.003 0.606 0 31.060 25.010 56.279 55.99 56.618h70.507c31.012-0.339 56.022-25.558 56.022-56.618 0-0.213-0.001-0.426-0.004-0.638v0.032-26.504h18.071v26.504zM874.616 87.115c0.001 0 0.002 0 0.002 0 41.584 0 75.294 33.71 75.294 75.294 0 0.212-0.001 0.423-0.003 0.635v-0.032c-0.343 41.656-34.19 75.292-75.894 75.292-41.916 0-75.896-33.98-75.896-75.896s33.98-75.896 75.896-75.896c0.211 0 0.422 0.001 0.632 0.003h-0.032zM874.616 220.235v0c31.604 0 57.224-25.62 57.224-57.224v0 0c-0.342-31.675-26.099-57.22-57.823-57.22-31.936 0-57.826 25.89-57.826 57.826s25.89 57.826 57.826 57.826c0.211 0 0.421-0.001 0.631-0.003h-0.032zM984.245-39.379c0.002 0.18 0.002 0.392 0.002 0.605 0 41.040-33.1 74.35-74.060 74.689h-70.507c-40.992-0.34-74.092-33.649-74.092-74.689 0-0.213 0.001-0.425 0.003-0.637v0.032-26.504h18.071v26.504c-0.002 0.18-0.003 0.393-0.003 0.606 0 31.060 25.010 56.279 55.99 56.618h70.507c31.012-0.339 56.022-25.558 56.022-56.618 0-0.213-0.001-0.426-0.004-0.638v0.032-26.504h18.071v26.504zM874.616 463.586c0.001 0 0.002 0 0.002 0 41.584 0 75.294 33.71 75.294 75.294 0 0.212-0.001 0.423-0.003 0.635v-0.032c-0.343 41.656-34.19 75.292-75.894 75.292-41.916 0-75.896-33.98-75.896-75.896s33.98-75.896 75.896-75.896c0.211 0 0.422 0.001 0.632 0.003h-0.032zM874.616 596.706v0c31.604 0 57.224-25.62 57.224-57.224v0 0c-0.342-31.675-26.099-57.22-57.823-57.22-31.936 0-57.826 25.89-57.826 57.826s25.89 57.826 57.826 57.826c0.211 0 0.421-0.001 0.631-0.003h-0.032zM984.245 337.092c0.002 0.18 0.002 0.392 0.002 0.605 0 41.040-33.1 74.35-74.060 74.689h-70.507c-40.992-0.34-74.092-33.649-74.092-74.689 0-0.213 0.001-0.425 0.003-0.637v0.032-26.504h18.071v26.504c-0.002 0.18-0.003 0.393-0.003 0.606 0 31.060 25.010 56.279 55.99 56.618h70.507c31.012-0.339 56.022-25.558 56.022-56.618 0-0.213-0.001-0.426-0.004-0.638v0.032-26.504h18.071v26.504zM622.231 611.162c0.002 0.179 0.002 0.391 0.002 0.602 0 41.251-33.441 74.692-74.692 74.692-0.001 0-0.002 0-0.002 0h-71.078c-0.001 0-0.002 0-0.002 0-41.251 0-74.692-33.441-74.692-74.692 0-0.212 0.001-0.423 0.003-0.635v0.032-6.024h18.071v6.024c-0.002 0.179-0.003 0.391-0.003 0.602 0 31.271 25.35 56.621 56.621 56.621 0.001 0 0.002 0 0.003 0h71.077c0.001 0 0.002 0 0.003 0 31.271 0 56.621-25.35 56.621-56.621 0-0.212-0.001-0.423-0.003-0.635v0.032-6.024h18.071v6.024z" />
<glyph unicode="&#xe93f;" glyph-name="Picto-Light_black63" d="M841.487 222.042c-0.089 0-0.195 0-0.301 0-21.753 0-42.364-4.886-60.797-13.62l0.863 0.368-125.892 233.111c-1.521 2.842-4.445 4.756-7.822 4.819h-106.624v-18.071h101.195l123.482-228.292c-40.278-25.834-66.587-70.38-66.587-121.070 0-79.176 64.184-143.36 143.36-143.36s143.36 64.184 143.36 143.36c0 79.176-64.184 143.36-143.36 143.36-0.308 0-0.616-0.001-0.924-0.003h0.047zM841.487-47.812c-69.343 0.245-125.461 56.514-125.461 125.891 0 44.315 22.898 83.283 57.507 105.717l0.491 0.298 59.633-110.231 15.661 8.433-59.633 110.833c15.192 7.191 33 11.406 51.789 11.445h0.014c69.528 0 125.892-56.364 125.892-125.892s-56.364-125.892-125.892-125.892v0zM816.188 303.36h24.696c4.99 0 9.035 4.045 9.035 9.035v0 91.558c0 4.99-4.045 9.035-9.035 9.035v0h-24.094c-0.089 0.001-0.195 0.001-0.301 0.001-30.273 0-54.815-24.541-54.815-54.815 0-30.168 24.37-54.643 54.497-54.814h0.016zM816.791 394.918h15.059v-73.487h-15.059c-20.293 0-36.744 16.451-36.744 36.744s16.451 36.744 36.744 36.744v0zM574.042 353.958h-75.294c-40.561-0.051-74.409-28.73-82.426-66.914l-0.096-0.549h-266.24c-4.99 0-9.035-4.045-9.035-9.035s4.045-9.035 9.035-9.035v0h31.322c107.099-0.22 194.42-84.595 199.362-190.501l0.017-0.445h-55.416c-4.893 75.191-67.078 134.325-143.075 134.325-79.176 0-143.36-64.184-143.36-143.36s64.184-143.36 143.36-143.36c75.997 0 138.182 59.134 143.053 133.899l0.022 0.425h65.054c4.99 0 9.035 4.045 9.035 9.035v0c0 0.055 0 0.121 0 0.186 0 88.831-53.119 165.256-129.325 199.243l-1.386 0.552h153.6c0.56-0.124 1.204-0.194 1.864-0.194 4.634 0 8.453 3.489 8.975 7.983l0.004 0.042c3.479 33.631 31.666 59.634 65.927 59.634 0.117 0 0.233 0 0.35-0.001h74.674c0.007 0 0.016 0 0.025 0 35.958 0 65.226-28.644 66.232-64.359l0.002-0.093-24.696-59.031h-187.934v-18.071h180.104l-49.393-116.254h-109.628v-18.071h116.254c0.045-0.001 0.098-0.001 0.151-0.001 3.683 0 6.852 2.204 8.259 5.365l0.023 0.057 84.932 201.186c0.386 0.967 0.609 2.088 0.609 3.262 0 0.124-0.002 0.247-0.007 0.37l0.001-0.018c-0.34 46.315-37.964 83.729-84.327 83.729-0.213 0-0.425-0.001-0.637-0.002h0.033zM182.513-56.847c-0.082 0-0.179 0-0.276 0-69.195 0-125.289 56.094-125.289 125.289s56.094 125.289 125.289 125.289c66.016 0 120.106-51.057 124.938-115.838l0.025-0.416h-124.687v-18.071h124.085c-4.832-64.895-58.441-115.779-124.037-116.254h-0.047z" />
<glyph unicode="&#xe940;" glyph-name="Picto-Light_black64" d="M237.929 499.125c-53.227 0-96.376 43.149-96.376 96.376s43.149 96.376 96.376 96.376c53.227 0 96.376-43.149 96.376-96.376v0c0-53.227-43.149-96.376-96.376-96.376v0zM237.929 673.807c-43.247 0-78.306-35.059-78.306-78.306s35.059-78.306 78.306-78.306c43.247 0 78.306 35.059 78.306 78.306v0c0 43.247-35.059 78.306-78.306 78.306v0zM283.106 426.842c53.227 0 96.376-43.149 96.376-96.376v0-386.108h-18.071v386.108c0 43.247-35.059 78.306-78.306 78.306v0h-90.353c-43.247 0-78.306-35.059-78.306-78.306v0-386.108h-18.071v386.108c0 53.227 43.149 96.376 96.376 96.376v0zM981.835 567.793l-243.953 197.572 38.551 32.527c9.328 9.456 15.088 22.452 15.088 36.793 0 0.618-0.011 1.234-0.032 1.846l0.002-0.089c0 28.942-23.462 52.405-52.405 52.405s-52.405-23.462-52.405-52.405v0h18.071c-0.001 0.089-0.001 0.195-0.001 0.301 0 18.963 15.372 34.335 34.335 34.335 18.857 0 34.164-15.201 34.334-34.018v-0.016c-0.012-0.18-0.019-0.39-0.019-0.602s0.007-0.422 0.020-0.631l-0.001 0.028c0.019-0.421 0.029-0.916 0.029-1.412 0-9.586-3.929-18.255-10.264-24.484l-0.005-0.005-289.732-242.146c-2.204-1.666-3.614-4.282-3.614-7.228 0-4.99 4.045-9.035 9.035-9.035h496.941c4.99 0 9.035 4.045 9.035 9.035 0 2.946-1.41 5.562-3.591 7.212l-0.023 0.016zM504.772 569.6l218.654 183.718 227.087-183.718z" />
<glyph unicode="&#xe941;" glyph-name="Picto-Light_black65" d="M981.835 567.793l-243.953 197.572 38.551 32.527c9.328 9.456 15.088 22.452 15.088 36.793 0 0.618-0.011 1.234-0.032 1.846l0.002-0.089c0 28.942-23.462 52.405-52.405 52.405s-52.405-23.462-52.405-52.405v0h18.071c-0.001 0.089-0.001 0.195-0.001 0.301 0 18.963 15.372 34.335 34.335 34.335 18.857 0 34.164-15.201 34.334-34.018v-0.016c-0.012-0.18-0.019-0.39-0.019-0.602s0.007-0.422 0.020-0.631l-0.001 0.028c0.019-0.421 0.029-0.916 0.029-1.412 0-9.586-3.929-18.255-10.264-24.484l-0.005-0.005-289.732-242.146c-2.204-1.666-3.614-4.282-3.614-7.228 0-4.99 4.045-9.035 9.035-9.035h496.941c4.99 0 9.035 4.045 9.035 9.035 0 2.946-1.41 5.562-3.591 7.212l-0.023 0.016zM504.772 569.6l218.654 183.718 227.087-183.718zM237.929 498.522c-53.227 0-96.376 43.149-96.376 96.376s43.149 96.376 96.376 96.376c53.227 0 96.376-43.149 96.376-96.376v0c0-53.227-43.149-96.376-96.376-96.376v0zM237.929 673.205c-43.247 0-78.306-35.059-78.306-78.306s35.059-78.306 78.306-78.306c43.247 0 78.306 35.059 78.306 78.306v0c0 43.247-35.059 78.306-78.306 78.306v0zM421.647-46.005l-42.165 241.544v134.325c0 53.227-43.149 96.376-96.376 96.376v0h-90.353c-53.227 0-96.376-43.149-96.376-96.376v0-134.325l-42.165-241.544c-0.051-0.362-0.081-0.78-0.081-1.205 0-4.99 4.045-9.035 9.035-9.035 0.028 0 0.057 0 0.085 0h349.963c4.761 0.283 8.516 4.213 8.516 9.020 0 0.43-0.030 0.853-0.088 1.267l0.005-0.048zM277.082-38.174h-202.993l40.358 233.713v134.325c0 43.247 35.059 78.306 78.306 78.306v0h90.353c43.247 0 78.306-35.059 78.306-78.306v0-134.325l40.358-233.713z" />
<glyph unicode="&#xe942;" glyph-name="Picto-Light_black66" d="M786.673 888.847h-549.346c-41.584 0-75.294-33.71-75.294-75.294v0-792.094c0-41.584 33.71-75.294 75.294-75.294v0h549.346c41.584 0 75.294 33.71 75.294 75.294v0 792.094c0 41.584-33.71 75.294-75.294 75.294v0zM237.327 870.776h549.346c31.604 0 57.224-25.62 57.224-57.224v0-87.944h-663.793v87.944c0 31.604 25.62 57.224 57.224 57.224v0zM843.896 707.539v-577.054h-663.793v577.054zM786.673-35.765h-549.346c-31.604 0-57.224 25.62-57.224 57.224v0 90.353h663.793v-90.353c0-31.604-25.62-57.224-57.224-57.224v0zM471.642 48.565h80.715v-18.071h-80.715v18.071z" />
<glyph unicode="&#xe943;" glyph-name="Picto-Light_black67" d="M291.539 104.584h96.979v-18.071h-96.979v18.071zM120.471 75.671v88.546h219.256v18.071h-219.256v469.233h439.115v-110.231h18.071v215.040c0 41.584-33.71 75.294-75.294 75.294v0h-324.668c-41.584 0-75.294-33.71-75.294-75.294v0-680.659c0-41.584 33.71-75.294 75.294-75.294v0h324.668v18.071h-324.668c-31.604 0-57.224 25.62-57.224 57.224v0zM177.694 813.553h324.668c31.604 0 57.224-25.62 57.224-57.224v0-86.739h-439.115v86.739c0 31.604 25.62 57.224 57.224 57.224v0zM842.089 253.365l-24.094 92.16c-0.428 1.662-1.269 3.089-2.409 4.216l-130.109 130.109c-8.394 8.399-19.993 13.594-32.806 13.594-23.826 0-43.457-17.966-46.083-41.090l-0.020-0.213c-7.401 5.221-16.607 8.345-26.542 8.345-24.949 0-45.298-19.699-46.339-44.392l-0.003-0.094c-5.674 2.666-12.323 4.222-19.335 4.222-12.944 0-24.65-5.302-33.063-13.854l-0.006-0.006c-7.085-7.077-11.893-16.433-13.228-26.875l-0.024-0.231-69.271 68.668c-8.245 6.4-18.741 10.26-30.138 10.26-27.279 0-49.393-22.114-49.393-49.393 0-11.397 3.86-21.892 10.344-30.25l-0.084 0.112 187.934-187.934-45.176 9.035c-35.539 7.831-68.066-6.024-74.089-31.322s11.445-45.176 37.346-52.405l251.784-80.113 32.527-32.527 12.649 12.649-34.334 34.334-3.614 2.409-252.988 80.113c-16.866 4.819-28.311 18.673-25.299 31.322s27.106 23.492 52.405 18.071l74.692-15.059c0.565-0.126 1.215-0.198 1.881-0.198 4.99 0 9.035 4.045 9.035 9.035 0 2.413-0.946 4.605-2.487 6.225l0.004-0.004-209.619 209.016c-4.152 5.264-6.66 11.994-6.66 19.309 0 17.299 14.023 31.322 31.322 31.322 7.315 0 14.045-2.508 19.376-6.71l-0.067 0.051 191.548-191.548 12.649 12.649-96.376 96.376c-5.164 5.164-8.358 12.299-8.358 20.179 0 15.761 12.777 28.537 28.537 28.537 7.88 0 15.015-3.194 20.179-8.358l96.979-96.979 12.649 12.649-84.329 84.329c-5.164 5.164-8.358 12.299-8.358 20.179 0 15.761 12.777 28.537 28.537 28.537 7.88 0 15.015-3.194 20.179-8.358l84.329-84.329 12.649 12.649-64.452 65.054c-5.164 5.164-8.358 12.299-8.358 20.179 0 15.761 12.777 28.537 28.537 28.537 7.88 0 15.015-3.194 20.179-8.358v0l128.301-128.904 24.094-92.16c0.428-1.662 1.269-3.089 2.409-4.216l78.307-78.307 12.649 12.649zM354.184 550.325c0.113 0 0.246 0.001 0.38 0.001 53.865 0 100.613-30.476 123.94-75.126l0.367-0.771 16.264 8.433c-26.843 51.544-79.866 86.136-140.967 86.136-87.492 0-158.419-70.927-158.419-158.419s70.927-158.419 158.419-158.419c0.006 0 0.012 0 0.017 0h-0.001v18.071c-2.749-0.192-5.956-0.301-9.19-0.301-77.512 0-140.348 62.836-140.348 140.348s62.836 140.348 140.348 140.348c3.233 0 6.441-0.109 9.62-0.325l-0.43 0.023z" />
<glyph unicode="&#xe944;" glyph-name="Picto-Light_black68" d="M606.569 134.701v18.071c145.543 0 263.529 117.986 263.529 263.529s-117.986 263.529-263.529 263.529v0 18.071c155.523 0 281.6-126.077 281.6-281.6s-126.077-281.6-281.6-281.6v0zM606.569 794.278h-189.139c-202.321-8.33-363.186-174.367-363.186-377.976s160.865-369.647 362.433-377.952l0.752-0.025h189.741c202.321 8.33 363.186 174.367 363.186 377.976s-160.865 369.647-362.433 377.952l-0.752 0.025zM490.918 776.207c-54.027-17.87-100.489-45.682-139.406-81.556l0.262 0.239h-161.431c61.277 50.569 140.592 81.259 227.074 81.318h0.013zM169.864 676.819h163.84c-31.32-32.735-56.911-71.266-74.96-113.773l-0.936-2.481h-169.864c20.329 45.376 47.94 83.981 81.764 116.107l0.156 0.147zM228.894 425.035h-171.671c1.069 42.47 9.373 82.689 23.719 119.905l-0.829-2.446h170.466c-12.818-34.84-20.681-75.075-21.676-117.010l-0.008-0.448zM416.828 55.793c-195.551 0.274-354.562 156.331-359.595 350.705l-0.010 0.467h171.671c4.227-163.892 111.897-301.555 259.949-350.407l2.677-0.765zM606.569 55.793c-198.937 0-360.207 161.27-360.207 360.207s161.27 360.207 360.207 360.207c198.937 0 360.207-161.27 360.207-360.207v0c0-198.937-161.27-360.207-360.207-360.207v0z" />
<glyph unicode="&#xe945;" glyph-name="Picto-Light_black69" d="M420.442 402.146c-53.227 0-96.376 43.149-96.376 96.376s43.149 96.376 96.376 96.376c53.227 0 96.376-43.149 96.376-96.376v0c0-53.227-43.149-96.376-96.376-96.376v0zM420.442 576.828c-43.247 0-78.306-35.059-78.306-78.306s35.059-78.306 78.306-78.306c43.247 0 78.306 35.059 78.306 78.306v0c0 43.247-35.059 78.306-78.306 78.306v0zM893.289 221.44h-762.579v18.071h752.941v362.014h18.071v-371.652c-0.302-4.531-3.902-8.131-8.406-8.431l-0.027-0.001zM984.847 138.315h-761.976v18.071h752.941v362.616h18.071v-371.652c0-4.99-4.045-9.035-9.035-9.035v0zM801.129 693.685h-761.976c-4.99 0-9.035-4.045-9.035-9.035v0-371.652c0-4.99 4.045-9.035 9.035-9.035v0h761.976c4.99 0 9.035 4.045 9.035 9.035v0 371.652c0 4.99-4.045 9.035-9.035 9.035v0zM792.094 575.624h-45.779c-4.050 27.96-25.735 49.848-53.249 54.165l-0.36 0.047v45.779h99.991zM674.635 378.052v-55.416h-508.988v55.416c0 4.99-4.045 9.035-9.035 9.035v0c-25.283 0-45.779 20.496-45.779 45.779v0c-0.302 4.531-3.902 8.131-8.406 8.431l-0.027 0.001h-54.212v116.254h54.212c4.99 0 9.035 4.045 9.035 9.035v0c0 0.001 0 0.003 0 0.004 0 25.071 20.154 45.435 45.144 45.775h0.032c4.99 0 9.035 4.045 9.035 9.035v0 54.212h508.988v-54.212c0-4.99 4.045-9.035 9.035-9.035v0c25.023-0.34 45.176-20.704 45.176-45.775 0-0.001 0-0.003 0-0.004v0c0-4.99 4.045-9.035 9.035-9.035v0h54.212v-116.254h-54.212c-4.99 0-9.035-4.045-9.035-9.035v0c0-25.283-20.496-45.779-45.779-45.779v0c-4.531-0.302-8.131-3.902-8.431-8.406l-0.001-0.027zM147.576 675.614v-45.779c-27.875-4.364-49.559-26.252-53.568-53.867l-0.041-0.344h-45.779v99.991zM48.188 423.228h45.779c4.050-27.96 25.735-49.848 53.249-54.165l0.36-0.047v-47.586h-99.388zM692.706 322.033v47.586c27.875 4.364 49.559 26.252 53.568 53.867l0.041 0.344h45.779v-101.195z" />
</font>
</defs>
</svg>
