<svg id="PIKTO_REGULAR" xmlns="http://www.w3.org/2000/svg" viewBox="0 0 170 170"><title>regular_black</title><path d="M144.1,65.4v-6H25.9v6h18v87.1a3,3,0,0,0,3,3h76.3a3,3,0,0,0,3-3V65.4Zm-42,8.9a17.2,17.2,0,1,1-31.8-8.9H99.7A17,17,0,0,1,102.2,74.2ZM49.9,131.3h7.6a14.2,14.2,0,0,0,10.9,10.9v7.3H49.9Zm52.1,18.2v-7.3a14.2,14.2,0,0,0,10.9-10.9h7.3v18.2Zm18.2-24.2h-10a3,3,0,0,0-3,3,8.2,8.2,0,0,1-8.2,8.2,3,3,0,0,0-3,3v10H74.4v-10a3,3,0,0,0-3-3,8.2,8.2,0,0,1-8.2-8.2,3,3,0,0,0-3-3H49.9V65.4H63.6a23.2,23.2,0,1,0,42.8,0h13.7Z"/><path d="M149.2,23H20.8C14.4,23,9.2,29.1,9.2,36.7V76.4c0,7.6,5.2,13.8,11.6,13.8H37.1v-6H20.8c-3,0-5.6-3.6-5.6-7.8V36.7c0-4.2,2.6-7.8,5.6-7.8H149.2c3,0,5.6,3.6,5.6,7.8V76.4c0,4.2-2.6,7.8-5.6,7.8H135.9v6h13.3c6.4,0,11.6-6.2,11.6-13.8V36.7C160.8,29.1,155.6,23,149.2,23Z"/><rect x="124.7" y="40.8" width="19.4" height="6"/></svg>