<svg id="PIKTO_REGULAR" xmlns="http://www.w3.org/2000/svg" viewBox="0 0 170 170"><title>regular_black</title><path d="M44,132a16.5,16.5,0,1,0,16.5,16.5A16.5,16.5,0,0,0,44,132Zm0,27a10.5,10.5,0,1,1,10.5-10.5A10.5,10.5,0,0,1,44,159Z"/><path d="M125.1,132a16.5,16.5,0,1,0,16.5,16.5A16.5,16.5,0,0,0,125.1,132Zm0,27a10.5,10.5,0,1,1,10.5-10.5A10.5,10.5,0,0,1,125.1,159Z"/><rect x="85" y="115.8" width="19.4" height="6"/><rect x="65.6" y="146.3" width="36.9" height="6"/><path d="M148.5,152.5v-6.1H159V128.8a11.5,11.5,0,0,0-9.5-11.3l-28.5-5.2a3,3,0,0,1-1.4-.7L91.7,88H41L11.1,116.9l1.5,29.5h7.7v6H9.7a3,3,0,0,1-3-2.8L5,115.9a3,3,0,0,1,.9-2.3L37.7,82.8a3,3,0,0,1,2.1-.8h53a3,3,0,0,1,1.9.7l28.1,23.9,27.7,5A17.5,17.5,0,0,1,165,128.8v20.7a3,3,0,0,1-3,3Z"/></svg>