<svg id="PIKTO_REGULAR" xmlns="http://www.w3.org/2000/svg" viewBox="0 0 170 170"><title>regular_black</title><path d="M162,39.8h-9V29.3a3,3,0,0,0-3-3H87.6A17.1,17.1,0,0,0,70.9,12.7H32.1a3,3,0,0,0-3,3V26.3h-9a3,3,0,0,0-3,3V39.8H8a3,3,0,0,0-3,3v96.3a3,3,0,0,0,3,3H71.7a13.7,13.7,0,0,0,26.7,0H162a3,3,0,0,0,3-3V42.8A3,3,0,0,0,162,39.8Zm-15-7.6v91.8H88V32.3ZM35.1,18.7H70.9A11.1,11.1,0,0,1,82,29.8v85.3a15,15,0,0,0-9-3H35.1Zm-12,13.6h6v82.8a3,3,0,0,0,3,3H73a9,9,0,0,1,8.5,6H23.1ZM159,136.2H95.7a3,3,0,0,0-3,3,7.7,7.7,0,0,1-15.4,0,3,3,0,0,0-3-3H11V45.8h6v81.3a3,3,0,0,0,3,3H149.9a3,3,0,0,0,3-3V45.8h6Z"/></svg>