<svg id="PIKTO_REGULAR" xmlns="http://www.w3.org/2000/svg" viewBox="0 0 170 170"><title>regular_black</title><path d="M124.9,149.3a2.9,2.9,0,0,1-1.5-.4L85,125.4,46.6,148.9a2.9,2.9,0,0,1-4.3-3.1L52.7,102,18.5,72.7a2.9,2.9,0,0,1,1.7-5.1L65.1,64,82.3,22.4a2.9,2.9,0,0,1,5.3,0L104.9,64l44.9,3.6a2.9,2.9,0,0,1,1.7,5.1L117.3,102l10.5,43.8a2.9,2.9,0,0,1-2.8,3.6ZM85,119.1a2.9,2.9,0,0,1,1.5.4l34,20.8-9.3-38.7a2.9,2.9,0,0,1,.9-2.9l30.3-25.9-39.7-3.2a2.9,2.9,0,0,1-2.4-1.8L85,31.1,69.7,67.9a2.9,2.9,0,0,1-2.4,1.8L27.6,72.8,57.8,98.7a2.9,2.9,0,0,1,.9,2.9l-9.3,38.7,34-20.8A2.9,2.9,0,0,1,85,119.1Z"/></svg>