<svg id="PIKTO_REGULAR" xmlns="http://www.w3.org/2000/svg" viewBox="0 0 170 170"><title>regular_black</title><rect x="107" y="17" width="6" height="12.63"/><rect x="138.1" y="34.6" width="12.6" height="5.98" transform="translate(15.7 113.1) rotate(-45)"/><rect x="152.4" y="69" width="12.6" height="5.98"/><rect x="141.4" y="100.1" width="6" height="12.63" transform="translate(-33 133.3) rotate(-45)"/><rect x="72.6" y="31.3" width="6" height="12.63" transform="translate(-4.4 64.4) rotate(-45)"/><path d="M125.1,98.5A30.5,30.5,0,1,0,83.3,57.3l5.2,2.9a24.5,24.5,0,1,1,29.1,35.1l-1.6-.4A30.4,30.4,0,0,0,87.8,75.6v6A24.4,24.4,0,0,1,111,98.4l.6,1.7,1.8.3a24.5,24.5,0,0,1-4.1,48.6H42.8v6h66.4a30.5,30.5,0,0,0,15.8-56.5Z"/><path d="M35.5,155A30.5,30.5,0,0,1,24.2,96.2q0-.3,0-.7a30.5,30.5,0,0,1,56-16.7l-5,3.3a24.5,24.5,0,0,0-45,13.4c0,.8,0,1.6.1,2.4l.2,2.4-2.3.7A24.5,24.5,0,0,0,35.5,149Z"/></svg>