<svg id="PIKTO_REGULAR" xmlns="http://www.w3.org/2000/svg" viewBox="0 0 170 170"><title>regular_black</title><rect x="82" y="4.7" width="6" height="160.62"/><path d="M130.3,63.3a17.5,17.5,0,1,1,17.5-17.5A17.5,17.5,0,0,1,130.3,63.3Zm0-29a11.5,11.5,0,1,0,11.5,11.5A11.5,11.5,0,0,0,130.3,34.3Z"/><path d="M159.3,155.4h-58a3,3,0,0,1-3-3.5l7.1-40.4V89.5a17.2,17.2,0,0,1,17.1-17.1H138a17.2,17.2,0,0,1,17.2,17.1v21.9l7.1,40.4a3,3,0,0,1-3,3.5Zm-54.4-6h50.9l-6.5-37.2a3,3,0,0,1,0-.5V89.5A11.2,11.2,0,0,0,138,78.4H122.5a11.2,11.2,0,0,0-11.1,11.1v22.2a3,3,0,0,1,0,.5Z"/><path d="M39.5,63.5A17.5,17.5,0,1,1,57,46,17.5,17.5,0,0,1,39.5,63.5Zm0-29A11.5,11.5,0,1,0,51,46,11.5,11.5,0,0,0,39.5,34.5Z"/><path d="M64.5,155.4h-6V89.9A11.3,11.3,0,0,0,47.3,78.5H31.7A11.3,11.3,0,0,0,20.5,89.9v65.5h-6V89.9A17.3,17.3,0,0,1,31.7,72.5H47.3A17.3,17.3,0,0,1,64.5,89.9Z"/></svg>