<svg id="PIKTOGRAM" xmlns="http://www.w3.org/2000/svg" viewBox="0 0 170 170"><title>regular_black</title><metadata><?xpacket begin="﻿" id="W5M0MpCehiHzreSzNTczkc9d"?>
<x:xmpmeta xmlns:x="adobe:ns:meta/" x:xmptk="Adobe XMP Core 5.6-c137 79.159547, 2016/07/07-11:39:24        ">
   <rdf:RDF xmlns:rdf="http://www.w3.org/1999/02/22-rdf-syntax-ns#">
      <rdf:Description rdf:about=""
            xmlns:dc="http://purl.org/dc/elements/1.1/"
            xmlns:xmpMM="http://ns.adobe.com/xap/1.0/mm/"
            xmlns:stEvt="http://ns.adobe.com/xap/1.0/sType/ResourceEvent#"
            xmlns:xmp="http://ns.adobe.com/xap/1.0/">
         <dc:title>
            <rdf:Alt>
               <rdf:li xml:lang="x-default">regular_black</rdf:li>
            </rdf:Alt>
         </dc:title>
         <xmpMM:PreservedFileName>regular_black_1.svg</xmpMM:PreservedFileName>
         <xmpMM:InstanceID>xmp.iid:f10522aa-e450-2542-9262-c21c7cb0453f</xmpMM:InstanceID>
         <xmpMM:DocumentID>xmp.did:f10522aa-e450-2542-9262-c21c7cb0453f</xmpMM:DocumentID>
         <xmpMM:OriginalDocumentID>xmp.did:f10522aa-e450-2542-9262-c21c7cb0453f</xmpMM:OriginalDocumentID>
         <xmpMM:History>
            <rdf:Seq>
               <rdf:li>
                  <rdf:Description>
                     <stEvt:action>saved</stEvt:action>
                     <stEvt:instanceID>xmp.iid:f10522aa-e450-2542-9262-c21c7cb0453f</stEvt:instanceID>
                     <stEvt:when>2017-11-29T15:49:18+01:00</stEvt:when>
                     <stEvt:softwareAgent>Adobe Bridge CC 2017 (Windows)</stEvt:softwareAgent>
                     <stEvt:changed>/metadata</stEvt:changed>
                  </rdf:Description>
               </rdf:li>
            </rdf:Seq>
         </xmpMM:History>
         <xmp:MetadataDate>2017-11-29T15:49:18+01:00</xmp:MetadataDate>
      </rdf:Description>
   </rdf:RDF>
</x:xmpmeta>
                                                                                                    
                                                                                                    
                                                                                                    
                                                                                                    
                                                                                                    
                                                                                                    
                                                                                                    
                                                                                                    
                                                                                                    
                                                                                                    
                                                                                                    
                                                                                                    
                                                                                                    
                                                                                                    
                                                                                                    
                                                                                                    
                                                                                                    
                                                                                                    
                                                                                                    
                                                                                                    
                           
<?xpacket end="w"?></metadata>
<path d="M61.2,29A13.3,13.3,0,0,1,74.6,15.7H95.4a13.3,13.3,0,0,1,9.3,3.7l4.1-4.3A19,19,0,0,0,95.4,9.7H74.6A19.3,19.3,0,0,0,55.2,29v.5h6Z"/><path d="M70.6,28.2V86.4h6V50.6H84a3,3,0,0,0,3-3,6,6,0,0,1,6-6,3,3,0,0,0,3-3V31.2h8.5v6a3.1,3.1,0,0,0,3,3,6,6,0,0,1,6,6,3.1,3.1,0,0,0,3,3h6.2V81.1h6V28.2a2.9,2.9,0,0,0-3-3H73.6A2.9,2.9,0,0,0,70.6,28.2Zm39.9,3h12.2v12h-3.6a11.7,11.7,0,0,0-8.6-8.6Zm-33.9,0H90V36a12.1,12.1,0,0,0-8.6,8.6H76.6Z"/><path d="M138.9,76.3h6V34.1a3,3,0,0,0-3-3h-7.2v6h4.2Z"/><path d="M162,37.5H151.7v6H159V76.7c-7.9,3.6-38.5,16.4-74,16.4S18.3,80,11,76.6V43.5H61.4v-6H8a2.9,2.9,0,0,0-3,3v113a2.9,2.9,0,0,0,3,3H162a2.9,2.9,0,0,0,3-3V40.5A2.9,2.9,0,0,0,162,37.5ZM60.5,97.2A159.1,159.1,0,0,0,85,99.1a175.5,175.5,0,0,0,23.5-1.7v3.9a10.6,10.6,0,0,1-10.7,10.6H71.2a10.6,10.6,0,0,1-10.7-10.6ZM11,150.5V83.2A194.5,194.5,0,0,0,54.5,96.3v5a16.6,16.6,0,0,0,16.7,16.6H97.8a16.6,16.6,0,0,0,16.7-16.6V96.5A204.5,204.5,0,0,0,159,83.3v67.2Z"/><path d="M116.4,83.2V81.7a16.8,16.8,0,1,0-33.5,0,16.4,16.4,0,0,0,1.3,6.5l5.5-2.3a12.5,12.5,0,0,1-.8-4.2,10.8,10.8,0,1,1,21.5,0v1.5Z"/></svg>