<svg id="PIKTOGRAM" xmlns="http://www.w3.org/2000/svg" viewBox="0 0 170 170"><title>regular_black</title><metadata><?xpacket begin="﻿" id="W5M0MpCehiHzreSzNTczkc9d"?>
<x:xmpmeta xmlns:x="adobe:ns:meta/" x:xmptk="Adobe XMP Core 5.6-c137 79.159547, 2016/07/07-11:39:24        ">
   <rdf:RDF xmlns:rdf="http://www.w3.org/1999/02/22-rdf-syntax-ns#">
      <rdf:Description rdf:about=""
            xmlns:dc="http://purl.org/dc/elements/1.1/"
            xmlns:xmpMM="http://ns.adobe.com/xap/1.0/mm/"
            xmlns:stEvt="http://ns.adobe.com/xap/1.0/sType/ResourceEvent#"
            xmlns:xmp="http://ns.adobe.com/xap/1.0/">
         <dc:title>
            <rdf:Alt>
               <rdf:li xml:lang="x-default">regular_black</rdf:li>
            </rdf:Alt>
         </dc:title>
         <xmpMM:PreservedFileName>regular_black_2.svg</xmpMM:PreservedFileName>
         <xmpMM:InstanceID>xmp.iid:feff2c76-e27a-a84b-a4e3-6587e97efb24</xmpMM:InstanceID>
         <xmpMM:DocumentID>xmp.did:feff2c76-e27a-a84b-a4e3-6587e97efb24</xmpMM:DocumentID>
         <xmpMM:OriginalDocumentID>xmp.did:feff2c76-e27a-a84b-a4e3-6587e97efb24</xmpMM:OriginalDocumentID>
         <xmpMM:History>
            <rdf:Seq>
               <rdf:li>
                  <rdf:Description>
                     <stEvt:action>saved</stEvt:action>
                     <stEvt:instanceID>xmp.iid:feff2c76-e27a-a84b-a4e3-6587e97efb24</stEvt:instanceID>
                     <stEvt:when>2017-11-29T15:49:18+01:00</stEvt:when>
                     <stEvt:softwareAgent>Adobe Bridge CC 2017 (Windows)</stEvt:softwareAgent>
                     <stEvt:changed>/metadata</stEvt:changed>
                  </rdf:Description>
               </rdf:li>
            </rdf:Seq>
         </xmpMM:History>
         <xmp:MetadataDate>2017-11-29T15:49:18+01:00</xmp:MetadataDate>
      </rdf:Description>
   </rdf:RDF>
</x:xmpmeta>
                                                                                                    
                                                                                                    
                                                                                                    
                                                                                                    
                                                                                                    
                                                                                                    
                                                                                                    
                                                                                                    
                                                                                                    
                                                                                                    
                                                                                                    
                                                                                                    
                                                                                                    
                                                                                                    
                                                                                                    
                                                                                                    
                                                                                                    
                                                                                                    
                                                                                                    
                                                                                                    
                           
<?xpacket end="w"?></metadata>
<path d="M109.1,51.1A13.4,13.4,0,0,0,103.4,69a13.3,13.3,0,1,0,5.7-17.9Zm12.5,8.5a7.2,7.2,0,0,1-3.1,9.8,7.3,7.3,0,0,1-9.8-3.2,7.2,7.2,0,0,1,3.2-9.7,6.4,6.4,0,0,1,3.3-.8A7.1,7.1,0,0,1,121.6,59.6Z"/><path d="M42.6,55.3,87,39.9l9.6,13.4,4.9-3.4L90.6,34.6a2.9,2.9,0,0,0-3.4-1.1L44.5,48.3a19.9,19.9,0,0,0-1-7.2,18.3,18.3,0,0,0-3.7-6.2L98.5,14.7l13.2,29.7,5.5-2.4L102.8,9.8a3,3,0,0,0-3.7-1.6L34,30.5A18.5,18.5,0,0,0,8.5,53.2a18.3,18.3,0,0,0,7.8,9.7L33.5,134a18.4,18.4,0,0,0,7.8,26.1,18.3,18.3,0,0,0,14.1.9A18.5,18.5,0,0,0,66,151.6a18.6,18.6,0,0,0-6.9-23.8L41.8,56.7A6.4,6.4,0,0,0,42.6,55.3ZM14.8,41.7a12.3,12.3,0,0,1,7.1-6.3,11.8,11.8,0,0,1,4.1-.7,12.4,12.4,0,0,1,11.8,8.4,12.1,12.1,0,0,1-.6,9.5,12.4,12.4,0,0,1-16.7,5.8,12.6,12.6,0,0,1-6.3-7.1A12.3,12.3,0,0,1,14.8,41.7ZM60.6,149a12.6,12.6,0,0,1-7.1,6.3,12.8,12.8,0,0,1-9.6-.5,12.7,12.7,0,0,1-5.8-16.7,12.6,12.6,0,0,1,7.2-6.4,14.1,14.1,0,0,1,4.1-.7,12.7,12.7,0,0,1,11.8,8.4A12.3,12.3,0,0,1,60.6,149ZM43.3,126.1a20.6,20.6,0,0,0-4.9,2.5L23.1,65.4a13.6,13.6,0,0,0,2.9.3,18.7,18.7,0,0,0,6.1-1.1A22.6,22.6,0,0,0,37,62.1l15.3,63.2A17.5,17.5,0,0,0,43.3,126.1Z"/><path d="M137.8,66,136,71.8a29.3,29.3,0,0,1,19.9,33.9l-13.7-4.3a15.1,15.1,0,0,0-29.5-6.2,15.2,15.2,0,0,0,7.1,17.8l-4.4,13.7A29.4,29.4,0,0,1,99.1,90.9a28.8,28.8,0,0,1,5-9.3l-4.7-3.8a35.3,35.3,0,0,0,17,55.6l.9.2a3,3,0,0,0,2.9-2.1l6.1-19.3a3.1,3.1,0,0,0-.2-2.3,2.9,2.9,0,0,0-1.7-1.4A9.3,9.3,0,0,1,119,104a9.5,9.5,0,0,1-.6-7,8.7,8.7,0,0,1,4.5-5.4,9.5,9.5,0,0,1,7-.6,9.2,9.2,0,0,1,6,11.5,3,3,0,0,0,1.9,3.8l19.3,6.1a3,3,0,0,0,3.7-2A35.4,35.4,0,0,0,137.8,66Z"/></svg>