<svg id="PIKTOGRAM" xmlns="http://www.w3.org/2000/svg" viewBox="0 0 170 170"><title>regular_black</title><metadata><?xpacket begin="﻿" id="W5M0MpCehiHzreSzNTczkc9d"?>
<x:xmpmeta xmlns:x="adobe:ns:meta/" x:xmptk="Adobe XMP Core 5.6-c137 79.159547, 2016/07/07-11:39:24        ">
   <rdf:RDF xmlns:rdf="http://www.w3.org/1999/02/22-rdf-syntax-ns#">
      <rdf:Description rdf:about=""
            xmlns:dc="http://purl.org/dc/elements/1.1/"
            xmlns:xmpMM="http://ns.adobe.com/xap/1.0/mm/"
            xmlns:stEvt="http://ns.adobe.com/xap/1.0/sType/ResourceEvent#"
            xmlns:xmp="http://ns.adobe.com/xap/1.0/">
         <dc:title>
            <rdf:Alt>
               <rdf:li xml:lang="x-default">regular_black</rdf:li>
            </rdf:Alt>
         </dc:title>
         <xmpMM:PreservedFileName>regular_black_3.svg</xmpMM:PreservedFileName>
         <xmpMM:InstanceID>xmp.iid:4c5aa322-38c5-774d-81e1-52a42cc0d8b4</xmpMM:InstanceID>
         <xmpMM:DocumentID>xmp.did:4c5aa322-38c5-774d-81e1-52a42cc0d8b4</xmpMM:DocumentID>
         <xmpMM:OriginalDocumentID>xmp.did:4c5aa322-38c5-774d-81e1-52a42cc0d8b4</xmpMM:OriginalDocumentID>
         <xmpMM:History>
            <rdf:Seq>
               <rdf:li>
                  <rdf:Description>
                     <stEvt:action>saved</stEvt:action>
                     <stEvt:instanceID>xmp.iid:4c5aa322-38c5-774d-81e1-52a42cc0d8b4</stEvt:instanceID>
                     <stEvt:when>2017-11-29T15:49:18+01:00</stEvt:when>
                     <stEvt:softwareAgent>Adobe Bridge CC 2017 (Windows)</stEvt:softwareAgent>
                     <stEvt:changed>/metadata</stEvt:changed>
                  </rdf:Description>
               </rdf:li>
            </rdf:Seq>
         </xmpMM:History>
         <xmp:MetadataDate>2017-11-29T15:49:18+01:00</xmp:MetadataDate>
      </rdf:Description>
   </rdf:RDF>
</x:xmpmeta>
                                                                                                    
                                                                                                    
                                                                                                    
                                                                                                    
                                                                                                    
                                                                                                    
                                                                                                    
                                                                                                    
                                                                                                    
                                                                                                    
                                                                                                    
                                                                                                    
                                                                                                    
                                                                                                    
                                                                                                    
                                                                                                    
                                                                                                    
                                                                                                    
                                                                                                    
                                                                                                    
                           
<?xpacket end="w"?></metadata>
<path d="M128.9,129.6a18.9,18.9,0,0,1-13.2,5.4,18.5,18.5,0,0,1-13.2-5.4,24.7,24.7,0,0,0-35,0A18.5,18.5,0,0,1,54.3,135a18.9,18.9,0,0,1-13.2-5.4,24.2,24.2,0,0,0-17.4-7.3,24.6,24.6,0,0,0-17.5,7.3l4.3,4.2a18.6,18.6,0,0,1,26.4,0,24.7,24.7,0,0,0,34.9,0,18.6,18.6,0,0,1,26.4,0,24.7,24.7,0,0,0,34.9,0,18.6,18.6,0,0,1,26.4,0l4.3-4.2a24.6,24.6,0,0,0-17.5-7.3A24.2,24.2,0,0,0,128.9,129.6Z"/><path d="M164.6,73a2.9,2.9,0,0,0-2.6-1.5H146v-15a3,3,0,0,0-3-3H89.8a3,3,0,0,0-3,3V81.7H73.1l5.3-34a2.9,2.9,0,0,0-.6-2.4,3,3,0,0,0-2.3-1.1H42.1v-18h-6v18H29.6a2.9,2.9,0,0,0-2.1.9,3.1,3.1,0,0,0-.9,2.2L27,81.7H14.5a2.9,2.9,0,0,0-3,3v30.2h6v-14H146.7a110.8,110.8,0,0,0-4.1,12.3l5.7,1.6c5.1-17.9,16.2-38.7,16.4-38.9A3,3,0,0,0,164.6,73ZM92.8,59.4H140v12H117.5a3,3,0,0,0-2.1.8L106,81.7H92.8Zm56.3,35.5H17.5V87.7H30a2.7,2.7,0,0,0,2.1-.9,2.9,2.9,0,0,0,.9-2.1l-.3-34.5H72L66.6,84.3a3.1,3.1,0,0,0,.7,2.4,2.8,2.8,0,0,0,2.3,1h37.6a3,3,0,0,0,2.1-.8l9.4-9.4h38.4C155.1,81.5,152,87.8,149.1,94.9Z"/></svg>