<svg id="PIKTOGRAM" xmlns="http://www.w3.org/2000/svg" viewBox="0 0 170 170"><title>regular_black</title><metadata><?xpacket begin="﻿" id="W5M0MpCehiHzreSzNTczkc9d"?>
<x:xmpmeta xmlns:x="adobe:ns:meta/" x:xmptk="Adobe XMP Core 5.6-c137 79.159547, 2016/07/07-11:39:24        ">
   <rdf:RDF xmlns:rdf="http://www.w3.org/1999/02/22-rdf-syntax-ns#">
      <rdf:Description rdf:about=""
            xmlns:dc="http://purl.org/dc/elements/1.1/"
            xmlns:xmpMM="http://ns.adobe.com/xap/1.0/mm/"
            xmlns:stEvt="http://ns.adobe.com/xap/1.0/sType/ResourceEvent#"
            xmlns:xmp="http://ns.adobe.com/xap/1.0/">
         <dc:title>
            <rdf:Alt>
               <rdf:li xml:lang="x-default">regular_black</rdf:li>
            </rdf:Alt>
         </dc:title>
         <xmpMM:PreservedFileName>regular_black_11.svg</xmpMM:PreservedFileName>
         <xmpMM:InstanceID>xmp.iid:ae0d4e7e-bc26-db46-bd99-13ab796240e7</xmpMM:InstanceID>
         <xmpMM:DocumentID>xmp.did:ae0d4e7e-bc26-db46-bd99-13ab796240e7</xmpMM:DocumentID>
         <xmpMM:OriginalDocumentID>xmp.did:ae0d4e7e-bc26-db46-bd99-13ab796240e7</xmpMM:OriginalDocumentID>
         <xmpMM:History>
            <rdf:Seq>
               <rdf:li>
                  <rdf:Description>
                     <stEvt:action>saved</stEvt:action>
                     <stEvt:instanceID>xmp.iid:ae0d4e7e-bc26-db46-bd99-13ab796240e7</stEvt:instanceID>
                     <stEvt:when>2017-11-29T15:49:18+01:00</stEvt:when>
                     <stEvt:softwareAgent>Adobe Bridge CC 2017 (Windows)</stEvt:softwareAgent>
                     <stEvt:changed>/metadata</stEvt:changed>
                  </rdf:Description>
               </rdf:li>
            </rdf:Seq>
         </xmpMM:History>
         <xmp:MetadataDate>2017-11-29T15:49:18+01:00</xmp:MetadataDate>
      </rdf:Description>
   </rdf:RDF>
</x:xmpmeta>
                                                                                                    
                                                                                                    
                                                                                                    
                                                                                                    
                                                                                                    
                                                                                                    
                                                                                                    
                                                                                                    
                                                                                                    
                                                                                                    
                                                                                                    
                                                                                                    
                                                                                                    
                                                                                                    
                                                                                                    
                                                                                                    
                                                                                                    
                                                                                                    
                                                                                                    
                                                                                                    
                           
<?xpacket end="w"?></metadata>
<path d="M82.8,73l6.3.2c19.3,0,33.5-4.8,43.1-14.4S147.7,31.4,146.3,8a3,3,0,0,0-2.8-2.8c-23.3-1.3-39.9,3.3-50.8,14.1S77.4,46.2,78.5,68.8l-2.7,2.7L69.3,65c.6-14.6-2.5-25.1-9.5-32.1S41.7,22.7,26.4,23.6a2.9,2.9,0,0,0-2.8,2.8c-.9,15.3,2.2,26.2,9.4,33.4s15.7,9.5,28.4,9.5H65L71.8,76V87.7H28a2.9,2.9,0,0,0-3,3v19a3,3,0,0,0,3,3h5.4l8.2,49.8a3.1,3.1,0,0,0,3,2.5h58.6a3.1,3.1,0,0,0,3-2.5l8.2-49.8h5.4a3,3,0,0,0,3-3v-19a2.9,2.9,0,0,0-3-3h-42V78Zm17.9,86H47.1l-7.7-46.3h69Zm16.1-52.3H31v-13h85.8ZM97,23.6c9.1-9.2,23.4-13.3,43.5-12.5.7,20.1-3.4,34.3-12.5,43.5S106.5,67.3,88.6,67.2L129,26.8l-4.3-4.2L84.4,62.9C84.3,45,88.4,32.1,97,23.6ZM37.2,55.5c-5.5-5.5-8-14-7.7-26.1,12-.3,20.6,2.3,26.1,7.8S63,49.2,63.3,59L48.5,44.2l-4.2,4.3L59.1,63.3C49.2,62.9,42.1,60.4,37.2,55.5Z"/></svg>