<svg id="PIKTOGRAM" xmlns="http://www.w3.org/2000/svg" viewBox="0 0 170 170"><title>regular_black</title><metadata><?xpacket begin="﻿" id="W5M0MpCehiHzreSzNTczkc9d"?>
<x:xmpmeta xmlns:x="adobe:ns:meta/" x:xmptk="Adobe XMP Core 5.6-c137 79.159547, 2016/07/07-11:39:24        ">
   <rdf:RDF xmlns:rdf="http://www.w3.org/1999/02/22-rdf-syntax-ns#">
      <rdf:Description rdf:about=""
            xmlns:dc="http://purl.org/dc/elements/1.1/"
            xmlns:xmpMM="http://ns.adobe.com/xap/1.0/mm/"
            xmlns:stEvt="http://ns.adobe.com/xap/1.0/sType/ResourceEvent#"
            xmlns:xmp="http://ns.adobe.com/xap/1.0/">
         <dc:title>
            <rdf:Alt>
               <rdf:li xml:lang="x-default">regular_black</rdf:li>
            </rdf:Alt>
         </dc:title>
         <xmpMM:PreservedFileName>regular_black_13.svg</xmpMM:PreservedFileName>
         <xmpMM:InstanceID>xmp.iid:2f9aa2c9-5904-054a-b204-ddf58f6a0dd6</xmpMM:InstanceID>
         <xmpMM:DocumentID>xmp.did:2f9aa2c9-5904-054a-b204-ddf58f6a0dd6</xmpMM:DocumentID>
         <xmpMM:OriginalDocumentID>xmp.did:2f9aa2c9-5904-054a-b204-ddf58f6a0dd6</xmpMM:OriginalDocumentID>
         <xmpMM:History>
            <rdf:Seq>
               <rdf:li>
                  <rdf:Description>
                     <stEvt:action>saved</stEvt:action>
                     <stEvt:instanceID>xmp.iid:2f9aa2c9-5904-054a-b204-ddf58f6a0dd6</stEvt:instanceID>
                     <stEvt:when>2017-11-29T15:49:18+01:00</stEvt:when>
                     <stEvt:softwareAgent>Adobe Bridge CC 2017 (Windows)</stEvt:softwareAgent>
                     <stEvt:changed>/metadata</stEvt:changed>
                  </rdf:Description>
               </rdf:li>
            </rdf:Seq>
         </xmpMM:History>
         <xmp:MetadataDate>2017-11-29T15:49:18+01:00</xmp:MetadataDate>
      </rdf:Description>
   </rdf:RDF>
</x:xmpmeta>
                                                                                                    
                                                                                                    
                                                                                                    
                                                                                                    
                                                                                                    
                                                                                                    
                                                                                                    
                                                                                                    
                                                                                                    
                                                                                                    
                                                                                                    
                                                                                                    
                                                                                                    
                                                                                                    
                                                                                                    
                                                                                                    
                                                                                                    
                                                                                                    
                                                                                                    
                                                                                                    
                           
<?xpacket end="w"?></metadata>
<path d="M162,152.4H8a2.8,2.8,0,0,1-2.7-1.8,2.9,2.9,0,0,1,.5-3.2l47-50.9a2.9,2.9,0,0,1,3.9-.4l14.8,11.1L92.7,73.8A2.9,2.9,0,0,1,95,72.3a3,3,0,0,1,2.5,1l17.8,20.9,44.1-75.3a3.2,3.2,0,0,1,3.4-1.3,3,3,0,0,1,2.2,2.9V149.4a2.7,2.7,0,0,1-.9,2.1A2.9,2.9,0,0,1,162,152.4Zm-147.1-6H159V31.2l-40.7,69.7a3.1,3.1,0,0,1-2.3,1.4,2.9,2.9,0,0,1-2.5-1L95.7,80.4,75.1,113a3,3,0,0,1-2,1.4,2.8,2.8,0,0,1-2.3-.5L55.4,102.5Z"/><rect x="5" y="71.9" width="49.9" height="6"/><rect x="5" y="45.1" width="77" height="6"/><rect x="5" y="17.5" width="102.2" height="6"/></svg>