<svg id="PIKTOGRAM" xmlns="http://www.w3.org/2000/svg" viewBox="0 0 170 170"><title>regular_black</title><metadata><?xpacket begin="﻿" id="W5M0MpCehiHzreSzNTczkc9d"?>
<x:xmpmeta xmlns:x="adobe:ns:meta/" x:xmptk="Adobe XMP Core 5.6-c137 79.159547, 2016/07/07-11:39:24        ">
   <rdf:RDF xmlns:rdf="http://www.w3.org/1999/02/22-rdf-syntax-ns#">
      <rdf:Description rdf:about=""
            xmlns:dc="http://purl.org/dc/elements/1.1/"
            xmlns:xmpMM="http://ns.adobe.com/xap/1.0/mm/"
            xmlns:stEvt="http://ns.adobe.com/xap/1.0/sType/ResourceEvent#"
            xmlns:xmp="http://ns.adobe.com/xap/1.0/">
         <dc:title>
            <rdf:Alt>
               <rdf:li xml:lang="x-default">regular_black</rdf:li>
            </rdf:Alt>
         </dc:title>
         <xmpMM:PreservedFileName>regular_black_17.svg</xmpMM:PreservedFileName>
         <xmpMM:InstanceID>xmp.iid:28441e2a-3819-d241-9c40-b2737a7aa7b1</xmpMM:InstanceID>
         <xmpMM:DocumentID>xmp.did:28441e2a-3819-d241-9c40-b2737a7aa7b1</xmpMM:DocumentID>
         <xmpMM:OriginalDocumentID>xmp.did:28441e2a-3819-d241-9c40-b2737a7aa7b1</xmpMM:OriginalDocumentID>
         <xmpMM:History>
            <rdf:Seq>
               <rdf:li>
                  <rdf:Description>
                     <stEvt:action>saved</stEvt:action>
                     <stEvt:instanceID>xmp.iid:28441e2a-3819-d241-9c40-b2737a7aa7b1</stEvt:instanceID>
                     <stEvt:when>2017-11-29T15:49:19+01:00</stEvt:when>
                     <stEvt:softwareAgent>Adobe Bridge CC 2017 (Windows)</stEvt:softwareAgent>
                     <stEvt:changed>/metadata</stEvt:changed>
                  </rdf:Description>
               </rdf:li>
            </rdf:Seq>
         </xmpMM:History>
         <xmp:MetadataDate>2017-11-29T15:49:19+01:00</xmp:MetadataDate>
      </rdf:Description>
   </rdf:RDF>
</x:xmpmeta>
                                                                                                    
                                                                                                    
                                                                                                    
                                                                                                    
                                                                                                    
                                                                                                    
                                                                                                    
                                                                                                    
                                                                                                    
                                                                                                    
                                                                                                    
                                                                                                    
                                                                                                    
                                                                                                    
                                                                                                    
                                                                                                    
                                                                                                    
                                                                                                    
                                                                                                    
                                                                                                    
                           
<?xpacket end="w"?></metadata>
<path d="M86,5A51.3,51.3,0,0,0,50.2,94.1a14.8,14.8,0,0,1,4.6,10.6h6a20.7,20.7,0,0,0-6.5-15,45.3,45.3,0,1,1,61.4.1,20.3,20.3,0,0,0-6.5,14.9h6a14.4,14.4,0,0,1,4.6-10.5A51.4,51.4,0,0,0,86,5Z"/><path d="M85,159c-6.7,0-12.1-4.7-12.1-10.6h-6C66.9,157.6,75,165,85,165s18.1-7.4,18.1-16.6h-6C97.1,154.3,91.7,159,85,159Z"/><path d="M105.6,111h-4.7V51.3h-6v3.9c0,2.8-4.3,5.9-10.3,5.9S74.2,58,74.2,55.2V51.3h-6V111H64.4a9.6,9.6,0,0,0-6.9,16.1,9.6,9.6,0,0,0,6.9,16.1h41.2a9.6,9.6,0,0,0,6.9-16.1,9.6,9.6,0,0,0-6.9-16.1ZM74.2,64.5a21.9,21.9,0,0,0,20.7,0V111H74.2ZM64.4,117h41.2a3.6,3.6,0,0,1,0,7.1H64.4a3.6,3.6,0,0,1,0-7.1Zm41.2,20.2H64.4a3.6,3.6,0,0,1,0-7.1h41.2a3.6,3.6,0,0,1,0,7.1Z"/></svg>