<svg id="PIKTOGRAM" xmlns="http://www.w3.org/2000/svg" viewBox="0 0 170 170"><title>regular_black</title><path d="M164.8,91.8A14.7,14.7,0,0,0,156.2,80l.3-.3a14.6,14.6,0,0,0-4.8-23.2l.2-.2a14.6,14.6,0,0,0-5-23.3c.1,0,.1-.1.2-.2a14.6,14.6,0,0,0,3.7-11.3A15,15,0,0,0,135.7,8.2H100.1c-7.9.1-15,.3-22,2.4a73.8,73.8,0,0,0-14.6,6.5l-4.3,2.2c-5,2.5-11.5,5.3-18,5H5v6H38.1v75.7H5v6H41.1a3,3,0,0,0,3-3v-7.2c7.6,6.3,23.4,21.5,36.6,48.5.4.9,3.9,8,12,8H93a14.4,14.4,0,0,0,9.9-4,13.8,13.8,0,0,0,4-9.9v-33a3.5,3.5,0,0,1,3.6-3.5h39.6a14.8,14.8,0,0,0,10.9-4.9A14.6,14.6,0,0,0,164.8,91.8Zm-8.2,7.3a8.9,8.9,0,0,1-6.5,2.9H110.5a9.5,9.5,0,0,0-9.6,9.5v33a7.7,7.7,0,0,1-2.2,5.6,8.6,8.6,0,0,1-5.9,2.3c-4.6,0-6.6-4.3-6.7-4.5h0C69.6,114,49.6,98.2,44.1,94.3v-64c6.7-.5,12.9-3.2,17.8-5.6l4.4-2.3c4.6-2.4,8.9-4.7,13.5-6.1,6.2-1.8,12.9-2,20.3-2.1h35.6a9.2,9.2,0,0,1,9.2,7.9,8.7,8.7,0,0,1-8.7,9.5,3,3,0,0,0-3,3,2.9,2.9,0,0,0,3,3h4.3a9.1,9.1,0,0,1,9.2,7.9,8.2,8.2,0,0,1-2.2,6.7,8.9,8.9,0,0,1-6.5,2.9,3,3,0,0,0-3,3,3.1,3.1,0,0,0,3,3h4.1c4.7,0,8.8,3.4,9.2,7.8a9.3,9.3,0,0,1-2.2,6.8,8.8,8.8,0,0,1-6.5,2.8,3.1,3.1,0,0,0-3,3,3,3,0,0,0,3,3h4c4.7,0,8.8,3.5,9.2,7.9A9,9,0,0,1,156.6,99.1Z"/></svg>