<svg id="PIKTO_REGULAR" xmlns="http://www.w3.org/2000/svg" viewBox="0 0 170 170"><title>regular_black</title><path d="M120,5A45.1,45.1,0,0,0,75,50v8.1A37.1,37.1,0,0,0,40.9,95a3,3,0,0,0,3,3H112a3,3,0,0,0,3-3A37.1,37.1,0,0,0,81,58.1V50a39,39,0,1,1,78,0V165.5h6V50A45.1,45.1,0,0,0,120,5ZM108.9,92H47.1a31.1,31.1,0,0,1,61.8,0Z"/><rect x="47.6" y="115" width="6" height="16.5"/><rect x="102.3" y="115" width="6" height="16.5"/><rect x="75" y="115" width="6" height="16.5"/><rect x="61.3" y="149" width="6" height="16.5"/><rect x="116" y="149" width="6" height="16.5"/><rect x="88.7" y="149" width="6" height="16.5"/><rect x="33.9" y="149" width="6" height="16.5"/></svg>