<svg id="PIKTO_REGULAR" xmlns="http://www.w3.org/2000/svg" viewBox="0 0 170 170"><title>regular_black</title><rect x="21.7" y="51.2" width="74.1" height="6"/><rect x="35.5" y="37.4" width="75.2" height="6"/><path d="M162,37.4H136.8l28-28-4.2-4.2-78,78a19.1,19.1,0,0,0-11.3-3.7,19.3,19.3,0,0,0-15.6,30.6L39.2,126.6H30.5v-7.5a3,3,0,0,0-3-3,6.1,6.1,0,0,1-6.1-6.1,3,3,0,0,0-3-3H11V90.7h7.5a3,3,0,0,0,3-3,6.1,6.1,0,0,1,6.1-6.1,3,3,0,0,0,3-3V70.9H85v-6H8a3,3,0,0,0-3,3v61.7a3,3,0,0,0,3,3H33.2l-28,28,4.2,4.2,93.9-93.9H112v7.7a3,3,0,0,0,3,3,6.1,6.1,0,0,1,6.1,6.1,3,3,0,0,0,3,3h7.5V107H124a3,3,0,0,0-3,3,6.1,6.1,0,0,1-6.1,6.1,3,3,0,0,0-3,3v7.5H57.3v6h77.3a3,3,0,0,0,3-3V67.9a3,3,0,0,0-3-3H109.3l7.7-7.7h28.2v58.7h6V54.2a3,3,0,0,0-3-3H123.1l7.7-7.7H159v58.7h6V40.4A3,3,0,0,0,162,37.4ZM24.5,70.9V76a12.1,12.1,0,0,0-8.7,8.7H11V70.9ZM11,113h4.9a12.1,12.1,0,0,0,8.7,8.7v4.9H11Zm107,13.6v-4.9a12.1,12.1,0,0,0,8.7-8.7h4.9v13.6Zm13.6-41.9h-4.9A12.1,12.1,0,0,0,118,76V70.9h13.6ZM58,98.7A13.3,13.3,0,0,1,78.3,87.5L60,105.8A13.2,13.2,0,0,1,58,98.7Z"/><path d="M84.6,98.7A13.3,13.3,0,0,1,71.3,112v6A19.3,19.3,0,0,0,90.6,98.7Z"/></svg>