<svg id="PIKTO_REGULAR" xmlns="http://www.w3.org/2000/svg" viewBox="0 0 170 170"><title>regular_black</title><path d="M121.9,109a17.5,17.5,0,1,1,17.5-17.5A17.5,17.5,0,0,1,121.9,109Zm0-29a11.5,11.5,0,1,0,11.5,11.5A11.5,11.5,0,0,0,121.9,80Z"/><path d="M146.9,165h-6V135.4A11.3,11.3,0,0,0,129.6,124H114.1a11.3,11.3,0,0,0-11.2,11.4V165h-6V135.4A17.4,17.4,0,0,1,114.1,118h15.5a17.4,17.4,0,0,1,17.2,17.4Z"/><path d="M48.1,109A17.5,17.5,0,1,1,65.6,91.5,17.5,17.5,0,0,1,48.1,109Zm0-29A11.5,11.5,0,1,0,59.6,91.5,11.5,11.5,0,0,0,48.1,80Z"/><path d="M73.1,165h-6V135.4A11.3,11.3,0,0,0,55.9,124H40.4a11.3,11.3,0,0,0-11.2,11.4V165h-6V135.4A17.4,17.4,0,0,1,40.4,118H55.9a17.4,17.4,0,0,1,17.2,17.4Z"/><path d="M85,39.7a17.5,17.5,0,1,1,17.5-17.5A17.5,17.5,0,0,1,85,39.7Zm0-29A11.5,11.5,0,1,0,96.5,22.2,11.5,11.5,0,0,0,85,10.7Z"/><path d="M110,70.2h-6v-4A11.3,11.3,0,0,0,92.8,54.7H77.2A11.3,11.3,0,0,0,66,66.2v4H60v-4A17.4,17.4,0,0,1,77.2,48.7H92.8A17.4,17.4,0,0,1,110,66.2Z"/></svg>