<svg id="PIKTO_REGULAR" xmlns="http://www.w3.org/2000/svg" viewBox="0 0 170 170"><title>regular_black</title><path d="M154.9,112.9H95l-.2-.6a15.9,15.9,0,0,0-8.9-8.7L48,88.7l-1.1-.2H8a3,3,0,0,0-3,3V162a3,3,0,0,0,3,3H28.9a3,3,0,0,0,3-3V151.9L71,160.1a29,29,0,0,0,15.5-1.3l71.9-26.4a10.1,10.1,0,0,0-3.5-19.6ZM25.9,159H11V94.5H25.9Zm130.4-32.2L84.4,153.2a22.9,22.9,0,0,1-12.2,1l-40.3-8.5V94.5H46.3l37.3,14.6a10.1,10.1,0,1,1-7.4,18.7L50.5,117.8l-2.2,5.6,25.7,10.1a16.2,16.2,0,0,0,5.9,1.1,16.1,16.1,0,0,0,16-15.7h58.9a4.1,4.1,0,0,1,1.4,7.9Z"/><path d="M85,54.3a24.6,24.6,0,1,1,24.6-24.6A24.7,24.7,0,0,1,85,54.3ZM85,11a18.6,18.6,0,1,0,18.6,18.6A18.7,18.7,0,0,0,85,11Z"/><path d="M130.9,101.9a24.6,24.6,0,1,1,24.6-24.6A24.7,24.7,0,0,1,130.9,101.9Zm0-43.3a18.6,18.6,0,1,0,18.6,18.6A18.7,18.7,0,0,0,130.9,58.6Z"/></svg>