<svg id="PIKTO_REGULAR" xmlns="http://www.w3.org/2000/svg" viewBox="0 0 170 170"><title>regular_black</title><polygon points="87.9 99.8 81.8 99.8 81.8 159 66.8 159 66.8 165 81.8 165 87.9 165 102.9 165 102.9 159 87.9 159 87.9 99.8"/><path d="M125.1,87.2c-8.6-5.2-17.1-8.1-23.1-8.4A17.4,17.4,0,0,0,91,58.7a42.2,42.2,0,0,0,4.1-14A32.1,32.1,0,0,1,113,59.4l5.2-3.1A38.1,38.1,0,0,0,95.7,38.5q.1-2.1.1-4.2a74.8,74.8,0,0,0-.8-11A52.6,52.6,0,0,1,137.6,75a53.2,53.2,0,0,1-.4,6.2l6,.6a59.3,59.3,0,0,0,.4-6.8A58.7,58.7,0,0,0,93.7,17C91.8,9.7,88.6,5,85,5,79,5,74.2,18.1,74.2,34.3c0,10.2,1.9,19.1,4.8,24.4A17.4,17.4,0,0,0,68,78.8a43,43,0,0,0-14.1,3.8,32.1,32.1,0,0,1,1.7-20.1L50,60a38.2,38.2,0,0,0-1.6,25.2l-3.5,2a74.7,74.7,0,0,0-9.1,6.4A52.6,52.6,0,0,1,49.6,36.1l-3.9-4.6A58.7,58.7,0,0,0,31,98c-5.2,5.4-7.5,10.5-5.7,13.6,3.1,5.1,16.8,2.5,30.7-5.8,8.8-5.3,15.6-11.6,18.5-16.9a17.3,17.3,0,0,0,20.9,0c1.9,3.3,5.3,7.1,9.8,10.8a32,32,0,0,1-7.3,4.5l2.5,5.5a38.1,38.1,0,0,0,9.8-6.4l3.7,2.4a74.9,74.9,0,0,0,9.7,4.9A52.6,52.6,0,0,1,97,126.2l.9,6a58.6,58.6,0,0,0,31.9-19.4c7.3,2.1,13,1.8,14.9-1.3C147.8,106.5,139,95.6,125.1,87.2ZM85,11c2.6,0,4.8,10.4,4.8,23.3S87.6,57.6,85,57.6s-4.8-10.4-4.8-23.3S82.4,11,85,11ZM52.9,100.6c-11,6.6-21.1,10.2-22.4,7.9S36.9,99.1,48,92.4,69,82.3,70.4,84.5,63.9,94,52.9,100.6ZM85,86.4A11.4,11.4,0,1,1,96.4,75,11.4,11.4,0,0,1,85,86.4Zm54.5,22.1c-1.4,2.3-11.4-1.3-22.4-7.9S98.3,86.8,99.6,84.5,111,85.8,122,92.4,140.9,106.3,139.5,108.5Z"/></svg>