<svg id="PIKTO_REGULAR" xmlns="http://www.w3.org/2000/svg" viewBox="0 0 170 170"><title>regular_black</title><rect x="32.1" y="105.8" width="6" height="37.97"/><path d="M148.1,93.7H135.5V84.2h-6v37.7H67.6V84.2h-6v9.6H49a3,3,0,0,0-3,3v56.2a3,3,0,0,0,3,3H61.6v9.6h6V127.8h61.8v37.7h6v-9.6h12.7a3,3,0,0,0,3-3V96.7A3,3,0,0,0,148.1,93.7ZM52,149.9V99.7h9.7v50.2Zm93.2,0h-9.7V99.7h9.7Z"/><rect x="159" y="105.8" width="6" height="37.97"/><path d="M77.9,49.4V36.3a11,11,0,0,0-11-11h-26a11,11,0,0,0-11,11V49a48.4,48.4,0,0,0-6.8,79.8l3.8-4.7a42.4,42.4,0,1,1,63.9-12.8l5.3,2.9A48.4,48.4,0,0,0,77.9,49.4ZM35.9,46.1V36.3a5,5,0,0,1,5-5h26a5,5,0,0,1,5,5V46.4a48.3,48.3,0,0,0-35.9-.3Z"/></svg>