<svg id="PIKTO_REGULAR" xmlns="http://www.w3.org/2000/svg" viewBox="0 0 170 170"><title>regular_black</title><path d="M139.9,57.1a55,55,0,0,0-109.9,0A16.7,16.7,0,0,0,14.3,73.8V96.2a16.7,16.7,0,0,0,15.7,16.6,55.4,55.4,0,0,0,39.6,50v-.2a9,9,0,0,0,6,2.3H94.3a9.1,9.1,0,0,0,0-18.1H75.7a9,9,0,0,0-9,8.6A49.4,49.4,0,0,1,36,109.9V60.1a49,49,0,1,1,98.1,0v52.8h5a16.7,16.7,0,0,0,16.7-16.7V73.8A16.7,16.7,0,0,0,139.9,57.1ZM75.7,152.9H94.3a3.1,3.1,0,0,1,0,6.1H75.7a3.1,3.1,0,0,1,0-6.1ZM20.3,96.2V73.8A10.7,10.7,0,0,1,30,63.1v43.7A10.7,10.7,0,0,1,20.3,96.2Zm129.3,0a10.7,10.7,0,0,1-9.6,10.6V63.1a10.7,10.7,0,0,1,9.6,10.6Z"/></svg>