<svg id="PIKTO_REGULAR" xmlns="http://www.w3.org/2000/svg" viewBox="0 0 170 170"><title>regular_black</title><path d="M61.9,87A12.7,12.7,0,1,0,49.2,74.3,12.7,12.7,0,0,0,61.9,87Zm0-19.4a6.7,6.7,0,1,1-6.7,6.7A6.7,6.7,0,0,1,61.9,67.6Z"/><path d="M50.2,103.7a6.6,6.6,0,0,1,6.5-6.7H67.1a6.6,6.6,0,0,1,6.5,6.7v46.8h6V103.7A12.6,12.6,0,0,0,67.1,91.1H56.7a12.6,12.6,0,0,0-12.5,12.7v46.8h6Z"/><path d="M108.1,87A12.7,12.7,0,1,0,95.4,74.3,12.7,12.7,0,0,0,108.1,87Zm0-19.4a6.7,6.7,0,1,1-6.7,6.7A6.7,6.7,0,0,1,108.1,67.6Z"/><path d="M96.3,103.7a6.6,6.6,0,0,1,6.5-6.7h10.4a6.6,6.6,0,0,1,6.5,6.7v46.8h6V103.7a12.6,12.6,0,0,0-12.5-12.7H102.9a12.6,12.6,0,0,0-12.5,12.7v46.8h6Z"/><polygon points="106.6 5 91.6 20 95.9 24.2 103.6 16.5 103.6 35 109.6 35 109.6 16.5 117.4 24.2 121.6 20 106.6 5"/><path d="M144.4,40.3H25.6a3,3,0,0,0-3,3V162a3,3,0,0,0,3,3H144.4a3,3,0,0,0,3-3V43.3A3,3,0,0,0,144.4,40.3Zm-3,118.7H28.6V46.3H141.4Z"/><polygon points="66.9 35 81.9 20 77.7 15.7 69.9 23.5 69.9 5 63.9 5 63.9 23.5 56.2 15.7 51.9 20 66.9 35"/></svg>