<svg id="PIKTO_REGULAR" xmlns="http://www.w3.org/2000/svg" viewBox="0 0 170 170"><title>regular_black</title><path d="M153,17.6H17a12,12,0,0,0-12,12V113a12,12,0,0,0,12,12H60.9v8.8a12.7,12.7,0,0,1-12.7,12.7,3,3,0,1,0,0,6h73.6a3,3,0,0,0,0-6,12.7,12.7,0,0,1-12.7-12.7V125H153a12,12,0,0,0,12-12V29.6A12,12,0,0,0,153,17.6ZM108.2,146.4H61.9a18.6,18.6,0,0,0,5-12.7V125h36.3v8.8A18.6,18.6,0,0,0,108.2,146.4ZM159,113a6,6,0,0,1-6,6H17a6,6,0,0,1-6-6V29.6a6,6,0,0,1,6-6H153a6,6,0,0,1,6,6Z"/><path d="M124.4,60.4,86.7,33.8a3,3,0,0,0-3.5,0L45.6,60.4a3,3,0,0,0,1.7,5.4h75.2a3,3,0,0,0,1.7-5.4Zm-67.5-.6L85,39.9l28.2,19.9Z"/><rect x="57.9" y="70.6" width="6" height="27.32"/><rect x="106.1" y="70.6" width="6" height="27.32"/><rect x="90" y="70.6" width="6" height="27.32"/><rect x="74" y="70.6" width="6" height="27.32"/><rect x="50.1" y="103.1" width="69.8" height="6"/></svg>