<svg id="PIKTO_REGULAR" xmlns="http://www.w3.org/2000/svg" viewBox="0 0 170 170"><title>regular_black</title><path d="M152.5,17.6H142a16.6,16.6,0,0,0-32.2,0H76.1a16.6,16.6,0,0,0-32.2,0H17.5a3,3,0,0,0-3,3V149.5a3,3,0,0,0,3,3H30.4V162a3,3,0,0,0,3,3H152.5a3,3,0,0,0,3-3V20.6A3,3,0,0,0,152.5,17.6ZM125.9,11a10.6,10.6,0,0,1,9.8,6.6H116.1A10.7,10.7,0,0,1,125.9,11ZM60,11a10.6,10.6,0,0,1,9.8,6.6H50.1A10.7,10.7,0,0,1,60,11ZM70.4,23.6A10.6,10.6,0,0,1,60,32.2v6A16.6,16.6,0,0,0,76.5,23.6h59.9a10.6,10.6,0,0,1-10.4,8.6v6a16.6,16.6,0,0,0,16.5-14.6h7.1V43.8H36.4V23.6Zm-40,0V43.8H20.5V23.6ZM20.5,146.5V49.8h9.9v96.7ZM36.4,159V49.8H149.5V159Z"/><rect x="82.6" y="74.7" width="20.7" height="6"/><rect x="114.6" y="74.7" width="20.7" height="6"/><rect x="50.6" y="95" width="20.7" height="6"/><rect x="82.6" y="95" width="20.7" height="6"/><rect x="114.6" y="95" width="20.7" height="6"/><rect x="50.6" y="115.3" width="20.7" height="6"/><rect x="82.6" y="115.3" width="20.7" height="6"/><rect x="114.6" y="115.3" width="20.7" height="6"/><rect x="50.6" y="132.8" width="20.7" height="6"/><rect x="82.6" y="132.8" width="20.7" height="6"/></svg>