<svg id="PIKTO_REGULAR" xmlns="http://www.w3.org/2000/svg" viewBox="0 0 170 170"><title>regular_black</title><path d="M22.2,165l-1.1-.2a3,3,0,0,1-1.9-2.8V142.8H8a3,3,0,0,1-3-3V59.1a3,3,0,0,1,3-3H108.1a3,3,0,0,1,3,3v80.8a3,3,0,0,1-3,3H50.7l-5.6.5L24.3,164.1A3,3,0,0,1,22.2,165ZM11,136.8H22.2a3,3,0,0,1,3,3v14.9l16.4-16.5a3,3,0,0,1,1.9-.9l6.8-.6h54.8V62.1H11Z"/><path d="M162,113.9H121.9v-6H159V33.2H147.8a3,3,0,0,1-3-3V15.3l-17,17a3,3,0,0,1-2.1.9H64.9V46.7h-6V30.2a3,3,0,0,1,3-3h62.6L145.7,5.9A3,3,0,0,1,150.8,8V27.2H162a3,3,0,0,1,3,3v80.8A3,3,0,0,1,162,113.9Z"/><rect x="24.9" y="88" width="54.7" height="6"/><rect x="24.9" y="107.3" width="27.3" height="6"/></svg>