<svg id="PIKTO_REGULAR" xmlns="http://www.w3.org/2000/svg" viewBox="0 0 170 170"><title>regular_black</title><path d="M96.5,68.4A17.5,17.5,0,1,1,114,50.9,17.5,17.5,0,0,1,96.5,68.4Zm0-29A11.5,11.5,0,1,0,108,50.9,11.5,11.5,0,0,0,96.5,39.4Z"/><path d="M121.5,94.9h-6a11.3,11.3,0,0,0-11.2-11.4H88.7A11.3,11.3,0,0,0,77.5,94.9h-6A17.4,17.4,0,0,1,88.7,77.4h15.5A17.4,17.4,0,0,1,121.5,94.9Z"/><path d="M152.2,5H30.9a3,3,0,0,0-3,3V25.3a16.1,16.1,0,0,0,0,31.6V67.8a16.1,16.1,0,0,0,0,31.6v10.9a16.1,16.1,0,0,0,0,31.6V162a3,3,0,0,0,3,3H152.2a3,3,0,0,0,3-3V8A3,3,0,0,0,152.2,5ZM20.8,41.1a10.1,10.1,0,0,1,7.1-9.7V50.8A10.1,10.1,0,0,1,20.8,41.1Zm0,42.5a10.1,10.1,0,0,1,7.1-9.7V93.2A10.1,10.1,0,0,1,20.8,83.6Zm0,42.5a10.1,10.1,0,0,1,7.1-9.7v19.3A10.1,10.1,0,0,1,20.8,126.1ZM149.2,159H33.9V116.4a10.1,10.1,0,0,1,7.1,9.7h6a16.1,16.1,0,0,0-13.1-15.8V73.9A10.1,10.1,0,0,1,41,83.6h6A16.1,16.1,0,0,0,33.9,67.8V31.4A10.1,10.1,0,0,1,41,41.1h6A16.1,16.1,0,0,0,33.9,25.3V11H149.2Z"/><rect x="72.2" y="111.3" width="38.8" height="6"/><rect x="72.2" y="130.2" width="21.4" height="6"/></svg>