<svg id="PIKTO_REGULAR" xmlns="http://www.w3.org/2000/svg" viewBox="0 0 170 170"><title>regular_black</title><path d="M164.1,104.9,141.4,35a11.6,11.6,0,0,0-14.6-7.4l-22.9,7.5,1.9,5.7,22.9-7.5a5.6,5.6,0,0,1,7,3.6l2.8,8.6-12.8,4.2,1.9,5.7,12.8-4.2,18.1,55.5a5.6,5.6,0,0,1-3.6,7l-46.4,15.1,1.9,5.7,46.4-15.1A11.6,11.6,0,0,0,164.1,104.9Z"/><rect x="120" y="98" width="18.7" height="6" transform="translate(-24.9 45.1) rotate(-18.1)"/><path d="M100.7,97.5,114.2,89a3,3,0,0,0,1.1-3.8l-7.8-16.3,10.2-14.2a3,3,0,0,0-1.6-4.6L40.5,28a11.5,11.5,0,0,0-14.3,7.9L5.8,106.5a11.6,11.6,0,0,0,7.9,14.3l75.6,22.1h.8a3,3,0,0,0,3-3.1l-.4-17.7,11.1-7.9a3,3,0,0,0,1.1-3.4ZM32,37.6a5.6,5.6,0,0,1,5.3-4l1.5.2,71.6,20.9-8.8,12.2-.2.3-72-20.8Zm56,80.6a3,3,0,0,0-1.3,2.5l.4,15.2L15.3,115a5.5,5.5,0,0,1-3.8-6.9L27.8,52.1l75.5,21.9,5.4,11.4L95.5,93.6a3,3,0,0,0-1.3,3.5l4.3,13.6Z"/><rect x="35.6" y="91.6" width="6" height="18.75" transform="translate(-69.1 110) rotate(-73.9)"/><rect x="49.5" y="68.4" width="6" height="37.71" transform="translate(-45.9 113.3) rotate(-73.9)"/></svg>