<svg id="PIKTO_REGULAR" xmlns="http://www.w3.org/2000/svg" viewBox="0 0 170 170"><title>regular_black</title><path d="M132.4,151.2H38a3,3,0,0,0-3,3v10.9h6v-7.9h88.4v7.9h6V154.2A3,3,0,0,0,132.4,151.2Z"/><rect x="82.2" y="5.1" width="6" height="126.17"/><path d="M56.8,85.4h0v-.2a3,3,0,0,0-.6-1.8L37.1,39.1H77.4v-6H32.5a3,3,0,0,0-2.8,1.8L8.8,83.3a3,3,0,0,0-.6,1.8v.2h0a24.3,24.3,0,0,0,48.6,0ZM32.5,43.7,49.2,82.1H15.9Zm0,59.8A18.3,18.3,0,0,1,14.5,88.1H50.6A18.3,18.3,0,0,1,32.5,103.4Z"/><path d="M161.5,83.3l-21-48.4a3,3,0,0,0-2.8-1.8H92.8v6h40.5L114.1,83.3a3,3,0,0,0-.6,1.8v.2h0a24.3,24.3,0,0,0,48.6,0h0v-.2A3,3,0,0,0,161.5,83.3Zm-7.1-1.2H121.2l16.7-38.4Zm-16.7,21.3a18.3,18.3,0,0,1-18.1-15.3h36.1A18.3,18.3,0,0,1,137.8,103.4Z"/><rect x="52.5" y="139.5" width="65.2" height="6"/></svg>