<svg id="PIKTO_REGULAR" xmlns="http://www.w3.org/2000/svg" viewBox="0 0 170 170"><title>regular_black</title><path d="M49.6,145.2a25.5,25.5,0,0,1-18-43.6L63.4,69.7a25.5,25.5,0,0,1,36.1,0L95.2,74a19.5,19.5,0,0,0-27.6,0L35.8,105.8a19.5,19.5,0,0,0,27.6,27.6L75.8,121l4.2,4.2L67.6,137.7A25.4,25.4,0,0,1,49.6,145.2Z"/><path d="M87,107.7a25.3,25.3,0,0,1-18-7.5L73.2,96a19.5,19.5,0,0,0,27.6,0l31.9-31.8a19.5,19.5,0,1,0-27.6-27.6L92.6,49l-4.2-4.2,12.4-12.4a25.5,25.5,0,1,1,36.1,36.1l-31.8,31.8A25.4,25.4,0,0,1,87,107.7Z"/><rect x="36.2" y="34.4" width="6" height="22.39" transform="translate(-20.7 41.1) rotate(-45)"/><rect x="57.7" y="25.5" width="6" height="22.39"/><rect x="19.1" y="64" width="22.4" height="6"/></svg>