<svg id="PIKTO_REGULAR" xmlns="http://www.w3.org/2000/svg" viewBox="0 0 170 170"><title>regular_black</title><path d="M128.3,165.1H42.7a13,13,0,0,1-13-13V18.1a13,13,0,0,1,13-13h85.6a13,13,0,0,1,13,13v134A13,13,0,0,1,128.3,165.1ZM42.7,11.1a7,7,0,0,0-7,7v134a7,7,0,0,0,7,7h85.6a7,7,0,0,0,7-7V18.1a7,7,0,0,0-7-7Z"/><rect x="49.1" y="78.2" width="15.4" height="6"/><rect x="49.1" y="109.5" width="15.4" height="6"/><rect x="49.1" y="140.9" width="15.4" height="6"/><rect x="107.7" y="78.2" width="15.4" height="6"/><rect x="49.1" y="93.9" width="15.4" height="6"/><rect x="49.1" y="125.2" width="15.4" height="6"/><rect x="78.4" y="78.2" width="15.4" height="6"/><rect x="78.4" y="109.5" width="15.4" height="6"/><rect x="78.4" y="140.9" width="15.4" height="6"/><rect x="78.4" y="93.9" width="15.4" height="6"/><rect x="78.4" y="125.2" width="15.4" height="6"/><rect x="107.7" y="109.5" width="15.4" height="6"/><rect x="107.7" y="93.9" width="15.4" height="6"/><path d="M120.5,64.9H51.6a3,3,0,0,1-3-3V28.1a3,3,0,0,1,3-3h68.9a3,3,0,0,1,3,3V61.9A3,3,0,0,1,120.5,64.9Zm-65.9-6h62.9V31.1H54.6Z"/><path d="M120.5,146.9H105.2a3,3,0,0,1-3-3V128.2a3,3,0,0,1,3-3h15.4a3,3,0,0,1,3,3v15.7A3,3,0,0,1,120.5,146.9Zm-12.4-6h9.4v-9.7h-9.4Z"/></svg>