<svg id="PIKTO_REGULAR" xmlns="http://www.w3.org/2000/svg" viewBox="0 0 170 170"><title>regular_black</title><rect x="96.9" y="146.4" width="14.1" height="6"/><path d="M126.3,40.3H81.6a14,14,0,0,0-14,14V151a14,14,0,0,0,14,14h44.7a14,14,0,0,0,14-14V54.3A14,14,0,0,0,126.3,40.3Zm-44.7,6h44.7a8,8,0,0,1,8,8V64H73.6V54.3A8,8,0,0,1,81.6,46.3ZM134.3,70v65.1H73.6V70Zm-8,89.1H81.6a8,8,0,0,1-8-8v-9.9h60.7V151A8,8,0,0,1,126.3,159Z"/><path d="M35.7,43.3h-6A38.4,38.4,0,0,1,68,5v6A32.4,32.4,0,0,0,35.7,43.3Z"/><path d="M47.5,43.3h-6A26.6,26.6,0,0,1,68,16.8v6A20.6,20.6,0,0,0,47.5,43.3Z"/><path d="M59.3,43.3h-6A14.8,14.8,0,0,1,68,28.5v6A8.8,8.8,0,0,0,59.3,43.3Z"/></svg>