<svg id="PIKTO_REGULAR" xmlns="http://www.w3.org/2000/svg" viewBox="0 0 170 170"><title>regular_black</title><rect x="68.1" y="66.4" width="50.6" height="6"/><path d="M126.2,164.8H102a3,3,0,0,1-3-3V146H80.9v15.8a3,3,0,0,1-3,3H53.7a3,3,0,0,1-3-3V143.7a51.3,51.3,0,0,1-34-34H8a3,3,0,0,1-3-3V82.5a3,3,0,0,1,3-3h8.7a51.5,51.5,0,0,1,28.7-32V28.9a3,3,0,0,1,3-3A20.4,20.4,0,0,1,68.6,43.3H81.3v6H65.8a3,3,0,0,1-3-3,14.4,14.4,0,0,0-11.4-14V49.5a3,3,0,0,1-1.9,2.8,45.4,45.4,0,0,0-27.6,31,3,3,0,0,1-2.9,2.3H11v18.2h7.9a3,3,0,0,1,2.9,2.3,45.3,45.3,0,0,0,32.6,32.6,3,3,0,0,1,2.3,2.9v17.4H74.9V143a3,3,0,0,1,3-3H102a3,3,0,0,1,3,3v15.8h18.2V142.6a3,3,0,0,1,2.2-2.9l3.1-1a46.1,46.1,0,0,0-5.4-88.3l1.3-5.9a52.1,52.1,0,0,1,6.1,99.8l-1.4.5v17A3,3,0,0,1,126.2,164.8Z"/><path d="M81.6,32.7A13.8,13.8,0,1,1,95.4,18.8,13.9,13.9,0,0,1,81.6,32.7Zm0-21.7a7.8,7.8,0,1,0,7.8,7.8A7.8,7.8,0,0,0,81.6,11Z"/><path d="M102.5,59a13.8,13.8,0,1,1,13.8-13.8A13.9,13.9,0,0,1,102.5,59Zm0-21.7a7.8,7.8,0,1,0,7.8,7.8A7.8,7.8,0,0,0,102.5,37.4Z"/></svg>