<svg id="PIKTO_REGULAR" xmlns="http://www.w3.org/2000/svg" viewBox="0 0 170 170"><title>regular_black</title><path d="M152.5,50.7H119.3V17.5a3,3,0,0,0-3-3H17.5a3,3,0,0,0-3,3v98.8a3,3,0,0,0,3,3H50.7v33.2a3,3,0,0,0,3,3h98.8a3,3,0,0,0,3-3V53.7A3,3,0,0,0,152.5,50.7Zm-101.8,3v59.6H20.5V20.5h92.8V50.7H53.7A3,3,0,0,0,50.7,53.7Zm98.8,95.8H56.7V56.7h92.8Z"/><polygon points="100.1 136.9 106.1 136.9 106.1 106.1 136.9 106.1 136.9 100.1 106.1 100.1 106.1 69.4 100.1 69.4 100.1 100.1 69.4 100.1 69.4 106.1 100.1 106.1 100.1 136.9"/></svg>