<svg id="PIKTO_REGULAR" xmlns="http://www.w3.org/2000/svg" viewBox="0 0 170 170"><title>regular_black</title><path d="M163.9,31.4a3,3,0,0,0-1.5-1.8L129.1,11.9a3,3,0,0,0-4.1,1.2L72.6,112a3,3,0,0,0-.3,1.7h0l2.9,34.8a3,3,0,0,0,4.5,2.4l30.5-17.2h0a3,3,0,0,0,1.2-1.2l52.4-98.8A3,3,0,0,0,163.9,31.4Zm-35-12.8,11.4,6L90.7,118.2l-11.4-6ZM79.7,131.3l-1-12.7,23.7,12.5L91,137.5A16.8,16.8,0,0,0,79.7,131.3Zm.5,6.2a10.8,10.8,0,0,1,5.5,3.1l-5,2.8ZM107.4,127,96,121l49.6-93.5,11.4,6Z"/><rect x="5" y="146.5" width="63.9" height="6"/></svg>