<svg id="PIKTO_REGULAR" xmlns="http://www.w3.org/2000/svg" viewBox="0 0 170 170"><title>regular_black</title><path d="M124.6,101.2H53.3v-6h71.4a26.5,26.5,0,0,0,4.5-52.7l-1.8-.3-.6-1.7a26.5,26.5,0,0,0-25.2-18.2v-6a32.5,32.5,0,0,1,30.3,20.6,32.5,32.5,0,0,1-7.2,64.3Z"/><path d="M45.4,101.2A32.5,32.5,0,0,1,33.5,38.4q0-.4,0-.9A32.5,32.5,0,0,1,93.2,19.7l-5,3.3A26.5,26.5,0,0,0,39.5,37.5c0,.9,0,1.8.1,2.6l.2,2.4-2.3.7a26.5,26.5,0,0,0,7.9,51.9Z"/><rect x="22.3" y="146.8" width="20" height="6" transform="translate(-114.4 105.5) rotate(-61)"/><rect x="17.5" y="118.4" width="20" height="6" transform="translate(-92 86.6) rotate(-61)"/><rect x="50.6" y="118.6" width="20" height="6" transform="translate(-75.1 115.6) rotate(-61)"/><rect x="56.1" y="146.8" width="20" height="6" transform="translate(-97 135) rotate(-61)"/><rect x="84.4" y="118.6" width="20" height="6" transform="translate(-57.7 145.2) rotate(-61)"/><rect x="90" y="146.8" width="20" height="6" transform="translate(-79.5 164.6) rotate(-61)"/><rect x="118.2" y="118.6" width="20" height="6" transform="translate(-40.3 174.8) rotate(-61)"/></svg>