<svg id="PIKTO_REGULAR" xmlns="http://www.w3.org/2000/svg" viewBox="0 0 170 170"><title>regular_black</title><path d="M85,103l-1.1-.2A3,3,0,0,1,82,100V83.2H72.3a3,3,0,0,1-3-3V8a3,3,0,0,1,3-3H162a3,3,0,0,1,3,3V80.2a3,3,0,0,1-3,3H106.1L87.1,102.1A3,3,0,0,1,85,103ZM75.3,77.2H85a3,3,0,0,1,3,3V92.8l14.7-14.7a3,3,0,0,1,2.1-.9H159V11H75.3Z"/><path d="M42.7,107.4A17.5,17.5,0,1,1,60.2,89.9,17.5,17.5,0,0,1,42.7,107.4Zm0-29A11.5,11.5,0,1,0,54.2,89.9,11.5,11.5,0,0,0,42.7,78.4Z"/><path d="M67.7,165h-6V133.9a11.3,11.3,0,0,0-11.2-11.4H34.9a11.3,11.3,0,0,0-11.2,11.4V165h-6V133.9a17.4,17.4,0,0,1,17.2-17.4H50.4a17.4,17.4,0,0,1,17.2,17.4Z"/></svg>