<svg id="PIKTO_REGULAR" xmlns="http://www.w3.org/2000/svg" viewBox="0 0 170 170"><title>regular_black</title><path d="M162,14.5H8a3,3,0,0,0-3,3v123a3,3,0,0,0,3,3H68.8v-6H62.3V20.5h45.3v34h6v-34H159v117h-6.5v6H162a3,3,0,0,0,3-3V17.5A3,3,0,0,0,162,14.5ZM56.3,137.5H11V20.5H56.3Z"/><rect x="20.7" y="35.8" width="25.7" height="6"/><rect x="20.7" y="51.5" width="25.7" height="6"/><rect x="72.1" y="35.8" width="25.7" height="6"/><rect x="72.1" y="51.5" width="25.7" height="6"/><rect x="123.5" y="35.8" width="25.7" height="6"/><rect x="123.5" y="51.5" width="25.7" height="6"/><rect x="40.4" y="77.8" width="6" height="12.43"/><rect x="146.2" y="77.8" width="6" height="12.43"/><path d="M138.9,103.2H93.5V88a16.8,16.8,0,0,1,33.6,0v9.7h6V88a22.8,22.8,0,0,0-45.6,0v15.2H82.4a3,3,0,0,0-3,3v46.3a3,3,0,0,0,3,3h56.5a3,3,0,0,0,3-3V106.2A3,3,0,0,0,138.9,103.2Zm-3,46.3H85.4V109.2h50.5Z"/><rect x="107.3" y="123.8" width="6" height="13.58"/></svg>