<svg id="PIKTO_REGULAR" xmlns="http://www.w3.org/2000/svg" viewBox="0 0 170 170"><title>regular_black</title><rect x="36.4" y="98.5" width="15.5" height="6"/><path d="M152.5,79.3H134.7V49.3a3,3,0,0,0-.9-2.1L102,15.4a3,3,0,0,0-2.1-.9H38.3a3,3,0,0,0-3,3V79.3H17.5a3,3,0,0,0-3,3v56.3a3,3,0,0,0,3,3H35.3v10.9a3,3,0,0,0,3,3h93.4a3,3,0,0,0,3-3V141.6h17.8a3,3,0,0,0,3-3V82.3A3,3,0,0,0,152.5,79.3ZM102.9,24.7l21.6,21.6H102.9ZM41.3,20.5H96.9V49.3a3,3,0,0,0,3,3h28.8V79.3H41.3Zm87.4,129H41.3V121.9h87.4Zm20.8-13.9H134.7V118.9a3,3,0,0,0-3-3H38.3a3,3,0,0,0-3,3v16.7H20.5V85.3h129Z"/></svg>