<svg id="PIKTO_REGULAR" xmlns="http://www.w3.org/2000/svg" viewBox="0 0 170 170"><title>regular_black</title><rect x="77" y="135.2" width="16.1" height="6"/><path d="M111.9,14.5H58.1a14,14,0,0,0-14,14v113a14,14,0,0,0,14,14h53.9a14,14,0,0,0,14-14V28.5A14,14,0,0,0,111.9,14.5Zm-53.9,6h53.9a8,8,0,0,1,8,8V41.4H50.1V28.5A8,8,0,0,1,58.1,20.5Zm61.9,26.9v74.9H50.1V47.4Zm-8,102.1H58.1a8,8,0,0,1-8-8V128.3h69.9v13.2A8,8,0,0,1,111.9,149.5Z"/><path d="M91.8,96l6.4,2.3c-2.1,5.5-6.5,8.4-11.9,8.4-7,0-12.5-5.1-13.9-15H69V88h3.2c0-.5,0-1,0-1.6V85.1c0-.6,0-1.3,0-1.8H69V79.6h3.5c1.5-9.8,6.9-14.8,13.9-14.8,5.4,0,9.8,3,11.9,8.4l-6.4,2.3c-1.2-2.7-3.1-4.2-5.4-4.2s-5.7,2.6-6.6,8.2H94.4l-1,3.6h-14c0,.6,0,1.3,0,2v1.1c0,.6,0,1.2,0,1.7H92.1l-1,3.7H79.7c.9,5.9,3.5,8.5,6.7,8.5S90.6,98.7,91.8,96Z"/></svg>