<svg xmlns="http://www.w3.org/2000/svg" viewBox="0 0 170 170"><path d="M144.1 65.4v-6H25.9v6H35v78.5a11.6 11.6 0 0011.6 11.6h76.7a11.6 11.6 0 0011.7-11.6V65.4zM41 143.9V65.4h66.5v84.1H46.6a5.6 5.6 0 01-5.6-5.6zm88 0a5.6 5.6 0 01-5.6 5.6h-9.8V65.4H129z"/><path d="M149.2 23H20.8c-6.4 0-11.6 6.1-11.6 13.7v39.7c0 7.6 5.2 13.8 11.6 13.8h5v-6h-5c-3 0-5.6-3.6-5.6-7.8V36.7c0-4.2 2.6-7.8 5.6-7.8h128.4c3 0 5.6 3.6 5.6 7.8v39.7c0 4.2-2.6 7.8-5.6 7.8h-5v6h5c6.4 0 11.6-6.2 11.6-13.8V36.7c0-7.6-5.2-13.7-11.6-13.7z"/><path d="M124.7 40.8h19.4v6h-19.4zM58.9 114h6v19.45h-6z"/></svg>