<svg id="PIKTO_REGULAR" xmlns="http://www.w3.org/2000/svg" viewBox="0 0 170 170"><title>regular_black</title><rect x="59" y="107.3" width="6" height="15.5"/><rect x="105" y="107.3" width="6" height="15.5"/><rect x="82" y="107.3" width="6" height="15.5"/><rect x="59" y="77.3" width="6" height="15.5"/><rect x="105" y="77.3" width="6" height="15.5"/><rect x="82" y="77.3" width="6" height="15.5"/><rect x="59" y="50.3" width="6" height="15.5"/><rect x="105" y="50.3" width="6" height="15.5"/><rect x="82" y="50.3" width="6" height="15.5"/><rect x="59" y="20.3" width="6" height="15.5"/><rect x="105" y="20.3" width="6" height="15.5"/><rect x="82" y="20.3" width="6" height="15.5"/><path d="M130.1,159V8a3,3,0,0,0-3-3H42.9a3,3,0,0,0-3,3V159H8v6H162v-6Zm-65-.5V140.3h6.4v18.2Zm12.4.5V137.3a3,3,0,0,0-3-3H62.1a3,3,0,0,0-3,3V159H45.9V11h78.2V159Z"/></svg>