<svg id="PIKTO_REGULAR" xmlns="http://www.w3.org/2000/svg" viewBox="0 0 170 170"><title>regular_black</title><rect x="64.6" y="72.6" width="87.9" height="6"/><rect x="64.6" y="91.4" width="54.1" height="6"/><path d="M31.9,102.4A17.4,17.4,0,1,1,49.2,85,17.4,17.4,0,0,1,31.9,102.4Zm0-28.7A11.4,11.4,0,1,0,43.2,85,11.4,11.4,0,0,0,31.9,73.6Z"/><rect x="64.6" y="23.9" width="87.9" height="6"/><rect x="64.6" y="42.6" width="54.1" height="6"/><path d="M31.9,53.6A17.4,17.4,0,1,1,49.2,36.3,17.4,17.4,0,0,1,31.9,53.6Zm0-28.7A11.4,11.4,0,1,0,43.2,36.3,11.4,11.4,0,0,0,31.9,24.9Z"/><rect x="64.6" y="121.4" width="87.9" height="6"/><rect x="64.6" y="140.1" width="54.1" height="6"/><path d="M31.9,151.1a17.4,17.4,0,1,1,17.4-17.4A17.4,17.4,0,0,1,31.9,151.1Zm0-28.7a11.4,11.4,0,1,0,11.4,11.4A11.4,11.4,0,0,0,31.9,122.4Z"/></svg>