<svg id="PIKTO_REGULAR" xmlns="http://www.w3.org/2000/svg" viewBox="0 0 170 170"><title>regular_black</title><path d="M164.6,110.3h0L138.6,63.9H101.7v6H135l21.8,38.9H118.7a3,3,0,0,0-3,3v21.7H54.2V111.7a3,3,0,0,0-3-3H13.1L34.7,69.9H68v-6H32.9a3,3,0,0,0-2.6,1.5L5.4,110.3h0a3,3,0,0,0-.4,1.5V162a3,3,0,0,0,3,3H162a3,3,0,0,0,3-3V111.7A3,3,0,0,0,164.6,110.3ZM159,159H11V114.7H48.2v21.7a3,3,0,0,0,3,3h67.5a3,3,0,0,0,3-3V114.7H159Z"/><polygon points="125.2 45.2 85 5 44.8 45.2 49 49.5 82 16.5 82 123 88 123 88 16.5 121 49.5 125.2 45.2"/></svg>