<svg id="PIKTO_REGULAR" xmlns="http://www.w3.org/2000/svg" viewBox="0 0 170 170"><title>regular_black</title><path d="M149.7,154.9H20.3a15.6,15.6,0,0,1-13.6-7.4,12.3,12.3,0,0,1,0-12.6L71.4,22.5h0a16.2,16.2,0,0,1,27.2,0L163.3,135a12.3,12.3,0,0,1,0,12.6A15.6,15.6,0,0,1,149.7,154.9ZM76.6,25.5,11.9,137.9a6.3,6.3,0,0,0,0,6.6,9.6,9.6,0,0,0,8.4,4.4H149.7a9.6,9.6,0,0,0,8.4-4.4,6.3,6.3,0,0,0,0-6.6L93.4,25.5a10.2,10.2,0,0,0-16.8,0Z"/><path d="M80.1,79V66.6h9.7V79l-.3,25.8h-9Zm0,34.2h9.7v11.7H80.1Z"/></svg>