<svg id="PIKTO_REGULAR" xmlns="http://www.w3.org/2000/svg" viewBox="0 0 170 170"><title>regular_black</title><path d="M85,56.5A17.5,17.5,0,1,1,102.5,39,17.5,17.5,0,0,1,85,56.5Zm0-29A11.5,11.5,0,1,0,96.5,39,11.5,11.5,0,0,0,85,27.5Z"/><path d="M114,148.5H56a3,3,0,0,1-3-3.5l7.1-40.4V82.7A17.2,17.2,0,0,1,77.3,65.5H92.7a17.2,17.2,0,0,1,17.2,17.1v21.9L117,145a3,3,0,0,1-3,3.5Zm-54.4-6h50.9l-6.5-37.2a3,3,0,0,1,0-.5V82.7A11.2,11.2,0,0,0,92.7,71.5H77.3A11.2,11.2,0,0,0,66.1,82.7v22.2a3,3,0,0,1,0,.5Z"/></svg>