<svg xmlns="http://www.w3.org/2000/svg" viewBox="0 0 170 170"><path d="M61.2 29a13.3 13.3 0 0113.4-13.3h20.8a13.3 13.3 0 019.3 3.7l4.1-4.3a19 19 0 00-13.4-5.4H74.6A19.3 19.3 0 0055.2 29v.5h6z"/><path d="M70.6 28.2v58.2h6V50.6H84a3 3 0 003-3 6 6 0 016-6 3 3 0 003-3v-7.4h8.5v6a3.1 3.1 0 003 3 6 6 0 016 6 3.1 3.1 0 003 3h6.2v31.9h6V28.2a2.9 2.9 0 00-3-3H73.6a2.9 2.9 0 00-3 3zm39.9 3h12.2v12h-3.6a11.7 11.7 0 00-8.6-8.6zm-33.9 0H90V36a12.1 12.1 0 00-8.6 8.6h-4.8zm62.3 45.1h6V34.1a3 3 0 00-3-3h-7.2v6h4.2z"/><path d="M162 37.5h-10.3v6h7.3v33.2c-7.9 3.6-38.5 16.4-74 16.4S18.3 80 11 76.6V43.5h50.4v-6H8a2.9 2.9 0 00-3 3v113a2.9 2.9 0 003 3h154a2.9 2.9 0 003-3v-113a2.9 2.9 0 00-3-3zM60.5 97.2A159.1 159.1 0 0085 99.1a175.5 175.5 0 0023.5-1.7v3.9a10.6 10.6 0 01-10.7 10.6H71.2a10.6 10.6 0 01-10.7-10.6zM11 150.5V83.2a194.5 194.5 0 0043.5 13.1v5a16.6 16.6 0 0016.7 16.6h26.6a16.6 16.6 0 0016.7-16.6v-4.8A204.5 204.5 0 00159 83.3v67.2z"/><path d="M116.4 83.2v-1.5a16.8 16.8 0 10-33.5 0 16.4 16.4 0 001.3 6.5l5.5-2.3a12.5 12.5 0 01-.8-4.2 10.8 10.8 0 1121.5 0v1.5z"/></svg>