<svg xmlns="http://www.w3.org/2000/svg" viewBox="0 0 170 170"><path d="M128.9 129.6a18.9 18.9 0 01-13.2 5.4 18.5 18.5 0 01-13.2-5.4 24.7 24.7 0 00-35 0 18.5 18.5 0 01-13.2 5.4 18.9 18.9 0 01-13.2-5.4 24.2 24.2 0 00-17.4-7.3 24.6 24.6 0 00-17.5 7.3l4.3 4.2a18.6 18.6 0 0126.4 0 24.7 24.7 0 0034.9 0 18.6 18.6 0 0126.4 0 24.7 24.7 0 0034.9 0 18.6 18.6 0 0126.4 0l4.3-4.2a24.6 24.6 0 00-17.5-7.3 24.2 24.2 0 00-17.4 7.3zM164.6 73a2.9 2.9 0 00-2.6-1.5h-16v-15a3 3 0 00-3-3H89.8a3 3 0 00-3 3v25.2H73.1l5.3-34a2.9 2.9 0 00-.6-2.4 3 3 0 00-2.3-1.1H42.1v-18h-6v18h-6.5a2.9 2.9 0 00-2.1.9 3.1 3.1 0 00-.9 2.2l.4 34.4H14.5a2.9 2.9 0 00-3 3v30.2h6v-14h129.2a110.8 110.8 0 00-4.1 12.3l5.7 1.6c5.1-17.9 16.2-38.7 16.4-38.9a3 3 0 00-.1-2.9zM92.8 59.4H140v12h-22.5a3 3 0 00-2.1.8l-9.4 9.5H92.8zm56.3 35.5H17.5v-7.2H30a2.7 2.7 0 002.1-.9 2.9 2.9 0 00.9-2.1l-.3-34.5H72l-5.4 34.1a3.1 3.1 0 00.7 2.4 2.8 2.8 0 002.3 1h37.6a3 3 0 002.1-.8l9.4-9.4h38.4c-2 4-5.1 10.3-8 17.4z"/></svg>