<svg id="PIKTOGRAM" xmlns="http://www.w3.org/2000/svg" viewBox="0 0 170 170"><title>regular_black</title><metadata><?xpacket begin="﻿" id="W5M0MpCehiHzreSzNTczkc9d"?>
<x:xmpmeta xmlns:x="adobe:ns:meta/" x:xmptk="Adobe XMP Core 5.6-c137 79.159547, 2016/07/07-11:39:24        ">
   <rdf:RDF xmlns:rdf="http://www.w3.org/1999/02/22-rdf-syntax-ns#">
      <rdf:Description rdf:about=""
            xmlns:dc="http://purl.org/dc/elements/1.1/"
            xmlns:xmpMM="http://ns.adobe.com/xap/1.0/mm/"
            xmlns:stEvt="http://ns.adobe.com/xap/1.0/sType/ResourceEvent#"
            xmlns:xmp="http://ns.adobe.com/xap/1.0/">
         <dc:title>
            <rdf:Alt>
               <rdf:li xml:lang="x-default">regular_black</rdf:li>
            </rdf:Alt>
         </dc:title>
         <xmpMM:PreservedFileName>regular_black_4.svg</xmpMM:PreservedFileName>
         <xmpMM:InstanceID>xmp.iid:f69c24ff-f00d-184b-988a-fbea37e16829</xmpMM:InstanceID>
         <xmpMM:DocumentID>xmp.did:f69c24ff-f00d-184b-988a-fbea37e16829</xmpMM:DocumentID>
         <xmpMM:OriginalDocumentID>xmp.did:f69c24ff-f00d-184b-988a-fbea37e16829</xmpMM:OriginalDocumentID>
         <xmpMM:History>
            <rdf:Seq>
               <rdf:li>
                  <rdf:Description>
                     <stEvt:action>saved</stEvt:action>
                     <stEvt:instanceID>xmp.iid:f69c24ff-f00d-184b-988a-fbea37e16829</stEvt:instanceID>
                     <stEvt:when>2017-11-29T15:49:18+01:00</stEvt:when>
                     <stEvt:softwareAgent>Adobe Bridge CC 2017 (Windows)</stEvt:softwareAgent>
                     <stEvt:changed>/metadata</stEvt:changed>
                  </rdf:Description>
               </rdf:li>
            </rdf:Seq>
         </xmpMM:History>
         <xmp:MetadataDate>2017-11-29T15:49:18+01:00</xmp:MetadataDate>
      </rdf:Description>
   </rdf:RDF>
</x:xmpmeta>
                                                                                                    
                                                                                                    
                                                                                                    
                                                                                                    
                                                                                                    
                                                                                                    
                                                                                                    
                                                                                                    
                                                                                                    
                                                                                                    
                                                                                                    
                                                                                                    
                                                                                                    
                                                                                                    
                                                                                                    
                                                                                                    
                                                                                                    
                                                                                                    
                                                                                                    
                                                                                                    
                           
<?xpacket end="w"?></metadata>
<path d="M158.9,88l-13.6-5-7-16.9a9.1,9.1,0,0,0-8.4-5.7H106.4V33.6a3,3,0,0,0-3-3H8a3,3,0,0,0-3,3V122a2.9,2.9,0,0,0,3,3H25.1a17.3,17.3,0,0,0,34.1,0h51.6a17.3,17.3,0,0,0,34.1,0H162a2.9,2.9,0,0,0,3-3V96.6A9.2,9.2,0,0,0,158.9,88ZM100.4,36.6V91.8H11V36.6ZM42.2,133.4A11.4,11.4,0,1,1,53.5,122,11.4,11.4,0,0,1,42.2,133.4Zm85.6,0A11.4,11.4,0,1,1,139.2,122,11.4,11.4,0,0,1,127.8,133.4ZM159,119H144.9a17.3,17.3,0,0,0-34.1,0H59.2a17.3,17.3,0,0,0-34.1,0H11V97.8h92.4a2.9,2.9,0,0,0,3-3V66.4h23.5a2.9,2.9,0,0,1,2.8,2l7.5,18.1a2.8,2.8,0,0,0,1.8,1.6l14.8,5.6h.1a3,3,0,0,1,2.1,2.9Z"/><rect x="113.5" y="85" width="15" height="6"/></svg>