<svg id="PIKTOGRAM" xmlns="http://www.w3.org/2000/svg" viewBox="0 0 170 170"><title>regular_black</title><metadata><?xpacket begin="﻿" id="W5M0MpCehiHzreSzNTczkc9d"?>
<x:xmpmeta xmlns:x="adobe:ns:meta/" x:xmptk="Adobe XMP Core 5.6-c137 79.159547, 2016/07/07-11:39:24        ">
   <rdf:RDF xmlns:rdf="http://www.w3.org/1999/02/22-rdf-syntax-ns#">
      <rdf:Description rdf:about=""
            xmlns:dc="http://purl.org/dc/elements/1.1/"
            xmlns:xmpMM="http://ns.adobe.com/xap/1.0/mm/"
            xmlns:stEvt="http://ns.adobe.com/xap/1.0/sType/ResourceEvent#"
            xmlns:xmp="http://ns.adobe.com/xap/1.0/">
         <dc:title>
            <rdf:Alt>
               <rdf:li xml:lang="x-default">regular_black</rdf:li>
            </rdf:Alt>
         </dc:title>
         <xmpMM:PreservedFileName>regular_black_6.svg</xmpMM:PreservedFileName>
         <xmpMM:InstanceID>xmp.iid:a691938b-d1cf-8f4a-a608-52c9de623508</xmpMM:InstanceID>
         <xmpMM:DocumentID>xmp.did:a691938b-d1cf-8f4a-a608-52c9de623508</xmpMM:DocumentID>
         <xmpMM:OriginalDocumentID>xmp.did:a691938b-d1cf-8f4a-a608-52c9de623508</xmpMM:OriginalDocumentID>
         <xmpMM:History>
            <rdf:Seq>
               <rdf:li>
                  <rdf:Description>
                     <stEvt:action>saved</stEvt:action>
                     <stEvt:instanceID>xmp.iid:a691938b-d1cf-8f4a-a608-52c9de623508</stEvt:instanceID>
                     <stEvt:when>2017-11-29T15:49:18+01:00</stEvt:when>
                     <stEvt:softwareAgent>Adobe Bridge CC 2017 (Windows)</stEvt:softwareAgent>
                     <stEvt:changed>/metadata</stEvt:changed>
                  </rdf:Description>
               </rdf:li>
            </rdf:Seq>
         </xmpMM:History>
         <xmp:MetadataDate>2017-11-29T15:49:18+01:00</xmp:MetadataDate>
      </rdf:Description>
   </rdf:RDF>
</x:xmpmeta>
                                                                                                    
                                                                                                    
                                                                                                    
                                                                                                    
                                                                                                    
                                                                                                    
                                                                                                    
                                                                                                    
                                                                                                    
                                                                                                    
                                                                                                    
                                                                                                    
                                                                                                    
                                                                                                    
                                                                                                    
                                                                                                    
                                                                                                    
                                                                                                    
                                                                                                    
                                                                                                    
                           
<?xpacket end="w"?></metadata>
<path d="M115.8,46.9a30.8,30.8,0,1,0,30.9,30.8A30.8,30.8,0,0,0,115.8,46.9Zm0,55.6a24.8,24.8,0,1,1,24.9-24.8A24.8,24.8,0,0,1,115.8,102.5Z"/><rect x="149.5" y="99.6" width="6" height="29.38" transform="translate(-36.2 141.3) rotate(-45)"/><path d="M11,113v-3.8H80.6v-6H11V40.3H156V90.2h6V29.6a12,12,0,0,0-12-12H17a12,12,0,0,0-12,12V113a12,12,0,0,0,12,12H58.9v8.8a12.7,12.7,0,0,1-12.7,12.6,3.1,3.1,0,0,0-3,3,3,3,0,0,0,3,3h73.7a3,3,0,0,0,3-3,3.1,3.1,0,0,0-3-3,12.7,12.7,0,0,1-12.7-12.6V125h28.5v-6H17A6,6,0,0,1,11,113Zm6-89.4H150a6,6,0,0,1,6,6v4.7H11V29.6A6,6,0,0,1,17,23.6Zm89.2,122.8H59.9a18.5,18.5,0,0,0,5-12.6V125h36.3v8.8A18.5,18.5,0,0,0,106.2,146.4Z"/></svg>