<svg xmlns="http://www.w3.org/2000/svg" viewBox="0 0 170 170"><path d="M115.8 46.9a30.8 30.8 0 1030.9 30.8 30.8 30.8 0 00-30.9-30.8zm0 55.6a24.8 24.8 0 1124.9-24.8 24.8 24.8 0 01-24.9 24.8zm24.14 3.515l4.243-4.242 20.775 20.775-4.243 4.242z"/><path d="M11 113v-3.8h69.6v-6H11V40.3h145v49.9h6V29.6a12 12 0 00-12-12H17a12 12 0 00-12 12V113a12 12 0 0012 12h41.9v8.8a12.7 12.7 0 01-12.7 12.6 3.1 3.1 0 00-3 3 3 3 0 003 3h73.7a3 3 0 003-3 3.1 3.1 0 00-3-3 12.7 12.7 0 01-12.7-12.6V125h28.5v-6H17a6 6 0 01-6-6zm6-89.4h133a6 6 0 016 6v4.7H11v-4.7a6 6 0 016-6zm89.2 122.8H59.9a18.5 18.5 0 005-12.6V125h36.3v8.8a18.5 18.5 0 005 12.6z"/></svg>