<svg id="PIKTOGRAM" xmlns="http://www.w3.org/2000/svg" viewBox="0 0 170 170"><title>regular_black</title><metadata><?xpacket begin="﻿" id="W5M0MpCehiHzreSzNTczkc9d"?>
<x:xmpmeta xmlns:x="adobe:ns:meta/" x:xmptk="Adobe XMP Core 5.6-c137 79.159547, 2016/07/07-11:39:24        ">
   <rdf:RDF xmlns:rdf="http://www.w3.org/1999/02/22-rdf-syntax-ns#">
      <rdf:Description rdf:about=""
            xmlns:dc="http://purl.org/dc/elements/1.1/"
            xmlns:xmpMM="http://ns.adobe.com/xap/1.0/mm/"
            xmlns:stEvt="http://ns.adobe.com/xap/1.0/sType/ResourceEvent#"
            xmlns:xmp="http://ns.adobe.com/xap/1.0/">
         <dc:title>
            <rdf:Alt>
               <rdf:li xml:lang="x-default">regular_black</rdf:li>
            </rdf:Alt>
         </dc:title>
         <xmpMM:PreservedFileName>regular_black_7.svg</xmpMM:PreservedFileName>
         <xmpMM:InstanceID>xmp.iid:83323e65-7005-5c46-a8f5-bccbc2fae33a</xmpMM:InstanceID>
         <xmpMM:DocumentID>xmp.did:83323e65-7005-5c46-a8f5-bccbc2fae33a</xmpMM:DocumentID>
         <xmpMM:OriginalDocumentID>xmp.did:83323e65-7005-5c46-a8f5-bccbc2fae33a</xmpMM:OriginalDocumentID>
         <xmpMM:History>
            <rdf:Seq>
               <rdf:li>
                  <rdf:Description>
                     <stEvt:action>saved</stEvt:action>
                     <stEvt:instanceID>xmp.iid:83323e65-7005-5c46-a8f5-bccbc2fae33a</stEvt:instanceID>
                     <stEvt:when>2017-11-29T15:49:18+01:00</stEvt:when>
                     <stEvt:softwareAgent>Adobe Bridge CC 2017 (Windows)</stEvt:softwareAgent>
                     <stEvt:changed>/metadata</stEvt:changed>
                  </rdf:Description>
               </rdf:li>
            </rdf:Seq>
         </xmpMM:History>
         <xmp:MetadataDate>2017-11-29T15:49:18+01:00</xmp:MetadataDate>
      </rdf:Description>
   </rdf:RDF>
</x:xmpmeta>
                                                                                                    
                                                                                                    
                                                                                                    
                                                                                                    
                                                                                                    
                                                                                                    
                                                                                                    
                                                                                                    
                                                                                                    
                                                                                                    
                                                                                                    
                                                                                                    
                                                                                                    
                                                                                                    
                                                                                                    
                                                                                                    
                                                                                                    
                                                                                                    
                                                                                                    
                                                                                                    
                           
<?xpacket end="w"?></metadata>
<path d="M162,60.6a2.9,2.9,0,0,0,3-3V11a2.9,2.9,0,0,0-3-3H8a2.9,2.9,0,0,0-3,3V57.6a2.9,2.9,0,0,0,3,3H82V70.9H8a3,3,0,0,0-3,3v46.7a3,3,0,0,0,3,3H82V131a15.7,15.7,0,0,0-12.4,12.3H17.5v6H69.6a15.7,15.7,0,0,0,30.8,0h52.1v-6H100.4A15.7,15.7,0,0,0,88,131v-7.4h74a3,3,0,0,0,3-3V73.9a3,3,0,0,0-3-3H88V60.6ZM94.7,146.3a9.7,9.7,0,1,1-9.7-9.6A9.7,9.7,0,0,1,94.7,146.3ZM159,117.6H11V76.9H159ZM11,14H159V54.6H11Z"/><rect x="24.1" y="24.3" width="23.4" height="6"/><rect x="24.1" y="38.5" width="23.4" height="6"/><rect x="140" y="28.7" width="6" height="11.29"/><rect x="24.1" y="87.2" width="23.4" height="6"/><rect x="24.1" y="101.5" width="23.4" height="6"/><rect x="140" y="91.6" width="6" height="11.29"/></svg>