<svg id="PIKTO_REGULAR" xmlns="http://www.w3.org/2000/svg" viewBox="0 0 170 170"><title>regular_black</title><path d="M136.4,107.5a28.4,28.4,0,0,0-10.9,2.2L101.9,66.2a3,3,0,0,0-2.6-1.6H78.9v6H97.5l8.2,15.1H59.8L53.4,75.1h7.1v-6H39.6v6h6.8l8.3,13.7L44.1,109.4a28.4,28.4,0,0,0-10.3-1.9,28.7,28.7,0,1,0,15.7,4.7l8.8-17.3L82.5,135a3,3,0,0,0,5.1,0l23.6-39.1,9,16.6a28.6,28.6,0,1,0,16.2-5.1Zm-80,28.7a22.6,22.6,0,1,1-22.6-22.7,22.4,22.4,0,0,1,7.6,1.3l-10.3,20,5.3,2.7,10.2-20A22.7,22.7,0,0,1,56.4,136.2ZM85,127.7,63.4,91.7h43.3ZM136.4,159A22.8,22.8,0,0,1,123,117.9l10.7,19.8,5.3-2.9L128.3,115a22.4,22.4,0,0,1,8.1-1.5,22.8,22.8,0,0,1,0,45.5Z"/></svg>