<svg xmlns="http://www.w3.org/2000/svg" viewBox="0 0 170 170"><path d="M149.5 118a33.4 33.4 0 00-30.4 19.6A33.6 33.6 0 0088.7 118a2.9 2.9 0 00-3 3 33.5 33.5 0 0030.4 33.3V165h6v-10.7a33.5 33.5 0 0030.4-33.3 3 3 0 00-3-3zm-57.6 6.2a27.5 27.5 0 0124 24 27.2 27.2 0 01-24-24zm30.4 24a27.3 27.3 0 0124-24 27.4 27.4 0 01-24 24z"/><path d="M149.5 82.6a33.3 33.3 0 00-30.4 19.6 33.4 33.4 0 00-30.4-19.6 2.9 2.9 0 00-3 3 33.4 33.4 0 0066.8 0 3 3 0 00-3-3zm-57.6 6.1a27.6 27.6 0 0124 24.1 27.4 27.4 0 01-24-24.1zm30.4 24.1a27.4 27.4 0 0124-24.1 27.6 27.6 0 01-24 24.1z"/><path d="M119.1 83.5a33.5 33.5 0 0033.4-33.4 3 3 0 00-3-3 33.4 33.4 0 00-30.4 19.6 33.6 33.6 0 00-30.4-19.6 2.9 2.9 0 00-3 3 33.5 33.5 0 0033.4 33.4zm27.2-30.2a27.4 27.4 0 01-24 24 27.3 27.3 0 0124-24zm-30.4 24a27.2 27.2 0 01-24-24 27.5 27.5 0 0124 24z"/><path d="M119.1 53.9a3 3 0 002.1-.9 33.4 33.4 0 000-47.2 2.9 2.9 0 00-4.2 0 33.3 33.3 0 000 47.2 2.7 2.7 0 002.1.9zm0-41.5a27.6 27.6 0 010 34 27.4 27.4 0 010-34zM71.3 116a28.5 28.5 0 00-25.4 15.7A28.5 28.5 0 0020.5 116a2.9 2.9 0 00-3 3 28.4 28.4 0 0025.4 28.2V165h6v-17.8A28.4 28.4 0 0074.3 119a2.9 2.9 0 00-3-3zm-47.6 6.2a22.7 22.7 0 0119 19 22.7 22.7 0 01-19-19zm25.4 19a22.6 22.6 0 0119-19 22.7 22.7 0 01-19 19zm-3.2-29a28.4 28.4 0 0028.4-28.4 3 3 0 00-3-3 28.5 28.5 0 00-25.4 15.7 28.5 28.5 0 00-25.4-15.7 3 3 0 00-3 3 28.4 28.4 0 0028.4 28.4zm22.2-25.1a22.6 22.6 0 01-19 18.9 22.4 22.4 0 0119-18.9zM42.7 106a22.6 22.6 0 01-19-18.9 22.5 22.5 0 0119 18.9z"/><path d="M45.9 81.6a2.9 2.9 0 002.1-.9 27.7 27.7 0 008.3-20A28.1 28.1 0 0048 40.6a2.9 2.9 0 00-4.2 0 28.3 28.3 0 000 40.1 2.9 2.9 0 002.1.9zm0-34.3a22.6 22.6 0 010 26.8 22.5 22.5 0 010-26.8z"/></svg>