<svg id="PIKTOGRAM" xmlns="http://www.w3.org/2000/svg" viewBox="0 0 170 170"><title>regular_black</title><metadata><?xpacket begin="﻿" id="W5M0MpCehiHzreSzNTczkc9d"?>
<x:xmpmeta xmlns:x="adobe:ns:meta/" x:xmptk="Adobe XMP Core 5.6-c137 79.159547, 2016/07/07-11:39:24        ">
   <rdf:RDF xmlns:rdf="http://www.w3.org/1999/02/22-rdf-syntax-ns#">
      <rdf:Description rdf:about=""
            xmlns:dc="http://purl.org/dc/elements/1.1/"
            xmlns:xmpMM="http://ns.adobe.com/xap/1.0/mm/"
            xmlns:stEvt="http://ns.adobe.com/xap/1.0/sType/ResourceEvent#"
            xmlns:xmp="http://ns.adobe.com/xap/1.0/">
         <dc:title>
            <rdf:Alt>
               <rdf:li xml:lang="x-default">regular_black</rdf:li>
            </rdf:Alt>
         </dc:title>
         <xmpMM:PreservedFileName>regular_black_9.svg</xmpMM:PreservedFileName>
         <xmpMM:InstanceID>xmp.iid:63e02b99-211e-4a4f-a19f-8e1c33433b56</xmpMM:InstanceID>
         <xmpMM:DocumentID>xmp.did:63e02b99-211e-4a4f-a19f-8e1c33433b56</xmpMM:DocumentID>
         <xmpMM:OriginalDocumentID>xmp.did:63e02b99-211e-4a4f-a19f-8e1c33433b56</xmpMM:OriginalDocumentID>
         <xmpMM:History>
            <rdf:Seq>
               <rdf:li>
                  <rdf:Description>
                     <stEvt:action>saved</stEvt:action>
                     <stEvt:instanceID>xmp.iid:63e02b99-211e-4a4f-a19f-8e1c33433b56</stEvt:instanceID>
                     <stEvt:when>2017-11-29T15:49:18+01:00</stEvt:when>
                     <stEvt:softwareAgent>Adobe Bridge CC 2017 (Windows)</stEvt:softwareAgent>
                     <stEvt:changed>/metadata</stEvt:changed>
                  </rdf:Description>
               </rdf:li>
            </rdf:Seq>
         </xmpMM:History>
         <xmp:MetadataDate>2017-11-29T15:49:18+01:00</xmp:MetadataDate>
      </rdf:Description>
   </rdf:RDF>
</x:xmpmeta>
                                                                                                    
                                                                                                    
                                                                                                    
                                                                                                    
                                                                                                    
                                                                                                    
                                                                                                    
                                                                                                    
                                                                                                    
                                                                                                    
                                                                                                    
                                                                                                    
                                                                                                    
                                                                                                    
                                                                                                    
                                                                                                    
                                                                                                    
                                                                                                    
                                                                                                    
                                                                                                    
                           
<?xpacket end="w"?></metadata>
<path d="M149.5,118a33.4,33.4,0,0,0-30.4,19.6A33.6,33.6,0,0,0,88.7,118a2.9,2.9,0,0,0-3,3,33.5,33.5,0,0,0,30.4,33.3V165h6V154.3A33.5,33.5,0,0,0,152.5,121,3,3,0,0,0,149.5,118Zm-57.6,6.2a27.5,27.5,0,0,1,24,24A27.2,27.2,0,0,1,91.9,124.2Zm30.4,24a27.3,27.3,0,0,1,24-24A27.4,27.4,0,0,1,122.3,148.2Z"/><path d="M149.5,82.6a33.3,33.3,0,0,0-30.4,19.6A33.4,33.4,0,0,0,88.7,82.6a2.9,2.9,0,0,0-3,3,33.4,33.4,0,0,0,66.8,0A3,3,0,0,0,149.5,82.6ZM91.9,88.7a27.6,27.6,0,0,1,24,24.1A27.4,27.4,0,0,1,91.9,88.7Zm30.4,24.1a27.4,27.4,0,0,1,24-24.1A27.6,27.6,0,0,1,122.3,112.8Z"/><path d="M119.1,83.5a33.5,33.5,0,0,0,33.4-33.4,3,3,0,0,0-3-3,33.4,33.4,0,0,0-30.4,19.6A33.6,33.6,0,0,0,88.7,47.1a2.9,2.9,0,0,0-3,3A33.5,33.5,0,0,0,119.1,83.5Zm27.2-30.2a27.4,27.4,0,0,1-24,24A27.3,27.3,0,0,1,146.3,53.3Zm-30.4,24a27.2,27.2,0,0,1-24-24A27.5,27.5,0,0,1,115.9,77.3Z"/><path d="M119.1,53.9a3,3,0,0,0,2.1-.9,33.4,33.4,0,0,0,0-47.2,2.9,2.9,0,0,0-4.2,0A33.3,33.3,0,0,0,117,53,2.7,2.7,0,0,0,119.1,53.9Zm0-41.5a27.6,27.6,0,0,1,0,34A27.4,27.4,0,0,1,119.1,12.4Z"/><path d="M71.3,116a28.5,28.5,0,0,0-25.4,15.7A28.5,28.5,0,0,0,20.5,116a2.9,2.9,0,0,0-3,3,28.4,28.4,0,0,0,25.4,28.2V165h6V147.2A28.4,28.4,0,0,0,74.3,119,2.9,2.9,0,0,0,71.3,116Zm-47.6,6.2a22.7,22.7,0,0,1,19,19A22.7,22.7,0,0,1,23.7,122.2Zm25.4,19a22.6,22.6,0,0,1,19-19A22.7,22.7,0,0,1,49.1,141.2Z"/><path d="M45.9,112.2A28.4,28.4,0,0,0,74.3,83.8a3,3,0,0,0-3-3A28.5,28.5,0,0,0,45.9,96.5,28.5,28.5,0,0,0,20.5,80.8a3,3,0,0,0-3,3A28.4,28.4,0,0,0,45.9,112.2ZM68.1,87.1a22.6,22.6,0,0,1-19,18.9A22.4,22.4,0,0,1,68.1,87.1ZM42.7,106a22.6,22.6,0,0,1-19-18.9A22.5,22.5,0,0,1,42.7,106Z"/><path d="M45.9,81.6a2.9,2.9,0,0,0,2.1-.9,27.7,27.7,0,0,0,8.3-20A28.1,28.1,0,0,0,48,40.6a2.9,2.9,0,0,0-4.2,0,28.3,28.3,0,0,0,0,40.1A2.9,2.9,0,0,0,45.9,81.6Zm0-34.3a22.6,22.6,0,0,1,0,26.8A22.5,22.5,0,0,1,45.9,47.3Z"/></svg>