<svg id="PIKTOGRAM" xmlns="http://www.w3.org/2000/svg" viewBox="0 0 170 170"><title>regular_black</title><metadata><?xpacket begin="﻿" id="W5M0MpCehiHzreSzNTczkc9d"?>
<x:xmpmeta xmlns:x="adobe:ns:meta/" x:xmptk="Adobe XMP Core 5.6-c137 79.159547, 2016/07/07-11:39:24        ">
   <rdf:RDF xmlns:rdf="http://www.w3.org/1999/02/22-rdf-syntax-ns#">
      <rdf:Description rdf:about=""
            xmlns:dc="http://purl.org/dc/elements/1.1/"
            xmlns:xmpMM="http://ns.adobe.com/xap/1.0/mm/"
            xmlns:stEvt="http://ns.adobe.com/xap/1.0/sType/ResourceEvent#"
            xmlns:xmp="http://ns.adobe.com/xap/1.0/">
         <dc:title>
            <rdf:Alt>
               <rdf:li xml:lang="x-default">regular_black</rdf:li>
            </rdf:Alt>
         </dc:title>
         <xmpMM:PreservedFileName>regular_black_10.svg</xmpMM:PreservedFileName>
         <xmpMM:InstanceID>xmp.iid:256fe063-3391-a04c-ae31-cbb93b2d75de</xmpMM:InstanceID>
         <xmpMM:DocumentID>xmp.did:256fe063-3391-a04c-ae31-cbb93b2d75de</xmpMM:DocumentID>
         <xmpMM:OriginalDocumentID>xmp.did:256fe063-3391-a04c-ae31-cbb93b2d75de</xmpMM:OriginalDocumentID>
         <xmpMM:History>
            <rdf:Seq>
               <rdf:li>
                  <rdf:Description>
                     <stEvt:action>saved</stEvt:action>
                     <stEvt:instanceID>xmp.iid:256fe063-3391-a04c-ae31-cbb93b2d75de</stEvt:instanceID>
                     <stEvt:when>2017-11-29T15:49:18+01:00</stEvt:when>
                     <stEvt:softwareAgent>Adobe Bridge CC 2017 (Windows)</stEvt:softwareAgent>
                     <stEvt:changed>/metadata</stEvt:changed>
                  </rdf:Description>
               </rdf:li>
            </rdf:Seq>
         </xmpMM:History>
         <xmp:MetadataDate>2017-11-29T15:49:18+01:00</xmp:MetadataDate>
      </rdf:Description>
   </rdf:RDF>
</x:xmpmeta>
                                                                                                    
                                                                                                    
                                                                                                    
                                                                                                    
                                                                                                    
                                                                                                    
                                                                                                    
                                                                                                    
                                                                                                    
                                                                                                    
                                                                                                    
                                                                                                    
                                                                                                    
                                                                                                    
                                                                                                    
                                                                                                    
                                                                                                    
                                                                                                    
                                                                                                    
                                                                                                    
                           
<?xpacket end="w"?></metadata>
<path d="M89.4,79h-57V70.5a3.1,3.1,0,0,0-3-3,6.9,6.9,0,0,1-6.9-6.9,3.1,3.1,0,0,0-3-3H11V39.3h8.5a3.1,3.1,0,0,0,3-3,6.9,6.9,0,0,1,6.9-6.9,3.1,3.1,0,0,0,3-3V17.6h89.5v8.8a3,3,0,0,0,3,3,6.9,6.9,0,0,1,6.9,6.9,3,3,0,0,0,3,3h8.4v8.3h6v-33a3,3,0,0,0-3-3H8a3,3,0,0,0-3,3V82a2.9,2.9,0,0,0,3,3H89.4Zm53.8-45.7h-5.8a13.1,13.1,0,0,0-9.5-9.6V17.6h15.3ZM26.4,17.6v6.1a13,13,0,0,0-9.6,9.6H11V17.6ZM11,63.6h5.8a12.9,12.9,0,0,0,9.6,9.6V79H11Z"/><path d="M79.2,36.1c2.4,0,4,1.4,5.1,3.5l4.8-2.2a10.4,10.4,0,0,0-9.8-6.2c-6,0-10,3.8-10,9.7v4.4H66.6v3.8h2.7v9.5H65.7v5h23v-5H75V49.1h7.3V45.3H75v-4C75,37.8,76.6,36.1,79.2,36.1Z"/><path d="M59.3,95.7a33.2,33.2,0,1,0,33.1,33.2A33.2,33.2,0,0,0,59.3,95.7Zm0,60.3a27.2,27.2,0,1,1,27.1-27.1A27.1,27.1,0,0,1,59.3,156Z"/><path d="M60,117.5c1.8,0,3.3,1.1,4.2,3.2l5.1-1.7a9.9,9.9,0,0,0-9.4-6.7c-5.4,0-9.7,4-10.8,11.6H46.3v2.9h2.5v3.7H46.3v2.9H49c1.1,7.8,5.4,11.7,10.9,11.7a9.8,9.8,0,0,0,9.4-6.6l-5.1-1.7c-.9,2.1-2.4,3.2-4.2,3.2s-4.5-2-5.3-6.6h9l.7-2.9H54.5a5.7,5.7,0,0,1-.1-1.3v-.9a7.6,7.6,0,0,1,.1-1.5H65.4l.8-2.9H54.8C55.5,119.5,57.5,117.5,60,117.5Z"/><path d="M131.9,56.9A33.2,33.2,0,1,0,165,90,33.2,33.2,0,0,0,131.9,56.9Zm0,60.3A27.2,27.2,0,1,1,159,90,27.2,27.2,0,0,1,131.9,117.2Z"/><path d="M136.1,87.7l-4.4-.8c-2.8-.5-4.7-1.7-4.7-4.1s2-4.4,5.3-4.4a7.4,7.4,0,0,1,6.7,4.2l5.2-2.1a12.5,12.5,0,0,0-9.2-6.8V69.4h-3.8v4.1c-5.9.5-9.9,4.2-9.9,9v.4c0,5.8,4.9,7.9,9.3,8.7l4.3.8c2.1.4,4.3,1.5,4.3,4.2s-2.7,4.8-6.1,4.8a7.4,7.4,0,0,1-7.1-4.8l-5.2,2.2a12.3,12.3,0,0,0,10.4,7.4v4.2H135v-4.2c5.7-.7,9.8-4.5,9.8-9.9V96C144.8,90.4,140.2,88.4,136.1,87.7Z"/></svg>