<svg xmlns="http://www.w3.org/2000/svg" viewBox="0 0 170 170"><path d="M162 152.4H8a2.8 2.8 0 01-2.7-1.8 2.9 2.9 0 01.5-3.2l47-50.9a2.9 2.9 0 013.9-.4l14.8 11.1 21.2-33.4a2.9 2.9 0 012.3-1.5 3 3 0 012.5 1l17.8 20.9 44.1-75.3a3.2 3.2 0 013.4-1.3 3 3 0 012.2 2.9v128.9a2.7 2.7 0 01-.9 2.1 2.9 2.9 0 01-2.1.9zm-147.1-6H159V31.2l-40.7 69.7a3.1 3.1 0 01-2.3 1.4 2.9 2.9 0 01-2.5-1L95.7 80.4 75.1 113a3 3 0 01-2 1.4 2.8 2.8 0 01-2.3-.5l-15.4-11.4zM5 71.9h49.9v6H5zm0-26.8h77v6H5zm0-27.6h102.2v6H5z"/></svg>