<svg id="PIKTOGRAM" xmlns="http://www.w3.org/2000/svg" viewBox="0 0 170 170"><title>regular_black</title><metadata><?xpacket begin="﻿" id="W5M0MpCehiHzreSzNTczkc9d"?>
<x:xmpmeta xmlns:x="adobe:ns:meta/" x:xmptk="Adobe XMP Core 5.6-c137 79.159547, 2016/07/07-11:39:24        ">
   <rdf:RDF xmlns:rdf="http://www.w3.org/1999/02/22-rdf-syntax-ns#">
      <rdf:Description rdf:about=""
            xmlns:dc="http://purl.org/dc/elements/1.1/"
            xmlns:xmpMM="http://ns.adobe.com/xap/1.0/mm/"
            xmlns:stEvt="http://ns.adobe.com/xap/1.0/sType/ResourceEvent#"
            xmlns:xmp="http://ns.adobe.com/xap/1.0/">
         <dc:title>
            <rdf:Alt>
               <rdf:li xml:lang="x-default">regular_black</rdf:li>
            </rdf:Alt>
         </dc:title>
         <xmpMM:PreservedFileName>regular_black_16.svg</xmpMM:PreservedFileName>
         <xmpMM:InstanceID>xmp.iid:4188f48c-72c0-f04f-977c-9155800163e2</xmpMM:InstanceID>
         <xmpMM:DocumentID>xmp.did:4188f48c-72c0-f04f-977c-9155800163e2</xmpMM:DocumentID>
         <xmpMM:OriginalDocumentID>xmp.did:4188f48c-72c0-f04f-977c-9155800163e2</xmpMM:OriginalDocumentID>
         <xmpMM:History>
            <rdf:Seq>
               <rdf:li>
                  <rdf:Description>
                     <stEvt:action>saved</stEvt:action>
                     <stEvt:instanceID>xmp.iid:4188f48c-72c0-f04f-977c-9155800163e2</stEvt:instanceID>
                     <stEvt:when>2017-11-29T15:49:19+01:00</stEvt:when>
                     <stEvt:softwareAgent>Adobe Bridge CC 2017 (Windows)</stEvt:softwareAgent>
                     <stEvt:changed>/metadata</stEvt:changed>
                  </rdf:Description>
               </rdf:li>
            </rdf:Seq>
         </xmpMM:History>
         <xmp:MetadataDate>2017-11-29T15:49:19+01:00</xmp:MetadataDate>
      </rdf:Description>
   </rdf:RDF>
</x:xmpmeta>
                                                                                                    
                                                                                                    
                                                                                                    
                                                                                                    
                                                                                                    
                                                                                                    
                                                                                                    
                                                                                                    
                                                                                                    
                                                                                                    
                                                                                                    
                                                                                                    
                                                                                                    
                                                                                                    
                                                                                                    
                                                                                                    
                                                                                                    
                                                                                                    
                                                                                                    
                                                                                                    
                           
<?xpacket end="w"?></metadata>
<path d="M134,63.2a10.7,10.7,0,0,0-7.4-3,10.5,10.5,0,0,0-7.3,3,10.6,10.6,0,0,0-2.9,5.4h-9a3.1,3.1,0,0,0-2.2.9l-7,7.1V50.8a10.8,10.8,0,0,0,4.3-2.6,10.5,10.5,0,0,0,0-14.7h0A10.4,10.4,0,1,0,92.2,50.8V96.2L78.8,82.8a2.9,2.9,0,0,0-2.1-.9H67.3a9.9,9.9,0,0,0-2.6-4.2,10.4,10.4,0,1,0-7.3,17.7,10.1,10.1,0,0,0,7.3-3.1,9.1,9.1,0,0,0,2.6-4.4h8.1l16.8,16.8v48h6V85.1l10.4-10.5h8.5a10.2,10.2,0,0,0,9.5,6.3,10.3,10.3,0,0,0,7.4-3A10.5,10.5,0,0,0,134,63.2ZM60.5,88.1a4.4,4.4,0,0,1-6.2-6.2,4.2,4.2,0,0,1,3.1-1.3,4.3,4.3,0,0,1,3.1,1.3A4.4,4.4,0,0,1,60.5,88.1ZM92.1,37.8a4,4,0,0,1,3.1-1.3,4.3,4.3,0,0,1,3.1,1.3,4.4,4.4,0,1,1-6.2,0Zm37.6,35.9a4.3,4.3,0,0,1-3.1,1.2,4.7,4.7,0,0,1-3.1-1.2,4.4,4.4,0,0,1,0-6.2h0a4.3,4.3,0,0,1,3.1-1.3,4,4,0,0,1,3.1,1.3A4.4,4.4,0,0,1,129.7,73.7Z"/><path d="M135.1,21.2a57.6,57.6,0,0,0-43-16.1A59.5,59.5,0,0,0,52.5,21.7,54.5,54.5,0,0,0,36.4,60.9a7.2,7.2,0,0,1-1.2,4L18.4,91.5a10.2,10.2,0,0,0-.2,10.5,10.3,10.3,0,0,0,9.1,5.4h7.1a1.9,1.9,0,0,1,2,1.9V119a19.4,19.4,0,0,0,19.4,19.4h8V162a3,3,0,0,0,3,3h55.9a3,3,0,0,0,3-3V127.4a29.6,29.6,0,0,1,9-21.5,58.4,58.4,0,0,0,.4-84.7Zm-4.5,80.3a35.9,35.9,0,0,0-10.9,25.9V159H69.8V135.4a3,3,0,0,0-3-3h-11A13.4,13.4,0,0,1,42.4,119v-9.7a7.9,7.9,0,0,0-8-7.9H27.3a4.5,4.5,0,0,1-3.9-2.3,4.3,4.3,0,0,1,.1-4.4L40.3,68.1a13.4,13.4,0,0,0,2.1-7.2c0-27.6,21-48.6,50-49.9a52.3,52.3,0,0,1,54.7,52.4A51.5,51.5,0,0,1,130.6,101.5Z"/></svg>