<svg id="PIKTO_REGULAR" xmlns="http://www.w3.org/2000/svg" viewBox="0 0 170 170"><title>regular_black</title><path d="M145.6,87.6H24.4A19.4,19.4,0,0,1,5,68.2h6A13.4,13.4,0,0,0,24.4,81.6H145.6A13.4,13.4,0,0,0,159,68.2h6A19.4,19.4,0,0,1,145.6,87.6Z"/><path d="M132.7,71.2H102.9a3,3,0,0,1-3-2.7L94.2,19.1a3,3,0,0,1,3-3.3h41.2a3,3,0,0,1,3,3.3l-5.7,49.4A3,3,0,0,1,132.7,71.2Zm-27.1-6H130l5-43.4H100.5Z"/><path d="M91.3,71.2H38.9a3,3,0,0,1-2.1-.9L19.5,53a3,3,0,0,1,2.1-5.1H87.9v6h-59L40.2,65.2H91.3Z"/><rect x="4.3" y="159" width="161.4" height="6"/><polygon points="42.2 149.3 66.9 124.6 62.7 120.4 45.2 137.8 45.2 100.1 39.2 100.1 39.2 137.8 21.8 120.3 17.5 124.6 42.2 149.3"/></svg>