<svg id="PIKTO_REGULAR" xmlns="http://www.w3.org/2000/svg" viewBox="0 0 170 170"><title>regular_black</title><path d="M144.9,146.6H43.6a3,3,0,0,1-3-3V8a3,3,0,0,1,3-3h76.6a3,3,0,0,1,2.1.9L147,30.5a3,3,0,0,1,.9,2.1V143.6A3,3,0,0,1,144.9,146.6Zm-98.3-6h95.3V33.9L118.9,11H46.6Z"/><rect x="57.8" y="64.3" width="72.9" height="6"/><rect x="57.8" y="81.1" width="72.9" height="6"/><rect x="57.8" y="98" width="72.9" height="6"/><rect x="57.8" y="114.9" width="36.4" height="6"/><path d="M144.9,35.7H120.2a3,3,0,0,1-3-3V8h6V29.7h21.7Z"/><path d="M126.4,165H25.1a3,3,0,0,1-3-3V26.4a3,3,0,0,1,3-3h9.2v6H28.1V159h95.2v-6.2h6V162A3,3,0,0,1,126.4,165Z"/></svg>