<svg id="PIKTO_REGULAR" xmlns="http://www.w3.org/2000/svg" viewBox="0 0 170 170"><title>regular_black</title><path d="M108.8,101a8.3,8.3,0,0,0-2.9.2L85,115.1,64.2,101.2a8.5,8.5,0,0,0-3.3-.2,38.5,38.5,0,0,0-33.6,38.6V165h6V139.6c0-16.6,12.5-30.8,28.7-32.7l21.4,14.2a3,3,0,0,0,3.3,0L108.1,107c16.2,1.9,28.7,16,28.7,32.7V165h6V139.6C142.8,120,127.9,103.3,108.8,101Z"/><path d="M85,98.8A28.7,28.7,0,0,1,56.3,70.1V33.7a3,3,0,0,1,3-3h1.6c14.3,0,25.6,10.6,26.1,11s10.1,9.4,22,9.4h1.6a3,3,0,0,1,3,3V70.1A28.7,28.7,0,0,1,85,98.8ZM62.3,36.7V70.1a22.7,22.7,0,0,0,45.4,0V57c-13.7-.6-24.3-10.6-24.7-11S73.6,37.4,62.3,36.7Z"/><path d="M51.5,96c-10.4-2.6-15.7-6.4-15.7-11.1V51.2c0-23.5,18.9-42.9,42-43.2H91.7c23.2.3,42.1,19.7,42.1,43.2V84.9c0,4.7-5.1,8.4-15.2,11l-1.5-5.8c8.8-2.3,10.7-4.8,10.7-5.2V51.2c0-20.3-16.2-36.9-36.1-37.2H77.9C58,14.3,41.8,30.9,41.8,51.2V84.9c0,.4,1.9,3,11.2,5.3Z"/></svg>