<svg xmlns="http://www.w3.org/2000/svg" viewBox="0 0 170 170"><path d="M108.8 101a8.3 8.3 0 00-2.9.2L85 115.1l-20.8-13.9a8.5 8.5 0 00-3.3-.2 38.5 38.5 0 00-33.6 38.6V165h6v-25.4c0-16.6 12.5-30.8 28.7-32.7l21.4 14.2a3 3 0 003.3 0l21.4-14.1c16.2 1.9 28.7 16 28.7 32.7V165h6v-25.4c0-19.6-14.9-36.3-34-38.6zM85 98.8a28.7 28.7 0 01-28.7-28.7V33.7a3 3 0 013-3h1.6c14.3 0 25.6 10.6 26.1 11s10.1 9.4 22 9.4h1.6a3 3 0 013 3v16A28.7 28.7 0 0185 98.8zM62.3 36.7v33.4a22.7 22.7 0 0045.4 0V57C94 56.4 83.4 46.4 83 46s-9.4-8.6-20.7-9.3z"/><path d="M51.5 96c-10.4-2.6-15.7-6.4-15.7-11.1V51.2c0-23.5 18.9-42.9 42-43.2h13.9c23.2.3 42.1 19.7 42.1 43.2v33.7c0 4.7-5.1 8.4-15.2 11l-1.5-5.8c8.8-2.3 10.7-4.8 10.7-5.2V51.2c0-20.3-16.2-36.9-36.1-37.2H77.9c-19.9.3-36.1 16.9-36.1 37.2v33.7c0 .4 1.9 3 11.2 5.3z"/></svg>