<svg id="PIKTO_REGULAR" xmlns="http://www.w3.org/2000/svg" viewBox="0 0 170 170"><title>regular_black</title><rect x="76.8" y="24.7" width="16.1" height="6"/><rect x="61.3" y="107.8" width="11.1" height="6"/><rect x="97.7" y="107.8" width="11.1" height="6"/><rect x="79.4" y="107.8" width="11.1" height="6"/><rect x="61.3" y="121.8" width="11.1" height="6"/><rect x="97.7" y="121.8" width="11.1" height="6"/><rect x="79.4" y="121.8" width="11.1" height="6"/><rect x="61.3" y="135.8" width="11.1" height="6"/><rect x="97.7" y="135.8" width="11.1" height="6"/><rect x="79.4" y="135.8" width="11.1" height="6"/><path d="M111.8,155.5H57.9a14,14,0,0,1-14-14V28.5a14,14,0,0,1,14-14h53.9a14,14,0,0,1,14,14v113A14,14,0,0,1,111.8,155.5ZM57.9,20.5a8,8,0,0,0-8,8v113a8,8,0,0,0,8,8h53.9a8,8,0,0,0,8-8V28.5a8,8,0,0,0-8-8Z"/><path d="M108.7,99.8H61.3a3,3,0,0,1-3-3V39a3,3,0,0,1,3-3h47.5a3,3,0,0,1,3,3V96.8A3,3,0,0,1,108.7,99.8Zm-44.5-6h41.5V42H64.3Z"/><path d="M75.5,63.9a3.8,3.8,0,1,1-2.6-7.2L94,49a3.8,3.8,0,0,1,2.6,7.2Z"/><path d="M75.5,75.4a3.8,3.8,0,0,1-2.6-7.2L94,60.4a3.8,3.8,0,0,1,2.6,7.2Z"/><path d="M75.5,86.9a3.8,3.8,0,0,1-2.6-7.2L94,71.9a3.8,3.8,0,0,1,2.6,7.2Z"/></svg>