<svg xmlns="http://www.w3.org/2000/svg" viewBox="0 0 170 170"><path d="M121.9 109a17.5 17.5 0 1117.5-17.5 17.5 17.5 0 01-17.5 17.5zm0-29a11.5 11.5 0 1011.5 11.5A11.5 11.5 0 00121.9 80zm25 85h-6v-29.6a11.3 11.3 0 00-11.3-11.4h-15.5a11.3 11.3 0 00-11.2 11.4V165h-6v-29.6a17.4 17.4 0 0117.2-17.4h15.5a17.4 17.4 0 0117.2 17.4zm-98.8-56a17.5 17.5 0 1117.5-17.5A17.5 17.5 0 0148.1 109zm0-29a11.5 11.5 0 1011.5 11.5A11.5 11.5 0 0048.1 80zm25 85h-6v-29.6A11.3 11.3 0 0055.9 124H40.4a11.3 11.3 0 00-11.2 11.4V165h-6v-29.6A17.4 17.4 0 0140.4 118h15.5a17.4 17.4 0 0117.2 17.4zM85 39.7a17.5 17.5 0 1117.5-17.5A17.5 17.5 0 0185 39.7zm0-29a11.5 11.5 0 1011.5 11.5A11.5 11.5 0 0085 10.7zm25 59.5h-6v-4a11.3 11.3 0 00-11.2-11.5H77.2A11.3 11.3 0 0066 66.2v4h-6v-4a17.4 17.4 0 0117.2-17.5h15.6A17.4 17.4 0 01110 66.2z"/></svg>