<svg id="PIKTO_REGULAR" xmlns="http://www.w3.org/2000/svg" viewBox="0 0 170 170"><title>regular_black</title><path d="M130.3,41.5A17.5,17.5,0,1,0,112.8,24,17.5,17.5,0,0,0,130.3,41.5Zm0-29A11.5,11.5,0,1,1,118.8,24,11.5,11.5,0,0,1,130.3,12.5Z"/><path d="M40.3,66.2A17.5,17.5,0,1,0,22.8,48.7,17.5,17.5,0,0,0,40.3,66.2Zm0-29A11.5,11.5,0,1,1,28.8,48.7,11.5,11.5,0,0,1,40.3,37.2Z"/><path d="M155.5,94.1h-.2V67.9a17.4,17.4,0,0,0-17.2-17.4H122.6a17.4,17.4,0,0,0-17.2,17.4V94.1h-40V92.7A17.4,17.4,0,0,0,48,75.3H32.5A17.4,17.4,0,0,0,15.3,92.7v1.4H5v6H15.3V165h6V92.7A11.3,11.3,0,0,1,32.5,81.3H48A11.3,11.3,0,0,1,59.3,92.7V165h6V100.1H165v-6ZM122.6,56.5h15.5a11.3,11.3,0,0,1,11.2,11.4V94.1h-38V67.9A11.3,11.3,0,0,1,122.6,56.5Z"/></svg>