<svg id="PIKTO_REGULAR" xmlns="http://www.w3.org/2000/svg" viewBox="0 0 170 170"><title>regular_black</title><path d="M155.5,119.8a19.2,19.2,0,1,0-22.8,18.9A25.8,25.8,0,0,1,107.5,159h-4.8A25.8,25.8,0,0,1,77,133.2V98.1a54.8,54.8,0,0,0,51.7-54.7V22.9a3,3,0,0,0-3-3H113v6h9.8V43.4a48.7,48.7,0,1,1-97.5,0V25.9h9.8v-6H22.3a3,3,0,0,0-3,3V43.4A54.8,54.8,0,0,0,71,98.1v35.2A31.8,31.8,0,0,0,102.8,165h4.8a31.8,31.8,0,0,0,31.3-26.2A19.2,19.2,0,0,0,155.5,119.8ZM136.3,133a13.2,13.2,0,1,1,13.2-13.2A13.2,13.2,0,0,1,136.3,133Z"/><path d="M71.9,52.3a3,3,0,0,0,4.2,0L95.3,33.2A16.5,16.5,0,0,0,74,8,16.5,16.5,0,0,0,52.7,33.2ZM57,14.1a10.5,10.5,0,0,1,14.9,0,3.1,3.1,0,0,0,4.2,0,10.5,10.5,0,0,1,14.9,0h0A10.5,10.5,0,0,1,91,29L74,46,57,29A10.5,10.5,0,0,1,57,14.1Z"/></svg>