<svg id="PIKTO_REGULAR" xmlns="http://www.w3.org/2000/svg" viewBox="0 0 170 170"><title>regular_black</title><path d="M99.3,159V146h37.9a3,3,0,0,0,2.6-4.5l-20.1-34.8h7.3a3,3,0,0,0,2.6-4.5L111.8,71.3h8.1a3,3,0,0,0,2.6-4.5L87.6,6.3a3,3,0,0,0-5.2,0L47.5,66.8a3,3,0,0,0,2.6,4.5h8.1L40.3,102.2a3,3,0,0,0,2.6,4.5h7.3L30.2,141.5a3,3,0,0,0,2.6,4.5H70.7v13H23.6v6H146.4v-6ZM58,105.2a3,3,0,0,0-2.6-4.5H48.1L66,69.8a3,3,0,0,0-2.6-4.5H55.3L85,13.8l29.7,51.5h-8.1a3,3,0,0,0-2.6,4.5l17.9,30.9h-7.3a3,3,0,0,0-2.6,4.5L132,140H38ZM76.7,146H93.3v13H76.7Z"/></svg>