<svg id="PIKTO_REGULAR" xmlns="http://www.w3.org/2000/svg" viewBox="0 0 170 170"><title>regular_black</title><path d="M162,165H136.4a3,3,0,0,1-3-3V150.5H102.3V162a3,3,0,0,1-3,3H70.7a3,3,0,0,1-3-3V150.5H36.6V162a3,3,0,0,1-3,3H8a3,3,0,0,1-3-3V131.4a3,3,0,0,1,3-3H162a3,3,0,0,1,3,3V162A3,3,0,0,1,162,165Zm-22.6-6H159V134.4H11V159H30.6V147.5a3,3,0,0,1,3-3H70.7a3,3,0,0,1,3,3V159H96.3V147.5a3,3,0,0,1,3-3h37.1a3,3,0,0,1,3,3Z"/><polygon points="88 83.8 93 88.9 97.3 84.7 85 72.3 72.6 84.7 76.9 88.9 82 83.8 82 100.3 59.9 100.3 59.9 83.8 65 88.9 69.3 84.7 56.9 72.3 44.6 84.7 48.8 88.9 53.9 83.8 53.9 100.3 46.7 100.3 46.7 106.3 95.2 106.3 95.2 100.3 88 100.3 88 83.8"/><path d="M136.4,14.5H33.6a3,3,0,0,0-3,3V118.8a3,3,0,0,0,3,3H136.4a3,3,0,0,0,3-3V17.5A3,3,0,0,0,136.4,14.5ZM73,20.5H97V36.1l-4.5,4.5-5.4-5.4a3,3,0,0,0-4.2,0l-5.4,5.4L73,36.1Zm60.4,95.3H36.6V20.5H67V37.3a3,3,0,0,0,.9,2.1L75.4,47a3,3,0,0,0,4.2,0L85,41.6,90.4,47a3,3,0,0,0,4.2,0l7.5-7.5a3,3,0,0,0,.9-2.1V20.5h30.4Z"/></svg>