<svg id="PIKTO_REGULAR" xmlns="http://www.w3.org/2000/svg" viewBox="0 0 170 170"><title>regular_black</title><path d="M152.2,42.4H103.8V17.3a3,3,0,0,0-3-3H69.2a3,3,0,0,0-3,3V42.4H17.8A12.9,12.9,0,0,0,5,55.3v87.5a12.9,12.9,0,0,0,12.8,12.8H152.2A12.9,12.9,0,0,0,165,142.8V55.3A12.9,12.9,0,0,0,152.2,42.4Zm-80-22.1H97.8V57H72.2ZM159,142.8a6.8,6.8,0,0,1-6.8,6.8H17.8a6.8,6.8,0,0,1-6.8-6.8V55.3a6.8,6.8,0,0,1,6.8-6.8H66.2V57H53.6v6h62.9V57H103.8V48.4h48.3a6.8,6.8,0,0,1,6.8,6.8Z"/><path d="M51.1,109.4A17.8,17.8,0,1,0,33.3,91.6,17.8,17.8,0,0,0,51.1,109.4Zm0-29.6A11.8,11.8,0,1,1,39.3,91.6,11.8,11.8,0,0,1,51.1,79.9Z"/><path d="M59,118.8H43.1a17.6,17.6,0,0,0-17.5,17.7v3.6h6v-3.6a11.6,11.6,0,0,1,11.5-11.7H59a11.6,11.6,0,0,1,11.5,11.7v3.6h6v-3.6A17.6,17.6,0,0,0,59,118.8Z"/><rect x="95.8" y="86.6" width="46.5" height="6"/><rect x="95.8" y="120.3" width="23.3" height="6"/><rect x="95.8" y="103.5" width="46.5" height="6"/></svg>