<svg id="PIKTO_REGULAR" xmlns="http://www.w3.org/2000/svg" viewBox="0 0 170 170"><title>regular_black</title><path d="M17.8,28.4A12.9,12.9,0,0,0,5,41.2v87.5a12.9,12.9,0,0,0,12.8,12.8H152.2A12.9,12.9,0,0,0,165,128.8V41.2a12.9,12.9,0,0,0-12.8-12.8Zm134.3,6a6.8,6.8,0,0,1,6.8,6.8v87.5a6.8,6.8,0,0,1-6.8,6.8H17.8a6.8,6.8,0,0,1-6.8-6.8V41.2a6.8,6.8,0,0,1,6.8-6.8Z"/><path d="M51.1,87.5A17.8,17.8,0,1,0,33.3,69.7,17.8,17.8,0,0,0,51.1,87.5Zm0-29.6A11.8,11.8,0,1,1,39.3,69.7,11.8,11.8,0,0,1,51.1,57.9Z"/><path d="M59,96.8H43.1a17.6,17.6,0,0,0-17.5,17.7v3.6h6v-3.6a11.6,11.6,0,0,1,11.5-11.7H59a11.6,11.6,0,0,1,11.5,11.7v3.6h6v-3.6A17.6,17.6,0,0,0,59,96.8Z"/><rect x="95.8" y="64.7" width="46.5" height="6"/><rect x="95.8" y="98.3" width="23.3" height="6"/><rect x="95.8" y="81.5" width="46.5" height="6"/></svg>