<svg xmlns="http://www.w3.org/2000/svg" viewBox="0 0 170 170"><path d="M22.2 165l-1.1-.2a3 3 0 01-1.9-2.8v-19.2H8a3 3 0 01-3-3V59.1a3 3 0 013-3h100.1a3 3 0 013 3v80.8a3 3 0 01-3 3H50.7l-5.6.5-20.8 20.7a3 3 0 01-2.1.9zM11 136.8h11.2a3 3 0 013 3v14.9l16.4-16.5a3 3 0 011.9-.9l6.8-.6h54.8V62.1H11z"/><path d="M162 113.9h-40.1v-6H159V33.2h-11.2a3 3 0 01-3-3V15.3l-17 17a3 3 0 01-2.1.9H64.9v13.5h-6V30.2a3 3 0 013-3h62.6l21.2-21.3a3 3 0 015.1 2.1v19.2H162a3 3 0 013 3V111a3 3 0 01-3 2.9zM24.9 88h54.7v6H24.9zm0 19.3h27.3v6H24.9z"/></svg>