<svg id="PIKTO_REGULAR" xmlns="http://www.w3.org/2000/svg" viewBox="0 0 170 170"><title>regular_black</title><path d="M162,37H63.3a3,3,0,0,0-3,3V62.6H22a3,3,0,0,0-2.1.9l-14,14,4.2,4.2L23.2,68.6H60.3v6.1h6V58.2H159v45.6H104.9v6H162a3,3,0,0,0,3-3V40A3,3,0,0,0,162,37ZM66.3,52.2V43H159v9.2Z"/><rect x="138.7" y="89.8" width="13.8" height="6"/><path d="M82.8,82H51.3v6H82.8a8,8,0,0,1,0,16H40.7a3,3,0,0,0-3,3,21.8,21.8,0,0,1-21.8,21.8v6A27.9,27.9,0,0,0,43.5,110h5.2a14.1,14.1,0,0,0,.2,16.9A14.2,14.2,0,0,0,40.3,149H4.5v6H63.2a14.2,14.2,0,0,0,11.3-22.8A14.2,14.2,0,0,0,83,110a14,14,0,0,0-.2-28ZM63.2,149H51.9a8.2,8.2,0,1,1,0-16.5H63.2a8.2,8.2,0,1,1,0,16.5Zm8.3-22.5H60.3a8.2,8.2,0,1,1,0-16.5H71.5a8.2,8.2,0,1,1,0,16.5Z"/></svg>