<svg id="PIKTO_REGULAR" xmlns="http://www.w3.org/2000/svg" viewBox="0 0 170 170"><title>regular_black</title><path d="M143.9,36.3H26.1A11.6,11.6,0,0,0,14.5,47.9v74.1a11.6,11.6,0,0,0,11.6,11.6H143.9a11.6,11.6,0,0,0,11.6-11.6V47.9A11.6,11.6,0,0,0,143.9,36.3Zm-117.8,6H143.9a5.6,5.6,0,0,1,5.6,5.6v9.2H20.5V47.9A5.6,5.6,0,0,1,26.1,42.3Zm117.8,85.4H26.1a5.6,5.6,0,0,1-5.6-5.6V63.1h129v58.9A5.6,5.6,0,0,1,143.9,127.7Z"/><rect x="114" y="104.5" width="18.9" height="6"/><rect x="35.3" y="104.5" width="18.9" height="6"/><rect x="35.3" y="87.3" width="38" height="6"/></svg>