<svg id="PIKTO_REGULAR" xmlns="http://www.w3.org/2000/svg" viewBox="0 0 170 170"><title>regular_black</title><path d="M139.6,146.8V23.2A18.3,18.3,0,0,0,121.3,5H48.7A18.3,18.3,0,0,0,30.4,23.2V146.8A18.3,18.3,0,0,0,48.7,165h72.6A18.3,18.3,0,0,0,139.6,146.8Zm-103.1,0V23.2A12.2,12.2,0,0,1,48.7,11h72.6a12.2,12.2,0,0,1,12.2,12.2V146.8A12.2,12.2,0,0,1,121.3,159H48.7A12.2,12.2,0,0,1,36.4,146.8Z"/><path d="M48.1,84.8h73.8a3,3,0,0,0,3-3v-61a3,3,0,0,0-3-3H48.1a3,3,0,0,0-3,3v61A3,3,0,0,0,48.1,84.8Zm3-61h67.8v55H51.1Z"/><rect x="76.7" y="96.9" width="16.7" height="6"/><rect x="76.7" y="112.7" width="16.7" height="6"/><rect x="76.7" y="128.1" width="16.7" height="6"/><rect x="76.7" y="144" width="16.7" height="6"/><rect x="45.3" y="96.9" width="16.7" height="6"/><rect x="45.3" y="112.7" width="16.7" height="6"/><rect x="45.3" y="128.1" width="16.7" height="6"/><rect x="45.3" y="144" width="16.7" height="6"/><rect x="105.2" y="96.9" width="16.7" height="6"/><rect x="105.2" y="112.7" width="16.7" height="6"/><rect x="105.2" y="128.1" width="16.7" height="6"/><rect x="105.2" y="144" width="16.7" height="6"/><path d="M81,56.5,74.5,50l-4.2,4.2,8.7,8.7a3,3,0,0,0,4.2,0l19-19-4.2-4.2Z"/></svg>