<svg id="PIKTO_REGULAR" xmlns="http://www.w3.org/2000/svg" viewBox="0 0 170 170"><title>regular_black</title><path d="M139.7,112.6a25.1,25.1,0,0,0-9.3,1.8L110.1,77a3,3,0,0,0-2.6-1.6H89.8v6h15.9l19.4,35.9a25.3,25.3,0,1,0,14.6-4.7Zm0,44.8A19.4,19.4,0,0,1,128,122.7l9.1,16.8,5.3-2.9-9.1-16.8a19.1,19.1,0,0,1,6.4-1.1,19.4,19.4,0,0,1,0,38.8Z"/><path d="M135.5,102.2h4.1a3,3,0,0,0,3-3V84a3,3,0,0,0-3-3h-4a10.6,10.6,0,0,0-.1,21.2Zm.1-15.2h1v9.2h-1a4.6,4.6,0,0,1,0-9.2Z"/><path d="M95.3,90.8H82.8A15.5,15.5,0,0,0,67.9,102h-43a3,3,0,1,0,0,6h5.2a31.7,31.7,0,0,1,31.5,28.7H55.3a25.3,25.3,0,1,0,0,6h9.4a3,3,0,0,0,3-3A37.7,37.7,0,0,0,50.5,108H70a3,3,0,0,0,3.4-2.7,9.5,9.5,0,0,1,9.5-8.5H95.3a9.5,9.5,0,0,1,9.5,8.9l-3.6,8.6H71v6H98.7l-6.9,16.3H74.5v6H93.8a3,3,0,0,0,2.8-1.8l14.1-33.4a3,3,0,0,0,.2-1.2A15.5,15.5,0,0,0,95.3,90.8ZM30.3,159a19.3,19.3,0,1,1,19-22.3h-19v6h19A19.3,19.3,0,0,1,30.3,159Z"/></svg>