<svg id="PIKTO_REGULAR" xmlns="http://www.w3.org/2000/svg" viewBox="0 0 170 170"><title>regular_black</title><path d="M39.5,72.8A17.5,17.5,0,1,1,57,55.3h0A17.5,17.5,0,0,1,39.5,72.8Zm0-29A11.5,11.5,0,1,0,51,55.3,11.5,11.5,0,0,0,39.5,43.8Z"/><path d="M64.5,164.9h-6V99.3A11.3,11.3,0,0,0,47.4,87.8H31.7A11.3,11.3,0,0,0,20.5,99.2h0v65.6h-6V99.3A17.4,17.4,0,0,1,31.7,81.8H47.2A17.4,17.4,0,0,1,64.5,99.3h0Z"/><path d="M163.9,58.7,125.3,27.4l4.7-4.7a10.2,10.2,0,0,0,3-7.4h0a10.2,10.2,0,1,0-20.4,0h6a4.2,4.2,0,0,1,8.4-.1c0,.1,0,.2,0,.3a4.2,4.2,0,0,1-1.2,3.2l-48,40.2A3,3,0,0,0,79.6,64H162a3,3,0,0,0,1.9-5.3ZM88,58l32.7-26.5L153.5,58Z"/></svg>