<svg id="PIKTO_REGULAR" xmlns="http://www.w3.org/2000/svg" viewBox="0 0 170 170"><title>regular_black</title><path d="M39.5,72.8A17.5,17.5,0,1,1,57,55.3,17.5,17.5,0,0,1,39.5,72.8Zm0-29A11.5,11.5,0,1,0,51,55.3,11.5,11.5,0,0,0,39.5,43.8Z"/><path d="M71.5,161.4,64.4,121V99A17.2,17.2,0,0,0,47.3,81.9H31.7A17.2,17.2,0,0,0,14.6,99v22L7.5,161.4a3,3,0,0,0,3,3.5h58a3,3,0,0,0,3-3.5Zm-57.4-2.5,6.5-37.2c0-.2,0-22.7,0-22.7A11.2,11.2,0,0,1,31.7,87.9H47.3A11.2,11.2,0,0,1,58.4,99s0,22.5,0,22.7l6.5,37.2Z"/><path d="M163.9,58.7,125.3,27.4l4.7-4.7a10.2,10.2,0,0,0,3-7.4h0a10.2,10.2,0,1,0-20.4,0h6a4.2,4.2,0,0,1,8.4-.1c0,.1,0,.2,0,.3a4.2,4.2,0,0,1-1.2,3.2l-48,40.2A3,3,0,0,0,79.6,64H162a3,3,0,0,0,1.9-5.3ZM88,58l32.7-26.5L153.5,58Z"/></svg>