<svg id="PIKTO_REGULAR" xmlns="http://www.w3.org/2000/svg" viewBox="0 0 170 170"><title>regular_black</title><rect x="49.4" y="135.2" width="16.1" height="6"/><path d="M22.5,141.5V128.3H57.4v-6H22.5V47.4H92.4V64.2h6V28.5a14,14,0,0,0-14-14H30.5a14,14,0,0,0-14,14v113a14,14,0,0,0,14,14H84.4v-6H30.5A8,8,0,0,1,22.5,141.5Zm8-121H84.4a8,8,0,0,1,8,8V41.4H22.5V28.5A8,8,0,0,1,30.5,20.5Z"/><path d="M142.2,111.3l-3.9-14.9a3,3,0,0,0-.8-1.4L115.9,73.4a9.2,9.2,0,0,0-15.2,3.5,9.2,9.2,0,0,0-12.3,6.3A9.2,9.2,0,0,0,78,88.3l-9.7-9.7A9.7,9.7,0,1,0,54.6,92.3L82.3,120l-2.6-.5a14.9,14.9,0,0,0-8.6.5,8.5,8.5,0,0,0-5.5,5.9c-1,4.4,2.2,9.1,7.3,10.5l41.5,13.2,5.2,5.2,4.2-4.2-5.7-5.7a3,3,0,0,0-1.2-.7L74.7,130.6c-2-.6-3.4-2.1-3.1-3.4s1.3-1.4,1.8-1.6a9,9,0,0,1,5.1-.2l12.4,2.5a3,3,0,0,0,2.7-5.1L58.9,88a3.7,3.7,0,0,1,5.2-5.2l31.8,31.8,4.2-4.2-16-16a3.2,3.2,0,0,1,4.6-4.6L90.8,92h0l14,14,4.2-4.2-14-14h0a3.2,3.2,0,1,1,4.6-4.6l3.2,3.2,10.8,10.8,4.2-4.2L107.1,82.2h0a3.2,3.2,0,0,1,0-4.6,3.3,3.3,0,0,1,4.6,0l21.1,21.1,3.9,14.9a3,3,0,0,0,.8,1.4l13,13,4.2-4.2Z"/><path d="M59.8,64.2A21.7,21.7,0,0,1,79.2,76l5.3-2.7a27.8,27.8,0,1,0-24.7,40.5v-6a21.8,21.8,0,1,1,0-43.5Z"/></svg>