<svg id="PIKTO_REGULAR" xmlns="http://www.w3.org/2000/svg" viewBox="0 0 170 170"><title>regular_black</title><path d="M49.1,89.7A29.2,29.2,0,1,0,19.8,60.5V79a29.3,29.3,0,0,0,29.2,29.2v-6A23.3,23.3,0,0,1,25.8,79v-.8A29.2,29.2,0,0,0,49.1,89.7Zm0-52.5A23.2,23.2,0,1,1,25.8,60.5,23.3,23.3,0,0,1,49.1,37.3Z"/><path d="M86.5,88.1a29.3,29.3,0,0,0-29.2,29.2v18.5a29.2,29.2,0,0,0,58.5,0V117.4A29.3,29.3,0,0,0,86.5,88.1ZM63.3,135.8v-.7a29.2,29.2,0,0,0,20.2,11.4v12.4A23.3,23.3,0,0,1,63.3,135.8Zm26.2,10.6a29,29,0,0,0,6.6-1.5v12a23,23,0,0,1-6.6,1.9Zm20.2-10.6a23.2,23.2,0,0,1-7.6,17.2V142a29.4,29.4,0,0,0,7.6-7Zm-23.2,4.8a23.2,23.2,0,1,1,23.2-23.2A23.3,23.3,0,0,1,86.5,140.6Z"/><path d="M120.9,5A29.3,29.3,0,0,0,91.7,34.2V52.7a29.2,29.2,0,0,0,58.5,0V34.2A29.3,29.3,0,0,0,120.9,5Zm0,6A23.2,23.2,0,1,1,97.7,34.2,23.3,23.3,0,0,1,120.9,11Zm-3,52.3V75.7a23,23,0,0,1-6.6-1.9v-12A29,29,0,0,0,117.9,63.3ZM97.7,52.7v-.8a29.5,29.5,0,0,0,7.6,7V69.8A23.2,23.2,0,0,1,97.7,52.7Zm46.5,0a23.3,23.3,0,0,1-20.2,23V63.3a29.2,29.2,0,0,0,20.2-11.4Z"/></svg>