<svg id="PIKTO_REGULAR" xmlns="http://www.w3.org/2000/svg" viewBox="0 0 170 170"><title>regular_black</title><path d="M85,4.9A31.7,31.7,0,0,0,53.4,36.6V54.8a31.6,31.6,0,0,0,63.3,0V36.6A31.7,31.7,0,0,0,85,4.9Zm0,75.5A25.7,25.7,0,0,1,59.4,54.8V36.6a25.6,25.6,0,0,1,51.2-2.3,36.1,36.1,0,0,1-9.3,1.2c-12.4,0-21-5.8-21-11h-6c0,9.5,11.9,17,27,17a42.7,42.7,0,0,0,9.4-1V54.8A25.7,25.7,0,0,1,85,80.4Z"/><path d="M149.1,165h-6V132.3c0-18.8-14.2-34.8-32.5-36.8l-24,15.9a3,3,0,0,1-3.3,0L59.2,95.5C41,97.7,26.9,113.6,26.9,132.3V165h-6V132.3c0-22.5,16.7-40.9,38.8-42.9a3,3,0,0,1,1.9.5L85,105.3l23.2-15.4a3,3,0,0,1,1.9-.5c21.9,1.8,39,20.7,39,42.9Z"/></svg>