<svg id="PIKTO_REGULAR" xmlns="http://www.w3.org/2000/svg" viewBox="0 0 170 170"><title>regular_black</title><path d="M24.1,64.6V62.3c0-11.7,6-16.9,13-16.9s13,5.2,13,16.9v2.3c0,11.7-6,16.9-13,16.9S24.1,76.3,24.1,64.6Zm18.6-.1v-2c0-7.7-2.3-10.5-5.5-10.5s-5.5,2.8-5.5,10.5v2c0,7.7,2.3,10.5,5.5,10.5S42.7,72.1,42.7,64.4Z"/><path d="M72,64.6V62.3c0-11.7,6-16.9,13-16.9s13,5.2,13,16.9v2.3c0,11.7-6,16.9-13,16.9S72,76.3,72,64.6Zm18.6-.1v-2c0-7.7-2.3-10.5-5.5-10.5s-5.5,2.8-5.5,10.5v2C79.5,72.1,81.7,75,85,75S90.5,72.1,90.5,64.4Z"/><path d="M136.9,57.2l3.8,5.3-4.1,3-3.9-5.4-3.8,5.3-4.1-2.9,3.9-5.4-6.3-2,1.5-4.8,6.3,2V45.9h5v6.6l6.3-2,1.5,4.8Z"/><path d="M41.2,111.5l3.8,5.3-4.1,3-3.9-5.4-3.8,5.3-4.1-2.9,3.9-5.4-6.3-2,1.5-4.8,6.3,2v-6.6h5v6.6l6.3-2,1.5,4.8Z"/><path d="M89.1,111.5l3.8,5.3-4.1,3L85,114.5l-3.8,5.3-4.1-2.9,3.9-5.4-6.3-2,1.5-4.8,6.3,2v-6.6h5v6.6l6.3-2,1.5,4.8Z"/><path d="M136.9,111.5l3.8,5.3-4.1,3-3.9-5.4-3.8,5.3-4.1-2.9,3.9-5.4-6.3-2,1.5-4.8,6.3,2v-6.6h5v6.6l6.3-2,1.5,4.8Z"/></svg>