<svg id="PIKTO_REGULAR" xmlns="http://www.w3.org/2000/svg" viewBox="0 0 170 170"><title>regular_black</title><path d="M129,66.1H38.3A14.2,14.2,0,0,0,24,80v31a14.2,14.2,0,0,0,14.4,13.9h90.6A14.2,14.2,0,0,0,143.3,111V80a13.6,13.6,0,0,0-4.2-9.9A14.5,14.5,0,0,0,129,66.1Zm8.3,44.9a8.2,8.2,0,0,1-8.4,7.9H38.3A8.2,8.2,0,0,1,30,111V80a8.2,8.2,0,0,1,8.4-7.9H129a8.5,8.5,0,0,1,6,2.4,7.7,7.7,0,0,1,2.4,5.6Z"/><path d="M47.8,89.3c-2.9,0-5.4,2.2-5.4,7v.9c0,4.8,2.5,7,5.4,7s5.4-2.2,5.4-7v-.9C53.2,91.4,50.7,89.3,47.8,89.3Zm2.3,7.9c0,3.2-.9,4.3-2.3,4.3s-2.3-1.2-2.3-4.3v-.8c0-3.2.9-4.3,2.3-4.3s2.3,1.2,2.3,4.3Z"/><path d="M64.3,89.3c-2.9,0-5.4,2.2-5.4,7v.9c0,4.8,2.5,7,5.4,7s5.4-2.2,5.4-7v-.9C69.7,91.4,67.2,89.3,64.3,89.3Zm2.3,7.9c0,3.2-.9,4.3-2.3,4.3S62,100.3,62,97.1v-.8c0-3.2.9-4.3,2.3-4.3s2.3,1.2,2.3,4.3Z"/><polygon points="83.4 91.4 80.9 92.2 80.9 89.5 78.8 89.5 78.8 92.2 76.2 91.4 75.6 93.3 78.2 94.2 76.6 96.4 78.2 97.6 79.8 95.4 81.4 97.6 83.1 96.4 81.5 94.2 84.1 93.3 83.4 91.4"/><polygon points="97.9 91.4 95.3 92.2 95.3 89.5 93.3 89.5 93.3 92.2 90.7 91.4 90 93.3 92.6 94.2 91 96.4 92.7 97.6 94.3 95.4 95.9 97.6 97.6 96.4 96 94.2 98.6 93.3 97.9 91.4"/><polygon points="112.4 91.4 109.8 92.2 109.8 89.5 107.7 89.5 107.7 92.2 105.2 91.4 104.5 93.3 107.1 94.2 105.5 96.4 107.2 97.6 108.8 95.4 110.4 97.6 112 96.4 110.5 94.2 113 93.3 112.4 91.4"/><polygon points="126.9 91.4 124.3 92.2 124.3 89.5 122.2 89.5 122.2 92.2 119.6 91.4 119 93.3 121.6 94.2 120 96.4 121.7 97.6 123.2 95.4 124.8 97.6 126.5 96.4 124.9 94.2 127.5 93.3 126.9 91.4"/><path d="M156,48.3h-7V13.5A8.5,8.5,0,0,0,140.4,5H29a8.5,8.5,0,0,0-8.5,8.5V48.3H14a9,9,0,0,0-9,9V165h6V57.3a3,3,0,0,1,3-3H156a3,3,0,0,1,3,3V165h6V57.3A9,9,0,0,0,156,48.3ZM26.5,13.5A2.5,2.5,0,0,1,29,11H140.4a2.5,2.5,0,0,1,2.5,2.5V48.3H127.9v-20a3,3,0,0,0-3-3h-20a3,3,0,0,0-3,3v20H39.8V17.5h-6V48.3H26.5Zm95.3,34.7h-14v-17h14Z"/><rect x="73" y="158.9" width="24.9" height="6"/><rect x="33.6" y="141" width="39.4" height="6"/><rect x="33.6" y="158.9" width="24.9" height="6"/><rect x="97.9" y="141" width="37.2" height="6"/><rect x="110.1" y="158.9" width="24.9" height="6"/><rect x="46.7" y="17.5" width="6" height="19.87"/></svg>