<svg id="PIKTO_REGULAR" xmlns="http://www.w3.org/2000/svg" viewBox="0 0 170 170"><title>regular_black</title><path d="M38,155.5l-1.1-.2a3,3,0,0,1-1.9-2.8V126.4H19.3a3,3,0,0,1-3-3V17.5a3,3,0,0,1,3-3H150.7a3,3,0,0,1,3,3V123.4a3,3,0,0,1-3,3H68.2L40.1,154.6A3,3,0,0,1,38,155.5ZM22.3,120.4H38a3,3,0,0,1,3,3v21.8l23.9-23.9a3,3,0,0,1,2.1-.9h80.7V20.5H22.3Z"/><path d="M48.8,80.8A10.6,10.6,0,1,1,59.4,70.2,10.6,10.6,0,0,1,48.8,80.8Zm0-15.1a4.6,4.6,0,1,0,4.6,4.6A4.6,4.6,0,0,0,48.8,65.7Z"/><path d="M121.2,80.8a10.6,10.6,0,1,1,10.6-10.6A10.6,10.6,0,0,1,121.2,80.8Zm0-15.1a4.6,4.6,0,1,0,4.6,4.6A4.6,4.6,0,0,0,121.2,65.7Z"/><path d="M85,80.8A10.6,10.6,0,1,1,95.6,70.2,10.6,10.6,0,0,1,85,80.8Zm0-15.1a4.6,4.6,0,1,0,4.6,4.6A4.6,4.6,0,0,0,85,65.7Z"/></svg>