<svg id="PIKTO_REGULAR" xmlns="http://www.w3.org/2000/svg" viewBox="0 0 170 170"><title>regular_black</title><rect x="11.1" y="130" width="52" height="6" transform="translate(-83.1 65.1) rotate(-45)"/><path d="M99.7,74.5a24.3,24.3,0,0,0,14.9,5,25.3,25.3,0,0,0,17.9-7.4l22.1-22.1-4.2-4.2L128.3,68A19.1,19.1,0,0,1,104,70.3l35.4-35.4-4.2-4.2L99.7,66a18.6,18.6,0,0,1,1.9-24l22.4-22.4-4.2-4.2L97.4,37.8a24.6,24.6,0,0,0-2,32.5L85.1,80.7,25.3,20.9a3,3,0,0,0-4.2,0c-5.5,5.5-6.8,14.3-3.8,24.7s9.4,20.1,18.2,29l32.1,32.1a18.6,18.6,0,0,0,26.7-.4l3.8-4.1L149,153.1l4.2-4.2-64-64ZM90,102.2a12.6,12.6,0,0,1-18.1.3L39.8,70.4C31.6,62.2,25.6,52.8,23,43.9c-2-6.7-1.8-12.4.4-16.4L93.9,98Z"/></svg>