<svg id="PIKTO_REGULAR" xmlns="http://www.w3.org/2000/svg" viewBox="0 0 170 170"><title>regular_black</title><path d="M48.2,100.8h-.7A43.5,43.5,0,0,1,39,97.7a3,3,0,0,1-1.7-2.7V86.8a35.4,35.4,0,0,1-3.8-3.2l-8,1.5a3,3,0,0,1-3-1.2,43.9,43.9,0,0,1-4.5-7.8,3,3,0,0,1,.5-3.2L24,66.8a35.1,35.1,0,0,1-.9-4.9L16,58a3,3,0,0,1-1.5-2.8,43.8,43.8,0,0,1,1.6-8.9,3,3,0,0,1,2.4-2.1l8-1.3A35.3,35.3,0,0,1,29,38.6L26.1,31a3,3,0,0,1,.7-3.2A44.1,44.1,0,0,1,33.6,22a3,3,0,0,1,3.2-.1l7,4.2a35,35,0,0,1,4.6-1.7l2.7-7.7a3,3,0,0,1,2.5-2,44.4,44.4,0,0,1,9,0,3,3,0,0,1,2.5,2l2.7,7.7a35,35,0,0,1,4.6,1.7l7-4.2a3,3,0,0,1,3.2.1,44.1,44.1,0,0,1,6.9,5.8,3,3,0,0,1,.6,3.2l-2.9,7.6a35.3,35.3,0,0,1,2.5,4.3l8,1.3a3,3,0,0,1,2.4,2.1,43.8,43.8,0,0,1,1.6,8.9,3,3,0,0,1-1.5,2.8l-8.5,4.7-2.9-5.2,6.8-3.8a37.7,37.7,0,0,0-.7-3.9l-7.7-1.2A3,3,0,0,1,85,46.7a29.2,29.2,0,0,0-3.4-5.9,3,3,0,0,1-.4-2.9l2.8-7.3-3.1-2.6-6.7,4a3,3,0,0,1-2.9.1,29,29,0,0,0-6.4-2.3,3,3,0,0,1-2.1-1.9l-2.6-7.4h-4l-2.6,7.4a3,3,0,0,1-2.1,1.9A29,29,0,0,0,45,32.2a3,3,0,0,1-2.9-.1l-6.7-4-3.1,2.6,2.8,7.3a3,3,0,0,1-.4,2.9,29.2,29.2,0,0,0-3.4,5.9A3,3,0,0,1,29,48.5l-7.7,1.2a37.8,37.8,0,0,0-.7,3.9l6.8,3.8A3,3,0,0,1,29,59.9a29.2,29.2,0,0,0,1.2,6.8,3,3,0,0,1-.6,2.8l-5.1,5.9a38.1,38.1,0,0,0,2,3.5l7.7-1.5a3,3,0,0,1,2.7.9,29.4,29.4,0,0,0,5.3,4.4,3,3,0,0,1,1.4,2.6V93l3.7,1.4,4.9-6,4.7,3.8-6.2,7.6A3,3,0,0,1,48.2,100.8Z"/><path d="M118.7,155.5a3,3,0,0,1-2.3-1.1l-5.8-7.1a36.9,36.9,0,0,1-5.7,0l-5.8,7.1a3,3,0,0,1-3.1,1,47.6,47.6,0,0,1-9.2-3.4,3,3,0,0,1-1.7-2.7v-9.1a38.7,38.7,0,0,1-4.4-3.7l-8.9,1.7a3,3,0,0,1-3-1.2,47.9,47.9,0,0,1-4.9-8.5,3,3,0,0,1,.5-3.2l6-6.9a38.3,38.3,0,0,1-1-5.6l-7.9-4.4a3,3,0,0,1-1.5-2.8,47.8,47.8,0,0,1,1.7-9.7,3,3,0,0,1,2.4-2.1l9-1.4a38.3,38.3,0,0,1,2.9-4.9l-3.2-8.5a3,3,0,0,1,.6-3.2A48.1,48.1,0,0,1,81,69.4a3,3,0,0,1,3.2-.1L92,74a38.3,38.3,0,0,1,5.3-1.9l3-8.6a3,3,0,0,1,2.5-2,48.6,48.6,0,0,1,9.8,0,3,3,0,0,1,2.5,2l3,8.6a38.3,38.3,0,0,1,5.3,1.9l7.8-4.7a3,3,0,0,1,3.2.1,48.1,48.1,0,0,1,7.5,6.3,3,3,0,0,1,.6,3.2l-3.2,8.5a38.5,38.5,0,0,1,2.9,4.9l9,1.4a3,3,0,0,1,2.4,2.1,47.8,47.8,0,0,1,1.7,9.7,3,3,0,0,1-1.5,2.8l-7.9,4.4a38.5,38.5,0,0,1-1,5.6l6,6.9a3,3,0,0,1,.5,3.2,47.8,47.8,0,0,1-4.9,8.5,3,3,0,0,1-3,1.2l-8.9-1.7a38.7,38.7,0,0,1-4.4,3.7v9.1a3,3,0,0,1-1.7,2.7,47.6,47.6,0,0,1-9.2,3.4ZM112,141.2a3,3,0,0,1,2.3,1.1l5.5,6.8,4.5-1.6v-8.8a3,3,0,0,1,1.4-2.6,32.6,32.6,0,0,0,5.8-4.9,3,3,0,0,1,2.7-.9l8.6,1.6a42,42,0,0,0,2.4-4.2l-5.7-6.6a3,3,0,0,1-.6-2.8,32.4,32.4,0,0,0,1.3-7.5,3,3,0,0,1,1.5-2.5l7.6-4.3a41.8,41.8,0,0,0-.8-4.7L139.9,98a3,3,0,0,1-2.3-1.8,32.4,32.4,0,0,0-3.8-6.6,3,3,0,0,1-.4-2.9l3.1-8.2a42.2,42.2,0,0,0-3.7-3.1L125.3,80a3,3,0,0,1-2.9.1,32.2,32.2,0,0,0-7.1-2.6,3,3,0,0,1-2.1-1.9l-2.9-8.3h-4.8l-2.9,8.3a3,3,0,0,1-2.1,1.9,32.2,32.2,0,0,0-7.1,2.6,3,3,0,0,1-2.9-.1l-7.5-4.5a42.4,42.4,0,0,0-3.7,3.1l3.1,8.2a3,3,0,0,1-.4,2.9A32.4,32.4,0,0,0,78,96.2,3,3,0,0,1,75.8,98l-8.6,1.4a41.8,41.8,0,0,0-.8,4.7l7.6,4.3a3,3,0,0,1,1.5,2.5,32.3,32.3,0,0,0,1.3,7.5,3,3,0,0,1-.6,2.8l-5.7,6.6a42.1,42.1,0,0,0,2.4,4.2l8.6-1.6a3,3,0,0,1,2.7.9,32.6,32.6,0,0,0,5.8,4.9,3,3,0,0,1,1.4,2.6v8.8l4.5,1.6,5.5-6.8a3,3,0,0,1,2.7-1.1,31.4,31.4,0,0,0,7.6,0Z"/><path d="M107.8,126.5A17.5,17.5,0,1,1,125.3,109,17.5,17.5,0,0,1,107.8,126.5Zm0-29A11.5,11.5,0,1,0,119.3,109,11.5,11.5,0,0,0,107.8,97.5Z"/><path d="M58.2,75.2A17.5,17.5,0,1,1,75.7,57.7,17.5,17.5,0,0,1,58.2,75.2Zm0-29A11.5,11.5,0,1,0,69.7,57.7,11.5,11.5,0,0,0,58.2,46.2Z"/></svg>