<svg id="PIKTO_REGULAR" xmlns="http://www.w3.org/2000/svg" viewBox="0 0 170 170"><title>regular_black</title><path d="M86.8,73.7,102,58.5a3,3,0,0,0,.6-3.3,24,24,0,0,1,5.1-26.7,24.3,24.3,0,0,1,20.1-6.9L114.3,35.2a3,3,0,0,0,0,4.2L131,56a3,3,0,0,0,4.2,0l13.5-13.5a24.1,24.1,0,0,1-34.4,24.8,3,3,0,0,0-3.4.6l-7.2,7.2,4.2,4.2,5.8-5.8a30.1,30.1,0,0,0,39.6-38,3,3,0,0,0-5-1.1L133.1,49.7,120.7,37.3l15.2-15.2a3,3,0,0,0-1.1-5,30.3,30.3,0,0,0-31.3,7.1,30,30,0,0,0-7.1,31.4L82.6,69.5Z"/><path d="M31.5,147.3a6.4,6.4,0,0,1-9.1-9.1L73.5,87.1l-4.2-4.2L18.1,133.9a12.4,12.4,0,0,0,17.6,17.6l43.8-43.8-4.2-4.2Z"/><path d="M102.4,84.8a3,3,0,0,0-4.2,0l-4.5,4.5L49.2,44.9l-1-13.3a3,3,0,0,0-.9-1.9L33.4,15.9a3,3,0,0,0-4.2,0L15.9,29.2a3,3,0,0,0,0,4.2L29.7,47.3a3,3,0,0,0,1.9.9l13.3,1L89.3,93.6l-4.5,4.5a3,3,0,0,0,0,4.2l48.5,48.5a12.4,12.4,0,0,0,17.6-17.6ZM33.2,42.3l-11-11,9.1-9.1,11,11L43,43ZM146.6,146.6a6.4,6.4,0,0,1-9.1,0L91.2,100.3l9.1-9.1,46.4,46.4A6.4,6.4,0,0,1,146.6,146.6Z"/></svg>