<svg id="PIKTO_REGULAR" xmlns="http://www.w3.org/2000/svg" viewBox="0 0 170 170"><title>regular_black</title><path d="M85,121.8A36.8,36.8,0,1,1,121.8,85,36.8,36.8,0,0,1,85,121.8Zm0-67.5A30.8,30.8,0,1,0,115.8,85,30.8,30.8,0,0,0,85,54.3Z"/><rect x="82" y="17.5" width="6" height="15.5"/><rect x="119.5" y="39.8" width="15.5" height="6" transform="translate(7 102.5) rotate(-45)"/><rect x="137" y="82" width="15.5" height="6"/><rect x="124.2" y="119.5" width="6" height="15.5" transform="translate(-52.7 127.2) rotate(-45)"/><rect x="82" y="137" width="6" height="15.5"/><rect x="35" y="124.2" width="15.5" height="6" transform="translate(-77.5 67.5) rotate(-45)"/><rect x="17.5" y="82" width="15.5" height="6"/><rect x="39.8" y="35" width="6" height="15.5" transform="translate(-17.7 42.8) rotate(-45)"/></svg>