<svg id="PIKTO_REGULAR" xmlns="http://www.w3.org/2000/svg" viewBox="0 0 170 170"><title>regular_black</title><path d="M162,69.7h-6.4V58.2a36.7,36.7,0,1,0-73.4,0V69.7H75.7a3,3,0,0,0-3,3V94.2a2.9,2.9,0,0,0,0,.4l3.7,24.8,5.9-.9L78.7,94V75.7H159V94l-9.7,65H112.8v6h39.1a3,3,0,0,0,3-2.6L165,94.6a2.9,2.9,0,0,0,0-.4V72.7A3,3,0,0,0,162,69.7ZM88.2,58.2a30.7,30.7,0,1,1,61.4,0V69.7H88.2Z"/><polygon points="106.7 135.4 58.6 135.4 58.6 4.5 52.6 4.5 52.6 135.4 4.5 135.4 4.5 141.4 10.6 141.4 10.6 165.5 16.6 165.5 16.6 141.4 31.6 141.4 31.6 165.5 37.6 165.5 37.6 141.4 52.6 141.4 52.6 165.5 58.6 165.5 58.6 141.4 73.6 141.4 73.6 165.5 79.6 165.5 79.6 141.4 94.7 141.4 94.7 165.5 100.7 165.5 100.7 141.4 106.7 141.4 106.7 135.4"/></svg>