<svg xmlns="http://www.w3.org/2000/svg" viewBox="0 0 170 170"><path d="M136.4 107.5a28.4 28.4 0 00-10.9 2.2l-23.6-43.5a3 3 0 00-2.6-1.6H78.9v6h18.6l8.2 15.1H59.8l-6.4-10.6h7.1v-6H39.6v6h6.8l8.3 13.7-10.6 20.6a28.4 28.4 0 00-10.3-1.9 28.7 28.7 0 1015.7 4.7l8.8-17.3L82.5 135a3 3 0 005.1 0l23.6-39.1 9 16.6a28.6 28.6 0 1016.2-5.1zm-80 28.7a22.6 22.6 0 11-22.6-22.7 22.4 22.4 0 017.6 1.3l-10.3 20 5.3 2.7 10.2-20a22.7 22.7 0 019.8 18.7zm28.6-8.5l-21.6-36h43.3zm51.4 31.3a22.8 22.8 0 01-13.4-41.1l10.7 19.8 5.3-2.9-10.7-19.8a22.4 22.4 0 018.1-1.5 22.8 22.8 0 010 45.5z"/></svg>