<svg id="PIKTO_REGULAR" xmlns="http://www.w3.org/2000/svg" viewBox="0 0 170 170"><title>regular_black</title><path d="M122.2,152.4c-17.1,0-42.9-14.1-66.7-37.9C23.6,82.7,9.2,47.3,22.6,33.8h0l11-11a18.4,18.4,0,0,1,26,0l11,11a18.4,18.4,0,0,1,0,26,12.6,12.6,0,0,0,0,17.8L92.4,99.5a12.6,12.6,0,0,0,17.8,0,18.4,18.4,0,0,1,26,0l11,11a18.4,18.4,0,0,1,0,26l-11,11C132.8,150.8,128,152.4,122.2,152.4ZM26.7,37.9C17.1,47.5,28,79,59.5,110.5c24.2,24.2,48.3,36.2,62.6,36.2,4.4,0,7.8-1.1,10-3.4l11-11a12.6,12.6,0,0,0,0-17.8l-11-11a12.6,12.6,0,0,0-17.8,0,18.4,18.4,0,0,1-26,0L66.4,81.7a18.4,18.4,0,0,1,0-26,12.6,12.6,0,0,0,0-17.8l-11-11a12.6,12.6,0,0,0-17.8,0l-11,11Z"/></svg>