<svg xmlns="http://www.w3.org/2000/svg" viewBox="0 0 170 170"><path d="M162 39.8h-9V29.3a3 3 0 00-3-3H87.6a17.1 17.1 0 00-16.7-13.6H32.1a3 3 0 00-3 3v10.6h-9a3 3 0 00-3 3v10.5H8a3 3 0 00-3 3v96.3a3 3 0 003 3h63.7a13.7 13.7 0 0026.7 0H162a3 3 0 003-3V42.8a3 3 0 00-3-3zm-15-7.6V124H88V32.3zM35.1 18.7h35.8A11.1 11.1 0 0182 29.8v85.3a15 15 0 00-9-3H35.1zm-12 13.6h6v82.8a3 3 0 003 3H73a9 9 0 018.5 6H23.1zM159 136.2H95.7a3 3 0 00-3 3 7.7 7.7 0 01-15.4 0 3 3 0 00-3-3H11V45.8h6v81.3a3 3 0 003 3h129.9a3 3 0 003-3V45.8h6z"/></svg>