<svg xmlns="http://www.w3.org/2000/svg" viewBox="0 0 170 170"><path d="M85 103l-1.1-.2A3 3 0 0182 100V83.2h-9.7a3 3 0 01-3-3V8a3 3 0 013-3H162a3 3 0 013 3v72.2a3 3 0 01-3 3h-55.9l-19 18.9a3 3 0 01-2.1.9zm-9.7-25.8H85a3 3 0 013 3v12.6l14.7-14.7a3 3 0 012.1-.9H159V11H75.3zm-32.6 30.2a17.5 17.5 0 1117.5-17.5 17.5 17.5 0 01-17.5 17.5zm0-29a11.5 11.5 0 1011.5 11.5 11.5 11.5 0 00-11.5-11.5zm25 86.6h-6v-31.1a11.3 11.3 0 00-11.2-11.4H34.9a11.3 11.3 0 00-11.2 11.4V165h-6v-31.1a17.4 17.4 0 0117.2-17.4h15.5a17.4 17.4 0 0117.2 17.4z"/></svg>