<svg xmlns="http://www.w3.org/2000/svg" viewBox="0 0 170 170"><path d="M86 5a51.3 51.3 0 00-35.8 89.1 14.8 14.8 0 014.6 10.6h6a20.7 20.7 0 00-6.5-15 45.3 45.3 0 1161.4.1 20.3 20.3 0 00-6.5 14.9h6a14.4 14.4 0 014.6-10.5A51.4 51.4 0 0086 5zm-1 154c-6.7 0-12.1-4.7-12.1-10.6h-6c0 9.2 8.1 16.6 18.1 16.6s18.1-7.4 18.1-16.6h-6c0 5.9-5.4 10.6-12.1 10.6z"/><path d="M105.6 111h-4.7V51.3h-6v3.9c0 2.8-4.3 5.9-10.3 5.9S74.2 58 74.2 55.2v-3.9h-6V111h-3.8a9.6 9.6 0 00-6.9 16.1 9.6 9.6 0 006.9 16.1h41.2a9.6 9.6 0 006.9-16.1 9.6 9.6 0 00-6.9-16.1zM74.2 64.5a21.9 21.9 0 0020.7 0V111H74.2zM64.4 117h41.2a3.6 3.6 0 010 7.1H64.4a3.6 3.6 0 010-7.1zm41.2 20.2H64.4a3.6 3.6 0 010-7.1h41.2a3.6 3.6 0 010 7.1z"/></svg>