<svg xmlns="http://www.w3.org/2000/svg" viewBox="0 0 170 170"><path d="M124.6 101.2H53.3v-6h71.4a26.5 26.5 0 004.5-52.7l-1.8-.3-.6-1.7a26.5 26.5 0 00-25.2-18.2v-6a32.5 32.5 0 0130.3 20.6 32.5 32.5 0 01-7.2 64.3zm-79.2 0a32.5 32.5 0 01-11.9-62.8v-.9a32.5 32.5 0 0159.7-17.8l-5 3.3a26.5 26.5 0 00-48.7 14.5c0 .9 0 1.8.1 2.6l.2 2.4-2.3.7a26.5 26.5 0 007.9 51.9zM94.5 147l-3.2-5-6.6 4.2-.1-7.8-6 .1.1 7.7-6.5-4.2-3.2 5 7.2 4.7-7.2 4.7 3.2 5.1 6.6-4.3.1 7.8h6l-.1-7.7 6.5 4.2 3.2-5.1-7.2-4.7 7.2-4.7zm-39.6-24l-3.3-5-6.5 4.3-.1-7.9-6 .1.1 7.7-6.5-4.2-3.2 5 7.2 4.7-7.2 4.8 3.2 5 6.6-4.3.1 7.9 6-.1-.1-7.7 6.4 4.2 3.3-5-7.3-4.8 7.3-4.7zm76.2 0l-3.3-5-6.5 4.3-.1-7.9-6 .1.1 7.7-6.5-4.2-3.2 5 7.2 4.7-7.2 4.8 3.2 5 6.6-4.3.1 7.9 6-.1-.1-7.7 6.4 4.2 3.3-5-7.3-4.8 7.3-4.7z"/></svg>