<svg id="PIKTO_REGULAR" xmlns="http://www.w3.org/2000/svg" viewBox="0 0 170 170"><title>regular_black</title><path d="M124.6,101.2H53.3v-6h71.4a26.5,26.5,0,0,0,4.5-52.7l-1.8-.3-.6-1.7a26.5,26.5,0,0,0-25.2-18.2v-6a32.5,32.5,0,0,1,30.3,20.6,32.5,32.5,0,0,1-7.2,64.3Z"/><path d="M45.4,101.2A32.5,32.5,0,0,1,33.5,38.4q0-.4,0-.9A32.5,32.5,0,0,1,93.2,19.7l-5,3.3A26.5,26.5,0,0,0,39.5,37.5c0,.9,0,1.8.1,2.6l.2,2.4-2.3.7a26.5,26.5,0,0,0,7.9,51.9Z"/><polygon points="94.5 147 91.3 142 84.7 146.2 84.6 138.4 78.6 138.5 78.7 146.2 72.2 142 69 147 76.2 151.7 69 156.4 72.2 161.5 78.8 157.2 78.9 165 84.9 165 84.8 157.3 91.3 161.5 94.5 156.4 87.3 151.7 94.5 147"/><polygon points="54.9 123 51.6 118 45.1 122.3 45 114.4 39 114.5 39.1 122.2 32.6 118 29.4 123 36.6 127.7 29.4 132.5 32.6 137.5 39.2 133.2 39.3 141.1 45.3 141 45.2 133.3 51.6 137.5 54.9 132.5 47.6 127.7 54.9 123"/><polygon points="131.1 123 127.8 118 121.3 122.3 121.2 114.4 115.2 114.5 115.3 122.2 108.8 118 105.6 123 112.8 127.7 105.6 132.5 108.8 137.5 115.4 133.2 115.5 141.1 121.5 141 121.4 133.3 127.8 137.5 131.1 132.5 123.8 127.7 131.1 123"/></svg>