<svg xmlns="http://www.w3.org/2000/svg" viewBox="0 0 170 170"><path d="M152.5 17.6H142a16.6 16.6 0 00-32.2 0H76.1a16.6 16.6 0 00-32.2 0H17.5a3 3 0 00-3 3v128.9a3 3 0 003 3h12.9v9.5a3 3 0 003 3h119.1a3 3 0 003-3V20.6a3 3 0 00-3-3zM125.9 11a10.6 10.6 0 019.8 6.6h-19.6a10.7 10.7 0 019.8-6.6zM60 11a10.6 10.6 0 019.8 6.6H50.1A10.7 10.7 0 0160 11zm10.4 12.6A10.6 10.6 0 0160 32.2v6a16.6 16.6 0 0016.5-14.6h59.9a10.6 10.6 0 01-10.4 8.6v6a16.6 16.6 0 0016.5-14.6h7.1v20.2H36.4V23.6zm-40 0v20.2h-9.9V23.6zm-9.9 122.9V49.8h9.9v96.7zM36.4 159V49.8h113.1V159z"/><path d="M82.6 74.7h20.7v6H82.6zm32 0h20.7v6h-20.7zM50.6 95h20.7v6H50.6zm32 0h20.7v6H82.6zm32 0h20.7v6h-20.7zm-64 20.3h20.7v6H50.6zm32 0h20.7v6H82.6zm32 0h20.7v6h-20.7zm-64 17.5h20.7v6H50.6zm32 0h20.7v6H82.6z"/></svg>