<svg xmlns="http://www.w3.org/2000/svg" viewBox="0 0 170 170"><path d="M122.2 152.4c-17.1 0-42.9-14.1-66.7-37.9C23.6 82.7 9.2 47.3 22.6 33.8l11-11a18.4 18.4 0 0126 0l11 11a18.4 18.4 0 010 26 12.6 12.6 0 000 17.8l21.8 21.9a12.6 12.6 0 0017.8 0 18.4 18.4 0 0126 0l11 11a18.4 18.4 0 010 26l-11 11c-3.4 3.3-8.2 4.9-14 4.9zM26.7 37.9C17.1 47.5 28 79 59.5 110.5c24.2 24.2 48.3 36.2 62.6 36.2 4.4 0 7.8-1.1 10-3.4l11-11a12.6 12.6 0 000-17.8l-11-11a12.6 12.6 0 00-17.8 0 18.4 18.4 0 01-26 0L66.4 81.7a18.4 18.4 0 010-26 12.6 12.6 0 000-17.8l-11-11a12.6 12.6 0 00-17.8 0l-11 11z"/></svg>