<svg xmlns="http://www.w3.org/2000/svg" viewBox="0 0 170 170"><path d="M44 132a16.5 16.5 0 1016.5 16.5A16.5 16.5 0 0044 132zm0 27a10.5 10.5 0 1110.5-10.5A10.5 10.5 0 0144 159zm81.1-27a16.5 16.5 0 1016.5 16.5 16.5 16.5 0 00-16.5-16.5zm0 27a10.5 10.5 0 1110.5-10.5 10.5 10.5 0 01-10.5 10.5zM85 115.8h19.4v6H85zm-19.4 30.5h36.9v6H65.6z"/><path d="M148.5 152.5v-6.1H159v-17.6a11.5 11.5 0 00-9.5-11.3l-28.5-5.2a3 3 0 01-1.4-.7L91.7 88H41l-29.9 28.9 1.5 29.5h7.7v6H9.7a3 3 0 01-3-2.8L5 115.9a3 3 0 01.9-2.3l31.8-30.8a3 3 0 012.1-.8h53a3 3 0 011.9.7l28.1 23.9 27.7 5a17.5 17.5 0 0114.5 17.2v20.7a3 3 0 01-3 3z"/></svg>