<svg xmlns="http://www.w3.org/2000/svg" viewBox="0 0 170 170"><path d="M129 66.1H38.3A14.2 14.2 0 0024 80v31a14.2 14.2 0 0014.4 13.9H129a14.2 14.2 0 0014.3-13.9V80a13.6 13.6 0 00-4.2-9.9 14.5 14.5 0 00-10.1-4zm8.3 44.9a8.2 8.2 0 01-8.4 7.9H38.3A8.2 8.2 0 0130 111V80a8.2 8.2 0 018.4-7.9H129a8.5 8.5 0 016 2.4 7.7 7.7 0 012.4 5.6z"/><path d="M47.8 89.3c-2.9 0-5.4 2.2-5.4 7v.9c0 4.8 2.5 7 5.4 7s5.4-2.2 5.4-7v-.9c0-4.9-2.5-7-5.4-7zm2.3 7.9c0 3.2-.9 4.3-2.3 4.3s-2.3-1.2-2.3-4.3v-.8c0-3.2.9-4.3 2.3-4.3s2.3 1.2 2.3 4.3zm14.2-7.9c-2.9 0-5.4 2.2-5.4 7v.9c0 4.8 2.5 7 5.4 7s5.4-2.2 5.4-7v-.9c0-4.9-2.5-7-5.4-7zm2.3 7.9c0 3.2-.9 4.3-2.3 4.3s-2.3-1.2-2.3-4.4v-.8c0-3.2.9-4.3 2.3-4.3s2.3 1.2 2.3 4.3zm16.8-5.8l-2.5.8v-2.7h-2.1v2.7l-2.6-.8-.6 1.9 2.6.9-1.6 2.2 1.6 1.2 1.6-2.2 1.6 2.2 1.7-1.2-1.6-2.2 2.6-.9-.7-1.9zm14.5 0l-2.6.8v-2.7h-2v2.7l-2.6-.8-.7 1.9 2.6.9-1.6 2.2 1.7 1.2 1.6-2.2 1.6 2.2 1.7-1.2-1.6-2.2 2.6-.9-.7-1.9zm14.5 0l-2.6.8v-2.7h-2.1v2.7l-2.5-.8-.7 1.9 2.6.9-1.6 2.2 1.7 1.2 1.6-2.2 1.6 2.2 1.6-1.2-1.5-2.2 2.5-.9-.6-1.9zm14.5 0l-2.6.8v-2.7h-2.1v2.7l-2.6-.8-.6 1.9 2.6.9-1.6 2.2 1.7 1.2 1.5-2.2 1.6 2.2 1.7-1.2-1.6-2.2 2.6-.9-.6-1.9z"/><path d="M156 48.3h-7V13.5a8.5 8.5 0 00-8.6-8.5H29a8.5 8.5 0 00-8.5 8.5v34.8H14a9 9 0 00-9 9V165h6V57.3a3 3 0 013-3h142a3 3 0 013 3V165h6V57.3a9 9 0 00-9-9zM26.5 13.5A2.5 2.5 0 0129 11h111.4a2.5 2.5 0 012.5 2.5v34.8h-15v-20a3 3 0 00-3-3h-20a3 3 0 00-3 3v20H39.8V17.5h-6v30.8h-7.3zm95.3 34.7h-14v-17h14z"/><path d="M73 158.9h24.9v6H73zM33.6 141H73v6H33.6zm0 17.9h24.9v6H33.6zM97.9 141h37.2v6H97.9zm12.2 17.9H135v6h-24.9zM46.7 17.5h6v19.87h-6z"/></svg>