<svg xmlns="http://www.w3.org/2000/svg" viewBox="0 0 170 170"><path d="M145.6 87.6H24.4A19.4 19.4 0 015 68.2h6a13.4 13.4 0 0013.4 13.4h121.2A13.4 13.4 0 00159 68.2h6a19.4 19.4 0 01-19.4 19.4z"/><path d="M132.7 71.2h-29.8a3 3 0 01-3-2.7l-5.7-49.4a3 3 0 013-3.3h41.2a3 3 0 013 3.3l-5.7 49.4a3 3 0 01-3 2.7zm-27.1-6H130l5-43.4h-34.5zm-14.3 6H38.9a3 3 0 01-2.1-.9L19.5 53a3 3 0 012.1-5.1h66.3v6h-59l11.3 11.3h51.1zM4.3 159h161.4v6H4.3zm37.9-9.7l24.7-24.7-4.2-4.2-17.5 17.4v-37.7h-6v37.7l-17.4-17.5-4.3 4.3 24.7 24.7z"/></svg>