<svg id="PIKTO_REGULAR" xmlns="http://www.w3.org/2000/svg" viewBox="0 0 170 170"><title>regular_black</title><path d="M144.1,65.4v-6H25.9v6H35v78.5a11.6,11.6,0,0,0,11.6,11.6h76.7A11.6,11.6,0,0,0,135,143.9V65.4ZM41,143.9V65.4h66.5v84.1H46.6A5.6,5.6,0,0,1,41,143.9Zm88,0a5.6,5.6,0,0,1-5.6,5.6h-9.8V65.4H129Z"/><path d="M149.2,23H20.8C14.4,23,9.2,29.1,9.2,36.7V76.4c0,7.6,5.2,13.8,11.6,13.8h5v-6h-5c-3,0-5.6-3.6-5.6-7.8V36.7c0-4.2,2.6-7.8,5.6-7.8H149.2c3,0,5.6,3.6,5.6,7.8V76.4c0,4.2-2.6,7.8-5.6,7.8h-5v6h5c6.4,0,11.6-6.2,11.6-13.8V36.7C160.8,29.1,155.6,23,149.2,23Z"/><rect x="124.7" y="40.8" width="19.4" height="6"/><rect x="58.9" y="114" width="6" height="19.45"/></svg>