<svg xmlns="http://www.w3.org/2000/svg" viewBox="0 0 170 170"><path d="M21.7 51.2h74.1v6H21.7zm13.8-13.8h75.2v6H35.5z"/><path d="M162 37.4h-25.2l28-28-4.2-4.2-78 78a19.1 19.1 0 00-11.3-3.7 19.3 19.3 0 00-15.6 30.6l-16.5 16.5h-8.7v-7.5a3 3 0 00-3-3 6.1 6.1 0 01-6.1-6.1 3 3 0 00-3-3H11V90.7h7.5a3 3 0 003-3 6.1 6.1 0 016.1-6.1 3 3 0 003-3v-7.7H85v-6H8a3 3 0 00-3 3v61.7a3 3 0 003 3h25.2l-28 28 4.2 4.2 93.9-93.9h8.7v7.7a3 3 0 003 3 6.1 6.1 0 016.1 6.1 3 3 0 003 3h7.5V107H124a3 3 0 00-3 3 6.1 6.1 0 01-6.1 6.1 3 3 0 00-3 3v7.5H57.3v6h77.3a3 3 0 003-3V67.9a3 3 0 00-3-3h-25.3l7.7-7.7h28.2v58.7h6V54.2a3 3 0 00-3-3h-25.1l7.7-7.7H159v58.7h6V40.4a3 3 0 00-3-3zM24.5 70.9V76a12.1 12.1 0 00-8.7 8.7H11V70.9zM11 113h4.9a12.1 12.1 0 008.7 8.7v4.9H11zm107 13.6v-4.9a12.1 12.1 0 008.7-8.7h4.9v13.6zm13.6-41.9h-4.9A12.1 12.1 0 00118 76v-5.1h13.6zM58 98.7a13.3 13.3 0 0120.3-11.2L60 105.8a13.2 13.2 0 01-2-7.1z"/><path d="M84.6 98.7A13.3 13.3 0 0171.3 112v6a19.3 19.3 0 0019.3-19.3z"/></svg>