<svg xmlns="http://www.w3.org/2000/svg" viewBox="0 0 170 170"><path d="M144.1 65.4v-6H25.9v6h18v87.1a3 3 0 003 3h76.3a3 3 0 003-3V65.4zm-42 8.9a17.2 17.2 0 11-31.8-8.9h29.4a17 17 0 012.5 8.8zm-52.2 57h7.6a14.2 14.2 0 0010.9 10.9v7.3H49.9zm52.1 18.2v-7.3a14.2 14.2 0 0010.9-10.9h7.3v18.2zm18.2-24.2h-10a3 3 0 00-3 3 8.2 8.2 0 01-8.2 8.2 3 3 0 00-3 3v10H74.4v-10a3 3 0 00-3-3 8.2 8.2 0 01-8.2-8.2 3 3 0 00-3-3H49.9V65.4h13.7a23.2 23.2 0 1042.8 0h13.7z"/><path d="M149.2 23H20.8c-6.4 0-11.6 6.1-11.6 13.7v39.7c0 7.6 5.2 13.8 11.6 13.8h16.3v-6H20.8c-3 0-5.6-3.6-5.6-7.8V36.7c0-4.2 2.6-7.8 5.6-7.8h128.4c3 0 5.6 3.6 5.6 7.8v39.7c0 4.2-2.6 7.8-5.6 7.8h-13.3v6h13.3c6.4 0 11.6-6.2 11.6-13.8V36.7c0-7.6-5.2-13.7-11.6-13.7z"/><path d="M124.7 40.8h19.4v6h-19.4z"/></svg>