<svg xmlns="http://www.w3.org/2000/svg" viewBox="0 0 170 170"><path d="M137.5 102.1V40.4a3 3 0 00-3-3H8a3 3 0 00-3 3v61.7a3 3 0 003 3h126.5a3 3 0 003-3zM112 91.3V99H30.5v-7.7a3 3 0 00-3-3 6.1 6.1 0 01-6.1-6.1 3 3 0 00-3-3H11V63h7.5a3 3 0 003-3 6.1 6.1 0 016.1-6.1 3 3 0 003-3v-7.5H112v7.5a3 3 0 003 3 6.1 6.1 0 016 6.1 3 3 0 003 3h7.5v16.3H124a3 3 0 00-3 3 6.1 6.1 0 01-6.1 6.1 3 3 0 00-2.9 2.9zM131.5 57h-4.9a12.1 12.1 0 00-8.7-8.7v-4.9h13.6zm-107-13.6v4.9a12.1 12.1 0 00-8.6 8.7H11V43.4zM11 85.3h4.9a12.1 12.1 0 008.6 8.7v5.1H11zm107 13.8V94a12.1 12.1 0 008.7-8.7h4.9v13.8z"/><path d="M151.3 115.8V54.2h-6v58.7H21.7v6h126.6a3 3 0 003-3.1z"/><path d="M159 67.9v58.7H35.5v6H162a3 3 0 003-3V67.9zM71.3 88.8a17.5 17.5 0 1117.5-17.5 17.5 17.5 0 01-17.5 17.5zm0-29a11.5 11.5 0 1011.5 11.5 11.5 11.5 0 00-11.5-11.5z"/></svg>