<svg xmlns="http://www.w3.org/2000/svg" viewBox="0 0 170 170"><path d="M89.4 79h-57v-8.5a3.1 3.1 0 00-3-3 6.9 6.9 0 01-6.9-6.9 3.1 3.1 0 00-3-3H11V39.3h8.5a3.1 3.1 0 003-3 6.9 6.9 0 016.9-6.9 3.1 3.1 0 003-3v-8.8h89.5v8.8a3 3 0 003 3 6.9 6.9 0 016.9 6.9 3 3 0 003 3h8.4v8.3h6v-33a3 3 0 00-3-3H8a3 3 0 00-3 3V82a2.9 2.9 0 003 3h81.4zm53.8-45.7h-5.8a13.1 13.1 0 00-9.5-9.6v-6.1h15.3zM26.4 17.6v6.1a13 13 0 00-9.6 9.6H11V17.6zM11 63.6h5.8a12.9 12.9 0 009.6 9.6V79H11z"/><path d="M79.2 36.1c2.4 0 4 1.4 5.1 3.5l4.8-2.2a10.4 10.4 0 00-9.8-6.2c-6 0-10 3.8-10 9.7v4.4h-2.7v3.8h2.7v9.5h-3.6v5h23v-5H75v-9.5h7.3v-3.8H75v-4c0-3.5 1.6-5.2 4.2-5.2zM59.3 95.7a33.2 33.2 0 1033.1 33.2 33.2 33.2 0 00-33.1-33.2zm0 60.3a27.2 27.2 0 1127.1-27.1A27.1 27.1 0 0159.3 156z"/><path d="M60 117.5c1.8 0 3.3 1.1 4.2 3.2l5.1-1.7a9.9 9.9 0 00-9.4-6.7c-5.4 0-9.7 4-10.8 11.6h-2.8v2.9h2.5v3.7h-2.5v2.9H49c1.1 7.8 5.4 11.7 10.9 11.7a9.8 9.8 0 009.4-6.6l-5.1-1.7c-.9 2.1-2.4 3.2-4.2 3.2s-4.5-2-5.3-6.6h9l.7-2.9h-9.9a5.7 5.7 0 01-.1-1.3v-.9a7.6 7.6 0 01.1-1.5h10.9l.8-2.9H54.8c.7-4.4 2.7-6.4 5.2-6.4zm71.9-60.6A33.2 33.2 0 10165 90a33.2 33.2 0 00-33.1-33.1zm0 60.3A27.2 27.2 0 11159 90a27.2 27.2 0 01-27.1 27.2z"/><path d="M136.1 87.7l-4.4-.8c-2.8-.5-4.7-1.7-4.7-4.1s2-4.4 5.3-4.4a7.4 7.4 0 016.7 4.2l5.2-2.1a12.5 12.5 0 00-9.2-6.8v-4.3h-3.8v4.1c-5.9.5-9.9 4.2-9.9 9v.4c0 5.8 4.9 7.9 9.3 8.7l4.3.8c2.1.4 4.3 1.5 4.3 4.2s-2.7 4.8-6.1 4.8a7.4 7.4 0 01-7.1-4.8l-5.2 2.2a12.3 12.3 0 0010.4 7.4v4.2h3.8v-4.2c5.7-.7 9.8-4.5 9.8-9.9V96c0-5.6-4.6-7.6-8.7-8.3z"/></svg>