<svg xmlns="http://www.w3.org/2000/svg" viewBox="0 0 170 170"><path d="M124.9 27.6h-5V14a9 9 0 00-9-9H60a9 9 0 00-9 9v13.6h-5.4a3 3 0 00-3 3v87.6A28.5 28.5 0 0071 146.6h12.7A13.7 13.7 0 0097 157.3h8.3a7.7 7.7 0 017.7 7.7h6a13.7 13.7 0 00-13.7-13.7H97a7.7 7.7 0 01-7.1-4.7h9.5a28.5 28.5 0 0028.4-28.4V30.6a3 3 0 00-2.9-3zM57 14a3 3 0 013-3h50.9a3 3 0 013 3v13.6h-4.8V17.5a3 3 0 00-3-3H94.4a3 3 0 00-3 3v10.1H57zm46.1 13.6h-5.7v-7.1h5.7zm18.8 90.6a22.5 22.5 0 01-22.4 22.4H71a22.5 22.5 0 01-22.4-22.4V33.6h73.3z"/><path d="M64 71.1h41.8a8.2 8.2 0 008.2-8V48.7a7.9 7.9 0 00-2.5-5.7 8.3 8.3 0 00-5.8-2.3H64a8.2 8.2 0 00-8.2 8V63a8.2 8.2 0 008.2 8.1zm-2.3-22.4a2.2 2.2 0 012.2-2h41.8a2.3 2.3 0 011.6.6 2 2 0 01.6 1.4V63a2.2 2.2 0 01-2.2 2H64a2.2 2.2 0 01-2.2-2zm17.3 52h12.8v6H79zm-20.3 0h12.8v6H58.7zm39.5 0H111v6H98.2zM79 125.1h12.8v6H79zm-17.4 0h10v6h-10zm36.6 0h10v6h-10zM79 88.9h12.8v6H79zM58.7 77H79v6H58.7zm0 11.9h12.8v6H58.7zM91.9 77H111v6H91.9zm6.3 11.9H111v6H98.2zm-19.2 24h12.8v6H79zm-20.3 0h12.8v6H58.7zm39.5 0H111v6H98.2z"/></svg>