<svg xmlns="http://www.w3.org/2000/svg" viewBox="0 0 170 170"><path d="M128.3 165.1H42.7a13 13 0 01-13-13v-134a13 13 0 0113-13h85.6a13 13 0 0113 13v134a13 13 0 01-13 13zm-85.6-154a7 7 0 00-7 7v134a7 7 0 007 7h85.6a7 7 0 007-7v-134a7 7 0 00-7-7z"/><path d="M49.1 78.2h15.4v6H49.1zm0 31.3h15.4v6H49.1zm0 31.4h15.4v6H49.1zm58.6-62.7h15.4v6h-15.4zM49.1 93.9h15.4v6H49.1zm0 31.3h15.4v6H49.1zm29.3-47h15.4v6H78.4zm0 31.3h15.4v6H78.4zm0 31.4h15.4v6H78.4zm0-47h15.4v6H78.4zm0 31.3h15.4v6H78.4zm29.3-15.7h15.4v6h-15.4zm0-15.6h15.4v6h-15.4zm12.8-29H51.6a3 3 0 01-3-3V28.1a3 3 0 013-3h68.9a3 3 0 013 3v33.8a3 3 0 01-3 3zm-65.9-6h62.9V31.1H54.6zm65.9 88h-15.3a3 3 0 01-3-3v-15.7a3 3 0 013-3h15.4a3 3 0 013 3v15.7a3 3 0 01-3.1 3zm-12.4-6h9.4v-9.7h-9.4z"/></svg>