<svg id="PIKTOGRAM" xmlns="http://www.w3.org/2000/svg" viewBox="0 0 170 170"><title>regular_black</title><path d="M161,63.5a14.7,14.7,0,0,0-10.9-4.8H110.5a3.6,3.6,0,0,1-3.6-3.6v-33a13.8,13.8,0,0,0-4-9.9,14.2,14.2,0,0,0-10.1-4c-8.2,0-11.7,7.1-12.1,8C64.4,49.6,44.1,64.9,40.2,67.7H5v6H38.1v75.7H5v6H41.1a2.9,2.9,0,0,0,3-3v-10c5.5.4,10.9,2.8,15.1,4.9l4.3,2.2A73.8,73.8,0,0,0,78.1,156c7,2.1,14.1,2.3,22,2.4h35.6a15,15,0,0,0,15.1-13.3,14.7,14.7,0,0,0-3.7-11.3l-.2-.2a14.5,14.5,0,0,0,5-23.2l-.2-.3a14.5,14.5,0,0,0,4.8-23.2l-.3-.3A14.5,14.5,0,0,0,161,63.5Zm-2.2,10.7c-.4,4.4-4.5,7.9-9.2,7.9h-4a3,3,0,0,0,0,6,8.6,8.6,0,0,1,6.5,2.9,9,9,0,0,1,2.2,6.7c-.4,4.4-4.5,7.8-9.2,7.8H141a3.1,3.1,0,0,0-3,3,3,3,0,0,0,3,3,8.9,8.9,0,0,1,6.5,2.9,8.2,8.2,0,0,1,2.2,6.7,9.1,9.1,0,0,1-9.2,7.9h-4.3a2.9,2.9,0,0,0-3,3,3,3,0,0,0,3,3,8.6,8.6,0,0,1,6.4,2.8,9,9,0,0,1,2.3,6.8,9.1,9.1,0,0,1-9.2,7.8H100.1c-7.4-.1-14.1-.3-20.3-2.1-4.6-1.4-8.9-3.7-13.5-6.1l-4.4-2.3c-4.9-2.4-11.1-5.1-17.8-5.6v-64c5.5-3.9,25.5-19.7,42-53.5h0c.1-.2,2.1-4.5,6.7-4.5a8.6,8.6,0,0,1,5.9,2.3,7.7,7.7,0,0,1,2.2,5.6v33a9.6,9.6,0,0,0,9.6,9.6h39.6a8.8,8.8,0,0,1,6.5,2.8A9.1,9.1,0,0,1,158.8,74.2Z"/></svg>