<svg xmlns="http://www.w3.org/2000/svg" viewBox="0 0 170 170"><path d="M139.6 146.8V23.2A18.3 18.3 0 00121.3 5H48.7a18.3 18.3 0 00-18.3 18.2v123.6A18.3 18.3 0 0048.7 165h72.6a18.3 18.3 0 0018.3-18.2zm-103.1 0V23.2A12.2 12.2 0 0148.7 11h72.6a12.2 12.2 0 0112.2 12.2v123.6a12.2 12.2 0 01-12.2 12.2H48.7a12.2 12.2 0 01-12.3-12.2z"/><path d="M48.1 84.8h73.8a3 3 0 003-3v-61a3 3 0 00-3-3H48.1a3 3 0 00-3 3v61a3 3 0 003 3zm3-61h67.8v55H51.1zm25.6 73.1h16.7v6H76.7zm0 15.8h16.7v6H76.7zm0 15.4h16.7v6H76.7zm0 15.9h16.7v6H76.7zM45.3 96.9H62v6H45.3zm0 15.8H62v6H45.3zm0 15.4H62v6H45.3zm0 15.9H62v6H45.3zm59.9-47.1h16.7v6h-16.7zm0 15.8h16.7v6h-16.7zm0 15.4h16.7v6h-16.7zm0 15.9h16.7v6h-16.7z"/><path d="M81 56.5L74.5 50l-4.2 4.2 8.7 8.7a3 3 0 004.2 0l19-19-4.2-4.2z"/></svg>