<svg xmlns="http://www.w3.org/2000/svg" viewBox="0 0 170 170"><path d="M85 10.8a16.6 16.6 0 0116.5 16.6h6a22.5 22.5 0 10-45 0h6A16.6 16.6 0 0185 10.8z"/><path d="M85 30.4a67.4 67.4 0 1067.4 67.4A67.5 67.5 0 0085 30.4zm0 128.8a61.4 61.4 0 1161.4-61.4A61.5 61.5 0 0185 159.2z"/><path d="M98.5 110l22.3-43.9a3.2 3.2 0 00-.6-3.5 3 3 0 00-3.5-.6L72.8 84.3a3.3 3.3 0 00-1.3 1.3l-22.3 43.9a3.2 3.2 0 00.6 3.5 2.9 2.9 0 002.1.9 2.5 2.5 0 001.4-.4l43.9-22.2a4 4 0 001.3-1.3zm-3.5-6.4L79.2 87.8l32.1-16.3zM75 92l15.8 15.8L58.7 124zm7-48.6h6v15.46h-6zm0 93.3h6v15.46h-6zm28.8-28.6l-5.3 2.7 7.7 15.2-15.2-7.7-2.7 5.3 23.3 11.9a3.5 3.5 0 001.4.3 2.9 2.9 0 002.1-.9 3 3 0 00.6-3.5zM64.9 85.5l-8.1-15.9 16.4 8.3 2.7-5.3-24.5-12.5a3.1 3.1 0 00-4.1 4.1l12.2 24z"/></svg>