<svg id="PIKTOGRAM" xmlns="http://www.w3.org/2000/svg" viewBox="0 0 170 170"><title>regular_black</title><metadata><?xpacket begin="﻿" id="W5M0MpCehiHzreSzNTczkc9d"?>
<x:xmpmeta xmlns:x="adobe:ns:meta/" x:xmptk="Adobe XMP Core 5.6-c137 79.159547, 2016/07/07-11:39:24        ">
   <rdf:RDF xmlns:rdf="http://www.w3.org/1999/02/22-rdf-syntax-ns#">
      <rdf:Description rdf:about=""
            xmlns:dc="http://purl.org/dc/elements/1.1/"
            xmlns:xmpMM="http://ns.adobe.com/xap/1.0/mm/"
            xmlns:stEvt="http://ns.adobe.com/xap/1.0/sType/ResourceEvent#"
            xmlns:xmp="http://ns.adobe.com/xap/1.0/">
         <dc:title>
            <rdf:Alt>
               <rdf:li xml:lang="x-default">regular_black</rdf:li>
            </rdf:Alt>
         </dc:title>
         <xmpMM:PreservedFileName>regular_black_18.svg</xmpMM:PreservedFileName>
         <xmpMM:InstanceID>xmp.iid:bef9e203-b0e5-1f4a-ba2c-1cbea9f1b415</xmpMM:InstanceID>
         <xmpMM:DocumentID>xmp.did:bef9e203-b0e5-1f4a-ba2c-1cbea9f1b415</xmpMM:DocumentID>
         <xmpMM:OriginalDocumentID>xmp.did:bef9e203-b0e5-1f4a-ba2c-1cbea9f1b415</xmpMM:OriginalDocumentID>
         <xmpMM:History>
            <rdf:Seq>
               <rdf:li>
                  <rdf:Description>
                     <stEvt:action>saved</stEvt:action>
                     <stEvt:instanceID>xmp.iid:bef9e203-b0e5-1f4a-ba2c-1cbea9f1b415</stEvt:instanceID>
                     <stEvt:when>2017-11-29T15:49:19+01:00</stEvt:when>
                     <stEvt:softwareAgent>Adobe Bridge CC 2017 (Windows)</stEvt:softwareAgent>
                     <stEvt:changed>/metadata</stEvt:changed>
                  </rdf:Description>
               </rdf:li>
            </rdf:Seq>
         </xmpMM:History>
         <xmp:MetadataDate>2017-11-29T15:49:19+01:00</xmp:MetadataDate>
      </rdf:Description>
   </rdf:RDF>
</x:xmpmeta>
                                                                                                    
                                                                                                    
                                                                                                    
                                                                                                    
                                                                                                    
                                                                                                    
                                                                                                    
                                                                                                    
                                                                                                    
                                                                                                    
                                                                                                    
                                                                                                    
                                                                                                    
                                                                                                    
                                                                                                    
                                                                                                    
                                                                                                    
                                                                                                    
                                                                                                    
                                                                                                    
                           
<?xpacket end="w"?></metadata>
<path d="M85,10.8a16.6,16.6,0,0,1,16.5,16.6h6a22.5,22.5,0,1,0-45,0h6A16.6,16.6,0,0,1,85,10.8Z"/><path d="M85,30.4a67.4,67.4,0,1,0,67.4,67.4A67.5,67.5,0,0,0,85,30.4Zm0,128.8a61.4,61.4,0,1,1,61.4-61.4A61.5,61.5,0,0,1,85,159.2Z"/><path d="M98.5,110l22.3-43.9a3.2,3.2,0,0,0-.6-3.5,3,3,0,0,0-3.5-.6L72.8,84.3a3.3,3.3,0,0,0-1.3,1.3L49.2,129.5a3.2,3.2,0,0,0,.6,3.5,2.9,2.9,0,0,0,2.1.9,2.5,2.5,0,0,0,1.4-.4l43.9-22.2A4,4,0,0,0,98.5,110ZM95,103.6,79.2,87.8l32.1-16.3ZM75,92l15.8,15.8L58.7,124Z"/><rect x="82" y="43.4" width="6" height="15.46"/><rect x="82" y="136.7" width="6" height="15.46"/><path d="M110.8,108.1l-5.3,2.7,7.7,15.2L98,118.3l-2.7,5.3,23.3,11.9a3.5,3.5,0,0,0,1.4.3,2.9,2.9,0,0,0,2.1-.9,3,3,0,0,0,.6-3.5Z"/><path d="M64.9,85.5,56.8,69.6l16.4,8.3,2.7-5.3L51.4,60.1a3.1,3.1,0,0,0-4.1,4.1l12.2,24Z"/></svg>