<svg xmlns="http://www.w3.org/2000/svg" viewBox="0 0 170 170"><path d="M124.6 101.2H53.3v-6h71.4a26.5 26.5 0 004.5-52.7l-1.8-.3-.6-1.7a26.5 26.5 0 00-25.2-18.2v-6a32.5 32.5 0 0130.3 20.6 32.5 32.5 0 01-7.2 64.3zm-79.2 0a32.5 32.5 0 01-11.9-62.8v-.9a32.5 32.5 0 0159.7-17.8l-5 3.3a26.5 26.5 0 00-48.7 14.5c0 .9 0 1.8.1 2.6l.2 2.4-2.3.7a26.5 26.5 0 007.9 51.9zm-20.595 55.966l9.697-17.492 5.247 2.908-9.696 17.493zm-4.765-28.47l9.695-17.493 5.248 2.91-9.696 17.491zm33.121.147l9.696-17.493 5.248 2.91-9.696 17.492zm5.431 28.261l9.696-17.493 5.248 2.91-9.696 17.492zm28.356-28.224l9.696-17.492 5.248 2.909-9.696 17.492zm5.579 28.174l9.696-17.492 5.248 2.909-9.696 17.492zm28.207-28.136l9.697-17.492 5.247 2.909-9.696 17.492z"/></svg>