<svg id="PIKTO_REGULAR" xmlns="http://www.w3.org/2000/svg" viewBox="0 0 170 170"><title>regular_black</title><path d="M115.7,166H54.3a3,3,0,0,1-3-3V61a3,3,0,0,1,3-3h61.3a3,3,0,0,1,3,3V163A3,3,0,0,1,115.7,166Zm-58.3-6h55.3V64H57.3Z"/><path d="M24.6,140.9A13.8,13.8,0,1,1,38.5,127,13.9,13.9,0,0,1,24.6,140.9Zm0-22.9a9.1,9.1,0,1,0,9.1,9.1A9.1,9.1,0,0,0,24.6,117.9Z"/><path d="M44.4,165H39.7v-3.2a9,9,0,0,0-8.9-9H18.5a9,9,0,0,0-8.9,9V165H4.8v-3.2A13.7,13.7,0,0,1,18.5,148H30.8a13.7,13.7,0,0,1,13.6,13.8Z"/><path d="M24.6,78.4A13.8,13.8,0,1,1,38.5,64.6,13.9,13.9,0,0,1,24.6,78.4Zm0-22.9a9.1,9.1,0,1,0,9.1,9.1A9.1,9.1,0,0,0,24.6,55.5Z"/><path d="M44.4,102.6H39.7V99.4a9,9,0,0,0-8.9-9H18.5a9,9,0,0,0-8.9,9v3.2H4.8V99.4A13.7,13.7,0,0,1,18.5,85.6H30.8A13.7,13.7,0,0,1,44.4,99.4Z"/><path d="M145.2,140.9A13.8,13.8,0,1,1,159.1,127,13.9,13.9,0,0,1,145.2,140.9Zm0-22.9a9.1,9.1,0,1,0,9.1,9.1A9.1,9.1,0,0,0,145.2,117.9Z"/><path d="M165,165h-4.7v-3.2a9,9,0,0,0-8.9-9H139.1a9,9,0,0,0-8.9,9V165h-4.7v-3.2A13.7,13.7,0,0,1,139.1,148h12.3A13.7,13.7,0,0,1,165,161.8Z"/><path d="M145.2,78.4a13.8,13.8,0,1,1,13.8-13.8A13.9,13.9,0,0,1,145.2,78.4Zm0-22.9a9.1,9.1,0,1,0,9.1,9.1A9.1,9.1,0,0,0,145.2,55.5Z"/><path d="M165,102.6h-4.7V99.4a9,9,0,0,0-8.9-9H139.1a9,9,0,0,0-8.9,9v3.2h-4.7V99.4a13.7,13.7,0,0,1,13.6-13.8h12.3A13.7,13.7,0,0,1,165,99.4Z"/><path d="M85,32.7A13.8,13.8,0,1,1,98.8,18.8,13.9,13.9,0,0,1,85,32.7ZM85,9.7a9.1,9.1,0,1,0,9.1,9.1A9.1,9.1,0,0,0,85,9.7Z"/><path d="M100,53.6a9,9,0,0,0-8.9-9H78.9a9,9,0,0,0-8.9,9H65.2A13.7,13.7,0,0,1,78.9,39.8H91.1a13.7,13.7,0,0,1,13.6,13.8Z"/></svg>