<svg xmlns="http://www.w3.org/2000/svg" viewBox="0 0 170 170"><path d="M107 17h6v12.63h-6zm30.817 22.914l8.91-8.91 4.228 4.23-8.91 8.909zM152.4 69H165v5.98h-12.6zm-14.634 35.096l4.243-4.242 8.93 8.93-4.242 4.243zm-68.698-68.9l4.243-4.242 8.93 8.93L78 44.128z"/><path d="M125.1 98.5a30.5 30.5 0 10-41.8-41.2l5.2 2.9a24.5 24.5 0 1129.1 35.1l-1.6-.4a30.4 30.4 0 00-28.2-19.3v6A24.4 24.4 0 01111 98.4l.6 1.7 1.8.3a24.5 24.5 0 01-4.1 48.6H42.8v6h66.4A30.5 30.5 0 00125 98.5z"/><path d="M35.5 155a30.5 30.5 0 01-11.3-58.8v-.7a30.5 30.5 0 0156-16.7l-5 3.3a24.5 24.5 0 00-45 13.4c0 .8 0 1.6.1 2.4l.2 2.4-2.3.7a24.5 24.5 0 007.3 48z"/></svg>