<svg xmlns="http://www.w3.org/2000/svg" viewBox="0 0 170 170"><path d="M115.7 166H54.3a3 3 0 01-3-3V61a3 3 0 013-3h61.3a3 3 0 013 3v102a3 3 0 01-2.9 3zm-58.3-6h55.3V64H57.3zm-32.8-19.1A13.8 13.8 0 1138.5 127a13.9 13.9 0 01-13.9 13.9zm0-22.9a9.1 9.1 0 109.1 9.1 9.1 9.1 0 00-9.1-9.2zm19.8 47h-4.7v-3.2a9 9 0 00-8.9-9H18.5a9 9 0 00-8.9 9v3.2H4.8v-3.2A13.7 13.7 0 0118.5 148h12.3a13.7 13.7 0 0113.6 13.8zM24.6 78.4a13.8 13.8 0 1113.9-13.8 13.9 13.9 0 01-13.9 13.8zm0-22.9a9.1 9.1 0 109.1 9.1 9.1 9.1 0 00-9.1-9.1zm19.8 47.1h-4.7v-3.2a9 9 0 00-8.9-9H18.5a9 9 0 00-8.9 9v3.2H4.8v-3.2a13.7 13.7 0 0113.7-13.8h12.3a13.7 13.7 0 0113.6 13.8zm100.8 38.3a13.8 13.8 0 1113.9-13.9 13.9 13.9 0 01-13.9 13.9zm0-22.9a9.1 9.1 0 109.1 9.1 9.1 9.1 0 00-9.1-9.2zm19.8 47h-4.7v-3.2a9 9 0 00-8.9-9h-12.3a9 9 0 00-8.9 9v3.2h-4.7v-3.2a13.7 13.7 0 0113.6-13.8h12.3a13.7 13.7 0 0113.6 13.8zm-19.8-86.6A13.8 13.8 0 11159 64.6a13.9 13.9 0 01-13.8 13.8zm0-22.9a9.1 9.1 0 109.1 9.1 9.1 9.1 0 00-9.1-9.1zm19.8 47.1h-4.7v-3.2a9 9 0 00-8.9-9h-12.3a9 9 0 00-8.9 9v3.2h-4.7v-3.2a13.7 13.7 0 0113.6-13.8h12.3A13.7 13.7 0 01165 99.4zM85 32.7a13.8 13.8 0 1113.8-13.9A13.9 13.9 0 0185 32.7zm0-23a9.1 9.1 0 109.1 9.1A9.1 9.1 0 0085 9.7zm15 43.9a9 9 0 00-8.9-9H78.9a9 9 0 00-8.9 9h-4.8a13.7 13.7 0 0113.7-13.8h12.2a13.7 13.7 0 0113.6 13.8z"/></svg>