<svg xmlns="http://www.w3.org/2000/svg" viewBox="0 0 170 170"><path d="M162 88H95.1v-6H159V11H11v71h6.5v6H8a3 3 0 01-3-3V8a3 3 0 013-3h154a3 3 0 013 3v77a3 3 0 01-3 3zm-22 50.6a17.5 17.5 0 1117.5-17.5 17.5 17.5 0 01-17.5 17.5zm0-29a11.5 11.5 0 1011.5 11.5 11.5 11.5 0 00-11.5-11.5zm25 55.4h-6a11.3 11.3 0 00-11.2-11.4h-15.6A11.3 11.3 0 00121 165h-6a17.4 17.4 0 0117.2-17.4h15.5A17.4 17.4 0 01165 165zm-80-26.4a17.5 17.5 0 1117.5-17.5A17.5 17.5 0 0185 138.6zm0-29a11.5 11.5 0 1011.5 11.5A11.5 11.5 0 0085 109.6zm25 55.4h-6a11.3 11.3 0 00-11.2-11.4H77.2A11.3 11.3 0 0066 165h-6a17.4 17.4 0 0117.2-17.4h15.6A17.4 17.4 0 01110 165zm-80-26.4a17.5 17.5 0 1117.5-17.5A17.5 17.5 0 0130 138.6zm0-29a11.5 11.5 0 1011.5 11.5A11.5 11.5 0 0030 109.6zM55 165h-6a11.3 11.3 0 00-11.2-11.4H22.2A11.3 11.3 0 0011 165H5a17.4 17.4 0 0117.2-17.4h15.6A17.4 17.4 0 0155 165z"/><path d="M51.3 58.5A17.5 17.5 0 1033.8 41a17.5 17.5 0 0017.5 17.5zm0-29A11.5 11.5 0 1139.8 41a11.5 11.5 0 0111.5-11.5zM76 82a17.3 17.3 0 00-17-14.4H43.5A17.4 17.4 0 0026.3 85v13.4h6V85a11.3 11.3 0 0111.2-11.4H59a11.3 11.3 0 0111.2 10 11.6 11.6 0 01.1 1.4 3 3 0 003 3h13.3v-6z"/></svg>