<svg xmlns="http://www.w3.org/2000/svg" viewBox="0 0 170 170"><path d="M49.1 89.7a29.2 29.2 0 10-29.3-29.2V79A29.3 29.3 0 0049 108.2v-6A23.3 23.3 0 0125.8 79v-.8a29.2 29.2 0 0023.3 11.5zm0-52.5a23.2 23.2 0 11-23.3 23.3 23.3 23.3 0 0123.3-23.2zm37.4 50.9a29.3 29.3 0 00-29.2 29.2v18.5a29.2 29.2 0 0058.5 0v-18.4a29.3 29.3 0 00-29.3-29.3zm-23.2 47.7v-.7a29.2 29.2 0 0020.2 11.4v12.4a23.3 23.3 0 01-20.2-23.1zm26.2 10.6a29 29 0 006.6-1.5v12a23 23 0 01-6.6 1.9zm20.2-10.6a23.2 23.2 0 01-7.6 17.2v-11a29.4 29.4 0 007.6-7zm-23.2 4.8a23.2 23.2 0 1123.2-23.2 23.3 23.3 0 01-23.2 23.2zM120.9 5a29.3 29.3 0 00-29.2 29.2v18.5a29.2 29.2 0 0058.5 0V34.2A29.3 29.3 0 00120.9 5zm0 6a23.2 23.2 0 11-23.2 23.2A23.3 23.3 0 01120.9 11zm-3 52.3v12.4a23 23 0 01-6.6-1.9v-12a29 29 0 006.6 1.5zM97.7 52.7v-.8a29.5 29.5 0 007.6 7v10.9a23.2 23.2 0 01-7.6-17.1zm46.5 0a23.3 23.3 0 01-20.2 23V63.3a29.2 29.2 0 0020.2-11.4z"/></svg>