<svg xmlns="http://www.w3.org/2000/svg" viewBox="0 0 170 170"><path d="M154.9 112.9H95l-.2-.6a15.9 15.9 0 00-8.9-8.7L48 88.7l-1.1-.2H8a3 3 0 00-3 3V162a3 3 0 003 3h20.9a3 3 0 003-3v-10.1l39.1 8.2a29 29 0 0015.5-1.3l71.9-26.4a10.1 10.1 0 00-3.5-19.6zM25.9 159H11V94.5h14.9zm130.4-32.2l-71.9 26.4a22.9 22.9 0 01-12.2 1l-40.3-8.5V94.5h14.4l37.3 14.6a10.1 10.1 0 11-7.4 18.7l-25.7-10-2.2 5.6L74 133.5a16.2 16.2 0 005.9 1.1 16.1 16.1 0 0016-15.7h58.9a4.1 4.1 0 011.4 7.9zM85 54.3a24.6 24.6 0 1124.6-24.6A24.7 24.7 0 0185 54.3zM85 11a18.6 18.6 0 1018.6 18.6A18.7 18.7 0 0085 11zm45.9 90.9a24.6 24.6 0 1124.6-24.6 24.7 24.7 0 01-24.6 24.6zm0-43.3a18.6 18.6 0 1018.6 18.6 18.7 18.7 0 00-18.6-18.6z"/></svg>