<svg xmlns="http://www.w3.org/2000/svg" viewBox="0 0 170 170"><path d="M100.7 20.7H69.3a64.3 64.3 0 000 128.5h31.5a64.3 64.3 0 000-128.5zm-27.1 6a64.5 64.5 0 00-16 10.7H35.7a57.9 57.9 0 0133.6-10.7zM28.5 43.4h23.3a64.4 64.4 0 00-10.1 16.3H16.8a58.5 58.5 0 0111.7-16.3zM36.6 82H11.1a57.9 57.9 0 013.2-16.3h25.2A63.9 63.9 0 0036.6 82zm32.7 61.3A58.3 58.3 0 0111.1 88h25.5a64.4 64.4 0 0037.1 55.3zm31.5 0A58.3 58.3 0 11159 85a58.3 58.3 0 01-58.3 58.3z"/><path d="M100.7 36.8v6a42.2 42.2 0 110 84.5v6a48.2 48.2 0 100-96.5z"/></svg>