<svg xmlns="http://www.w3.org/2000/svg" viewBox="0 0 170 170"><path d="M164.8 91.8a14.7 14.7 0 00-8.6-11.8l.3-.3a14.6 14.6 0 00-4.8-23.2l.2-.2a14.6 14.6 0 00-5-23.3c.1 0 .1-.1.2-.2a14.6 14.6 0 003.7-11.3 15 15 0 00-15.1-13.3h-35.6c-7.9.1-15 .3-22 2.4a73.8 73.8 0 00-14.6 6.5l-4.3 2.2c-5 2.5-11.5 5.3-18 5H5v6h33.1V106H5v6h36.1a3 3 0 003-3v-7.2c7.6 6.3 23.4 21.5 36.6 48.5.4.9 3.9 8 12 8h.3a14.4 14.4 0 009.9-4 13.8 13.8 0 004-9.9v-33a3.5 3.5 0 013.6-3.5h39.6A14.8 14.8 0 00161 103a14.6 14.6 0 003.8-11.2zm-8.2 7.3a8.9 8.9 0 01-6.5 2.9h-39.6a9.5 9.5 0 00-9.6 9.5v33a7.7 7.7 0 01-2.2 5.6 8.6 8.6 0 01-5.9 2.3c-4.6 0-6.6-4.3-6.7-4.5-16.5-33.9-36.5-49.7-42-53.6v-64c6.7-.5 12.9-3.2 17.8-5.6l4.4-2.3c4.6-2.4 8.9-4.7 13.5-6.1 6.2-1.8 12.9-2 20.3-2.1h35.6a9.2 9.2 0 019.2 7.9 8.7 8.7 0 01-8.7 9.5 3 3 0 00-3 3 2.9 2.9 0 003 3h4.3a9.1 9.1 0 019.2 7.9 8.2 8.2 0 01-2.2 6.7 8.9 8.9 0 01-6.5 2.9 3 3 0 00-3 3 3.1 3.1 0 003 3h4.1c4.7 0 8.8 3.4 9.2 7.8a9.3 9.3 0 01-2.2 6.8 8.8 8.8 0 01-6.5 2.8 3.1 3.1 0 00-3 3 3 3 0 003 3h4c4.7 0 8.8 3.5 9.2 7.9a9 9 0 01-2.2 6.7z"/></svg>