<svg xmlns="http://www.w3.org/2000/svg" viewBox="0 0 170 170"><path d="M61.9 87a12.7 12.7 0 10-12.7-12.7A12.7 12.7 0 0061.9 87zm0-19.4a6.7 6.7 0 11-6.7 6.7 6.7 6.7 0 016.7-6.7zm-11.7 36.1a6.6 6.6 0 016.5-6.7h10.4a6.6 6.6 0 016.5 6.7v46.8h6v-46.8a12.6 12.6 0 00-12.5-12.6H56.7a12.6 12.6 0 00-12.5 12.7v46.8h6zM108.1 87a12.7 12.7 0 10-12.7-12.7A12.7 12.7 0 00108.1 87zm0-19.4a6.7 6.7 0 11-6.7 6.7 6.7 6.7 0 016.7-6.7zm-11.8 36.1a6.6 6.6 0 016.5-6.7h10.4a6.6 6.6 0 016.5 6.7v46.8h6v-46.8A12.6 12.6 0 00113.2 91h-10.3a12.6 12.6 0 00-12.5 12.7v46.8h6zM106.6 5l-15 15 4.3 4.2 7.7-7.7V35h6V16.5l7.8 7.7 4.2-4.2-15-15z"/><path d="M144.4 40.3H25.6a3 3 0 00-3 3V162a3 3 0 003 3h118.8a3 3 0 003-3V43.3a3 3 0 00-3-3zm-3 118.7H28.6V46.3h112.8zM66.9 35l15-15-4.2-4.3-7.8 7.8V5h-6v18.5l-7.7-7.8-4.3 4.3 15 15z"/></svg>