<svg xmlns="http://www.w3.org/2000/svg" viewBox="0 0 170 170"><path d="M77 135.2h16.1v6H77z"/><path d="M111.9 14.5H58.1a14 14 0 00-14 14v113a14 14 0 0014 14H112a14 14 0 0014-14v-113a14 14 0 00-14.1-14zm-53.9 6h53.9a8 8 0 018 8v12.9H50.1V28.5a8 8 0 018-8zm61.9 26.9v74.9H50.1V47.4zm-8 102.1H58.1a8 8 0 01-8-8v-13.2H120v13.2a8 8 0 01-8.1 8z"/><path d="M91.8 96l6.4 2.3c-2.1 5.5-6.5 8.4-11.9 8.4-7 0-12.5-5.1-13.9-15H69V88h3.2v-4.7H69v-3.7h3.5c1.5-9.8 6.9-14.8 13.9-14.8 5.4 0 9.8 3 11.9 8.4l-6.4 2.3c-1.2-2.7-3.1-4.2-5.4-4.2s-5.7 2.6-6.6 8.2h14.5l-1 3.6h-14v4.8h12.7l-1 3.7H79.7c.9 5.9 3.5 8.5 6.7 8.5s4.2-1.4 5.4-4.1z"/></svg>