<svg xmlns="http://www.w3.org/2000/svg" viewBox="0 0 170 170"><path d="M87.9 99.8h-6.1V159h-15v6h36.1v-6h-15V99.8z"/><path d="M125.1 87.2c-8.6-5.2-17.1-8.1-23.1-8.4a17.4 17.4 0 00-11-20.1 42.2 42.2 0 004.1-14A32.1 32.1 0 01113 59.4l5.2-3.1a38.1 38.1 0 00-22.5-17.8q.1-2.1.1-4.2a74.8 74.8 0 00-.8-11A52.6 52.6 0 01137.6 75a53.2 53.2 0 01-.4 6.2l6 .6a59.3 59.3 0 00.4-6.8 58.7 58.7 0 00-49.9-58C91.8 9.7 88.6 5 85 5c-6 0-10.8 13.1-10.8 29.3 0 10.2 1.9 19.1 4.8 24.4a17.4 17.4 0 00-11 20.1 43 43 0 00-14.1 3.8 32.1 32.1 0 011.7-20.1L50 60a38.2 38.2 0 00-1.6 25.2l-3.5 2a74.7 74.7 0 00-9.1 6.4 52.6 52.6 0 0113.8-57.5l-3.9-4.6A58.7 58.7 0 0031 98c-5.2 5.4-7.5 10.5-5.7 13.6 3.1 5.1 16.8 2.5 30.7-5.8 8.8-5.3 15.6-11.6 18.5-16.9a17.3 17.3 0 0020.9 0c1.9 3.3 5.3 7.1 9.8 10.8a32 32 0 01-7.3 4.5l2.5 5.5a38.1 38.1 0 009.8-6.4l3.7 2.4a74.9 74.9 0 009.7 4.9A52.6 52.6 0 0197 126.2l.9 6a58.6 58.6 0 0031.9-19.4c7.3 2.1 13 1.8 14.9-1.3 3.1-5-5.7-15.9-19.6-24.3zM85 11c2.6 0 4.8 10.4 4.8 23.3S87.6 57.6 85 57.6s-4.8-10.4-4.8-23.3S82.4 11 85 11zm-32.1 89.6c-11 6.6-21.1 10.2-22.4 7.9s6.4-9.4 17.5-16.1 21-10.1 22.4-7.9-6.5 9.5-17.5 16.1zM85 86.4A11.4 11.4 0 1196.4 75 11.4 11.4 0 0185 86.4zm54.5 22.1c-1.4 2.3-11.4-1.3-22.4-7.9S98.3 86.8 99.6 84.5s11.4 1.3 22.4 7.9 18.9 13.9 17.5 16.1z"/></svg>