<svg id="PIKTOGRAM" xmlns="http://www.w3.org/2000/svg" viewBox="0 0 170 170"><title>regular_black</title><metadata><?xpacket begin="﻿" id="W5M0MpCehiHzreSzNTczkc9d"?>
<x:xmpmeta xmlns:x="adobe:ns:meta/" x:xmptk="Adobe XMP Core 5.6-c137 79.159547, 2016/07/07-11:39:24        ">
   <rdf:RDF xmlns:rdf="http://www.w3.org/1999/02/22-rdf-syntax-ns#">
      <rdf:Description rdf:about=""
            xmlns:dc="http://purl.org/dc/elements/1.1/"
            xmlns:xmpMM="http://ns.adobe.com/xap/1.0/mm/"
            xmlns:stEvt="http://ns.adobe.com/xap/1.0/sType/ResourceEvent#"
            xmlns:xmp="http://ns.adobe.com/xap/1.0/">
         <dc:title>
            <rdf:Alt>
               <rdf:li xml:lang="x-default">regular_black</rdf:li>
            </rdf:Alt>
         </dc:title>
         <xmpMM:PreservedFileName>regular_black_5.svg</xmpMM:PreservedFileName>
         <xmpMM:InstanceID>xmp.iid:c6b76930-5777-5a46-a033-9809f1f239e6</xmpMM:InstanceID>
         <xmpMM:DocumentID>xmp.did:c6b76930-5777-5a46-a033-9809f1f239e6</xmpMM:DocumentID>
         <xmpMM:OriginalDocumentID>xmp.did:c6b76930-5777-5a46-a033-9809f1f239e6</xmpMM:OriginalDocumentID>
         <xmpMM:History>
            <rdf:Seq>
               <rdf:li>
                  <rdf:Description>
                     <stEvt:action>saved</stEvt:action>
                     <stEvt:instanceID>xmp.iid:c6b76930-5777-5a46-a033-9809f1f239e6</stEvt:instanceID>
                     <stEvt:when>2017-11-29T15:49:18+01:00</stEvt:when>
                     <stEvt:softwareAgent>Adobe Bridge CC 2017 (Windows)</stEvt:softwareAgent>
                     <stEvt:changed>/metadata</stEvt:changed>
                  </rdf:Description>
               </rdf:li>
            </rdf:Seq>
         </xmpMM:History>
         <xmp:MetadataDate>2017-11-29T15:49:18+01:00</xmp:MetadataDate>
      </rdf:Description>
   </rdf:RDF>
</x:xmpmeta>
                                                                                                    
                                                                                                    
                                                                                                    
                                                                                                    
                                                                                                    
                                                                                                    
                                                                                                    
                                                                                                    
                                                                                                    
                                                                                                    
                                                                                                    
                                                                                                    
                                                                                                    
                                                                                                    
                                                                                                    
                                                                                                    
                                                                                                    
                                                                                                    
                                                                                                    
                                                                                                    
                           
<?xpacket end="w"?></metadata>
<path d="M164.1,61.7,125.4,23a3,3,0,0,0-4.3,0L104.3,39.8l-.7.7a15.5,15.5,0,0,1-8.7,4.4l-4.5.7-2.8.7-5-1.9a14.2,14.2,0,0,0-5.8-1.3l-1.4-.2c-3.3-.5-6.6-1-9.3-3L49.4,23.2a3.1,3.1,0,0,0-4.2,0L5.9,62.6a2.9,2.9,0,0,0,0,4.2L22.7,83.7h0L36.1,97a11,11,0,0,0,1,14.3,11.8,11.8,0,0,0,5,2.8,10.9,10.9,0,0,0,9.8,15.6,8.5,8.5,0,0,0,2.3-.3,11.4,11.4,0,0,0,3.1,6.3,11.2,11.2,0,0,0,7.7,3.2,10.1,10.1,0,0,0,2.5-.3,10.9,10.9,0,0,0,3.1,6.1,10.6,10.6,0,0,0,7.7,3.2,10.7,10.7,0,0,0,7.7-3.2l.3-.3,3.3-3.3.4-.4.3-.4h.1l.7-.9a9.9,9.9,0,0,0,5.1,1.3,10.7,10.7,0,0,0,7.7-3.2,10.1,10.1,0,0,0,2.9-5.7,9.3,9.3,0,0,0,3.2.5,10.9,10.9,0,0,0,10.8-12.1A11,11,0,0,0,131,109.3a10.5,10.5,0,0,0-2.9-7.3l19.2-19.2,16.8-16.9A2.9,2.9,0,0,0,164.1,61.7ZM91.3,51.6l4.5-.7a22.5,22.5,0,0,0,10.5-4.8l34.6,34.6-17,17L105.2,79h0l-11-11a6.9,6.9,0,0,0-9.6,0l-5.3,5.3c-3.3,3.3-9.8,6.3-13.7,5.6A2.9,2.9,0,0,1,63.5,77a2.7,2.7,0,0,1,.7-2.6L82.6,56A15.5,15.5,0,0,1,91.3,51.6ZM12.2,64.7,47.3,29.6,59.9,42.2l-35,35.1Zm29.1,35.4,4-4h0a5.1,5.1,0,0,1,7,0,4.9,4.9,0,0,1,0,6.9l-2,2-2,2a5.1,5.1,0,0,1-7,0A4.9,4.9,0,0,1,41.3,100.1Zm7.1,22.2a5.2,5.2,0,0,1-1.4-3.5,4.8,4.8,0,0,1,1.4-3.4l4.1-4.1h0l2-2a4.7,4.7,0,0,1,3.5-1.5,4.5,4.5,0,0,1,3.4,1.5,4.9,4.9,0,0,1,0,6.9h0l-4.1,4.1h0l-2,2a4.8,4.8,0,0,1-3.4,1.4A5,5,0,0,1,48.4,122.3Zm13.2,9.1a4.7,4.7,0,0,1,0-6.9l4.1-4.1a4.8,4.8,0,0,1,3.4-1.4,5,5,0,0,1,3.5,1.4,4.9,4.9,0,0,1,0,6.9l-4.1,4.1a4.9,4.9,0,0,1-3.5,1.5A4.5,4.5,0,0,1,61.6,131.4ZM86,136.2h-.1l-.4.4h-.1L82,140.2h-.1l-.2.2a4.8,4.8,0,0,1-3.4,1.4,5,5,0,0,1-3.5-1.4,4.9,4.9,0,0,1,0-6.9l2-2,2.1-2.1H79a4.9,4.9,0,0,1,7,6.8Zm37.6-23.4a5.2,5.2,0,0,1-3.5,1.4,4.8,4.8,0,0,1-3.4-1.4l-18-18-4.2,4.3L112.4,117l1.1,1h0a4.9,4.9,0,0,1-6.9,6.9l-19-19-4.2,4.3,16.2,16.2a5,5,0,0,1,1.4,3.5,4.9,4.9,0,0,1-1.4,3.4,4.8,4.8,0,0,1-3.4,1.4,5.1,5.1,0,0,1-3.1-1.1,10.8,10.8,0,0,0-13.2-11.2,10.2,10.2,0,0,0-3.1-6.2h0a10.6,10.6,0,0,0-7.7-3.2h-.3a10.7,10.7,0,0,0-3.1-8h0a11.1,11.1,0,0,0-6.3-3.1,10.9,10.9,0,0,0-18.3-10l-.9.8L29.1,81.6,64.6,46.1c3.3,1.8,6.9,2.3,9.9,2.7l1.7.2a11.2,11.2,0,0,1,3.9.9h.3a16.8,16.8,0,0,0-2.1,1.8L60,70.1a8.8,8.8,0,0,0-2.2,8.7,8.9,8.9,0,0,0,6.6,6C70.6,86,79,82.1,83.5,77.6l5.3-5.3a.9.9,0,0,1,.6-.3l.5.3,22.7,22.6h0l11,11A4.9,4.9,0,0,1,123.6,112.8Zm21.5-36.3L110.6,42l12.7-12.7,34.5,34.5Z"/></svg>