<svg xmlns="http://www.w3.org/2000/svg" viewBox="0 0 170 170"><path d="M158.9 88l-13.6-5-7-16.9a9.1 9.1 0 00-8.4-5.7h-23.5V33.6a3 3 0 00-3-3H8a3 3 0 00-3 3V122a2.9 2.9 0 003 3h17.1a17.3 17.3 0 0034.1 0h51.6a17.3 17.3 0 0034.1 0H162a2.9 2.9 0 003-3V96.6a9.2 9.2 0 00-6.1-8.6zm-58.5-51.4v55.2H11V36.6zm-58.2 96.8A11.4 11.4 0 1153.5 122a11.4 11.4 0 01-11.3 11.4zm85.6 0a11.4 11.4 0 1111.4-11.4 11.4 11.4 0 01-11.4 11.4zM159 119h-14.1a17.3 17.3 0 00-34.1 0H59.2a17.3 17.3 0 00-34.1 0H11V97.8h92.4a2.9 2.9 0 003-3V66.4h23.5a2.9 2.9 0 012.8 2l7.5 18.1a2.8 2.8 0 001.8 1.6l14.8 5.6h.1a3 3 0 012.1 2.9z"/><path d="M113.5 85h15v6h-15z"/></svg>