<svg xmlns="http://www.w3.org/2000/svg" viewBox="0 0 170 170"><path d="M140.4 82.4h-3.1A58.5 58.5 0 0088 114.7V80.8a28.6 28.6 0 0025.5-28.4V30.3a3 3 0 00-3-3h-9.1V8h-6v19.3H74.6V8h-6v19.3h-9.2a3 3 0 00-3 3v22.1A28.6 28.6 0 0082 80.8v33.9a58.5 58.5 0 00-49.3-32.3h-3.1a3 3 0 00-3 3v3.1A58.5 58.5 0 0082 143.7V165h6v-21.3a58.5 58.5 0 0055.3-55.3v-3a3 3 0 00-2.9-3zm-77.9-30V33.3h45v19.1a22.5 22.5 0 01-45 0zm-29.8 36A52.5 52.5 0 0182 137.7a52.5 52.5 0 01-49.3-49.3zM88 137.7a52.5 52.5 0 0149.2-49.2A52.5 52.5 0 0188 137.7z"/></svg>