<svg xmlns="http://www.w3.org/2000/svg" viewBox="0 0 170 170"><path d="M164.1 61.7L125.4 23a3 3 0 00-4.3 0l-16.8 16.8-.7.7a15.5 15.5 0 01-8.7 4.4l-4.5.7-2.8.7-5-1.9a14.2 14.2 0 00-5.8-1.3l-1.4-.2c-3.3-.5-6.6-1-9.3-3L49.4 23.2a3.1 3.1 0 00-4.2 0L5.9 62.6a2.9 2.9 0 000 4.2l16.8 16.9L36.1 97a11 11 0 001 14.3 11.8 11.8 0 005 2.8 10.9 10.9 0 009.8 15.6 8.5 8.5 0 002.3-.3 11.4 11.4 0 003.1 6.3 11.2 11.2 0 007.7 3.2 10.1 10.1 0 002.5-.3 10.9 10.9 0 003.1 6.1 10.6 10.6 0 007.7 3.2 10.7 10.7 0 007.7-3.2l.3-.3 3.3-3.3.4-.4.3-.4h.1l.7-.9a9.9 9.9 0 005.1 1.3 10.7 10.7 0 007.7-3.2 10.1 10.1 0 002.9-5.7 9.3 9.3 0 003.2.5 10.9 10.9 0 0010.8-12.1 11 11 0 0010.2-10.9 10.5 10.5 0 00-2.9-7.3l19.2-19.2 16.8-16.9a2.9 2.9 0 000-4.2zM91.3 51.6l4.5-.7a22.5 22.5 0 0010.5-4.8l34.6 34.6-17 17L105.2 79l-11-11a6.9 6.9 0 00-9.6 0l-5.3 5.3c-3.3 3.3-9.8 6.3-13.7 5.6a2.9 2.9 0 01-2.1-1.9 2.7 2.7 0 01.7-2.6L82.6 56a15.5 15.5 0 018.7-4.4zM12.2 64.7l35.1-35.1 12.6 12.6-35 35.1zm29.1 35.4l4-4a5.1 5.1 0 017 0 4.9 4.9 0 010 6.9l-2 2-2 2a5.1 5.1 0 01-7 0 4.9 4.9 0 010-6.9zm7.1 22.2a5.2 5.2 0 01-1.4-3.5 4.8 4.8 0 011.4-3.4l4.1-4.1 2-2a4.7 4.7 0 013.5-1.5 4.5 4.5 0 013.4 1.5 4.9 4.9 0 010 6.9l-4.1 4.1-2 2a4.8 4.8 0 01-3.4 1.4 5 5 0 01-3.5-1.4zm13.2 9.1a4.7 4.7 0 010-6.9l4.1-4.1a4.8 4.8 0 013.4-1.4 5 5 0 013.5 1.4 4.9 4.9 0 010 6.9l-4.1 4.1a4.9 4.9 0 01-3.5 1.5 4.5 4.5 0 01-3.4-1.5zm24.4 4.8h-.1l-.4.4h-.1l-3.4 3.6h-.1l-.2.2a4.8 4.8 0 01-3.4 1.4 5 5 0 01-3.5-1.4 4.9 4.9 0 010-6.9l2-2 2.1-2.1h.1a4.9 4.9 0 017 6.8zm37.6-23.4a5.2 5.2 0 01-3.5 1.4 4.8 4.8 0 01-3.4-1.4l-18-18-4.2 4.3 17.9 17.9 1.1 1a4.9 4.9 0 01-6.9 6.9l-19-19-4.2 4.3 16.2 16.2a5 5 0 011.4 3.5 4.9 4.9 0 01-1.4 3.4 4.8 4.8 0 01-3.4 1.4 5.1 5.1 0 01-3.1-1.1 10.8 10.8 0 00-13.2-11.2 10.2 10.2 0 00-3.1-6.2 10.6 10.6 0 00-7.7-3.2h-.3a10.7 10.7 0 00-3.1-8 11.1 11.1 0 00-6.3-3.1 10.9 10.9 0 00-18.3-10l-.9.8-11.1-11.1 35.5-35.5c3.3 1.8 6.9 2.3 9.9 2.7l1.7.2a11.2 11.2 0 013.9.9h.3a16.8 16.8 0 00-2.1 1.8L60 70.1a8.8 8.8 0 00-2.2 8.7 8.9 8.9 0 006.6 6c6.2 1.2 14.6-2.7 19.1-7.2l5.3-5.3a.9.9 0 01.6-.3l.5.3 22.7 22.6 11 11a4.9 4.9 0 010 6.9zm21.5-36.3L110.6 42l12.7-12.7 34.5 34.5z"/></svg>