<svg xmlns="http://www.w3.org/2000/svg" viewBox="0 0 170 170"><path d="M39.5 72.8A17.5 17.5 0 1157 55.3a17.5 17.5 0 01-17.5 17.5zm0-29A11.5 11.5 0 1051 55.3a11.5 11.5 0 00-11.5-11.5zm32 117.6L64.4 121V99a17.2 17.2 0 00-17.1-17.1H31.7A17.2 17.2 0 0014.6 99v22l-7.1 40.4a3 3 0 003 3.5h58a3 3 0 003-3.5zm-57.4-2.5l6.5-37.2V99a11.2 11.2 0 0111.1-11.1h15.6A11.2 11.2 0 0158.4 99v22.7l6.5 37.2zM163.9 58.7l-38.6-31.3 4.7-4.7a10.2 10.2 0 003-7.4 10.2 10.2 0 10-20.4 0h6a4.2 4.2 0 018.4-.1v.3a4.2 4.2 0 01-1.2 3.2l-48 40.2a3 3 0 001.8 5.1H162a3 3 0 001.9-5.3zM88 58l32.7-26.5L153.5 58z"/></svg>