<svg xmlns="http://www.w3.org/2000/svg" viewBox="0 0 170 170"><path d="M139.9 57.1a55 55 0 00-109.9 0 16.7 16.7 0 00-15.7 16.7v22.4A16.7 16.7 0 0030 112.8a55.4 55.4 0 0039.6 50v-.2a9 9 0 006 2.3h18.7a9.1 9.1 0 000-18.1H75.7a9 9 0 00-9 8.6A49.4 49.4 0 0136 109.9V60.1a49 49 0 1198.1 0v52.8h5a16.7 16.7 0 0016.7-16.7V73.8a16.7 16.7 0 00-15.9-16.7zm-64.2 95.8h18.6a3.1 3.1 0 010 6.1H75.7a3.1 3.1 0 010-6.1zM20.3 96.2V73.8A10.7 10.7 0 0130 63.1v43.7a10.7 10.7 0 01-9.7-10.6zm129.3 0a10.7 10.7 0 01-9.6 10.6V63.1a10.7 10.7 0 019.6 10.6z"/></svg>