<svg xmlns="http://www.w3.org/2000/svg" viewBox="0 0 170 170"><path d="M67.5 85.5h-6.3V69.3a23.9 23.9 0 10-47.7 0v16.2H8a2.9 2.9 0 00-3 3v51.2a3 3 0 003 3h59.5a3 3 0 003-3V88.5a2.9 2.9 0 00-3-3zm-48-16.2a17.9 17.9 0 1135.7 0v16.2H19.5zm45 67.4H11V91.5h53.5z"/><path d="M162 27.3H32.6a3.1 3.1 0 00-3 3v7.4h6v-4.4H139v7.8a3.1 3.1 0 003 3 6.3 6.3 0 016.3 6.2 2.9 2.9 0 003 3h7.7v16.8h-7.7a3 3 0 00-3 3 6.3 6.3 0 01-6.3 6.3 3 3 0 00-3 3v8H79.1v6H162a3 3 0 003-3V30.3a3 3 0 00-3-3zm-8.1 20a12.4 12.4 0 00-8.9-8.9v-5.1h14v14zM145 90.4V85a12.2 12.2 0 008.9-8.9h5.1v14.3z"/><path d="M97.3 81.5a19.7 19.7 0 10-19.6-19.6 19.7 19.7 0 0019.6 19.6zm0-33.3a13.7 13.7 0 11-13.6 13.7 13.7 13.7 0 0113.6-13.7z"/></svg>