<svg xmlns="http://www.w3.org/2000/svg" viewBox="0 0 170 170"><path d="M162 39.3H8a3 3 0 00-3 3v111.2a2.9 2.9 0 003 3h154a2.9 2.9 0 003-3V42.3a3 3 0 00-3-3zm-3 6v33.2c-7.3 3.3-37.9 16.4-74 16.4S18.3 81.8 11 78.5V45.3zM60.5 99.1a173.1 173.1 0 0024.5 1.8 160.4 160.4 0 0023.5-1.7v3.9a10.7 10.7 0 01-10.7 10.7H71.2a10.7 10.7 0 01-10.7-10.7zM11 150.5V85.1a195.8 195.8 0 0043.5 13v5a16.7 16.7 0 0016.7 16.7h26.6a16.7 16.7 0 0016.7-16.7v-4.8A201.1 201.1 0 00159 85.1v65.4zM61.2 30.8a13.4 13.4 0 0113.4-13.3h20.8a13.4 13.4 0 0113.4 13.3v.5h6v-.5a19.4 19.4 0 00-19.4-19.3H74.6a19.4 19.4 0 00-19.4 19.3v.5h6z"/></svg>