<svg xmlns="http://www.w3.org/2000/svg" viewBox="0 0 170 170"><path d="M152.2 42.4h-48.4V17.3a3 3 0 00-3-3H69.2a3 3 0 00-3 3v25.1H17.8A12.9 12.9 0 005 55.3v87.5a12.9 12.9 0 0012.8 12.8h134.4a12.9 12.9 0 0012.8-12.8V55.3a12.9 12.9 0 00-12.8-12.9zm-80-22.1h25.6V57H72.2zM159 142.8a6.8 6.8 0 01-6.8 6.8H17.8a6.8 6.8 0 01-6.8-6.8V55.3a6.8 6.8 0 016.8-6.8h48.4V57H53.6v6h62.9v-6h-12.7v-8.6h48.3a6.8 6.8 0 016.8 6.8z"/><path d="M51.1 109.4a17.8 17.8 0 10-17.8-17.8 17.8 17.8 0 0017.8 17.8zm0-29.6a11.8 11.8 0 11-11.8 11.8 11.8 11.8 0 0111.8-11.7zm7.9 39H43.1a17.6 17.6 0 00-17.5 17.7v3.6h6v-3.6a11.6 11.6 0 0111.5-11.7H59a11.6 11.6 0 0111.5 11.7v3.6h6v-3.6A17.6 17.6 0 0059 118.8zm36.8-32.2h46.5v6H95.8zm0 33.7h23.3v6H95.8zm0-16.8h46.5v6H95.8z"/></svg>