<svg xmlns="http://www.w3.org/2000/svg" viewBox="0 0 170 170"><path d="M17.8 28.4A12.9 12.9 0 005 41.2v87.5a12.9 12.9 0 0012.8 12.8h134.4a12.9 12.9 0 0012.8-12.7V41.2a12.9 12.9 0 00-12.8-12.8zm134.3 6a6.8 6.8 0 016.8 6.8v87.5a6.8 6.8 0 01-6.8 6.8H17.8a6.8 6.8 0 01-6.8-6.8V41.2a6.8 6.8 0 016.8-6.8z"/><path d="M51.1 87.5a17.8 17.8 0 10-17.8-17.8 17.8 17.8 0 0017.8 17.8zm0-29.6a11.8 11.8 0 11-11.8 11.8 11.8 11.8 0 0111.8-11.8zM59 96.8H43.1a17.6 17.6 0 00-17.5 17.7v3.6h6v-3.6a11.6 11.6 0 0111.5-11.7H59a11.6 11.6 0 0111.5 11.7v3.6h6v-3.6A17.6 17.6 0 0059 96.8zm36.8-32.1h46.5v6H95.8zm0 33.6h23.3v6H95.8zm0-16.8h46.5v6H95.8z"/></svg>