<svg xmlns="http://www.w3.org/2000/svg" viewBox="0 0 170 170"><path d="M49.6 145.2a25.5 25.5 0 01-18-43.6l31.8-31.9a25.5 25.5 0 0136.1 0L95.2 74a19.5 19.5 0 00-27.6 0l-31.8 31.8a19.5 19.5 0 0027.6 27.6L75.8 121l4.2 4.2-12.4 12.5a25.4 25.4 0 01-18 7.5z"/><path d="M87 107.7a25.3 25.3 0 01-18-7.5l4.2-4.2a19.5 19.5 0 0027.6 0l31.9-31.8a19.5 19.5 0 10-27.6-27.6L92.6 49l-4.2-4.2 12.4-12.4a25.5 25.5 0 1136.1 36.1l-31.8 31.8a25.4 25.4 0 01-18.1 7.4zM29.222 39.827l4.242-4.242 15.833 15.832-4.243 4.242zM57.7 25.5h6v22.39h-6zM19.1 64h22.4v6H19.1z"/></svg>