<svg xmlns="http://www.w3.org/2000/svg" viewBox="0 0 170 170"><path d="M64.6 72.6h87.9v6H64.6zm0 18.8h54.1v6H64.6zm-32.7 11A17.4 17.4 0 1149.2 85a17.4 17.4 0 01-17.3 17.4zm0-28.7A11.4 11.4 0 1043.2 85a11.4 11.4 0 00-11.3-11.4zm32.7-49.8h87.9v6H64.6zm0 18.7h54.1v6H64.6zm-32.7 11a17.4 17.4 0 1117.3-17.3 17.4 17.4 0 01-17.3 17.3zm0-28.7a11.4 11.4 0 1011.3 11.4 11.4 11.4 0 00-11.3-11.4zm32.7 96.5h87.9v6H64.6zm0 18.7h54.1v6H64.6zm-32.7 11a17.4 17.4 0 1117.4-17.4 17.4 17.4 0 01-17.4 17.4zm0-28.7a11.4 11.4 0 1011.4 11.4 11.4 11.4 0 00-11.4-11.4z"/></svg>