<svg xmlns="http://www.w3.org/2000/svg" viewBox="0 0 170 170"><path d="M162 14.5H8a3 3 0 00-3 3v123a3 3 0 003 3h60.8v-6h-6.5v-117h45.3v34h6v-34H159v117h-6.5v6h9.5a3 3 0 003-3v-123a3 3 0 00-3-3zm-105.7 123H11v-117h45.3z"/><path d="M20.7 35.8h25.7v6H20.7zm0 15.7h25.7v6H20.7zm51.4-15.7h25.7v6H72.1zm0 15.7h25.7v6H72.1zm51.4-15.7h25.7v6h-25.7zm0 15.7h25.7v6h-25.7zM40.4 77.8h6v12.43h-6zm105.8 0h6v12.43h-6zm-7.3 25.4H93.5V88a16.8 16.8 0 0133.6 0v9.7h6V88a22.8 22.8 0 00-45.6 0v15.2h-5.1a3 3 0 00-3 3v46.3a3 3 0 003 3h56.5a3 3 0 003-3v-46.3a3 3 0 00-3-3zm-3 46.3H85.4v-40.3h50.5z"/><path d="M107.3 123.8h6v13.58h-6z"/></svg>