<svg xmlns="http://www.w3.org/2000/svg" viewBox="0 0 170 170"><path d="M16.673 149.175l36.77-36.77 4.242 4.243-36.77 36.77zM99.7 74.5a24.3 24.3 0 0014.9 5 25.3 25.3 0 0017.9-7.4L154.6 50l-4.2-4.2L128.3 68a19.1 19.1 0 01-24.3 2.3l35.4-35.4-4.2-4.2L99.7 66a18.6 18.6 0 011.9-24L124 19.6l-4.2-4.2-22.4 22.4a24.6 24.6 0 00-2 32.5L85.1 80.7 25.3 20.9a3 3 0 00-4.2 0c-5.5 5.5-6.8 14.3-3.8 24.7s9.4 20.1 18.2 29l32.1 32.1a18.6 18.6 0 0026.7-.4l3.8-4.1 50.9 50.9 4.2-4.2-64-64zM90 102.2a12.6 12.6 0 01-18.1.3L39.8 70.4C31.6 62.2 25.6 52.8 23 43.9c-2-6.7-1.8-12.4.4-16.4L93.9 98z"/></svg>