<svg xmlns="http://www.w3.org/2000/svg" viewBox="0 0 170 170"><path d="M153 17.6H17a12 12 0 00-12 12V113a12 12 0 0012 12h43.9v8.8a12.7 12.7 0 01-12.7 12.7 3 3 0 100 6h73.6a3 3 0 000-6 12.7 12.7 0 01-12.7-12.7V125H153a12 12 0 0012-12V29.6a12 12 0 00-12-12zm-44.8 128.8H61.9a18.6 18.6 0 005-12.7V125h36.3v8.8a18.6 18.6 0 005 12.6zM159 113a6 6 0 01-6 6H17a6 6 0 01-6-6V29.6a6 6 0 016-6h136a6 6 0 016 6z"/><path d="M124.4 60.4L86.7 33.8a3 3 0 00-3.5 0L45.6 60.4a3 3 0 001.7 5.4h75.2a3 3 0 001.7-5.4zm-67.5-.6L85 39.9l28.2 19.9zm1 10.8h6v27.32h-6zm48.2 0h6v27.32h-6zm-16.1 0h6v27.32h-6zm-16 0h6v27.32h-6zm-23.9 32.5h69.8v6H50.1z"/></svg>