<svg xmlns="http://www.w3.org/2000/svg" viewBox="0 0 170 170"><path d="M85 4.9a31.7 31.7 0 00-31.6 31.7v18.2a31.6 31.6 0 0063.3 0V36.6A31.7 31.7 0 0085 4.9zm0 75.5a25.7 25.7 0 01-25.6-25.6V36.6a25.6 25.6 0 0151.2-2.3 36.1 36.1 0 01-9.3 1.2c-12.4 0-21-5.8-21-11h-6c0 9.5 11.9 17 27 17a42.7 42.7 0 009.4-1v14.3A25.7 25.7 0 0185 80.4zm64.1 84.6h-6v-32.7c0-18.8-14.2-34.8-32.5-36.8l-24 15.9a3 3 0 01-3.3 0L59.2 95.5c-18.2 2.2-32.3 18.1-32.3 36.8V165h-6v-32.7c0-22.5 16.7-40.9 38.8-42.9a3 3 0 011.9.5L85 105.3l23.2-15.4a3 3 0 011.9-.5c21.9 1.8 39 20.7 39 42.9z"/></svg>