<svg xmlns="http://www.w3.org/2000/svg" viewBox="0 0 170 170"><path d="M49.4 135.2h16.1v6H49.4z"/><path d="M22.5 141.5v-13.2h34.9v-6H22.5V47.4h69.9v16.8h6V28.5a14 14 0 00-14-14H30.5a14 14 0 00-14 14v113a14 14 0 0014 14h53.9v-6H30.5a8 8 0 01-8-8zm8-121h53.9a8 8 0 018 8v12.9H22.5V28.5a8 8 0 018-8z"/><path d="M142.2 111.3l-3.9-14.9a3 3 0 00-.8-1.4l-21.6-21.6a9.2 9.2 0 00-15.2 3.5 9.2 9.2 0 00-12.3 6.3A9.2 9.2 0 0078 88.3l-9.7-9.7a9.7 9.7 0 10-13.7 13.7L82.3 120l-2.6-.5a14.9 14.9 0 00-8.6.5 8.5 8.5 0 00-5.5 5.9c-1 4.4 2.2 9.1 7.3 10.5l41.5 13.2 5.2 5.2 4.2-4.2-5.7-5.7a3 3 0 00-1.2-.7l-42.2-13.6c-2-.6-3.4-2.1-3.1-3.4s1.3-1.4 1.8-1.6a9 9 0 015.1-.2l12.4 2.5a3 3 0 002.7-5.1L58.9 88a3.7 3.7 0 015.2-5.2l31.8 31.8 4.2-4.2-16-16a3.2 3.2 0 014.6-4.6l2.1 2.2 14 14 4.2-4.2-14-14a3.2 3.2 0 114.6-4.6l3.2 3.2 10.8 10.8 4.2-4.2-10.7-10.8a3.2 3.2 0 010-4.6 3.3 3.3 0 014.6 0l21.1 21.1 3.9 14.9a3 3 0 00.8 1.4l13 13 4.2-4.2z"/><path d="M59.8 64.2A21.7 21.7 0 0179.2 76l5.3-2.7a27.8 27.8 0 10-24.7 40.5v-6a21.8 21.8 0 110-43.5z"/></svg>