<svg xmlns="http://www.w3.org/2000/svg" viewBox="0 0 170 170"><path d="M96.9 146.4H111v6H96.9z"/><path d="M126.3 40.3H81.6a14 14 0 00-14 14V151a14 14 0 0014 14h44.7a14 14 0 0014-14V54.3a14 14 0 00-14-14zm-44.7 6h44.7a8 8 0 018 8V64H73.6v-9.7a8 8 0 018-8zM134.3 70v65.1H73.6V70zm-8 89.1H81.6a8 8 0 01-8-8v-9.9h60.7v9.8a8 8 0 01-8 8zM35.7 43.3h-6A38.4 38.4 0 0168 5v6a32.4 32.4 0 00-32.3 32.3z"/><path d="M47.5 43.3h-6A26.6 26.6 0 0168 16.8v6a20.6 20.6 0 00-20.5 20.5z"/><path d="M59.3 43.3h-6A14.8 14.8 0 0168 28.5v6a8.8 8.8 0 00-8.7 8.8z"/></svg>