<svg xmlns="http://www.w3.org/2000/svg" viewBox="0 0 170 170"><path d="M162 165h-25.6a3 3 0 01-3-3v-11.5h-31.1V162a3 3 0 01-3 3H70.7a3 3 0 01-3-3v-11.5H36.6V162a3 3 0 01-3 3H8a3 3 0 01-3-3v-30.6a3 3 0 013-3h154a3 3 0 013 3V162a3 3 0 01-3 3zm-22.6-6H159v-24.6H11V159h19.6v-11.5a3 3 0 013-3h37.1a3 3 0 013 3V159h22.6v-11.5a3 3 0 013-3h37.1a3 3 0 013 3zM88 83.8l5 5.1 4.3-4.2L85 72.3 72.6 84.7l4.3 4.2 5.1-5.1v16.5H59.9V83.8l5.1 5.1 4.3-4.2-12.4-12.4-12.3 12.4 4.2 4.2 5.1-5.1v16.5h-7.2v6h48.5v-6H88V83.8z"/><path d="M136.4 14.5H33.6a3 3 0 00-3 3v101.3a3 3 0 003 3h102.8a3 3 0 003-3V17.5a3 3 0 00-3-3zm-63.4 6h24v15.6l-4.5 4.5-5.4-5.4a3 3 0 00-4.2 0l-5.4 5.4-4.5-4.5zm60.4 95.3H36.6V20.5H67v16.8a3 3 0 00.9 2.1l7.5 7.6a3 3 0 004.2 0l5.4-5.4 5.4 5.4a3 3 0 004.2 0l7.5-7.5a3 3 0 00.9-2.1V20.5h30.4z"/></svg>