<svg xmlns="http://www.w3.org/2000/svg" viewBox="0 0 170 170"><path d="M139.7 112.6a25.1 25.1 0 00-9.3 1.8L110.1 77a3 3 0 00-2.6-1.6H89.8v6h15.9l19.4 35.9a25.3 25.3 0 1014.6-4.7zm0 44.8a19.4 19.4 0 01-11.7-34.7l9.1 16.8 5.3-2.9-9.1-16.8a19.1 19.1 0 016.4-1.1 19.4 19.4 0 010 38.8z"/><path d="M135.5 102.2h4.1a3 3 0 003-3V84a3 3 0 00-3-3h-4a10.6 10.6 0 00-.1 21.2zm.1-15.2h1v9.2h-1a4.6 4.6 0 010-9.2zm-40.3 3.8H82.8A15.5 15.5 0 0067.9 102h-43a3 3 0 100 6h5.2a31.7 31.7 0 0131.5 28.7h-6.3a25.3 25.3 0 100 6h9.4a3 3 0 003-3A37.7 37.7 0 0050.5 108H70a3 3 0 003.4-2.7 9.5 9.5 0 019.5-8.5h12.4a9.5 9.5 0 019.5 8.9l-3.6 8.6H71v6h27.7l-6.9 16.3H74.5v6h19.3a3 3 0 002.8-1.8l14.1-33.4a3 3 0 00.2-1.2 15.5 15.5 0 00-15.6-15.4zm-65 68.2a19.3 19.3 0 1119-22.3h-19v6h19a19.3 19.3 0 01-19 16.3z"/></svg>