<svg id="PIKTO_REGULAR" xmlns="http://www.w3.org/2000/svg" viewBox="0 0 170 170"><title>regular_black</title><path d="M67.6,142.9h34.7a3,3,0,0,0,2.6-4.5l-8.6-15a16.7,16.7,0,1,0-22.6,0l-8.6,15a3,3,0,0,0,2.6,4.5Zm12.5-18.7a3,3,0,0,0-1-4,10.7,10.7,0,1,1,11.6,0,3,3,0,0,0-1,4l7.3,12.7H72.8Z"/><path d="M135.1,72.6H52.3V43.3a32.1,32.1,0,0,1,64.2,0V60.6h6V43.3a38.1,38.1,0,0,0-76.2,0V72.6H34.9a3,3,0,0,0-3,3v86.2a3,3,0,0,0,3,3H135.1a3,3,0,0,0,3-3V75.6A3,3,0,0,0,135.1,72.6Zm-3,86.2H37.9V78.6h94.2Z"/></svg>