<svg xmlns="http://www.w3.org/2000/svg" viewBox="0 0 170 170"><path d="M130.3 41.5A17.5 17.5 0 10112.8 24a17.5 17.5 0 0017.5 17.5zm0-29A11.5 11.5 0 11118.8 24a11.5 11.5 0 0111.5-11.5zm-90 53.7a17.5 17.5 0 10-17.5-17.5 17.5 17.5 0 0017.5 17.5zm0-29a11.5 11.5 0 11-11.5 11.5 11.5 11.5 0 0111.5-11.5zm115.2 56.9h-.2V67.9a17.4 17.4 0 00-17.2-17.4h-15.5a17.4 17.4 0 00-17.2 17.4v26.2h-40v-1.4A17.4 17.4 0 0048 75.3H32.5a17.4 17.4 0 00-17.2 17.4v1.4H5v6h10.3V165h6V92.7a11.3 11.3 0 0111.2-11.4H48a11.3 11.3 0 0111.3 11.4V165h6v-64.9H165v-6zm-32.9-37.6h15.5a11.3 11.3 0 0111.2 11.4v26.2h-38V67.9a11.3 11.3 0 0111.3-11.4z"/></svg>