<svg xmlns="http://www.w3.org/2000/svg" viewBox="0 0 170 170"><path d="M134 63.2a10.7 10.7 0 00-7.4-3 10.5 10.5 0 00-7.3 3 10.6 10.6 0 00-2.9 5.4h-9a3.1 3.1 0 00-2.2.9l-7 7.1V50.8a10.8 10.8 0 004.3-2.6 10.5 10.5 0 000-14.7 10.4 10.4 0 10-10.3 17.3v45.4L78.8 82.8a2.9 2.9 0 00-2.1-.9h-9.4a9.9 9.9 0 00-2.6-4.2 10.4 10.4 0 10-7.3 17.7 10.1 10.1 0 007.3-3.1 9.1 9.1 0 002.6-4.4h8.1l16.8 16.8v48h6V85.1l10.4-10.5h8.5a10.2 10.2 0 009.5 6.3 10.3 10.3 0 007.4-3 10.5 10.5 0 000-14.7zM60.5 88.1a4.4 4.4 0 01-6.2-6.2 4.2 4.2 0 013.1-1.3 4.3 4.3 0 013.1 1.3 4.4 4.4 0 010 6.2zm31.6-50.3a4 4 0 013.1-1.3 4.3 4.3 0 013.1 1.3 4.4 4.4 0 11-6.2 0zm37.6 35.9a4.3 4.3 0 01-3.1 1.2 4.7 4.7 0 01-3.1-1.2 4.4 4.4 0 010-6.2 4.3 4.3 0 013.1-1.3 4 4 0 013.1 1.3 4.4 4.4 0 010 6.2z"/><path d="M135.1 21.2a57.6 57.6 0 00-43-16.1 59.5 59.5 0 00-39.6 16.6 54.5 54.5 0 00-16.1 39.2 7.2 7.2 0 01-1.2 4L18.4 91.5a10.2 10.2 0 00-.2 10.5 10.3 10.3 0 009.1 5.4h7.1a1.9 1.9 0 012 1.9v9.7a19.4 19.4 0 0019.4 19.4h8V162a3 3 0 003 3h55.9a3 3 0 003-3v-34.6a29.6 29.6 0 019-21.5 58.4 58.4 0 00.4-84.7zm-4.5 80.3a35.9 35.9 0 00-10.9 25.9V159H69.8v-23.6a3 3 0 00-3-3h-11A13.4 13.4 0 0142.4 119v-9.7a7.9 7.9 0 00-8-7.9h-7.1a4.5 4.5 0 01-3.9-2.3 4.3 4.3 0 01.1-4.4l16.8-26.6a13.4 13.4 0 002.1-7.2c0-27.6 21-48.6 50-49.9a52.3 52.3 0 0154.7 52.4 51.5 51.5 0 01-16.5 38.1z"/></svg>