<svg xmlns="http://www.w3.org/2000/svg" viewBox="0 0 170 170"><path d="M82 4.7h6v160.62h-6zm48.3 58.6a17.5 17.5 0 1117.5-17.5 17.5 17.5 0 01-17.5 17.5zm0-29a11.5 11.5 0 1011.5 11.5 11.5 11.5 0 00-11.5-11.5zm29 121.1h-58a3 3 0 01-3-3.5l7.1-40.4v-22a17.2 17.2 0 0117.1-17.1H138a17.2 17.2 0 0117.2 17.1v21.9l7.1 40.4a3 3 0 01-3 3.5zm-54.4-6h50.9l-6.5-37.2a3 3 0 010-.5V89.5A11.2 11.2 0 00138 78.4h-15.5a11.2 11.2 0 00-11.1 11.1v22.2a3 3 0 010 .5zM39.5 63.5A17.5 17.5 0 1157 46a17.5 17.5 0 01-17.5 17.5zm0-29A11.5 11.5 0 1051 46a11.5 11.5 0 00-11.5-11.5zm25 120.9h-6V89.9a11.3 11.3 0 00-11.2-11.4H31.7a11.3 11.3 0 00-11.2 11.4v65.5h-6V89.9a17.3 17.3 0 0117.2-17.4h15.6a17.3 17.3 0 0117.2 17.4z"/></svg>