<svg xmlns="http://www.w3.org/2000/svg" viewBox="0 0 170 170"><path d="M162 37H63.3a3 3 0 00-3 3v22.6H22a3 3 0 00-2.1.9l-14 14 4.2 4.2 13.1-13.1h37.1v6.1h6V58.2H159v45.6h-54.1v6H162a3 3 0 003-3V40a3 3 0 00-3-3zM66.3 52.2V43H159v9.2z"/><path d="M138.7 89.8h13.8v6h-13.8zM82.8 82H51.3v6h31.5a8 8 0 010 16H40.7a3 3 0 00-3 3 21.8 21.8 0 01-21.8 21.8v6A27.9 27.9 0 0043.5 110h5.2a14.1 14.1 0 00.2 16.9 14.2 14.2 0 00-8.6 22.1H4.5v6h58.7a14.2 14.2 0 0011.3-22.8A14.2 14.2 0 0083 110a14 14 0 00-.2-28zm-19.6 67H51.9a8.2 8.2 0 110-16.5h11.3a8.2 8.2 0 110 16.5zm8.3-22.5H60.3a8.2 8.2 0 110-16.5h11.2a8.2 8.2 0 110 16.5z"/></svg>