<svg xmlns="http://www.w3.org/2000/svg" viewBox="0 0 170 170"><path d="M164.1 104.9L141.4 35a11.6 11.6 0 00-14.6-7.4l-22.9 7.5 1.9 5.7 22.9-7.5a5.6 5.6 0 017 3.6l2.8 8.6-12.8 4.2 1.9 5.7 12.8-4.2 18.1 55.5a5.6 5.6 0 01-3.6 7l-46.4 15.1 1.9 5.7 46.4-15.1a11.6 11.6 0 007.3-14.5z"/><path d="M119.608 100.97l17.775-5.81 1.864 5.703-17.775 5.81zM100.7 97.5l13.5-8.5a3 3 0 001.1-3.8l-7.8-16.3 10.2-14.2a3 3 0 00-1.6-4.6L40.5 28a11.5 11.5 0 00-14.3 7.9L5.8 106.5a11.6 11.6 0 007.9 14.3l75.6 22.1h.8a3 3 0 003-3.1l-.4-17.7 11.1-7.9a3 3 0 001.1-3.4zM32 37.6a5.6 5.6 0 015.3-4l1.5.2 71.6 20.9-8.8 12.2-.2.3-72-20.8zm56 80.6a3 3 0 00-1.3 2.5l.4 15.2L15.3 115a5.5 5.5 0 01-3.8-6.9l16.3-56L103.3 74l5.4 11.4-13.2 8.2a3 3 0 00-1.3 3.5l4.3 13.6z"/><path d="M28.78 101.198l1.664-5.764 18.014 5.2-1.664 5.764zm4.764-16.488l1.664-5.765L71.44 89.403l-1.664 5.764z"/></svg>