<svg xmlns="http://www.w3.org/2000/svg" viewBox="0 0 170 170"><path d="M82.8 73l6.3.2c19.3 0 33.5-4.8 43.1-14.4S147.7 31.4 146.3 8a3 3 0 00-2.8-2.8c-23.3-1.3-39.9 3.3-50.8 14.1S77.4 46.2 78.5 68.8l-2.7 2.7-6.5-6.5c.6-14.6-2.5-25.1-9.5-32.1s-18.1-10.2-33.4-9.3a2.9 2.9 0 00-2.8 2.8c-.9 15.3 2.2 26.2 9.4 33.4s15.7 9.5 28.4 9.5H65l6.8 6.7v11.7H28a2.9 2.9 0 00-3 3v19a3 3 0 003 3h5.4l8.2 49.8a3.1 3.1 0 003 2.5h58.6a3.1 3.1 0 003-2.5l8.2-49.8h5.4a3 3 0 003-3v-19a2.9 2.9 0 00-3-3h-42V78zm17.9 86H47.1l-7.7-46.3h69zm16.1-52.3H31v-13h85.8zM97 23.6c9.1-9.2 23.4-13.3 43.5-12.5.7 20.1-3.4 34.3-12.5 43.5s-21.5 12.7-39.4 12.6L129 26.8l-4.3-4.2-40.3 40.3c-.1-17.9 4-30.8 12.6-39.3zM37.2 55.5c-5.5-5.5-8-14-7.7-26.1 12-.3 20.6 2.3 26.1 7.8s7.4 12 7.7 21.8L48.5 44.2l-4.2 4.3 14.8 14.8c-9.9-.4-17-2.9-21.9-7.8z"/></svg>