<svg xmlns="http://www.w3.org/2000/svg" viewBox="0 0 170 170"><path d="M109.1 51.1a13.4 13.4 0 00-5.7 17.9 13.3 13.3 0 105.7-17.9zm12.5 8.5a7.2 7.2 0 01-3.1 9.8 7.3 7.3 0 01-9.8-3.2 7.2 7.2 0 013.2-9.7 6.4 6.4 0 013.3-.8 7.1 7.1 0 016.4 3.9z"/><path d="M42.6 55.3L87 39.9l9.6 13.4 4.9-3.4-10.9-15.3a2.9 2.9 0 00-3.4-1.1L44.5 48.3a19.9 19.9 0 00-1-7.2 18.3 18.3 0 00-3.7-6.2l58.7-20.2 13.2 29.7 5.5-2.4-14.4-32.2a3 3 0 00-3.7-1.6L34 30.5A18.5 18.5 0 008.5 53.2a18.3 18.3 0 007.8 9.7L33.5 134a18.4 18.4 0 007.8 26.1 18.3 18.3 0 0014.1.9 18.5 18.5 0 0010.6-9.4 18.6 18.6 0 00-6.9-23.8L41.8 56.7a6.4 6.4 0 00.8-1.4zM14.8 41.7a12.3 12.3 0 017.1-6.3 11.8 11.8 0 014.1-.7 12.4 12.4 0 0111.8 8.4 12.1 12.1 0 01-.6 9.5 12.4 12.4 0 01-16.7 5.8 12.6 12.6 0 01-6.3-7.1 12.3 12.3 0 01.6-9.6zM60.6 149a12.6 12.6 0 01-7.1 6.3 12.8 12.8 0 01-9.6-.5 12.7 12.7 0 01-5.8-16.7 12.6 12.6 0 017.2-6.4 14.1 14.1 0 014.1-.7 12.7 12.7 0 0111.8 8.4 12.3 12.3 0 01-.6 9.6zm-17.3-22.9a20.6 20.6 0 00-4.9 2.5L23.1 65.4a13.6 13.6 0 002.9.3 18.7 18.7 0 006.1-1.1 22.6 22.6 0 004.9-2.5l15.3 63.2a17.5 17.5 0 00-9 .8z"/><path d="M137.8 66l-1.8 5.8a29.3 29.3 0 0119.9 33.9l-13.7-4.3a15.1 15.1 0 00-29.5-6.2 15.2 15.2 0 007.1 17.8l-4.4 13.7a29.4 29.4 0 01-16.3-35.8 28.8 28.8 0 015-9.3l-4.7-3.8a35.3 35.3 0 0017 55.6l.9.2a3 3 0 002.9-2.1l6.1-19.3a3.1 3.1 0 00-.2-2.3 2.9 2.9 0 00-1.7-1.4 9.3 9.3 0 01-5.4-4.5 9.5 9.5 0 01-.6-7 8.7 8.7 0 014.5-5.4 9.5 9.5 0 017-.6 9.2 9.2 0 016 11.5 3 3 0 001.9 3.8l19.3 6.1a3 3 0 003.7-2 35.4 35.4 0 00-23-44.4z"/></svg>