<svg xmlns="http://www.w3.org/2000/svg" viewBox="0 0 170 170"><path d="M76.8 24.7h16.1v6H76.8zm-15.5 83.1h11.1v6H61.3zm36.4 0h11.1v6H97.7zm-18.3 0h11.1v6H79.4zm-18.1 14h11.1v6H61.3zm36.4 0h11.1v6H97.7zm-18.3 0h11.1v6H79.4zm-18.1 14h11.1v6H61.3zm36.4 0h11.1v6H97.7zm-18.3 0h11.1v6H79.4z"/><path d="M111.8 155.5H57.9a14 14 0 01-14-14v-113a14 14 0 0114-14h53.9a14 14 0 0114 14v113a14 14 0 01-14 14zm-53.9-135a8 8 0 00-8 8v113a8 8 0 008 8h53.9a8 8 0 008-8v-113a8 8 0 00-8-8z"/><path d="M108.7 99.8H61.3a3 3 0 01-3-3V39a3 3 0 013-3h47.5a3 3 0 013 3v57.8a3 3 0 01-3.1 3zm-44.5-6h41.5V42H64.3z"/><path d="M75.5 63.9a3.8 3.8 0 11-2.6-7.2L94 49a3.8 3.8 0 012.6 7.2zm0 11.5a3.8 3.8 0 01-2.6-7.2L94 60.4a3.8 3.8 0 012.6 7.2zm0 11.5a3.8 3.8 0 01-2.6-7.2L94 71.9a3.8 3.8 0 012.6 7.2z"/></svg>