<svg xmlns="http://www.w3.org/2000/svg" viewBox="0 0 170 170"><path d="M155.5 119.8a19.2 19.2 0 10-22.8 18.9 25.8 25.8 0 01-25.2 20.3h-4.8A25.8 25.8 0 0177 133.2V98.1a54.8 54.8 0 0051.7-54.7V22.9a3 3 0 00-3-3H113v6h9.8v17.5a48.7 48.7 0 11-97.5 0V25.9h9.8v-6H22.3a3 3 0 00-3 3v20.5A54.8 54.8 0 0071 98.1v35.2a31.8 31.8 0 0031.8 31.7h4.8a31.8 31.8 0 0031.3-26.2 19.2 19.2 0 0016.6-19zM136.3 133a13.2 13.2 0 1113.2-13.2 13.2 13.2 0 01-13.2 13.2z"/><path d="M71.9 52.3a3 3 0 004.2 0l19.2-19.1A16.5 16.5 0 0074 8a16.5 16.5 0 00-21.3 25.2zM57 14.1a10.5 10.5 0 0114.9 0 3.1 3.1 0 004.2 0 10.5 10.5 0 0114.9 0A10.5 10.5 0 0191 29L74 46 57 29a10.5 10.5 0 010-14.9z"/></svg>