<svg xmlns="http://www.w3.org/2000/svg" viewBox="0 0 170 170"><path d="M86.8 73.7L102 58.5a3 3 0 00.6-3.3 24 24 0 015.1-26.7 24.3 24.3 0 0120.1-6.9l-13.5 13.6a3 3 0 000 4.2L131 56a3 3 0 004.2 0l13.5-13.5a24.1 24.1 0 01-34.4 24.8 3 3 0 00-3.4.6l-7.2 7.2 4.2 4.2 5.8-5.8a30.1 30.1 0 0039.6-38 3 3 0 00-5-1.1l-15.2 15.3-12.4-12.4 15.2-15.2a3 3 0 00-1.1-5 30.3 30.3 0 00-31.3 7.1 30 30 0 00-7.1 31.4L82.6 69.5zm-55.3 73.6a6.4 6.4 0 01-9.1-9.1l51.1-51.1-4.2-4.2-51.2 51a12.4 12.4 0 0017.6 17.6l43.8-43.8-4.2-4.2z"/><path d="M102.4 84.8a3 3 0 00-4.2 0l-4.5 4.5-44.5-44.4-1-13.3a3 3 0 00-.9-1.9L33.4 15.9a3 3 0 00-4.2 0L15.9 29.2a3 3 0 000 4.2l13.8 13.9a3 3 0 001.9.9l13.3 1 44.4 44.4-4.5 4.5a3 3 0 000 4.2l48.5 48.5a12.4 12.4 0 0017.6-17.6zM33.2 42.3l-11-11 9.1-9.1 11 11L43 43zm113.4 104.3a6.4 6.4 0 01-9.1 0l-46.3-46.3 9.1-9.1 46.4 46.4a6.4 6.4 0 01-.1 9z"/></svg>