<svg xmlns="http://www.w3.org/2000/svg" viewBox="0 0 170 170"><path d="M39.5 72.8A17.5 17.5 0 1157 55.3a17.5 17.5 0 01-17.5 17.5zm0-29A11.5 11.5 0 1051 55.3a11.5 11.5 0 00-11.5-11.5zm25 121.1h-6V99.3a11.3 11.3 0 00-11.1-11.5H31.7a11.3 11.3 0 00-11.2 11.4v65.6h-6V99.3a17.4 17.4 0 0117.2-17.5h15.5a17.4 17.4 0 0117.3 17.5zm99.4-106.2l-38.6-31.3 4.7-4.7a10.2 10.2 0 003-7.4 10.2 10.2 0 10-20.4 0h6a4.2 4.2 0 018.4-.1v.3a4.2 4.2 0 01-1.2 3.2l-48 40.2a3 3 0 001.8 5.1H162a3 3 0 001.9-5.3zM88 58l32.7-26.5L153.5 58z"/></svg>