<svg xmlns="http://www.w3.org/2000/svg" viewBox="0 0 170 170"><path d="M132.4 151.2H38a3 3 0 00-3 3v10.9h6v-7.9h88.4v7.9h6v-10.9a3 3 0 00-3-3zM82.2 5.1h6v126.17h-6zM56.8 85.4v-.2a3 3 0 00-.6-1.8L37.1 39.1h40.3v-6H32.5a3 3 0 00-2.8 1.8L8.8 83.3a3 3 0 00-.6 1.8v.2a24.3 24.3 0 0048.6 0zM32.5 43.7l16.7 38.4H15.9zm0 59.8a18.3 18.3 0 01-18-15.4h36.1a18.3 18.3 0 01-18.1 15.3zm129-20.2l-21-48.4a3 3 0 00-2.8-1.8H92.8v6h40.5l-19.2 44.2a3 3 0 00-.6 1.8v.2a24.3 24.3 0 0048.6 0v-.2a3 3 0 00-.6-1.8zm-7.1-1.2h-33.2l16.7-38.4zm-16.7 21.3a18.3 18.3 0 01-18.1-15.3h36.1a18.3 18.3 0 01-17.9 15.3zm-85.2 36.1h65.2v6H52.5z"/></svg>