<svg xmlns="http://www.w3.org/2000/svg" viewBox="0 0 170 170"><path d="M162 60.6a2.9 2.9 0 003-3V11a2.9 2.9 0 00-3-3H8a2.9 2.9 0 00-3 3v46.6a2.9 2.9 0 003 3h74v10.3H8a3 3 0 00-3 3v46.7a3 3 0 003 3h74v7.4a15.7 15.7 0 00-12.4 12.3H17.5v6h52.1a15.7 15.7 0 0030.8 0h52.1v-6h-52.1A15.7 15.7 0 0088 131v-7.4h74a3 3 0 003-3V73.9a3 3 0 00-3-3H88V60.6zm-67.3 85.7a9.7 9.7 0 11-9.7-9.6 9.7 9.7 0 019.7 9.6zm64.3-28.7H11V76.9h148zM11 14h148v40.6H11z"/><path d="M24.1 24.3h23.4v6H24.1zm0 14.2h23.4v6H24.1zM140 28.7h6v11.29h-6zM24.1 87.2h23.4v6H24.1zm0 14.3h23.4v6H24.1zM140 91.6h6v11.29h-6z"/></svg>