<svg xmlns="http://www.w3.org/2000/svg" viewBox="0 0 170 170"><path d="M68.1 66.4h50.6v6H68.1z"/><path d="M126.2 164.8H102a3 3 0 01-3-3V146H80.9v15.8a3 3 0 01-3 3H53.7a3 3 0 01-3-3v-18.1a51.3 51.3 0 01-34-34H8a3 3 0 01-3-3V82.5a3 3 0 013-3h8.7a51.5 51.5 0 0128.7-32V28.9a3 3 0 013-3 20.4 20.4 0 0120.2 17.4h12.7v6H65.8a3 3 0 01-3-3 14.4 14.4 0 00-11.4-14v17.2a3 3 0 01-1.9 2.8 45.4 45.4 0 00-27.6 31 3 3 0 01-2.9 2.3h-8v18.2h7.9a3 3 0 012.9 2.3 45.3 45.3 0 0032.6 32.6 3 3 0 012.3 2.9V159h18.2v-16a3 3 0 013-3H102a3 3 0 013 3v15.8h18.2v-16.2a3 3 0 012.2-2.9l3.1-1a46.1 46.1 0 00-5.4-88.3l1.3-5.9a52.1 52.1 0 016.1 99.8l-1.4.5v17a3 3 0 01-2.9 3z"/><path d="M81.6 32.7a13.8 13.8 0 1113.8-13.9 13.9 13.9 0 01-13.8 13.9zm0-21.7a7.8 7.8 0 107.8 7.8 7.8 7.8 0 00-7.8-7.8zm20.9 48a13.8 13.8 0 1113.8-13.8A13.9 13.9 0 01102.5 59zm0-21.7a7.8 7.8 0 107.8 7.8 7.8 7.8 0 00-7.8-7.7z"/></svg>