<svg xmlns="http://www.w3.org/2000/svg" viewBox="0 0 170 170"><path d="M32.1 105.8h6v37.97h-6zm116-12.1h-12.6v-9.5h-6v37.7H67.6V84.2h-6v9.6H49a3 3 0 00-3 3V153a3 3 0 003 3h12.6v9.6h6v-37.8h61.8v37.7h6v-9.6h12.7a3 3 0 003-3V96.7a3 3 0 00-3-3zM52 149.9V99.7h9.7v50.2zm93.2 0h-9.7V99.7h9.7zm13.8-44.1h6v37.97h-6z"/><path d="M77.9 49.4V36.3a11 11 0 00-11-11h-26a11 11 0 00-11 11V49a48.4 48.4 0 00-6.8 79.8l3.8-4.7a42.4 42.4 0 1163.9-12.8l5.3 2.9a48.4 48.4 0 00-18.2-64.8zm-42-3.3v-9.8a5 5 0 015-5h26a5 5 0 015 5v10.1a48.3 48.3 0 00-35.9-.3z"/></svg>