<svg xmlns="http://www.w3.org/2000/svg" viewBox="0 0 170 170"><path d="M24.1 64.6v-2.3c0-11.7 6-16.9 13-16.9s13 5.2 13 16.9v2.3c0 11.7-6 16.9-13 16.9s-13-5.2-13-16.9zm18.6-.1v-2c0-7.7-2.3-10.5-5.5-10.5s-5.5 2.8-5.5 10.5v2c0 7.7 2.3 10.5 5.5 10.5s5.5-2.9 5.5-10.6zm29.3.1v-2.3c0-11.7 6-16.9 13-16.9s13 5.2 13 16.9v2.3c0 11.7-6 16.9-13 16.9s-13-5.2-13-16.9zm18.6-.1v-2c0-7.7-2.3-10.5-5.5-10.5s-5.5 2.8-5.5 10.5v2C79.5 72.1 81.7 75 85 75s5.5-2.9 5.5-10.6zm46.3-7.3l3.8 5.3-4.1 3-3.9-5.4-3.8 5.3-4.1-2.9 3.9-5.4-6.3-2 1.5-4.8 6.3 2v-6.4h5v6.6l6.3-2 1.5 4.8zm-95.7 54.3l3.8 5.3-4.1 3-3.9-5.4-3.8 5.3-4.1-2.9 3.9-5.4-6.3-2 1.5-4.8 6.3 2V100h5v6.6l6.3-2 1.5 4.8zm47.9 0l3.8 5.3-4.1 3-3.8-5.3-3.8 5.3-4.1-2.9 3.9-5.4-6.3-2 1.5-4.8 6.3 2v-6.6h5v6.6l6.3-2 1.5 4.8zm47.8 0l3.8 5.3-4.1 3-3.9-5.4-3.8 5.3-4.1-2.9 3.9-5.4-6.3-2 1.5-4.8 6.3 2V100h5v6.6l6.3-2 1.5 4.8z"/></svg>