<svg xmlns="http://www.w3.org/2000/svg" viewBox="0 0 170 170"><path d="M89.6 50.7A14.7 14.7 0 11104.3 36a14.7 14.7 0 01-14.7 14.7zm0-23.4a8.7 8.7 0 108.7 8.7 8.7 8.7 0 00-8.7-8.7zM71.2 148.7h-.6a36.1 36.1 0 01-10.2-70.6l1.8 5.7a30.1 30.1 0 1037.1 39.7l5.6 2.2a36.3 36.3 0 01-33.7 23z"/><path d="M131.9 109.8h-21.5V71.5a14.6 14.6 0 00-14.5-14.7H83.4a14.6 14.6 0 00-14.5 14.7v29.6a14.7 14.7 0 0014.7 14.7h28.5v32.9h6v-32.9h10.8v32.9h6v-35.9a3 3 0 00-3-3zm-27.5 0H83.6a8.7 8.7 0 01-8.7-8.7V71.5a8.6 8.6 0 018.5-8.6h12.5a8.6 8.6 0 018.5 8.6z"/></svg>